{"accessors":[{"bufferView":0,"componentType":5126,"count":503891,"max":[4.3277177810668945,2.5462207794189453,16.1507511138916],"min":[-4.3277177810668945,-8.2783203125,-17.003400802612305],"normalized":false,"type":"VEC3"},{"bufferView":1,"componentType":5126,"count":503891,"max":[0.9999997615814209,0.9999998807907104,1.0,1.0],"min":[-1.0,-1.0000001192092896,-1.0000001192092896,1.0],"normalized":false,"type":"VEC4"},{"bufferView":2,"componentType":5126,"count":503891,"max":[1.0,1.0,1.0],"min":[-1.0,-1.0,-1.0],"normalized":false,"type":"VEC3"},{"bufferView":3,"componentType":5126,"count":503891,"max":[0.9883878827095032,0.9793240427970886],"min":[0.021744105964899063,0.0028992141596972942],"normalized":false,"type":"VEC2"},{"bufferView":4,"componentType":5125,"count":1637904,"max":[503890],"min":[0],"normalized":false,"type":"SCALAR"},{"bufferView":5,"componentType":5126,"count":188361,"max":[4.294803142547607,2.5462217330932617,3.64404296875],"min":[-4.305588245391846,-8.278321266174316,-4.237339019775391],"normalized":false,"type":"VEC3"},{"bufferView":6,"componentType":5126,"count":188361,"max":[1.0,0.9999890327453613,1.0,1.0],"min":[-1.0,-0.9999880194664001,-1.0000001192092896,-1.0],"normalized":false,"type":"VEC4"},{"bufferView":7,"componentType":5126,"count":188361,"max":[1.0,1.0,1.0],"min":[-1.0,-1.0,-1.0],"normalized":false,"type":"VEC3"},{"bufferView":8,"componentType":5126,"count":188361,"max":[0.9847803711891174,1.0],"min":[-1.5026555956865195e-05,-1.52587890625e-05],"normalized":false,"type":"VEC2"},{"bufferView":9,"componentType":5125,"count":608628,"max":[188360],"min":[0],"normalized":false,"type":"SCALAR"},{"bufferView":10,"componentType":5126,"count":217516,"max":[4.3277177810668945,2.5462207794189453,16.150753021240234],"min":[-4.3277177810668945,-8.2783203125,3.513822555541992],"normalized":false,"type":"VEC3"},{"bufferView":11,"componentType":5126,"count":217516,"max":[0.9999997615814209,0.9999998807907104,1.0,1.0],"min":[-1.0,-1.0000001192092896,-1.0000001192092896,-1.0],"normalized":false,"type":"VEC4"},{"bufferView":12,"componentType":5126,"count":217516,"max":[1.0,1.0,1.0],"min":[-1.0,-1.0,-1.0],"normalized":false,"type":"VEC3"},{"bufferView":13,"componentType":5126,"count":217516,"max":[0.9883726239204407,1.0],"min":[0.0,0.0033264667727053165],"normalized":false,"type":"VEC2"},{"bufferView":14,"componentType":5125,"count":706116,"max":[217515],"min":[0],"normalized":false,"type":"SCALAR"}],"asset":{"generator":"Godot Engine v4.6.1.stable.official@14d19694e0c88a3f9e82d899a0400f27a24c176e","version":"2.0"},"bufferViews":[{"buffer":0,"byteLength":6046692,"byteStride":12,"target":34962},{"buffer":0,"byteLength":8062256,"byteOffset":6046692,"byteStride":16,"target":34962},{"buffer":0,"byteLength":6046692,"byteOffset":14108948,"byteStride":12,"target":34962},{"buffer":0,"byteLength":4031128,"byteOffset":20155640,"byteStride":8,"target":34962},{"buffer":0,"byteLength":6551616,"byteOffset":24186768,"target":34963},{"buffer":0,"byteLength":2260332,"byteOffset":30738384,"byteStride":12,"target":34962},{"buffer":0,"byteLength":3013776,"byteOffset":32998716,"byteStride":16,"target":34962},{"buffer":0,"byteLength":2260332,"byteOffset":36012492,"byteStride":12,"target":34962},{"buffer":0,"byteLength":1506888,"byteOffset":38272824,"byteStride":8,"target":34962},{"buffer":0,"byteLength":2434512,"byteOffset":39779712,"target":34963},{"buffer":0,"byteLength":2610192,"byteOffset":42214224,"byteStride":12,"target":34962},{"buffer":0,"byteLength":3480256,"byteOffset":44824416,"byteStride":16,"target":34962},{"buffer":0,"byteLength":2610192,"byteOffset":48304672,"byteStride":12,"target":34962},{"buffer":0,"byteLength":1740128,"byteOffset":50914864,"byteStride":8,"target":34962},{"buffer":0,"byteLength":2824464,"byteOffset":52654992,"target":34963}],"buffers":[{"byteLength":55479456,"uri":"docks0.bin"}],"extensions":{"OMI_physics_shape":{"shapes":[{"box":{"size":[8.327545166015625,8.629913330078125,33.265220642089844]},"type":"box"},{"box":{"size":[0.499267578125,1.2099609375,33.087615966796875]},"type":"box"},{"box":{"size":[0.4306640625,1.1885986328125,33.022979736328125]},"type":"box"},{"box":{"size":[8.600391387939453,9.099406242370605,7.881381988525391]},"type":"box"},{"box":{"size":[0.5684814453125,1.1632080078125,8.0103759765625]},"type":"box"},{"box":{"size":[8.6014404296875,1.15966796875,0.6456298828125]},"type":"box"},{"box":{"size":[8.655435562133789,8.757165908813477,12.636930465698242]},"type":"box"},{"box":{"size":[0.51513671875,1.31005859375,12.5926513671875]},"type":"box"},{"box":{"size":[0.56744384765625,1.1680908203125,12.598297119140625]},"type":"box"}]}},"extensionsUsed":["GODOT_single_root","OMI_physics_body","OMI_physics_shape"],"images":[{"uri":"textures%2F.png"},{"name":"AsgardDocks_DockNormals","uri":"textures%2FAsgardDocks_DockNormals.png"},{"uri":"textures%2F.png"},{"name":"AsgardCornerDocks_DocksCornerNormals","uri":"textures%2FAsgardCornerDocks_DocksCornerNormals.png"},{"uri":"textures%2F.png"},{"name":"AsgardSmallDocks_DockNormals","uri":"textures%2FAsgardSmallDocks_DockNormals.png"}],"materials":[{"doubleSided":true,"name":"Material","normalTexture":{"index":1,"scale":1.0},"pbrMetallicRoughness":{"baseColorFactor":[1.0,1.0,1.0,1.0],"baseColorTexture":{"index":0},"metallicFactor":0.0,"roughnessFactor":0.5}},{"doubleSided":true,"name":"Material_001","normalTexture":{"index":3,"scale":1.0},"pbrMetallicRoughness":{"baseColorFactor":[1.0,1.0,1.0,1.0],"baseColorTexture":{"index":2},"metallicFactor":0.0,"roughnessFactor":0.5}},{"doubleSided":true,"name":"Material_0012","normalTexture":{"index":5,"scale":1.0},"pbrMetallicRoughness":{"baseColorFactor":[1.0,1.0,1.0,1.0],"baseColorTexture":{"index":4},"metallicFactor":0.0,"roughnessFactor":0.5}}],"meshes":[{"name":"AsgardDocks_Cube_002","primitives":[{"attributes":{"NORMAL":2,"POSITION":0,"TANGENT":1,"TEXCOORD_0":3},"indices":4,"material":0,"mode":4}]},{"name":"AsgardCornerDocks_Cube_005","primitives":[{"attributes":{"NORMAL":7,"POSITION":5,"TANGENT":6,"TEXCOORD_0":8},"indices":9,"material":1,"mode":4}]},{"name":"AsgardCornerDocks_Cube_0052","primitives":[{"attributes":{"NORMAL":7,"POSITION":5,"TANGENT":6,"TEXCOORD_0":8},"indices":9,"material":1,"mode":4}]},{"name":"AsgardCornerDocks_Cube_0053","primitives":[{"attributes":{"NORMAL":7,"POSITION":5,"TANGENT":6,"TEXCOORD_0":8},"indices":9,"material":1,"mode":4}]},{"name":"AsgardCornerDocks_Cube_0054","primitives":[{"attributes":{"NORMAL":7,"POSITION":5,"TANGENT":6,"TEXCOORD_0":8},"indices":9,"material":1,"mode":4}]},{"name":"AsgardDocks_Cube_0022","primitives":[{"attributes":{"NORMAL":2,"POSITION":0,"TANGENT":1,"TEXCOORD_0":3},"indices":4,"material":0,"mode":4}]},{"name":"AsgardSmallDocks_Cube_002","primitives":[{"attributes":{"NORMAL":12,"POSITION":10,"TANGENT":11,"TEXCOORD_0":13},"indices":14,"material":2,"mode":4}]},{"name":"AsgardSmallDocks_Cube_0022","primitives":[{"attributes":{"NORMAL":12,"POSITION":10,"TANGENT":11,"TEXCOORD_0":13},"indices":14,"material":2,"mode":4}]},{"name":"AsgardSmallDocks_Cube_0023","primitives":[{"attributes":{"NORMAL":12,"POSITION":10,"TANGENT":11,"TEXCOORD_0":13},"indices":14,"material":2,"mode":4}]}],"nodes":[{"children":[1,7,13,19,25,31,37,43,49],"name":"Docks"},{"children":[2],"name":"AsgardDocks","translation":[-3.4460525512695313,-6.111778259277344,-62.17101287841797]},{"children":[3],"mesh":0,"name":"DockStraight","scale":[5.5,5.5,5.5]},{"children":[4,5,6],"extensions":{"OMI_physics_body":{"motion":{"type":"static"}}},"name":"StaticBody3D","translation":[0.0,-2.8660497665405273,-0.42632484436035156]},{"extensions":{"OMI_physics_body":{"collider":{"shape":0}}},"name":"CollisionShape3D","translation":[0.0064544677734375,-0.06026744842529297,-0.000644683837890625]},{"extensions":{"OMI_physics_body":{"collider":{"shape":1}}},"name":"CollisionShape3D2","translation":[3.9621617794036865,4.8320159912109375,-0.005935847759246826]},{"extensions":{"OMI_physics_body":{"collider":{"shape":2}}},"name":"CollisionShape3D3","translation":[-3.9081342220306396,4.823117256164551,-0.038772761821746826]},{"children":[8],"name":"AsgardCornerDocks","translation":[-3.6410000324249268,-6.111999988555908,-175.185302734375]},{"children":[9],"mesh":1,"name":"DockCorner","scale":[5.5,5.5,5.5]},{"children":[10,11,12],"extensions":{"OMI_physics_body":{"motion":{"type":"static"}}},"name":"StaticBody3D2","translation":[-0.005392551422119141,-2.8660497665405273,-0.2966480255126953]},{"extensions":{"OMI_physics_body":{"collider":{"shape":3}}},"name":"CollisionShape3D4","translation":[0.0,-0.2930295467376709,0.0]},{"extensions":{"OMI_physics_body":{"collider":{"shape":4}}},"name":"CollisionShape3D22","translation":[-3.9917426109313965,4.8189544677734375,-0.04461669921875]},{"extensions":{"OMI_physics_body":{"collider":{"shape":5}}},"name":"CollisionShape3D32","translation":[-0.009338595904409885,4.824501037597656,-3.6427810192108154]},{"children":[14],"name":"AsgardCornerDocks3","rotation":[0.0,1.0,0.0,7.549790126404332e-08],"translation":[105.75198364257813,-6.111999988555908,-171.1953887939453]},{"children":[15],"mesh":2,"name":"DockCorner2","scale":[5.5,5.5,5.5]},{"children":[16,17,18],"extensions":{"OMI_physics_body":{"motion":{"type":"static"}}},"name":"StaticBody3D3","translation":[-0.005392551422119141,-2.8660497665405273,-0.2966480255126953]},{"extensions":{"OMI_physics_body":{"collider":{"shape":3}}},"name":"CollisionShape3D5","translation":[0.0,-0.2930295467376709,0.0]},{"extensions":{"OMI_physics_body":{"collider":{"shape":4}}},"name":"CollisionShape3D23","translation":[-3.9917426109313965,4.8189544677734375,-0.04461669921875]},{"extensions":{"OMI_physics_body":{"collider":{"shape":5}}},"name":"CollisionShape3D33","translation":[-0.009338595904409885,4.824501037597656,-3.6427810192108154]},{"children":[20],"name":"AsgardCornerDocks4","rotation":[0.0,-0.7071067690849304,0.0,0.7071067690849304],"translation":[106.14226531982422,-6.111999988555908,-280.1426696777344]},{"children":[21],"mesh":3,"name":"DockCorner3","scale":[5.5,5.5,5.5]},{"children":[22,23,24],"extensions":{"OMI_physics_body":{"motion":{"type":"static"}}},"name":"StaticBody3D4","translation":[-0.005392551422119141,-2.8660497665405273,-0.2966480255126953]},{"extensions":{"OMI_physics_body":{"collider":{"shape":3}}},"name":"CollisionShape3D6","translation":[0.0,-0.2930295467376709,0.0]},{"extensions":{"OMI_physics_body":{"collider":{"shape":4}}},"name":"CollisionShape3D24","translation":[-3.9917426109313965,4.8189544677734375,-0.04461669921875]},{"extensions":{"OMI_physics_body":{"collider":{"shape":5}}},"name":"CollisionShape3D34","translation":[-0.009338595904409885,4.824501037597656,-3.6427810192108154]},{"children":[26],"name":"AsgardCornerDocks2","rotation":[0.0,0.7071067690849304,0.0,0.7071067690849304],"translation":[0.8866081237792969,-6.111999988555908,-279.9012756347656]},{"children":[27],"mesh":4,"name":"DockCorner4","scale":[5.5,5.5,5.5]},{"children":[28,29,30],"extensions":{"OMI_physics_body":{"motion":{"type":"static"}}},"name":"StaticBody3D5","translation":[-0.005392551422119141,-2.8660497665405273,-0.2966480255126953]},{"extensions":{"OMI_physics_body":{"collider":{"shape":3}}},"name":"CollisionShape3D7","translation":[0.0,-0.2930295467376709,0.0]},{"extensions":{"OMI_physics_body":{"collider":{"shape":4}}},"name":"CollisionShape3D25","translation":[-3.9917426109313965,4.8189544677734375,-0.04461669921875]},{"extensions":{"OMI_physics_body":{"collider":{"shape":5}}},"name":"CollisionShape3D35","translation":[-0.009338595904409885,4.824501037597656,-3.6427810192108154]},{"children":[32],"name":"AsgardDocks2","translation":[1.1191902160644531,-6.111778259277344,-377.1346130371094]},{"children":[33],"mesh":5,"name":"DockStraight2","scale":[5.5,5.5,5.5]},{"children":[34,35,36],"extensions":{"OMI_physics_body":{"motion":{"type":"static"}}},"name":"StaticBody3D6","translation":[0.0,-2.8660497665405273,-0.42632484436035156]},{"extensions":{"OMI_physics_body":{"collider":{"shape":0}}},"name":"CollisionShape3D8","translation":[0.0064544677734375,-0.06026744842529297,-0.000644683837890625]},{"extensions":{"OMI_physics_body":{"collider":{"shape":1}}},"name":"CollisionShape3D26","translation":[3.9621617794036865,4.8320159912109375,-0.005935847759246826]},{"extensions":{"OMI_physics_body":{"collider":{"shape":2}}},"name":"CollisionShape3D36","translation":[-3.9081342220306396,4.823117256164551,-0.038772761821746826]},{"children":[38],"name":"AsgardSmallDocks","rotation":[0.0,0.7071067690849304,0.0,0.7071067690849304],"translation":[51.915348052978516,-6.111992359161377,-171.54425048828125]},{"children":[39],"mesh":6,"name":"DockStraight3","scale":[5.5,5.5,5.5],"translation":[0.0,0.0,-54.37455749511719]},{"children":[40,41,42],"extensions":{"OMI_physics_body":{"motion":{"type":"static"}}},"name":"StaticBody3D7","translation":[0.0,-2.8660497665405273,9.832287788391113]},{"extensions":{"OMI_physics_body":{"collider":{"shape":6}}},"name":"CollisionShape3D9","translation":[0.0,-0.13297748565673828,0.0]},{"extensions":{"OMI_physics_body":{"collider":{"shape":7}}},"name":"CollisionShape3D27","translation":[3.9580342769622803,4.748015403747559,0.00079345703125]},{"extensions":{"OMI_physics_body":{"collider":{"shape":8}}},"name":"CollisionShape3D37","translation":[-3.9961371421813965,4.835029602050781,0.016983207315206528]},{"children":[44],"name":"AsgardSmallDocks2","translation":[105.67002868652344,-6.111992359161377,-225.61500549316406]},{"children":[45],"mesh":7,"name":"DockStraight4","scale":[5.5,5.5,5.5],"translation":[0.0,0.0,-54.37455749511719]},{"children":[46,47,48],"extensions":{"OMI_physics_body":{"motion":{"type":"static"}}},"name":"StaticBody3D8","translation":[0.0,-2.8660497665405273,9.832287788391113]},{"extensions":{"OMI_physics_body":{"collider":{"shape":6}}},"name":"CollisionShape3D10","translation":[0.0,-0.13297748565673828,0.0]},{"extensions":{"OMI_physics_body":{"collider":{"shape":7}}},"name":"CollisionShape3D28","translation":[3.9580342769622803,4.748015403747559,0.00079345703125]},{"extensions":{"OMI_physics_body":{"collider":{"shape":8}}},"name":"CollisionShape3D38","translation":[-3.9961371421813965,4.835029602050781,0.016983207315206528]},{"children":[50],"name":"AsgardSmallDocks3","rotation":[0.0,0.7071067690849304,0.0,0.7071067690849304],"translation":[51.92145919799805,-6.111992359161377,-280.13800048828125]},{"children":[51],"mesh":8,"name":"DockStraight5","scale":[5.5,5.5,5.5],"translation":[0.0,0.0,-54.37455749511719]},{"children":[52,53,54],"extensions":{"OMI_physics_body":{"motion":{"type":"static"}}},"name":"StaticBody3D9","translation":[0.0,-2.8660497665405273,9.832287788391113]},{"extensions":{"OMI_physics_body":{"collider":{"shape":6}}},"name":"CollisionShape3D11","translation":[0.0,-0.13297748565673828,0.0]},{"extensions":{"OMI_physics_body":{"collider":{"shape":7}}},"name":"CollisionShape3D29","translation":[3.9580342769622803,4.748015403747559,0.00079345703125]},{"extensions":{"OMI_physics_body":{"collider":{"shape":8}}},"name":"CollisionShape3D39","translation":[-3.9961371421813965,4.835029602050781,0.016983207315206528]}],"samplers":[{"magFilter":9729,"minFilter":9987,"wrapS":10497,"wrapT":10497}],"scene":0,"scenes":[{"nodes":[0]}],"textures":[{"sampler":0,"source":0},{"sampler":0,"source":1},{"sampler":0,"source":2},{"sampler":0,"source":3},{"sampler":0,"source":4},{"sampler":0,"source":5}]}