{
	"asset":{
		"generator":"Khronos glTF Blender I/O v5.0.21",
		"version":"2.0"
	},
	"scene":0,
	"scenes":[
		{
			"name":"Scene",
			"nodes":[
				0,
				1
			]
		}
	],
	"nodes":[
		{
			"mesh":0,
			"name":"Rock_Medium_4"
		},
		{
			"mesh":1,
			"name":"Rock_Medium_4.colonly"
		}
	],
	"materials":[
		{
			"doubleSided":true,
			"name":"Rocks.006",
			"pbrMetallicRoughness":{
				"baseColorTexture":{
					"index":0
				},
				"metallicFactor":0
			}
		},
		{
			"doubleSided":true,
			"name":"Rocks.007",
			"pbrMetallicRoughness":{
				"baseColorTexture":{
					"index":1
				},
				"metallicFactor":0
			}
		}
	],
	"meshes":[
		{
			"name":"Cube.003_Retopology.001",
			"primitives":[
				{
					"attributes":{
						"POSITION":0,
						"NORMAL":1,
						"TEXCOORD_0":2
					},
					"indices":3,
					"material":0
				}
			]
		},
		{
			"name":"Cube.003_Retopology.002",
			"primitives":[
				{
					"attributes":{
						"POSITION":4,
						"NORMAL":5,
						"TEXCOORD_0":6
					},
					"indices":3,
					"material":1
				}
			]
		}
	],
	"textures":[
		{
			"sampler":0,
			"source":0
		},
		{
			"sampler":0,
			"source":0
		}
	],
	"images":[
		{
			"mimeType":"image/png",
			"name":"Rocks_Diffuse",
			"uri":"Rocks_Diffuse.png"
		}
	],
	"accessors":[
		{
			"bufferView":0,
			"componentType":5126,
			"count":475,
			"max":[
				2.3205838203430176,
				1.965888261795044,
				1.8969775438308716
			],
			"min":[
				-1.4623501300811768,
				-0.5166676044464111,
				-1.7085124254226685
			],
			"type":"VEC3"
		},
		{
			"bufferView":1,
			"componentType":5126,
			"count":475,
			"type":"VEC3"
		},
		{
			"bufferView":2,
			"componentType":5126,
			"count":475,
			"type":"VEC2"
		},
		{
			"bufferView":3,
			"componentType":5123,
			"count":1200,
			"type":"SCALAR"
		},
		{
			"bufferView":4,
			"componentType":5126,
			"count":475,
			"max":[
				2.3205838203430176,
				1.965888261795044,
				1.8969775438308716
			],
			"min":[
				-1.4623501300811768,
				-0.5166676044464111,
				-1.7085124254226685
			],
			"type":"VEC3"
		},
		{
			"bufferView":5,
			"componentType":5126,
			"count":475,
			"type":"VEC3"
		},
		{
			"bufferView":6,
			"componentType":5126,
			"count":475,
			"type":"VEC2"
		}
	],
	"bufferViews":[
		{
			"buffer":0,
			"byteLength":5700,
			"byteOffset":0,
			"target":34962
		},
		{
			"buffer":0,
			"byteLength":5700,
			"byteOffset":5700,
			"target":34962
		},
		{
			"buffer":0,
			"byteLength":3800,
			"byteOffset":11400,
			"target":34962
		},
		{
			"buffer":0,
			"byteLength":2400,
			"byteOffset":15200,
			"target":34963
		},
		{
			"buffer":0,
			"byteLength":5700,
			"byteOffset":17600,
			"target":34962
		},
		{
			"buffer":0,
			"byteLength":5700,
			"byteOffset":23300,
			"target":34962
		},
		{
			"buffer":0,
			"byteLength":3800,
			"byteOffset":29000,
			"target":34962
		}
	],
	"samplers":[
		{
			"magFilter":9729,
			"minFilter":9987
		}
	],
	"buffers":[
		{
			"byteLength":32800,
			"uri":"Rock_Medium_4.bin"
		}
	]
}
