{
	"asset":{
		"generator":"Khronos glTF Blender I/O v5.0.21",
		"version":"2.0"
	},
	"scene":0,
	"scenes":[
		{
			"name":"Scene",
			"nodes":[
				0,
				1
			]
		}
	],
	"nodes":[
		{
			"mesh":0,
			"name":"Cylinder",
			"scale":[
				2.5455210208892822,
				2.5455210208892822,
				2.5455210208892822
			]
		},
		{
			"mesh":1,
			"name":"Cylinder.colonly",
			"rotation":[
				-0.7042822241783142,
				-0.002563385060057044,
				-0.019447138532996178,
				0.7096490859985352
			],
			"scale":[
				2.364180564880371,
				14.435924530029297,
				2.325199842453003
			],
			"translation":[
				0,
				2.608375072479248,
				0
			]
		}
	],
	"materials":[
		{
			"doubleSided":true,
			"name":"Material.001",
			"pbrMetallicRoughness":{
				"baseColorTexture":{
					"index":0
				},
				"metallicFactor":0,
				"roughnessFactor":0.5
			}
		}
	],
	"meshes":[
		{
			"name":"Cylinder.002",
			"primitives":[
				{
					"attributes":{
						"POSITION":0,
						"NORMAL":1,
						"TEXCOORD_0":2
					},
					"indices":3,
					"material":0
				}
			]
		},
		{
			"name":"Cylinder",
			"primitives":[
				{
					"attributes":{
						"POSITION":4,
						"NORMAL":5,
						"TEXCOORD_0":6
					},
					"indices":7
				}
			]
		}
	],
	"textures":[
		{
			"sampler":0,
			"source":0
		}
	],
	"images":[
		{
			"mimeType":"image/png",
			"name":"Logtextures",
			"uri":"Logtextures.png"
		}
	],
	"accessors":[
		{
			"bufferView":0,
			"componentType":5126,
			"count":2183,
			"max":[
				0.9942065477371216,
				2.012985944747925,
				6.117471218109131
			],
			"min":[
				-1.0106983184814453,
				0.019811391830444336,
				-5.880958557128906
			],
			"type":"VEC3"
		},
		{
			"bufferView":1,
			"componentType":5126,
			"count":2183,
			"type":"VEC3"
		},
		{
			"bufferView":2,
			"componentType":5126,
			"count":2183,
			"type":"VEC2"
		},
		{
			"bufferView":3,
			"componentType":5123,
			"count":9078,
			"type":"SCALAR"
		},
		{
			"bufferView":4,
			"componentType":5126,
			"count":192,
			"max":[
				1,
				1,
				1
			],
			"min":[
				-1,
				-1,
				-1
			],
			"type":"VEC3"
		},
		{
			"bufferView":5,
			"componentType":5126,
			"count":192,
			"type":"VEC3"
		},
		{
			"bufferView":6,
			"componentType":5126,
			"count":192,
			"type":"VEC2"
		},
		{
			"bufferView":7,
			"componentType":5123,
			"count":372,
			"type":"SCALAR"
		}
	],
	"bufferViews":[
		{
			"buffer":0,
			"byteLength":26196,
			"byteOffset":0,
			"target":34962
		},
		{
			"buffer":0,
			"byteLength":26196,
			"byteOffset":26196,
			"target":34962
		},
		{
			"buffer":0,
			"byteLength":17464,
			"byteOffset":52392,
			"target":34962
		},
		{
			"buffer":0,
			"byteLength":18156,
			"byteOffset":69856,
			"target":34963
		},
		{
			"buffer":0,
			"byteLength":2304,
			"byteOffset":88012,
			"target":34962
		},
		{
			"buffer":0,
			"byteLength":2304,
			"byteOffset":90316,
			"target":34962
		},
		{
			"buffer":0,
			"byteLength":1536,
			"byteOffset":92620,
			"target":34962
		},
		{
			"buffer":0,
			"byteLength":744,
			"byteOffset":94156,
			"target":34963
		}
	],
	"samplers":[
		{
			"magFilter":9729,
			"minFilter":9987
		}
	],
	"buffers":[
		{
			"byteLength":94900,
			"uri":"log.bin"
		}
	]
}
