{
	"asset":{
		"generator":"Khronos glTF Blender I/O v4.0.44",
		"version":"2.0"
	},
	"scene":0,
	"scenes":[
		{
			"name":"Scene",
			"nodes":[
				2
			]
		}
	],
	"nodes":[
		{
			"mesh":0,
			"name":"Anvil_1-convcolonly"
		},
		{
			"mesh":1,
			"name":"Anvil_2-convcolonly"
		},
		{
			"children":[
				0,
				1
			],
			"mesh":2,
			"name":"Anvil"
		}
	],
	"materials":[
		{
			"doubleSided":true,
			"name":"Collision",
			"pbrMetallicRoughness":{
				"baseColorFactor":[
					0.047601714730262756,
					0.17601831257343292,
					0.8000785112380981,
					1
				],
				"metallicFactor":0,
				"roughnessFactor":0.5
			}
		},
		{
			"doubleSided":true,
			"name":"MI_Trim_Metal",
			"normalTexture":{
				"index":0
			},
			"pbrMetallicRoughness":{
				"baseColorTexture":{
					"index":1
				},
				"metallicRoughnessTexture":{
					"index":2
				}
			}
		}
	],
	"meshes":[
		{
			"name":"Cube.102",
			"primitives":[
				{
					"attributes":{
						"POSITION":0,
						"NORMAL":1,
						"TEXCOORD_0":2
					},
					"indices":3,
					"material":0
				}
			]
		},
		{
			"name":"Cube.104",
			"primitives":[
				{
					"attributes":{
						"POSITION":4,
						"NORMAL":5,
						"TEXCOORD_0":6
					},
					"indices":7,
					"material":0
				}
			]
		},
		{
			"name":"Cube.025",
			"primitives":[
				{
					"attributes":{
						"POSITION":8,
						"NORMAL":9,
						"TEXCOORD_0":10
					},
					"indices":11,
					"material":1
				},
				{
					"attributes":{
						"POSITION":12,
						"NORMAL":13,
						"TEXCOORD_0":14
					},
					"indices":15,
					"material":1
				}
			]
		}
	],
	"textures":[
		{
			"sampler":0,
			"source":0
		},
		{
			"sampler":0,
			"source":1
		},
		{
			"sampler":0,
			"source":2
		}
	],
	"images":[
		{
			"mimeType":"image/png",
			"name":"T_Trim_Metal_Normal",
			"uri":"T_Trim_Metal_Normal.png"
		},
		{
			"mimeType":"image/png",
			"name":"T_Trim_Metal_BaseColor",
			"uri":"T_Trim_Metal_BaseColor.png"
		},
		{
			"mimeType":"image/png",
			"name":"T_Trim_Metal_ORM",
			"uri":"T_Trim_Metal_ORM.png"
		}
	],
	"accessors":[
		{
			"bufferView":0,
			"componentType":5126,
			"count":40,
			"max":[
				0.2467595636844635,
				0.28409793972969055,
				0.20135654509067535
			],
			"min":[
				-0.24675700068473816,
				0.004830271005630493,
				-0.20135743916034698
			],
			"type":"VEC3"
		},
		{
			"bufferView":1,
			"componentType":5126,
			"count":40,
			"type":"VEC3"
		},
		{
			"bufferView":2,
			"componentType":5126,
			"count":40,
			"type":"VEC2"
		},
		{
			"bufferView":3,
			"componentType":5123,
			"count":60,
			"type":"SCALAR"
		},
		{
			"bufferView":4,
			"componentType":5126,
			"count":58,
			"max":[
				0.6002233624458313,
				0.5611733198165894,
				0.1038970798254013
			],
			"min":[
				-0.4755616784095764,
				0.28409793972969055,
				-0.10389792919158936
			],
			"type":"VEC3"
		},
		{
			"bufferView":5,
			"componentType":5126,
			"count":58,
			"type":"VEC3"
		},
		{
			"bufferView":6,
			"componentType":5126,
			"count":58,
			"type":"VEC2"
		},
		{
			"bufferView":7,
			"componentType":5123,
			"count":96,
			"type":"SCALAR"
		},
		{
			"bufferView":8,
			"componentType":5126,
			"count":554,
			"max":[
				0.6021450757980347,
				0.558722198009491,
				0.20077557861804962
			],
			"min":[
				-0.4794149696826935,
				0.002673726761713624,
				-0.20077557861804962
			],
			"type":"VEC3"
		},
		{
			"bufferView":9,
			"componentType":5126,
			"count":554,
			"type":"VEC3"
		},
		{
			"bufferView":10,
			"componentType":5126,
			"count":554,
			"type":"VEC2"
		},
		{
			"bufferView":11,
			"componentType":5123,
			"count":2106,
			"type":"SCALAR"
		},
		{
			"bufferView":12,
			"componentType":5126,
			"count":56,
			"max":[
				0.15431341528892517,
				0.12813860177993774,
				0.20077557861804962
			],
			"min":[
				-0.13610106706619263,
				0.002673726761713624,
				-0.20077557861804962
			],
			"type":"VEC3"
		},
		{
			"bufferView":13,
			"componentType":5126,
			"count":56,
			"type":"VEC3"
		},
		{
			"bufferView":14,
			"componentType":5126,
			"count":56,
			"type":"VEC2"
		},
		{
			"bufferView":15,
			"componentType":5123,
			"count":144,
			"type":"SCALAR"
		}
	],
	"bufferViews":[
		{
			"buffer":0,
			"byteLength":480,
			"byteOffset":0,
			"target":34962
		},
		{
			"buffer":0,
			"byteLength":480,
			"byteOffset":480,
			"target":34962
		},
		{
			"buffer":0,
			"byteLength":320,
			"byteOffset":960,
			"target":34962
		},
		{
			"buffer":0,
			"byteLength":120,
			"byteOffset":1280,
			"target":34963
		},
		{
			"buffer":0,
			"byteLength":696,
			"byteOffset":1400,
			"target":34962
		},
		{
			"buffer":0,
			"byteLength":696,
			"byteOffset":2096,
			"target":34962
		},
		{
			"buffer":0,
			"byteLength":464,
			"byteOffset":2792,
			"target":34962
		},
		{
			"buffer":0,
			"byteLength":192,
			"byteOffset":3256,
			"target":34963
		},
		{
			"buffer":0,
			"byteLength":6648,
			"byteOffset":3448,
			"target":34962
		},
		{
			"buffer":0,
			"byteLength":6648,
			"byteOffset":10096,
			"target":34962
		},
		{
			"buffer":0,
			"byteLength":4432,
			"byteOffset":16744,
			"target":34962
		},
		{
			"buffer":0,
			"byteLength":4212,
			"byteOffset":21176,
			"target":34963
		},
		{
			"buffer":0,
			"byteLength":672,
			"byteOffset":25388,
			"target":34962
		},
		{
			"buffer":0,
			"byteLength":672,
			"byteOffset":26060,
			"target":34962
		},
		{
			"buffer":0,
			"byteLength":448,
			"byteOffset":26732,
			"target":34962
		},
		{
			"buffer":0,
			"byteLength":288,
			"byteOffset":27180,
			"target":34963
		}
	],
	"samplers":[
		{
			"magFilter":9729,
			"minFilter":9987
		}
	],
	"buffers":[
		{
			"byteLength":27468,
			"uri":"Anvil.bin"
		}
	]
}
