{
	"asset":{
		"generator":"Khronos glTF Blender I/O v4.0.44",
		"version":"2.0"
	},
	"scene":0,
	"scenes":[
		{
			"name":"Scene",
			"nodes":[
				0
			]
		}
	],
	"nodes":[
		{
			"mesh":0,
			"name":"Axe_Double_Bronze"
		}
	],
	"materials":[
		{
			"doubleSided":true,
			"name":"MI_Trim_Props_Vertex",
			"normalTexture":{
				"index":0
			},
			"pbrMetallicRoughness":{
				"baseColorTexture":{
					"index":1
				},
				"metallicRoughnessTexture":{
					"index":2
				}
			}
		},
		{
			"doubleSided":true,
			"name":"MI_Trim_Metal_Vertex",
			"normalTexture":{
				"index":3
			},
			"pbrMetallicRoughness":{
				"baseColorTexture":{
					"index":4
				},
				"metallicRoughnessTexture":{
					"index":5
				}
			}
		}
	],
	"meshes":[
		{
			"name":"Cylinder.003",
			"primitives":[
				{
					"attributes":{
						"COLOR_0":0,
						"POSITION":1,
						"NORMAL":2,
						"TEXCOORD_0":3
					},
					"indices":4,
					"material":0
				},
				{
					"attributes":{
						"COLOR_0":5,
						"POSITION":6,
						"NORMAL":7,
						"TEXCOORD_0":8
					},
					"indices":9,
					"material":1
				}
			]
		}
	],
	"textures":[
		{
			"sampler":0,
			"source":0
		},
		{
			"sampler":0,
			"source":1
		},
		{
			"sampler":0,
			"source":2
		},
		{
			"sampler":0,
			"source":3
		},
		{
			"sampler":0,
			"source":4
		},
		{
			"sampler":0,
			"source":5
		}
	],
	"images":[
		{
			"mimeType":"image/png",
			"name":"T_Trim_Props_Normal",
			"uri":"T_Trim_Props_Normal.png"
		},
		{
			"mimeType":"image/png",
			"name":"T_Trim_Props_BaseColor",
			"uri":"T_Trim_Props_BaseColor.png"
		},
		{
			"mimeType":"image/png",
			"name":"T_Trim_Props_ORM",
			"uri":"T_Trim_Props_ORM.png"
		},
		{
			"mimeType":"image/png",
			"name":"T_Trim_Metal_Normal",
			"uri":"T_Trim_Metal_Normal.png"
		},
		{
			"mimeType":"image/png",
			"name":"T_Trim_Metal_BaseColor",
			"uri":"T_Trim_Metal_BaseColor.png"
		},
		{
			"mimeType":"image/png",
			"name":"T_Trim_Metal_ORM",
			"uri":"T_Trim_Metal_ORM.png"
		}
	],
	"accessors":[
		{
			"bufferView":0,
			"componentType":5123,
			"count":1539,
			"normalized":true,
			"type":"VEC4"
		},
		{
			"bufferView":1,
			"componentType":5126,
			"count":1539,
			"max":[
				0.23964223265647888,
				0.556119441986084,
				0.031445182859897614
			],
			"min":[
				-0.24272304773330688,
				-0.21074016392230988,
				-0.031445182859897614
			],
			"type":"VEC3"
		},
		{
			"bufferView":2,
			"componentType":5126,
			"count":1539,
			"type":"VEC3"
		},
		{
			"bufferView":3,
			"componentType":5126,
			"count":1539,
			"type":"VEC2"
		},
		{
			"bufferView":4,
			"componentType":5123,
			"count":5130,
			"type":"SCALAR"
		},
		{
			"bufferView":5,
			"componentType":5123,
			"count":184,
			"normalized":true,
			"type":"VEC4"
		},
		{
			"bufferView":6,
			"componentType":5126,
			"count":184,
			"max":[
				0.034419674426317215,
				-0.2018444687128067,
				0.015308820642530918
			],
			"min":[
				-0.03522038459777832,
				-0.27702796459198,
				-0.019250130280852318
			],
			"type":"VEC3"
		},
		{
			"bufferView":7,
			"componentType":5126,
			"count":184,
			"type":"VEC3"
		},
		{
			"bufferView":8,
			"componentType":5126,
			"count":184,
			"type":"VEC2"
		},
		{
			"bufferView":9,
			"componentType":5123,
			"count":798,
			"type":"SCALAR"
		}
	],
	"bufferViews":[
		{
			"buffer":0,
			"byteLength":12312,
			"byteOffset":0,
			"target":34962
		},
		{
			"buffer":0,
			"byteLength":18468,
			"byteOffset":12312,
			"target":34962
		},
		{
			"buffer":0,
			"byteLength":18468,
			"byteOffset":30780,
			"target":34962
		},
		{
			"buffer":0,
			"byteLength":12312,
			"byteOffset":49248,
			"target":34962
		},
		{
			"buffer":0,
			"byteLength":10260,
			"byteOffset":61560,
			"target":34963
		},
		{
			"buffer":0,
			"byteLength":1472,
			"byteOffset":71820,
			"target":34962
		},
		{
			"buffer":0,
			"byteLength":2208,
			"byteOffset":73292,
			"target":34962
		},
		{
			"buffer":0,
			"byteLength":2208,
			"byteOffset":75500,
			"target":34962
		},
		{
			"buffer":0,
			"byteLength":1472,
			"byteOffset":77708,
			"target":34962
		},
		{
			"buffer":0,
			"byteLength":1596,
			"byteOffset":79180,
			"target":34963
		}
	],
	"samplers":[
		{
			"magFilter":9729,
			"minFilter":9987
		}
	],
	"buffers":[
		{
			"byteLength":80776,
			"uri":"Axe_Double_Bronze.bin"
		}
	]
}
