{
	"asset":{
		"generator":"Khronos glTF Blender I/O v4.0.44",
		"version":"2.0"
	},
	"scene":0,
	"scenes":[
		{
			"name":"Scene",
			"nodes":[
				2
			]
		}
	],
	"nodes":[
		{
			"mesh":0,
			"name":"Bag_1-convcolonly"
		},
		{
			"mesh":1,
			"name":"Bag_2-convcolonly"
		},
		{
			"children":[
				0,
				1
			],
			"mesh":2,
			"name":"Bag"
		}
	],
	"materials":[
		{
			"doubleSided":true,
			"name":"Collision",
			"pbrMetallicRoughness":{
				"baseColorFactor":[
					0.047601714730262756,
					0.17601831257343292,
					0.8000785112380981,
					1
				],
				"metallicFactor":0,
				"roughnessFactor":0.5
			}
		},
		{
			"doubleSided":true,
			"name":"MI_Trim_Cloth",
			"normalTexture":{
				"index":0
			},
			"pbrMetallicRoughness":{
				"baseColorTexture":{
					"index":1
				},
				"metallicRoughnessTexture":{
					"index":2
				}
			}
		},
		{
			"doubleSided":true,
			"name":"MI_Trim_Furniture",
			"normalTexture":{
				"index":3
			},
			"pbrMetallicRoughness":{
				"baseColorTexture":{
					"index":4
				},
				"metallicRoughnessTexture":{
					"index":5
				}
			}
		}
	],
	"meshes":[
		{
			"name":"Cube.087",
			"primitives":[
				{
					"attributes":{
						"POSITION":0,
						"NORMAL":1,
						"TEXCOORD_0":2
					},
					"indices":3,
					"material":0
				}
			]
		},
		{
			"name":"Cube.088",
			"primitives":[
				{
					"attributes":{
						"POSITION":4,
						"NORMAL":5,
						"TEXCOORD_0":6
					},
					"indices":7,
					"material":0
				}
			]
		},
		{
			"name":"Cube_Retopology.002",
			"primitives":[
				{
					"attributes":{
						"COLOR_0":8,
						"POSITION":9,
						"NORMAL":10,
						"TEXCOORD_0":11
					},
					"indices":12,
					"material":1
				},
				{
					"attributes":{
						"COLOR_0":13,
						"POSITION":14,
						"NORMAL":15,
						"TEXCOORD_0":16
					},
					"indices":17,
					"material":2
				}
			]
		}
	],
	"textures":[
		{
			"sampler":0,
			"source":0
		},
		{
			"sampler":0,
			"source":1
		},
		{
			"sampler":0,
			"source":2
		},
		{
			"sampler":0,
			"source":3
		},
		{
			"sampler":0,
			"source":4
		},
		{
			"sampler":0,
			"source":5
		}
	],
	"images":[
		{
			"mimeType":"image/png",
			"name":"T_Trim_Cloth_Normal",
			"uri":"T_Trim_Cloth_Normal.png"
		},
		{
			"mimeType":"image/png",
			"name":"T_Trim_Cloth_BaseColor",
			"uri":"T_Trim_Cloth_BaseColor.png"
		},
		{
			"mimeType":"image/png",
			"name":"T_Trim_Cloth_ORM",
			"uri":"T_Trim_Cloth_ORM.png"
		},
		{
			"mimeType":"image/png",
			"name":"T_Trim_Furniture_Normal",
			"uri":"T_Trim_Furniture_Normal.png"
		},
		{
			"mimeType":"image/png",
			"name":"T_Trim_Furniture_BaseColor",
			"uri":"T_Trim_Furniture_BaseColor.png"
		},
		{
			"mimeType":"image/png",
			"name":"T_Trim_Furniture_ORM",
			"uri":"T_Trim_Furniture_ORM.png"
		}
	],
	"accessors":[
		{
			"bufferView":0,
			"componentType":5126,
			"count":80,
			"max":[
				0.3095172345638275,
				0.6152236461639404,
				0.29312145709991455
			],
			"min":[
				-0.30951640009880066,
				0.008211460895836353,
				-0.29312199354171753
			],
			"type":"VEC3"
		},
		{
			"bufferView":1,
			"componentType":5126,
			"count":80,
			"type":"VEC3"
		},
		{
			"bufferView":2,
			"componentType":5126,
			"count":80,
			"type":"VEC2"
		},
		{
			"bufferView":3,
			"componentType":5123,
			"count":132,
			"type":"SCALAR"
		},
		{
			"bufferView":4,
			"componentType":5126,
			"count":48,
			"max":[
				0.11765387654304504,
				0.8162924647331238,
				0.1246681958436966
			],
			"min":[
				-0.11712979525327682,
				0.6152236461639404,
				-0.11063127964735031
			],
			"type":"VEC3"
		},
		{
			"bufferView":5,
			"componentType":5126,
			"count":48,
			"type":"VEC3"
		},
		{
			"bufferView":6,
			"componentType":5126,
			"count":48,
			"type":"VEC2"
		},
		{
			"bufferView":7,
			"componentType":5123,
			"count":84,
			"type":"SCALAR"
		},
		{
			"bufferView":8,
			"componentType":5123,
			"count":361,
			"normalized":true,
			"type":"VEC4"
		},
		{
			"bufferView":9,
			"componentType":5126,
			"count":361,
			"max":[
				0.3254036009311676,
				0.8015695214271545,
				0.3004903793334961
			],
			"min":[
				-0.32977303862571716,
				0.002416962292045355,
				-0.2439030408859253
			],
			"type":"VEC3"
		},
		{
			"bufferView":10,
			"componentType":5126,
			"count":361,
			"type":"VEC3"
		},
		{
			"bufferView":11,
			"componentType":5126,
			"count":361,
			"type":"VEC2"
		},
		{
			"bufferView":12,
			"componentType":5123,
			"count":1710,
			"type":"SCALAR"
		},
		{
			"bufferView":13,
			"componentType":5123,
			"count":190,
			"normalized":true,
			"type":"VEC4"
		},
		{
			"bufferView":14,
			"componentType":5126,
			"count":190,
			"max":[
				0.07282350212335587,
				0.6684817671775818,
				0.09829475730657578
			],
			"min":[
				-0.09135845303535461,
				0.5999924540519714,
				-0.05993887037038803
			],
			"type":"VEC3"
		},
		{
			"bufferView":15,
			"componentType":5126,
			"count":190,
			"type":"VEC3"
		},
		{
			"bufferView":16,
			"componentType":5126,
			"count":190,
			"type":"VEC2"
		},
		{
			"bufferView":17,
			"componentType":5123,
			"count":864,
			"type":"SCALAR"
		}
	],
	"bufferViews":[
		{
			"buffer":0,
			"byteLength":960,
			"byteOffset":0,
			"target":34962
		},
		{
			"buffer":0,
			"byteLength":960,
			"byteOffset":960,
			"target":34962
		},
		{
			"buffer":0,
			"byteLength":640,
			"byteOffset":1920,
			"target":34962
		},
		{
			"buffer":0,
			"byteLength":264,
			"byteOffset":2560,
			"target":34963
		},
		{
			"buffer":0,
			"byteLength":576,
			"byteOffset":2824,
			"target":34962
		},
		{
			"buffer":0,
			"byteLength":576,
			"byteOffset":3400,
			"target":34962
		},
		{
			"buffer":0,
			"byteLength":384,
			"byteOffset":3976,
			"target":34962
		},
		{
			"buffer":0,
			"byteLength":168,
			"byteOffset":4360,
			"target":34963
		},
		{
			"buffer":0,
			"byteLength":2888,
			"byteOffset":4528,
			"target":34962
		},
		{
			"buffer":0,
			"byteLength":4332,
			"byteOffset":7416,
			"target":34962
		},
		{
			"buffer":0,
			"byteLength":4332,
			"byteOffset":11748,
			"target":34962
		},
		{
			"buffer":0,
			"byteLength":2888,
			"byteOffset":16080,
			"target":34962
		},
		{
			"buffer":0,
			"byteLength":3420,
			"byteOffset":18968,
			"target":34963
		},
		{
			"buffer":0,
			"byteLength":1520,
			"byteOffset":22388,
			"target":34962
		},
		{
			"buffer":0,
			"byteLength":2280,
			"byteOffset":23908,
			"target":34962
		},
		{
			"buffer":0,
			"byteLength":2280,
			"byteOffset":26188,
			"target":34962
		},
		{
			"buffer":0,
			"byteLength":1520,
			"byteOffset":28468,
			"target":34962
		},
		{
			"buffer":0,
			"byteLength":1728,
			"byteOffset":29988,
			"target":34963
		}
	],
	"samplers":[
		{
			"magFilter":9729,
			"minFilter":9987
		}
	],
	"buffers":[
		{
			"byteLength":31716,
			"uri":"Bag.bin"
		}
	]
}
