{
	"asset":{
		"generator":"Khronos glTF Blender I/O v4.0.44",
		"version":"2.0"
	},
	"scene":0,
	"scenes":[
		{
			"name":"Scene",
			"nodes":[
				2
			]
		}
	],
	"nodes":[
		{
			"mesh":0,
			"name":"Bag_2_1-convcolonly"
		},
		{
			"mesh":1,
			"name":"Bag_2_2-convcolonly"
		},
		{
			"children":[
				0,
				1
			],
			"mesh":2,
			"name":"Bag_2"
		}
	],
	"materials":[
		{
			"doubleSided":true,
			"name":"Collision",
			"pbrMetallicRoughness":{
				"baseColorFactor":[
					0.047601714730262756,
					0.17601831257343292,
					0.8000785112380981,
					1
				],
				"metallicFactor":0,
				"roughnessFactor":0.5
			}
		},
		{
			"doubleSided":true,
			"name":"MI_Trim_Cloth",
			"normalTexture":{
				"index":0
			},
			"pbrMetallicRoughness":{
				"baseColorTexture":{
					"index":1
				},
				"metallicRoughnessTexture":{
					"index":2
				}
			}
		},
		{
			"doubleSided":true,
			"name":"MI_Trim_Furniture",
			"normalTexture":{
				"index":3
			},
			"pbrMetallicRoughness":{
				"baseColorTexture":{
					"index":4
				},
				"metallicRoughnessTexture":{
					"index":5
				}
			}
		}
	],
	"meshes":[
		{
			"name":"Cube.089",
			"primitives":[
				{
					"attributes":{
						"POSITION":0,
						"NORMAL":1,
						"TEXCOORD_0":2
					},
					"indices":3,
					"material":0
				}
			]
		},
		{
			"name":"Cube.090",
			"primitives":[
				{
					"attributes":{
						"POSITION":4,
						"NORMAL":5,
						"TEXCOORD_0":6
					},
					"indices":7,
					"material":0
				}
			]
		},
		{
			"name":"Cube_Retopology.001",
			"primitives":[
				{
					"attributes":{
						"COLOR_0":8,
						"POSITION":9,
						"NORMAL":10,
						"TEXCOORD_0":11
					},
					"indices":12,
					"material":1
				},
				{
					"attributes":{
						"COLOR_0":13,
						"POSITION":14,
						"NORMAL":15,
						"TEXCOORD_0":16
					},
					"indices":17,
					"material":2
				}
			]
		}
	],
	"textures":[
		{
			"sampler":0,
			"source":0
		},
		{
			"sampler":0,
			"source":1
		},
		{
			"sampler":0,
			"source":2
		},
		{
			"sampler":0,
			"source":3
		},
		{
			"sampler":0,
			"source":4
		},
		{
			"sampler":0,
			"source":5
		}
	],
	"images":[
		{
			"mimeType":"image/png",
			"name":"T_Trim_Cloth_Normal",
			"uri":"T_Trim_Cloth_Normal.png"
		},
		{
			"mimeType":"image/png",
			"name":"T_Trim_Cloth_BaseColor",
			"uri":"T_Trim_Cloth_BaseColor.png"
		},
		{
			"mimeType":"image/png",
			"name":"T_Trim_Cloth_ORM",
			"uri":"T_Trim_Cloth_ORM.png"
		},
		{
			"mimeType":"image/png",
			"name":"T_Trim_Furniture_Normal",
			"uri":"T_Trim_Furniture_Normal.png"
		},
		{
			"mimeType":"image/png",
			"name":"T_Trim_Furniture_BaseColor",
			"uri":"T_Trim_Furniture_BaseColor.png"
		},
		{
			"mimeType":"image/png",
			"name":"T_Trim_Furniture_ORM",
			"uri":"T_Trim_Furniture_ORM.png"
		}
	],
	"accessors":[
		{
			"bufferView":0,
			"componentType":5126,
			"count":80,
			"max":[
				0.3494475483894348,
				0.5260149836540222,
				0.3309365510940552
			],
			"min":[
				-0.34944629669189453,
				0.008211460895836353,
				-0.33093687891960144
			],
			"type":"VEC3"
		},
		{
			"bufferView":1,
			"componentType":5126,
			"count":80,
			"type":"VEC3"
		},
		{
			"bufferView":2,
			"componentType":5126,
			"count":80,
			"type":"VEC2"
		},
		{
			"bufferView":3,
			"componentType":5123,
			"count":132,
			"type":"SCALAR"
		},
		{
			"bufferView":4,
			"componentType":5126,
			"count":48,
			"max":[
				0.06276848167181015,
				0.7288380861282349,
				0.12207488715648651
			],
			"min":[
				-0.1681760847568512,
				0.5035123229026794,
				-0.1080380454659462
			],
			"type":"VEC3"
		},
		{
			"bufferView":5,
			"componentType":5126,
			"count":48,
			"type":"VEC3"
		},
		{
			"bufferView":6,
			"componentType":5126,
			"count":48,
			"type":"VEC2"
		},
		{
			"bufferView":7,
			"componentType":5123,
			"count":84,
			"type":"SCALAR"
		},
		{
			"bufferView":8,
			"componentType":5123,
			"count":361,
			"normalized":true,
			"type":"VEC4"
		},
		{
			"bufferView":9,
			"componentType":5126,
			"count":361,
			"max":[
				0.3423113524913788,
				0.7169604301452637,
				0.3112720251083374
			],
			"min":[
				-0.3764313757419586,
				-0.0024143399205058813,
				-0.29194244742393494
			],
			"type":"VEC3"
		},
		{
			"bufferView":10,
			"componentType":5126,
			"count":361,
			"type":"VEC3"
		},
		{
			"bufferView":11,
			"componentType":5126,
			"count":361,
			"type":"VEC2"
		},
		{
			"bufferView":12,
			"componentType":5123,
			"count":1710,
			"type":"SCALAR"
		},
		{
			"bufferView":13,
			"componentType":5123,
			"count":190,
			"normalized":true,
			"type":"VEC4"
		},
		{
			"bufferView":14,
			"componentType":5126,
			"count":190,
			"max":[
				0.06371570378541946,
				0.582706868648529,
				0.10328990966081619
			],
			"min":[
				-0.11397017538547516,
				0.4828910827636719,
				-0.07498007267713547
			],
			"type":"VEC3"
		},
		{
			"bufferView":15,
			"componentType":5126,
			"count":190,
			"type":"VEC3"
		},
		{
			"bufferView":16,
			"componentType":5126,
			"count":190,
			"type":"VEC2"
		},
		{
			"bufferView":17,
			"componentType":5123,
			"count":864,
			"type":"SCALAR"
		}
	],
	"bufferViews":[
		{
			"buffer":0,
			"byteLength":960,
			"byteOffset":0,
			"target":34962
		},
		{
			"buffer":0,
			"byteLength":960,
			"byteOffset":960,
			"target":34962
		},
		{
			"buffer":0,
			"byteLength":640,
			"byteOffset":1920,
			"target":34962
		},
		{
			"buffer":0,
			"byteLength":264,
			"byteOffset":2560,
			"target":34963
		},
		{
			"buffer":0,
			"byteLength":576,
			"byteOffset":2824,
			"target":34962
		},
		{
			"buffer":0,
			"byteLength":576,
			"byteOffset":3400,
			"target":34962
		},
		{
			"buffer":0,
			"byteLength":384,
			"byteOffset":3976,
			"target":34962
		},
		{
			"buffer":0,
			"byteLength":168,
			"byteOffset":4360,
			"target":34963
		},
		{
			"buffer":0,
			"byteLength":2888,
			"byteOffset":4528,
			"target":34962
		},
		{
			"buffer":0,
			"byteLength":4332,
			"byteOffset":7416,
			"target":34962
		},
		{
			"buffer":0,
			"byteLength":4332,
			"byteOffset":11748,
			"target":34962
		},
		{
			"buffer":0,
			"byteLength":2888,
			"byteOffset":16080,
			"target":34962
		},
		{
			"buffer":0,
			"byteLength":3420,
			"byteOffset":18968,
			"target":34963
		},
		{
			"buffer":0,
			"byteLength":1520,
			"byteOffset":22388,
			"target":34962
		},
		{
			"buffer":0,
			"byteLength":2280,
			"byteOffset":23908,
			"target":34962
		},
		{
			"buffer":0,
			"byteLength":2280,
			"byteOffset":26188,
			"target":34962
		},
		{
			"buffer":0,
			"byteLength":1520,
			"byteOffset":28468,
			"target":34962
		},
		{
			"buffer":0,
			"byteLength":1728,
			"byteOffset":29988,
			"target":34963
		}
	],
	"samplers":[
		{
			"magFilter":9729,
			"minFilter":9987
		}
	],
	"buffers":[
		{
			"byteLength":31716,
			"uri":"Bag_2.bin"
		}
	]
}
