{
	"asset":{
		"generator":"Khronos glTF Blender I/O v4.0.44",
		"version":"2.0"
	},
	"scene":0,
	"scenes":[
		{
			"name":"Scene",
			"nodes":[
				0
			]
		}
	],
	"nodes":[
		{
			"mesh":0,
			"name":"Banner_SmallTriangles_Long"
		}
	],
	"materials":[
		{
			"doubleSided":true,
			"name":"MI_Trim_Furniture",
			"normalTexture":{
				"index":0
			},
			"pbrMetallicRoughness":{
				"baseColorTexture":{
					"index":1
				},
				"metallicRoughnessTexture":{
					"index":2
				}
			}
		},
		{
			"doubleSided":true,
			"name":"MI_Banner",
			"normalTexture":{
				"index":3
			},
			"pbrMetallicRoughness":{
				"baseColorTexture":{
					"index":4
				},
				"metallicRoughnessTexture":{
					"index":5
				}
			}
		}
	],
	"meshes":[
		{
			"name":"BezierCurve.008",
			"primitives":[
				{
					"attributes":{
						"COLOR_0":0,
						"POSITION":1,
						"NORMAL":2,
						"TEXCOORD_0":3,
						"TEXCOORD_1":4
					},
					"indices":5,
					"material":0
				},
				{
					"attributes":{
						"COLOR_0":6,
						"POSITION":7,
						"NORMAL":8,
						"TEXCOORD_0":9,
						"TEXCOORD_1":10
					},
					"indices":11,
					"material":1
				}
			]
		}
	],
	"textures":[
		{
			"sampler":0,
			"source":0
		},
		{
			"sampler":0,
			"source":1
		},
		{
			"sampler":0,
			"source":2
		},
		{
			"sampler":0,
			"source":3
		},
		{
			"sampler":0,
			"source":4
		},
		{
			"sampler":0,
			"source":5
		}
	],
	"images":[
		{
			"mimeType":"image/png",
			"name":"T_Trim_Furniture_Normal",
			"uri":"T_Trim_Furniture_Normal.png"
		},
		{
			"mimeType":"image/png",
			"name":"T_Trim_Furniture_BaseColor",
			"uri":"T_Trim_Furniture_BaseColor.png"
		},
		{
			"mimeType":"image/png",
			"name":"T_Trim_Furniture_ORM",
			"uri":"T_Trim_Furniture_ORM.png"
		},
		{
			"mimeType":"image/png",
			"name":"T_Trim_Cloth_Normal",
			"uri":"T_Trim_Cloth_Normal.png"
		},
		{
			"mimeType":"image/png",
			"name":"T_Trim_Cloth_BaseColor",
			"uri":"T_Trim_Cloth_BaseColor.png"
		},
		{
			"mimeType":"image/png",
			"name":"T_Trim_Cloth_ORM",
			"uri":"T_Trim_Cloth_ORM.png"
		}
	],
	"accessors":[
		{
			"bufferView":0,
			"componentType":5123,
			"count":299,
			"normalized":true,
			"type":"VEC4"
		},
		{
			"bufferView":1,
			"componentType":5126,
			"count":299,
			"max":[
				13.835289001464844,
				4.041031360626221,
				0.019428327679634094
			],
			"min":[
				-13.835880279541016,
				-0.015281671658158302,
				-0.019428327679634094
			],
			"type":"VEC3"
		},
		{
			"bufferView":2,
			"componentType":5126,
			"count":299,
			"type":"VEC3"
		},
		{
			"bufferView":3,
			"componentType":5126,
			"count":299,
			"type":"VEC2"
		},
		{
			"bufferView":4,
			"componentType":5126,
			"count":299,
			"type":"VEC2"
		},
		{
			"bufferView":5,
			"componentType":5123,
			"count":1584,
			"type":"SCALAR"
		},
		{
			"bufferView":6,
			"componentType":5123,
			"count":504,
			"normalized":true,
			"type":"VEC4"
		},
		{
			"bufferView":7,
			"componentType":5126,
			"count":504,
			"max":[
				11.164087295532227,
				2.985630512237549,
				2.3004720617336716e-07
			],
			"min":[
				-11.266000747680664,
				-0.5371907353401184,
				-4.4108520750262524e-15
			],
			"type":"VEC3"
		},
		{
			"bufferView":8,
			"componentType":5126,
			"count":504,
			"type":"VEC3"
		},
		{
			"bufferView":9,
			"componentType":5126,
			"count":504,
			"type":"VEC2"
		},
		{
			"bufferView":10,
			"componentType":5126,
			"count":504,
			"type":"VEC2"
		},
		{
			"bufferView":11,
			"componentType":5123,
			"count":1386,
			"type":"SCALAR"
		}
	],
	"bufferViews":[
		{
			"buffer":0,
			"byteLength":2392,
			"byteOffset":0,
			"target":34962
		},
		{
			"buffer":0,
			"byteLength":3588,
			"byteOffset":2392,
			"target":34962
		},
		{
			"buffer":0,
			"byteLength":3588,
			"byteOffset":5980,
			"target":34962
		},
		{
			"buffer":0,
			"byteLength":2392,
			"byteOffset":9568,
			"target":34962
		},
		{
			"buffer":0,
			"byteLength":2392,
			"byteOffset":11960,
			"target":34962
		},
		{
			"buffer":0,
			"byteLength":3168,
			"byteOffset":14352,
			"target":34963
		},
		{
			"buffer":0,
			"byteLength":4032,
			"byteOffset":17520,
			"target":34962
		},
		{
			"buffer":0,
			"byteLength":6048,
			"byteOffset":21552,
			"target":34962
		},
		{
			"buffer":0,
			"byteLength":6048,
			"byteOffset":27600,
			"target":34962
		},
		{
			"buffer":0,
			"byteLength":4032,
			"byteOffset":33648,
			"target":34962
		},
		{
			"buffer":0,
			"byteLength":4032,
			"byteOffset":37680,
			"target":34962
		},
		{
			"buffer":0,
			"byteLength":2772,
			"byteOffset":41712,
			"target":34963
		}
	],
	"samplers":[
		{
			"magFilter":9729,
			"minFilter":9987
		}
	],
	"buffers":[
		{
			"byteLength":44484,
			"uri":"Banner_SmallTriangles_Long.bin"
		}
	]
}
