{
	"asset":{
		"generator":"Khronos glTF Blender I/O v4.0.44",
		"version":"2.0"
	},
	"scene":0,
	"scenes":[
		{
			"name":"Scene",
			"nodes":[
				0
			]
		}
	],
	"nodes":[
		{
			"mesh":0,
			"name":"Banner_SmallTriangles_Medium"
		}
	],
	"materials":[
		{
			"doubleSided":true,
			"name":"MI_Trim_Furniture",
			"normalTexture":{
				"index":0
			},
			"pbrMetallicRoughness":{
				"baseColorTexture":{
					"index":1
				},
				"metallicRoughnessTexture":{
					"index":2
				}
			}
		},
		{
			"doubleSided":true,
			"name":"MI_Banner",
			"normalTexture":{
				"index":3
			},
			"pbrMetallicRoughness":{
				"baseColorTexture":{
					"index":4
				},
				"metallicRoughnessTexture":{
					"index":5
				}
			}
		}
	],
	"meshes":[
		{
			"name":"BezierCurve.006",
			"primitives":[
				{
					"attributes":{
						"COLOR_0":0,
						"POSITION":1,
						"NORMAL":2,
						"TEXCOORD_0":3,
						"TEXCOORD_1":4
					},
					"indices":5,
					"material":0
				},
				{
					"attributes":{
						"COLOR_0":6,
						"POSITION":7,
						"NORMAL":8,
						"TEXCOORD_0":9,
						"TEXCOORD_1":10
					},
					"indices":11,
					"material":1
				}
			]
		}
	],
	"textures":[
		{
			"sampler":0,
			"source":0
		},
		{
			"sampler":0,
			"source":1
		},
		{
			"sampler":0,
			"source":2
		},
		{
			"sampler":0,
			"source":3
		},
		{
			"sampler":0,
			"source":4
		},
		{
			"sampler":0,
			"source":5
		}
	],
	"images":[
		{
			"mimeType":"image/png",
			"name":"T_Trim_Furniture_Normal",
			"uri":"T_Trim_Furniture_Normal.png"
		},
		{
			"mimeType":"image/png",
			"name":"T_Trim_Furniture_BaseColor",
			"uri":"T_Trim_Furniture_BaseColor.png"
		},
		{
			"mimeType":"image/png",
			"name":"T_Trim_Furniture_ORM",
			"uri":"T_Trim_Furniture_ORM.png"
		},
		{
			"mimeType":"image/png",
			"name":"T_Trim_Cloth_Normal",
			"uri":"T_Trim_Cloth_Normal.png"
		},
		{
			"mimeType":"image/png",
			"name":"T_Trim_Cloth_BaseColor",
			"uri":"T_Trim_Cloth_BaseColor.png"
		},
		{
			"mimeType":"image/png",
			"name":"T_Trim_Cloth_ORM",
			"uri":"T_Trim_Cloth_ORM.png"
		}
	],
	"accessors":[
		{
			"bufferView":0,
			"componentType":5123,
			"count":273,
			"normalized":true,
			"type":"VEC4"
		},
		{
			"bufferView":1,
			"componentType":5126,
			"count":273,
			"max":[
				7.752837181091309,
				1.5550832748413086,
				0.019428327679634094
			],
			"min":[
				-7.753167629241943,
				-0.015281671658158302,
				-0.019428327679634094
			],
			"type":"VEC3"
		},
		{
			"bufferView":2,
			"componentType":5126,
			"count":273,
			"type":"VEC3"
		},
		{
			"bufferView":3,
			"componentType":5126,
			"count":273,
			"type":"VEC2"
		},
		{
			"bufferView":4,
			"componentType":5126,
			"count":273,
			"type":"VEC2"
		},
		{
			"bufferView":5,
			"componentType":5123,
			"count":1440,
			"type":"SCALAR"
		},
		{
			"bufferView":6,
			"componentType":5123,
			"count":312,
			"normalized":true,
			"type":"VEC4"
		},
		{
			"bufferView":7,
			"componentType":5126,
			"count":312,
			"max":[
				6.870296955108643,
				1.2895634174346924,
				0
			],
			"min":[
				-6.999000549316406,
				-0.5371907353401184,
				-4.4108520750262524e-15
			],
			"type":"VEC3"
		},
		{
			"bufferView":8,
			"componentType":5126,
			"count":312,
			"type":"VEC3"
		},
		{
			"bufferView":9,
			"componentType":5126,
			"count":312,
			"type":"VEC2"
		},
		{
			"bufferView":10,
			"componentType":5126,
			"count":312,
			"type":"VEC2"
		},
		{
			"bufferView":11,
			"componentType":5123,
			"count":858,
			"type":"SCALAR"
		}
	],
	"bufferViews":[
		{
			"buffer":0,
			"byteLength":2184,
			"byteOffset":0,
			"target":34962
		},
		{
			"buffer":0,
			"byteLength":3276,
			"byteOffset":2184,
			"target":34962
		},
		{
			"buffer":0,
			"byteLength":3276,
			"byteOffset":5460,
			"target":34962
		},
		{
			"buffer":0,
			"byteLength":2184,
			"byteOffset":8736,
			"target":34962
		},
		{
			"buffer":0,
			"byteLength":2184,
			"byteOffset":10920,
			"target":34962
		},
		{
			"buffer":0,
			"byteLength":2880,
			"byteOffset":13104,
			"target":34963
		},
		{
			"buffer":0,
			"byteLength":2496,
			"byteOffset":15984,
			"target":34962
		},
		{
			"buffer":0,
			"byteLength":3744,
			"byteOffset":18480,
			"target":34962
		},
		{
			"buffer":0,
			"byteLength":3744,
			"byteOffset":22224,
			"target":34962
		},
		{
			"buffer":0,
			"byteLength":2496,
			"byteOffset":25968,
			"target":34962
		},
		{
			"buffer":0,
			"byteLength":2496,
			"byteOffset":28464,
			"target":34962
		},
		{
			"buffer":0,
			"byteLength":1716,
			"byteOffset":30960,
			"target":34963
		}
	],
	"samplers":[
		{
			"magFilter":9729,
			"minFilter":9987
		}
	],
	"buffers":[
		{
			"byteLength":32676,
			"uri":"Banner_SmallTriangles_Medium.bin"
		}
	]
}
