{
	"asset":{
		"generator":"Khronos glTF Blender I/O v4.0.44",
		"version":"2.0"
	},
	"scene":0,
	"scenes":[
		{
			"name":"Scene",
			"nodes":[
				0
			]
		}
	],
	"nodes":[
		{
			"mesh":0,
			"name":"Banner_SmallTriangles_Short"
		}
	],
	"materials":[
		{
			"doubleSided":true,
			"name":"MI_Trim_Furniture",
			"normalTexture":{
				"index":0
			},
			"pbrMetallicRoughness":{
				"baseColorTexture":{
					"index":1
				},
				"metallicRoughnessTexture":{
					"index":2
				}
			}
		},
		{
			"doubleSided":true,
			"name":"MI_Banner",
			"normalTexture":{
				"index":3
			},
			"pbrMetallicRoughness":{
				"baseColorTexture":{
					"index":4
				},
				"metallicRoughnessTexture":{
					"index":5
				}
			}
		}
	],
	"meshes":[
		{
			"name":"BezierCurve.007",
			"primitives":[
				{
					"attributes":{
						"COLOR_0":0,
						"POSITION":1,
						"NORMAL":2,
						"TEXCOORD_0":3,
						"TEXCOORD_1":4
					},
					"indices":5,
					"material":0
				},
				{
					"attributes":{
						"COLOR_0":6,
						"POSITION":7,
						"NORMAL":8,
						"TEXCOORD_0":9,
						"TEXCOORD_1":10
					},
					"indices":11,
					"material":1
				}
			]
		}
	],
	"textures":[
		{
			"sampler":0,
			"source":0
		},
		{
			"sampler":0,
			"source":1
		},
		{
			"sampler":0,
			"source":2
		},
		{
			"sampler":0,
			"source":3
		},
		{
			"sampler":0,
			"source":4
		},
		{
			"sampler":0,
			"source":5
		}
	],
	"images":[
		{
			"mimeType":"image/png",
			"name":"T_Trim_Furniture_Normal",
			"uri":"T_Trim_Furniture_Normal.png"
		},
		{
			"mimeType":"image/png",
			"name":"T_Trim_Furniture_BaseColor",
			"uri":"T_Trim_Furniture_BaseColor.png"
		},
		{
			"mimeType":"image/png",
			"name":"T_Trim_Furniture_ORM",
			"uri":"T_Trim_Furniture_ORM.png"
		},
		{
			"mimeType":"image/png",
			"name":"T_Trim_Cloth_Normal",
			"uri":"T_Trim_Cloth_Normal.png"
		},
		{
			"mimeType":"image/png",
			"name":"T_Trim_Cloth_BaseColor",
			"uri":"T_Trim_Cloth_BaseColor.png"
		},
		{
			"mimeType":"image/png",
			"name":"T_Trim_Cloth_ORM",
			"uri":"T_Trim_Cloth_ORM.png"
		}
	],
	"accessors":[
		{
			"bufferView":0,
			"componentType":5123,
			"count":208,
			"normalized":true,
			"type":"VEC4"
		},
		{
			"bufferView":1,
			"componentType":5126,
			"count":208,
			"max":[
				5.580257892608643,
				0.8650797009468079,
				0.019428327679634094
			],
			"min":[
				-5.540191650390625,
				-0.015281671658158302,
				-0.019428327679634094
			],
			"type":"VEC3"
		},
		{
			"bufferView":2,
			"componentType":5126,
			"count":208,
			"type":"VEC3"
		},
		{
			"bufferView":3,
			"componentType":5126,
			"count":208,
			"type":"VEC2"
		},
		{
			"bufferView":4,
			"componentType":5126,
			"count":208,
			"type":"VEC2"
		},
		{
			"bufferView":5,
			"componentType":5123,
			"count":1080,
			"type":"SCALAR"
		},
		{
			"bufferView":6,
			"componentType":5123,
			"count":168,
			"normalized":true,
			"type":"VEC4"
		},
		{
			"bufferView":7,
			"componentType":5126,
			"count":168,
			"max":[
				3.565154790878296,
				0.4105336666107178,
				0
			],
			"min":[
				-3.6854403018951416,
				-0.5371907353401184,
				0
			],
			"type":"VEC3"
		},
		{
			"bufferView":8,
			"componentType":5126,
			"count":168,
			"type":"VEC3"
		},
		{
			"bufferView":9,
			"componentType":5126,
			"count":168,
			"type":"VEC2"
		},
		{
			"bufferView":10,
			"componentType":5126,
			"count":168,
			"type":"VEC2"
		},
		{
			"bufferView":11,
			"componentType":5123,
			"count":462,
			"type":"SCALAR"
		}
	],
	"bufferViews":[
		{
			"buffer":0,
			"byteLength":1664,
			"byteOffset":0,
			"target":34962
		},
		{
			"buffer":0,
			"byteLength":2496,
			"byteOffset":1664,
			"target":34962
		},
		{
			"buffer":0,
			"byteLength":2496,
			"byteOffset":4160,
			"target":34962
		},
		{
			"buffer":0,
			"byteLength":1664,
			"byteOffset":6656,
			"target":34962
		},
		{
			"buffer":0,
			"byteLength":1664,
			"byteOffset":8320,
			"target":34962
		},
		{
			"buffer":0,
			"byteLength":2160,
			"byteOffset":9984,
			"target":34963
		},
		{
			"buffer":0,
			"byteLength":1344,
			"byteOffset":12144,
			"target":34962
		},
		{
			"buffer":0,
			"byteLength":2016,
			"byteOffset":13488,
			"target":34962
		},
		{
			"buffer":0,
			"byteLength":2016,
			"byteOffset":15504,
			"target":34962
		},
		{
			"buffer":0,
			"byteLength":1344,
			"byteOffset":17520,
			"target":34962
		},
		{
			"buffer":0,
			"byteLength":1344,
			"byteOffset":18864,
			"target":34962
		},
		{
			"buffer":0,
			"byteLength":924,
			"byteOffset":20208,
			"target":34963
		}
	],
	"samplers":[
		{
			"magFilter":9729,
			"minFilter":9987
		}
	],
	"buffers":[
		{
			"byteLength":21132,
			"uri":"Banner_SmallTriangles_Short.bin"
		}
	]
}
