{
	"asset":{
		"generator":"Khronos glTF Blender I/O v4.0.44",
		"version":"2.0"
	},
	"scene":0,
	"scenes":[
		{
			"name":"Scene",
			"nodes":[
				4
			]
		}
	],
	"nodes":[
		{
			"mesh":0,
			"name":"Banner_Vertical_1_1-convcolonly"
		},
		{
			"mesh":1,
			"name":"Banner_Vertical_1_2-convcolonly"
		},
		{
			"mesh":2,
			"name":"Banner_Vertical_1_3-convcolonly"
		},
		{
			"mesh":3,
			"name":"Banner_Vertical_1_4-convcolonly"
		},
		{
			"children":[
				0,
				1,
				2,
				3
			],
			"mesh":4,
			"name":"Banner_Vertical_1"
		}
	],
	"materials":[
		{
			"doubleSided":true,
			"name":"Collision",
			"pbrMetallicRoughness":{
				"baseColorFactor":[
					0.047601714730262756,
					0.17601831257343292,
					0.8000785112380981,
					1
				],
				"metallicFactor":0,
				"roughnessFactor":0.5
			}
		},
		{
			"doubleSided":true,
			"name":"MI_Trim_Metal",
			"normalTexture":{
				"index":0
			},
			"pbrMetallicRoughness":{
				"baseColorTexture":{
					"index":1
				},
				"metallicRoughnessTexture":{
					"index":2
				}
			}
		},
		{
			"doubleSided":true,
			"name":"MI_Trim_Furniture",
			"normalTexture":{
				"index":3
			},
			"pbrMetallicRoughness":{
				"baseColorTexture":{
					"index":4
				},
				"metallicRoughnessTexture":{
					"index":5
				}
			}
		},
		{
			"doubleSided":true,
			"name":"MI_Banner",
			"normalTexture":{
				"index":6
			},
			"pbrMetallicRoughness":{
				"baseColorTexture":{
					"index":7
				},
				"metallicRoughnessTexture":{
					"index":8
				}
			}
		},
		{
			"doubleSided":true,
			"name":"MI_Trim_Props",
			"normalTexture":{
				"index":9
			},
			"pbrMetallicRoughness":{
				"baseColorTexture":{
					"index":10
				},
				"metallicRoughnessTexture":{
					"index":11
				}
			}
		}
	],
	"meshes":[
		{
			"name":"Cube.466",
			"primitives":[
				{
					"attributes":{
						"POSITION":0,
						"NORMAL":1,
						"TEXCOORD_0":2
					},
					"indices":3,
					"material":0
				}
			]
		},
		{
			"name":"Cube.467",
			"primitives":[
				{
					"attributes":{
						"POSITION":4,
						"NORMAL":5,
						"TEXCOORD_0":6
					},
					"indices":7,
					"material":0
				}
			]
		},
		{
			"name":"Cube.468",
			"primitives":[
				{
					"attributes":{
						"POSITION":8,
						"NORMAL":9,
						"TEXCOORD_0":10
					},
					"indices":11,
					"material":0
				}
			]
		},
		{
			"name":"Cube.469",
			"primitives":[
				{
					"attributes":{
						"POSITION":12,
						"NORMAL":13,
						"TEXCOORD_0":14
					},
					"indices":15,
					"material":0
				}
			]
		},
		{
			"name":"Cube",
			"primitives":[
				{
					"attributes":{
						"COLOR_0":16,
						"POSITION":17,
						"NORMAL":18,
						"TEXCOORD_0":19,
						"TEXCOORD_1":20
					},
					"indices":21,
					"material":1
				},
				{
					"attributes":{
						"COLOR_0":22,
						"POSITION":23,
						"NORMAL":24,
						"TEXCOORD_0":25,
						"TEXCOORD_1":26
					},
					"indices":27,
					"material":2
				},
				{
					"attributes":{
						"COLOR_0":28,
						"POSITION":29,
						"NORMAL":30,
						"TEXCOORD_0":31,
						"TEXCOORD_1":32
					},
					"indices":33,
					"material":3
				},
				{
					"attributes":{
						"COLOR_0":34,
						"POSITION":35,
						"NORMAL":36,
						"TEXCOORD_0":37,
						"TEXCOORD_1":38
					},
					"indices":39,
					"material":4
				}
			]
		}
	],
	"textures":[
		{
			"sampler":0,
			"source":0
		},
		{
			"sampler":0,
			"source":1
		},
		{
			"sampler":0,
			"source":2
		},
		{
			"sampler":0,
			"source":3
		},
		{
			"sampler":0,
			"source":4
		},
		{
			"sampler":0,
			"source":5
		},
		{
			"sampler":0,
			"source":6
		},
		{
			"sampler":0,
			"source":7
		},
		{
			"sampler":0,
			"source":8
		},
		{
			"sampler":0,
			"source":9
		},
		{
			"sampler":0,
			"source":10
		},
		{
			"sampler":0,
			"source":11
		}
	],
	"images":[
		{
			"mimeType":"image/png",
			"name":"T_Trim_Metal_Normal",
			"uri":"T_Trim_Metal_Normal.png"
		},
		{
			"mimeType":"image/png",
			"name":"T_Trim_Metal_BaseColor",
			"uri":"T_Trim_Metal_BaseColor.png"
		},
		{
			"mimeType":"image/png",
			"name":"T_Trim_Metal_ORM",
			"uri":"T_Trim_Metal_ORM.png"
		},
		{
			"mimeType":"image/png",
			"name":"T_Trim_Furniture_Normal",
			"uri":"T_Trim_Furniture_Normal.png"
		},
		{
			"mimeType":"image/png",
			"name":"T_Trim_Furniture_BaseColor",
			"uri":"T_Trim_Furniture_BaseColor.png"
		},
		{
			"mimeType":"image/png",
			"name":"T_Trim_Furniture_ORM",
			"uri":"T_Trim_Furniture_ORM.png"
		},
		{
			"mimeType":"image/png",
			"name":"T_Trim_Cloth_Normal",
			"uri":"T_Trim_Cloth_Normal.png"
		},
		{
			"mimeType":"image/png",
			"name":"T_Trim_Cloth_BaseColor",
			"uri":"T_Trim_Cloth_BaseColor.png"
		},
		{
			"mimeType":"image/png",
			"name":"T_Trim_Cloth_ORM",
			"uri":"T_Trim_Cloth_ORM.png"
		},
		{
			"mimeType":"image/png",
			"name":"T_Trim_Props_Normal",
			"uri":"T_Trim_Props_Normal.png"
		},
		{
			"mimeType":"image/png",
			"name":"T_Trim_Props_BaseColor",
			"uri":"T_Trim_Props_BaseColor.png"
		},
		{
			"mimeType":"image/png",
			"name":"T_Trim_Props_ORM",
			"uri":"T_Trim_Props_ORM.png"
		}
	],
	"accessors":[
		{
			"bufferView":0,
			"componentType":5126,
			"count":24,
			"max":[
				0.06267086416482925,
				2.3166372776031494,
				0.05537338927388191
			],
			"min":[
				-0.06266976147890091,
				-0.0037817656993865967,
				-0.05945980176329613
			],
			"type":"VEC3"
		},
		{
			"bufferView":1,
			"componentType":5126,
			"count":24,
			"type":"VEC3"
		},
		{
			"bufferView":2,
			"componentType":5126,
			"count":24,
			"type":"VEC2"
		},
		{
			"bufferView":3,
			"componentType":5123,
			"count":36,
			"type":"SCALAR"
		},
		{
			"bufferView":4,
			"componentType":5126,
			"count":24,
			"max":[
				0.34681111574172974,
				2.3242053985595703,
				0.0642850399017334
			],
			"min":[
				-0.346809983253479,
				2.2792232036590576,
				0.01678650453686714
			],
			"type":"VEC3"
		},
		{
			"bufferView":5,
			"componentType":5126,
			"count":24,
			"type":"VEC3"
		},
		{
			"bufferView":6,
			"componentType":5126,
			"count":24,
			"type":"VEC2"
		},
		{
			"bufferView":7,
			"componentType":5123,
			"count":36,
			"type":"SCALAR"
		},
		{
			"bufferView":8,
			"componentType":5126,
			"count":32,
			"max":[
				0.520767867565155,
				2.3467490673065186,
				0.08808968961238861
			],
			"min":[
				0.3371501564979553,
				2.2566795349121094,
				-0.007018133997917175
			],
			"type":"VEC3"
		},
		{
			"bufferView":9,
			"componentType":5126,
			"count":32,
			"type":"VEC3"
		},
		{
			"bufferView":10,
			"componentType":5126,
			"count":32,
			"type":"VEC2"
		},
		{
			"bufferView":11,
			"componentType":5123,
			"count":42,
			"type":"SCALAR"
		},
		{
			"bufferView":12,
			"componentType":5126,
			"count":32,
			"max":[
				-0.3371501564979553,
				2.3467490673065186,
				0.08808968961238861
			],
			"min":[
				-0.520767867565155,
				2.2566795349121094,
				-0.007018133997917175
			],
			"type":"VEC3"
		},
		{
			"bufferView":13,
			"componentType":5126,
			"count":32,
			"type":"VEC3"
		},
		{
			"bufferView":14,
			"componentType":5126,
			"count":32,
			"type":"VEC2"
		},
		{
			"bufferView":15,
			"componentType":5123,
			"count":42,
			"type":"SCALAR"
		},
		{
			"bufferView":16,
			"componentType":5123,
			"count":468,
			"normalized":true,
			"type":"VEC4"
		},
		{
			"bufferView":17,
			"componentType":5126,
			"count":468,
			"max":[
				0.5180866718292236,
				2.3470118045806885,
				0.08802485466003418
			],
			"min":[
				-0.5178145170211792,
				-0.0026310195680707693,
				-0.06450023502111435
			],
			"type":"VEC3"
		},
		{
			"bufferView":18,
			"componentType":5126,
			"count":468,
			"type":"VEC3"
		},
		{
			"bufferView":19,
			"componentType":5126,
			"count":468,
			"type":"VEC2"
		},
		{
			"bufferView":20,
			"componentType":5126,
			"count":468,
			"type":"VEC2"
		},
		{
			"bufferView":21,
			"componentType":5123,
			"count":960,
			"type":"SCALAR"
		},
		{
			"bufferView":22,
			"componentType":5123,
			"count":20,
			"normalized":true,
			"type":"VEC4"
		},
		{
			"bufferView":23,
			"componentType":5126,
			"count":20,
			"max":[
				0.0321468748152256,
				2.305323600769043,
				0.04905625805258751
			],
			"min":[
				-0.0321468710899353,
				0.117159903049469,
				-0.014043433591723442
			],
			"type":"VEC3"
		},
		{
			"bufferView":24,
			"componentType":5126,
			"count":20,
			"type":"VEC3"
		},
		{
			"bufferView":25,
			"componentType":5126,
			"count":20,
			"type":"VEC2"
		},
		{
			"bufferView":26,
			"componentType":5126,
			"count":20,
			"type":"VEC2"
		},
		{
			"bufferView":27,
			"componentType":5123,
			"count":30,
			"type":"SCALAR"
		},
		{
			"bufferView":28,
			"componentType":5123,
			"count":78,
			"normalized":true,
			"type":"VEC4"
		},
		{
			"bufferView":29,
			"componentType":5126,
			"count":78,
			"max":[
				0.3312188982963562,
				2.2983407974243164,
				0.0495610237121582
			],
			"min":[
				-0.3312188982963562,
				0.46327874064445496,
				0.04956094175577164
			],
			"type":"VEC3"
		},
		{
			"bufferView":30,
			"componentType":5126,
			"count":78,
			"type":"VEC3"
		},
		{
			"bufferView":31,
			"componentType":5126,
			"count":78,
			"type":"VEC2"
		},
		{
			"bufferView":32,
			"componentType":5126,
			"count":78,
			"type":"VEC2"
		},
		{
			"bufferView":33,
			"componentType":5123,
			"count":234,
			"type":"SCALAR"
		},
		{
			"bufferView":34,
			"componentType":5123,
			"count":122,
			"normalized":true,
			"type":"VEC4"
		},
		{
			"bufferView":35,
			"componentType":5126,
			"count":122,
			"max":[
				0.3428766429424286,
				2.3269550800323486,
				0.06643561273813248
			],
			"min":[
				-0.3414529860019684,
				2.276301860809326,
				0.016269627958536148
			],
			"type":"VEC3"
		},
		{
			"bufferView":36,
			"componentType":5126,
			"count":122,
			"type":"VEC3"
		},
		{
			"bufferView":37,
			"componentType":5126,
			"count":122,
			"type":"VEC2"
		},
		{
			"bufferView":38,
			"componentType":5126,
			"count":122,
			"type":"VEC2"
		},
		{
			"bufferView":39,
			"componentType":5123,
			"count":330,
			"type":"SCALAR"
		}
	],
	"bufferViews":[
		{
			"buffer":0,
			"byteLength":288,
			"byteOffset":0,
			"target":34962
		},
		{
			"buffer":0,
			"byteLength":288,
			"byteOffset":288,
			"target":34962
		},
		{
			"buffer":0,
			"byteLength":192,
			"byteOffset":576,
			"target":34962
		},
		{
			"buffer":0,
			"byteLength":72,
			"byteOffset":768,
			"target":34963
		},
		{
			"buffer":0,
			"byteLength":288,
			"byteOffset":840,
			"target":34962
		},
		{
			"buffer":0,
			"byteLength":288,
			"byteOffset":1128,
			"target":34962
		},
		{
			"buffer":0,
			"byteLength":192,
			"byteOffset":1416,
			"target":34962
		},
		{
			"buffer":0,
			"byteLength":72,
			"byteOffset":1608,
			"target":34963
		},
		{
			"buffer":0,
			"byteLength":384,
			"byteOffset":1680,
			"target":34962
		},
		{
			"buffer":0,
			"byteLength":384,
			"byteOffset":2064,
			"target":34962
		},
		{
			"buffer":0,
			"byteLength":256,
			"byteOffset":2448,
			"target":34962
		},
		{
			"buffer":0,
			"byteLength":84,
			"byteOffset":2704,
			"target":34963
		},
		{
			"buffer":0,
			"byteLength":384,
			"byteOffset":2788,
			"target":34962
		},
		{
			"buffer":0,
			"byteLength":384,
			"byteOffset":3172,
			"target":34962
		},
		{
			"buffer":0,
			"byteLength":256,
			"byteOffset":3556,
			"target":34962
		},
		{
			"buffer":0,
			"byteLength":84,
			"byteOffset":3812,
			"target":34963
		},
		{
			"buffer":0,
			"byteLength":3744,
			"byteOffset":3896,
			"target":34962
		},
		{
			"buffer":0,
			"byteLength":5616,
			"byteOffset":7640,
			"target":34962
		},
		{
			"buffer":0,
			"byteLength":5616,
			"byteOffset":13256,
			"target":34962
		},
		{
			"buffer":0,
			"byteLength":3744,
			"byteOffset":18872,
			"target":34962
		},
		{
			"buffer":0,
			"byteLength":3744,
			"byteOffset":22616,
			"target":34962
		},
		{
			"buffer":0,
			"byteLength":1920,
			"byteOffset":26360,
			"target":34963
		},
		{
			"buffer":0,
			"byteLength":160,
			"byteOffset":28280,
			"target":34962
		},
		{
			"buffer":0,
			"byteLength":240,
			"byteOffset":28440,
			"target":34962
		},
		{
			"buffer":0,
			"byteLength":240,
			"byteOffset":28680,
			"target":34962
		},
		{
			"buffer":0,
			"byteLength":160,
			"byteOffset":28920,
			"target":34962
		},
		{
			"buffer":0,
			"byteLength":160,
			"byteOffset":29080,
			"target":34962
		},
		{
			"buffer":0,
			"byteLength":60,
			"byteOffset":29240,
			"target":34963
		},
		{
			"buffer":0,
			"byteLength":624,
			"byteOffset":29300,
			"target":34962
		},
		{
			"buffer":0,
			"byteLength":936,
			"byteOffset":29924,
			"target":34962
		},
		{
			"buffer":0,
			"byteLength":936,
			"byteOffset":30860,
			"target":34962
		},
		{
			"buffer":0,
			"byteLength":624,
			"byteOffset":31796,
			"target":34962
		},
		{
			"buffer":0,
			"byteLength":624,
			"byteOffset":32420,
			"target":34962
		},
		{
			"buffer":0,
			"byteLength":468,
			"byteOffset":33044,
			"target":34963
		},
		{
			"buffer":0,
			"byteLength":976,
			"byteOffset":33512,
			"target":34962
		},
		{
			"buffer":0,
			"byteLength":1464,
			"byteOffset":34488,
			"target":34962
		},
		{
			"buffer":0,
			"byteLength":1464,
			"byteOffset":35952,
			"target":34962
		},
		{
			"buffer":0,
			"byteLength":976,
			"byteOffset":37416,
			"target":34962
		},
		{
			"buffer":0,
			"byteLength":976,
			"byteOffset":38392,
			"target":34962
		},
		{
			"buffer":0,
			"byteLength":660,
			"byteOffset":39368,
			"target":34963
		}
	],
	"samplers":[
		{
			"magFilter":9729,
			"minFilter":9987
		}
	],
	"buffers":[
		{
			"byteLength":40028,
			"uri":"Banner_Vertical_1.bin"
		}
	]
}
