{
	"asset":{
		"generator":"Khronos glTF Blender I/O v4.0.44",
		"version":"2.0"
	},
	"scene":0,
	"scenes":[
		{
			"name":"Scene",
			"nodes":[
				1
			]
		}
	],
	"nodes":[
		{
			"mesh":0,
			"name":"Barrel_Apples_1-convcolonly"
		},
		{
			"children":[
				0
			],
			"mesh":1,
			"name":"Barrel_Apples"
		}
	],
	"materials":[
		{
			"doubleSided":true,
			"name":"Collision",
			"pbrMetallicRoughness":{
				"baseColorFactor":[
					0.047601714730262756,
					0.17601831257343292,
					0.8000785112380981,
					1
				],
				"metallicFactor":0,
				"roughnessFactor":0.5
			}
		},
		{
			"doubleSided":true,
			"name":"MI_Trim_Furniture",
			"normalTexture":{
				"index":0
			},
			"pbrMetallicRoughness":{
				"baseColorTexture":{
					"index":1
				},
				"metallicRoughnessTexture":{
					"index":2
				}
			}
		},
		{
			"doubleSided":true,
			"name":"MI_Trim_Metal",
			"normalTexture":{
				"index":3
			},
			"pbrMetallicRoughness":{
				"baseColorTexture":{
					"index":4
				},
				"metallicRoughnessTexture":{
					"index":5
				}
			}
		},
		{
			"doubleSided":true,
			"name":"MI_Trim_Props_Vertex",
			"normalTexture":{
				"index":6
			},
			"pbrMetallicRoughness":{
				"baseColorTexture":{
					"index":7
				},
				"metallicRoughnessTexture":{
					"index":8
				}
			}
		}
	],
	"meshes":[
		{
			"name":"Cylinder.013",
			"primitives":[
				{
					"attributes":{
						"POSITION":0,
						"NORMAL":1,
						"TEXCOORD_0":2
					},
					"indices":3,
					"material":0
				}
			]
		},
		{
			"name":"Cylinder.054",
			"primitives":[
				{
					"attributes":{
						"COLOR_0":4,
						"POSITION":5,
						"NORMAL":6,
						"TEXCOORD_0":7
					},
					"indices":8,
					"material":1
				},
				{
					"attributes":{
						"COLOR_0":9,
						"POSITION":10,
						"NORMAL":11,
						"TEXCOORD_0":12
					},
					"indices":13,
					"material":2
				},
				{
					"attributes":{
						"COLOR_0":14,
						"POSITION":15,
						"NORMAL":16,
						"TEXCOORD_0":17
					},
					"indices":18,
					"material":3
				}
			]
		}
	],
	"textures":[
		{
			"sampler":0,
			"source":0
		},
		{
			"sampler":0,
			"source":1
		},
		{
			"sampler":0,
			"source":2
		},
		{
			"sampler":0,
			"source":3
		},
		{
			"sampler":0,
			"source":4
		},
		{
			"sampler":0,
			"source":5
		},
		{
			"sampler":0,
			"source":6
		},
		{
			"sampler":0,
			"source":7
		},
		{
			"sampler":0,
			"source":8
		}
	],
	"images":[
		{
			"mimeType":"image/png",
			"name":"T_Trim_Furniture_Normal",
			"uri":"T_Trim_Furniture_Normal.png"
		},
		{
			"mimeType":"image/png",
			"name":"T_Trim_Furniture_BaseColor",
			"uri":"T_Trim_Furniture_BaseColor.png"
		},
		{
			"mimeType":"image/png",
			"name":"T_Trim_Furniture_ORM",
			"uri":"T_Trim_Furniture_ORM.png"
		},
		{
			"mimeType":"image/png",
			"name":"T_Trim_Metal_Normal",
			"uri":"T_Trim_Metal_Normal.png"
		},
		{
			"mimeType":"image/png",
			"name":"T_Trim_Metal_BaseColor",
			"uri":"T_Trim_Metal_BaseColor.png"
		},
		{
			"mimeType":"image/png",
			"name":"T_Trim_Metal_ORM",
			"uri":"T_Trim_Metal_ORM.png"
		},
		{
			"mimeType":"image/png",
			"name":"T_Trim_Props_Normal",
			"uri":"T_Trim_Props_Normal.png"
		},
		{
			"mimeType":"image/png",
			"name":"T_Trim_Props_BaseColor",
			"uri":"T_Trim_Props_BaseColor.png"
		},
		{
			"mimeType":"image/png",
			"name":"T_Trim_Props_ORM",
			"uri":"T_Trim_Props_ORM.png"
		}
	],
	"accessors":[
		{
			"bufferView":0,
			"componentType":5126,
			"count":112,
			"max":[
				0.3542018234729767,
				0.8835011720657349,
				0.35420170426368713
			],
			"min":[
				-0.3542018234729767,
				-0.0018357970984652638,
				-0.35420194268226624
			],
			"type":"VEC3"
		},
		{
			"bufferView":1,
			"componentType":5126,
			"count":112,
			"type":"VEC3"
		},
		{
			"bufferView":2,
			"componentType":5126,
			"count":112,
			"type":"VEC2"
		},
		{
			"bufferView":3,
			"componentType":5123,
			"count":180,
			"type":"SCALAR"
		},
		{
			"bufferView":4,
			"componentType":5123,
			"count":473,
			"normalized":true,
			"type":"VEC4"
		},
		{
			"bufferView":5,
			"componentType":5126,
			"count":473,
			"max":[
				0.3480248749256134,
				0.9013950824737549,
				0.3480248749256134
			],
			"min":[
				-0.3480248749256134,
				0.003436744213104248,
				-0.3480248749256134
			],
			"type":"VEC3"
		},
		{
			"bufferView":6,
			"componentType":5126,
			"count":473,
			"type":"VEC3"
		},
		{
			"bufferView":7,
			"componentType":5126,
			"count":473,
			"type":"VEC2"
		},
		{
			"bufferView":8,
			"componentType":5123,
			"count":1176,
			"type":"SCALAR"
		},
		{
			"bufferView":9,
			"componentType":5123,
			"count":726,
			"normalized":true,
			"type":"VEC4"
		},
		{
			"bufferView":10,
			"componentType":5126,
			"count":726,
			"max":[
				0.3490154445171356,
				0.7329425811767578,
				0.3490155041217804
			],
			"min":[
				-0.34901556372642517,
				0.14952683448791504,
				-0.349015474319458
			],
			"type":"VEC3"
		},
		{
			"bufferView":11,
			"componentType":5126,
			"count":726,
			"type":"VEC3"
		},
		{
			"bufferView":12,
			"componentType":5126,
			"count":726,
			"type":"VEC2"
		},
		{
			"bufferView":13,
			"componentType":5123,
			"count":1296,
			"type":"SCALAR"
		},
		{
			"bufferView":14,
			"componentType":5123,
			"count":1044,
			"normalized":true,
			"type":"VEC4"
		},
		{
			"bufferView":15,
			"componentType":5126,
			"count":1044,
			"max":[
				0.21615931391716003,
				0.8800793886184692,
				0.22505947947502136
			],
			"min":[
				-0.2171129733324051,
				0.6426482200622559,
				-0.21824856102466583
			],
			"type":"VEC3"
		},
		{
			"bufferView":16,
			"componentType":5126,
			"count":1044,
			"type":"VEC3"
		},
		{
			"bufferView":17,
			"componentType":5126,
			"count":1044,
			"type":"VEC2"
		},
		{
			"bufferView":18,
			"componentType":5123,
			"count":4968,
			"type":"SCALAR"
		}
	],
	"bufferViews":[
		{
			"buffer":0,
			"byteLength":1344,
			"byteOffset":0,
			"target":34962
		},
		{
			"buffer":0,
			"byteLength":1344,
			"byteOffset":1344,
			"target":34962
		},
		{
			"buffer":0,
			"byteLength":896,
			"byteOffset":2688,
			"target":34962
		},
		{
			"buffer":0,
			"byteLength":360,
			"byteOffset":3584,
			"target":34963
		},
		{
			"buffer":0,
			"byteLength":3784,
			"byteOffset":3944,
			"target":34962
		},
		{
			"buffer":0,
			"byteLength":5676,
			"byteOffset":7728,
			"target":34962
		},
		{
			"buffer":0,
			"byteLength":5676,
			"byteOffset":13404,
			"target":34962
		},
		{
			"buffer":0,
			"byteLength":3784,
			"byteOffset":19080,
			"target":34962
		},
		{
			"buffer":0,
			"byteLength":2352,
			"byteOffset":22864,
			"target":34963
		},
		{
			"buffer":0,
			"byteLength":5808,
			"byteOffset":25216,
			"target":34962
		},
		{
			"buffer":0,
			"byteLength":8712,
			"byteOffset":31024,
			"target":34962
		},
		{
			"buffer":0,
			"byteLength":8712,
			"byteOffset":39736,
			"target":34962
		},
		{
			"buffer":0,
			"byteLength":5808,
			"byteOffset":48448,
			"target":34962
		},
		{
			"buffer":0,
			"byteLength":2592,
			"byteOffset":54256,
			"target":34963
		},
		{
			"buffer":0,
			"byteLength":8352,
			"byteOffset":56848,
			"target":34962
		},
		{
			"buffer":0,
			"byteLength":12528,
			"byteOffset":65200,
			"target":34962
		},
		{
			"buffer":0,
			"byteLength":12528,
			"byteOffset":77728,
			"target":34962
		},
		{
			"buffer":0,
			"byteLength":8352,
			"byteOffset":90256,
			"target":34962
		},
		{
			"buffer":0,
			"byteLength":9936,
			"byteOffset":98608,
			"target":34963
		}
	],
	"samplers":[
		{
			"magFilter":9729,
			"minFilter":9987
		}
	],
	"buffers":[
		{
			"byteLength":108544,
			"uri":"Barrel_Apples.bin"
		}
	]
}
