{
	"asset":{
		"generator":"Khronos glTF Blender I/O v4.0.44",
		"version":"2.0"
	},
	"scene":0,
	"scenes":[
		{
			"name":"Scene",
			"nodes":[
				3
			]
		}
	],
	"nodes":[
		{
			"mesh":0,
			"name":"Barrel_Holder_1-convcolonly"
		},
		{
			"mesh":1,
			"name":"Barrel_Holder_2-convcolonly"
		},
		{
			"mesh":2,
			"name":"Barrel_Holder_3-convcolonly"
		},
		{
			"children":[
				0,
				1,
				2
			],
			"mesh":3,
			"name":"Barrel_Holder"
		}
	],
	"materials":[
		{
			"doubleSided":true,
			"name":"Collision",
			"pbrMetallicRoughness":{
				"baseColorFactor":[
					0.047601714730262756,
					0.17601831257343292,
					0.8000785112380981,
					1
				],
				"metallicFactor":0,
				"roughnessFactor":0.5
			}
		},
		{
			"doubleSided":true,
			"name":"MI_Trim_Furniture",
			"normalTexture":{
				"index":0
			},
			"pbrMetallicRoughness":{
				"baseColorTexture":{
					"index":1
				},
				"metallicRoughnessTexture":{
					"index":2
				}
			}
		},
		{
			"doubleSided":true,
			"name":"MI_Trim_Metal",
			"normalTexture":{
				"index":3
			},
			"pbrMetallicRoughness":{
				"baseColorTexture":{
					"index":4
				},
				"metallicRoughnessTexture":{
					"index":5
				}
			}
		}
	],
	"meshes":[
		{
			"name":"Cube.086",
			"primitives":[
				{
					"attributes":{
						"POSITION":0,
						"NORMAL":1,
						"TEXCOORD_0":2
					},
					"indices":3,
					"material":0
				}
			]
		},
		{
			"name":"Cylinder.031",
			"primitives":[
				{
					"attributes":{
						"POSITION":4,
						"NORMAL":5,
						"TEXCOORD_0":6
					},
					"indices":7,
					"material":0
				}
			]
		},
		{
			"name":"Cylinder.035",
			"primitives":[
				{
					"attributes":{
						"POSITION":8,
						"NORMAL":9,
						"TEXCOORD_0":10
					},
					"indices":11,
					"material":0
				}
			]
		},
		{
			"name":"Cube.045",
			"primitives":[
				{
					"attributes":{
						"COLOR_0":12,
						"POSITION":13,
						"NORMAL":14,
						"TEXCOORD_0":15
					},
					"indices":16,
					"material":1
				},
				{
					"attributes":{
						"COLOR_0":17,
						"POSITION":18,
						"NORMAL":19,
						"TEXCOORD_0":20
					},
					"indices":21,
					"material":2
				}
			]
		}
	],
	"textures":[
		{
			"sampler":0,
			"source":0
		},
		{
			"sampler":0,
			"source":1
		},
		{
			"sampler":0,
			"source":2
		},
		{
			"sampler":0,
			"source":3
		},
		{
			"sampler":0,
			"source":4
		},
		{
			"sampler":0,
			"source":5
		}
	],
	"images":[
		{
			"mimeType":"image/png",
			"name":"T_Trim_Furniture_Normal",
			"uri":"T_Trim_Furniture_Normal.png"
		},
		{
			"mimeType":"image/png",
			"name":"T_Trim_Furniture_BaseColor",
			"uri":"T_Trim_Furniture_BaseColor.png"
		},
		{
			"mimeType":"image/png",
			"name":"T_Trim_Furniture_ORM",
			"uri":"T_Trim_Furniture_ORM.png"
		},
		{
			"mimeType":"image/png",
			"name":"T_Trim_Metal_Normal",
			"uri":"T_Trim_Metal_Normal.png"
		},
		{
			"mimeType":"image/png",
			"name":"T_Trim_Metal_BaseColor",
			"uri":"T_Trim_Metal_BaseColor.png"
		},
		{
			"mimeType":"image/png",
			"name":"T_Trim_Metal_ORM",
			"uri":"T_Trim_Metal_ORM.png"
		}
	],
	"accessors":[
		{
			"bufferView":0,
			"componentType":5126,
			"count":24,
			"max":[
				0.6797462701797485,
				0.8393447995185852,
				0.2108844369649887
			],
			"min":[
				-0.6797454953193665,
				-0.022053241729736328,
				-0.21377511322498322
			],
			"type":"VEC3"
		},
		{
			"bufferView":1,
			"componentType":5126,
			"count":24,
			"type":"VEC3"
		},
		{
			"bufferView":2,
			"componentType":5126,
			"count":24,
			"type":"VEC2"
		},
		{
			"bufferView":3,
			"componentType":5123,
			"count":36,
			"type":"SCALAR"
		},
		{
			"bufferView":4,
			"componentType":5126,
			"count":112,
			"max":[
				0.5644687414169312,
				1.2614935636520386,
				0.3324938714504242
			],
			"min":[
				0.02291470766067505,
				0.7199394702911377,
				-0.35982221364974976
			],
			"type":"VEC3"
		},
		{
			"bufferView":5,
			"componentType":5126,
			"count":112,
			"type":"VEC3"
		},
		{
			"bufferView":6,
			"componentType":5126,
			"count":112,
			"type":"VEC2"
		},
		{
			"bufferView":7,
			"componentType":5123,
			"count":180,
			"type":"SCALAR"
		},
		{
			"bufferView":8,
			"componentType":5126,
			"count":112,
			"max":[
				-0.02291470766067505,
				1.2614935636520386,
				0.3324938714504242
			],
			"min":[
				-0.5644687414169312,
				0.7199394702911377,
				-0.35982221364974976
			],
			"type":"VEC3"
		},
		{
			"bufferView":9,
			"componentType":5126,
			"count":112,
			"type":"VEC3"
		},
		{
			"bufferView":10,
			"componentType":5126,
			"count":112,
			"type":"VEC2"
		},
		{
			"bufferView":11,
			"componentType":5123,
			"count":180,
			"type":"SCALAR"
		},
		{
			"bufferView":12,
			"componentType":5123,
			"count":1790,
			"normalized":true,
			"type":"VEC4"
		},
		{
			"bufferView":13,
			"componentType":5126,
			"count":1790,
			"max":[
				0.6776637434959412,
				1.2503478527069092,
				0.35821568965911865
			],
			"min":[
				-0.6776637434959412,
				-0.006288634147495031,
				-0.35199832916259766
			],
			"type":"VEC3"
		},
		{
			"bufferView":14,
			"componentType":5126,
			"count":1790,
			"type":"VEC3"
		},
		{
			"bufferView":15,
			"componentType":5126,
			"count":1790,
			"type":"VEC2"
		},
		{
			"bufferView":16,
			"componentType":5123,
			"count":4032,
			"type":"SCALAR"
		},
		{
			"bufferView":17,
			"componentType":5123,
			"count":1854,
			"normalized":true,
			"type":"VEC4"
		},
		{
			"bufferView":18,
			"componentType":5126,
			"count":1854,
			"max":[
				0.679623007774353,
				1.2511107921600342,
				0.3889680802822113
			],
			"min":[
				-0.679623007774353,
				0.7135266661643982,
				-0.23948796093463898
			],
			"type":"VEC3"
		},
		{
			"bufferView":19,
			"componentType":5126,
			"count":1854,
			"type":"VEC3"
		},
		{
			"bufferView":20,
			"componentType":5126,
			"count":1854,
			"type":"VEC2"
		},
		{
			"bufferView":21,
			"componentType":5123,
			"count":3996,
			"type":"SCALAR"
		}
	],
	"bufferViews":[
		{
			"buffer":0,
			"byteLength":288,
			"byteOffset":0,
			"target":34962
		},
		{
			"buffer":0,
			"byteLength":288,
			"byteOffset":288,
			"target":34962
		},
		{
			"buffer":0,
			"byteLength":192,
			"byteOffset":576,
			"target":34962
		},
		{
			"buffer":0,
			"byteLength":72,
			"byteOffset":768,
			"target":34963
		},
		{
			"buffer":0,
			"byteLength":1344,
			"byteOffset":840,
			"target":34962
		},
		{
			"buffer":0,
			"byteLength":1344,
			"byteOffset":2184,
			"target":34962
		},
		{
			"buffer":0,
			"byteLength":896,
			"byteOffset":3528,
			"target":34962
		},
		{
			"buffer":0,
			"byteLength":360,
			"byteOffset":4424,
			"target":34963
		},
		{
			"buffer":0,
			"byteLength":1344,
			"byteOffset":4784,
			"target":34962
		},
		{
			"buffer":0,
			"byteLength":1344,
			"byteOffset":6128,
			"target":34962
		},
		{
			"buffer":0,
			"byteLength":896,
			"byteOffset":7472,
			"target":34962
		},
		{
			"buffer":0,
			"byteLength":360,
			"byteOffset":8368,
			"target":34963
		},
		{
			"buffer":0,
			"byteLength":14320,
			"byteOffset":8728,
			"target":34962
		},
		{
			"buffer":0,
			"byteLength":21480,
			"byteOffset":23048,
			"target":34962
		},
		{
			"buffer":0,
			"byteLength":21480,
			"byteOffset":44528,
			"target":34962
		},
		{
			"buffer":0,
			"byteLength":14320,
			"byteOffset":66008,
			"target":34962
		},
		{
			"buffer":0,
			"byteLength":8064,
			"byteOffset":80328,
			"target":34963
		},
		{
			"buffer":0,
			"byteLength":14832,
			"byteOffset":88392,
			"target":34962
		},
		{
			"buffer":0,
			"byteLength":22248,
			"byteOffset":103224,
			"target":34962
		},
		{
			"buffer":0,
			"byteLength":22248,
			"byteOffset":125472,
			"target":34962
		},
		{
			"buffer":0,
			"byteLength":14832,
			"byteOffset":147720,
			"target":34962
		},
		{
			"buffer":0,
			"byteLength":7992,
			"byteOffset":162552,
			"target":34963
		}
	],
	"samplers":[
		{
			"magFilter":9729,
			"minFilter":9987
		}
	],
	"buffers":[
		{
			"byteLength":170544,
			"uri":"Barrel_Holder.bin"
		}
	]
}
