{
	"asset":{
		"generator":"Khronos glTF Blender I/O v4.0.44",
		"version":"2.0"
	},
	"scene":0,
	"scenes":[
		{
			"name":"Scene",
			"nodes":[
				7
			]
		}
	],
	"nodes":[
		{
			"mesh":0,
			"name":"Bed_Double2_01-convcolonly"
		},
		{
			"mesh":1,
			"name":"Bed_Double2_02-convcolonly"
		},
		{
			"mesh":2,
			"name":"Bed_Double2_03-convcolonly"
		},
		{
			"mesh":3,
			"name":"Bed_Double2_04-convcolonly"
		},
		{
			"mesh":4,
			"name":"Bed_Double2_05-convcolonly"
		},
		{
			"mesh":5,
			"name":"Bed_Double2_06-convcolonly"
		},
		{
			"mesh":6,
			"name":"Bed_Double2_07-convcolonly"
		},
		{
			"children":[
				0,
				1,
				2,
				3,
				4,
				5,
				6
			],
			"mesh":7,
			"name":"Bed_Double2"
		}
	],
	"materials":[
		{
			"doubleSided":true,
			"name":"Collision",
			"pbrMetallicRoughness":{
				"baseColorFactor":[
					0.047601714730262756,
					0.17601831257343292,
					0.8000785112380981,
					1
				],
				"metallicFactor":0,
				"roughnessFactor":0.5
			}
		},
		{
			"doubleSided":true,
			"name":"MI_Trim_Furniture",
			"normalTexture":{
				"index":0
			},
			"pbrMetallicRoughness":{
				"baseColorTexture":{
					"index":1
				},
				"metallicRoughnessTexture":{
					"index":2
				}
			}
		},
		{
			"doubleSided":true,
			"name":"MI_Trim_Metal",
			"normalTexture":{
				"index":3
			},
			"pbrMetallicRoughness":{
				"baseColorTexture":{
					"index":4
				},
				"metallicRoughnessTexture":{
					"index":5
				}
			}
		},
		{
			"doubleSided":true,
			"name":"MI_Trim_Cloth",
			"normalTexture":{
				"index":6
			},
			"pbrMetallicRoughness":{
				"baseColorTexture":{
					"index":7
				},
				"metallicRoughnessTexture":{
					"index":8
				}
			}
		}
	],
	"meshes":[
		{
			"name":"Cube.297",
			"primitives":[
				{
					"attributes":{
						"POSITION":0,
						"NORMAL":1,
						"TEXCOORD_0":2
					},
					"indices":3,
					"material":0
				}
			]
		},
		{
			"name":"Cube.298",
			"primitives":[
				{
					"attributes":{
						"POSITION":4,
						"NORMAL":5,
						"TEXCOORD_0":6
					},
					"indices":7,
					"material":0
				}
			]
		},
		{
			"name":"Cube.299",
			"primitives":[
				{
					"attributes":{
						"POSITION":8,
						"NORMAL":9,
						"TEXCOORD_0":10
					},
					"indices":11,
					"material":0
				}
			]
		},
		{
			"name":"Cube.300",
			"primitives":[
				{
					"attributes":{
						"POSITION":12,
						"NORMAL":13,
						"TEXCOORD_0":14
					},
					"indices":15,
					"material":0
				}
			]
		},
		{
			"name":"Cube.301",
			"primitives":[
				{
					"attributes":{
						"POSITION":16,
						"NORMAL":17,
						"TEXCOORD_0":18
					},
					"indices":19,
					"material":0
				}
			]
		},
		{
			"name":"Cube.302",
			"primitives":[
				{
					"attributes":{
						"POSITION":20,
						"NORMAL":21,
						"TEXCOORD_0":22
					},
					"indices":23,
					"material":0
				}
			]
		},
		{
			"name":"Cube.303",
			"primitives":[
				{
					"attributes":{
						"POSITION":24,
						"NORMAL":25,
						"TEXCOORD_0":26
					},
					"indices":27,
					"material":0
				}
			]
		},
		{
			"name":"Cube.219",
			"primitives":[
				{
					"attributes":{
						"COLOR_0":28,
						"POSITION":29,
						"NORMAL":30,
						"TEXCOORD_0":31
					},
					"indices":32,
					"material":1
				},
				{
					"attributes":{
						"COLOR_0":33,
						"POSITION":34,
						"NORMAL":35,
						"TEXCOORD_0":36
					},
					"indices":37,
					"material":2
				},
				{
					"attributes":{
						"COLOR_0":38,
						"POSITION":39,
						"NORMAL":40,
						"TEXCOORD_0":41
					},
					"indices":42,
					"material":3
				}
			]
		}
	],
	"textures":[
		{
			"sampler":0,
			"source":0
		},
		{
			"sampler":0,
			"source":1
		},
		{
			"sampler":0,
			"source":2
		},
		{
			"sampler":0,
			"source":3
		},
		{
			"sampler":0,
			"source":4
		},
		{
			"sampler":0,
			"source":5
		},
		{
			"sampler":0,
			"source":6
		},
		{
			"sampler":0,
			"source":7
		},
		{
			"sampler":0,
			"source":8
		}
	],
	"images":[
		{
			"mimeType":"image/png",
			"name":"T_Trim_Furniture_Normal",
			"uri":"T_Trim_Furniture_Normal.png"
		},
		{
			"mimeType":"image/png",
			"name":"T_Trim_Furniture_BaseColor",
			"uri":"T_Trim_Furniture_BaseColor.png"
		},
		{
			"mimeType":"image/png",
			"name":"T_Trim_Furniture_ORM",
			"uri":"T_Trim_Furniture_ORM.png"
		},
		{
			"mimeType":"image/png",
			"name":"T_Trim_Metal_Normal",
			"uri":"T_Trim_Metal_Normal.png"
		},
		{
			"mimeType":"image/png",
			"name":"T_Trim_Metal_BaseColor",
			"uri":"T_Trim_Metal_BaseColor.png"
		},
		{
			"mimeType":"image/png",
			"name":"T_Trim_Metal_ORM",
			"uri":"T_Trim_Metal_ORM.png"
		},
		{
			"mimeType":"image/png",
			"name":"T_Trim_Cloth_Normal",
			"uri":"T_Trim_Cloth_Normal.png"
		},
		{
			"mimeType":"image/png",
			"name":"T_Trim_Cloth_BaseColor",
			"uri":"T_Trim_Cloth_BaseColor.png"
		},
		{
			"mimeType":"image/png",
			"name":"T_Trim_Cloth_ORM",
			"uri":"T_Trim_Cloth_ORM.png"
		}
	],
	"accessors":[
		{
			"bufferView":0,
			"componentType":5126,
			"count":36,
			"max":[
				1.0657721757888794,
				0.5152995586395264,
				1.1214978694915771
			],
			"min":[
				-1.0486418008804321,
				-0.014901353046298027,
				-1.1251405477523804
			],
			"type":"VEC3"
		},
		{
			"bufferView":1,
			"componentType":5126,
			"count":36,
			"type":"VEC3"
		},
		{
			"bufferView":2,
			"componentType":5126,
			"count":36,
			"type":"VEC2"
		},
		{
			"bufferView":3,
			"componentType":5123,
			"count":60,
			"type":"SCALAR"
		},
		{
			"bufferView":4,
			"componentType":5126,
			"count":36,
			"max":[
				1.2293108701705933,
				0.7052132487297058,
				1.20514714717865
			],
			"min":[
				-1.212180256843567,
				0.406943142414093,
				1.0198463201522827
			],
			"type":"VEC3"
		},
		{
			"bufferView":5,
			"componentType":5126,
			"count":36,
			"type":"VEC3"
		},
		{
			"bufferView":6,
			"componentType":5126,
			"count":36,
			"type":"VEC2"
		},
		{
			"bufferView":7,
			"componentType":5123,
			"count":60,
			"type":"SCALAR"
		},
		{
			"bufferView":8,
			"componentType":5126,
			"count":24,
			"max":[
				1.2861101627349854,
				0.406943142414093,
				1.20514714717865
			],
			"min":[
				-1.2689794301986694,
				0.004504308570176363,
				1.0198463201522827
			],
			"type":"VEC3"
		},
		{
			"bufferView":9,
			"componentType":5126,
			"count":24,
			"type":"VEC3"
		},
		{
			"bufferView":10,
			"componentType":5126,
			"count":24,
			"type":"VEC2"
		},
		{
			"bufferView":11,
			"componentType":5123,
			"count":36,
			"type":"SCALAR"
		},
		{
			"bufferView":12,
			"componentType":5126,
			"count":36,
			"max":[
				1.2140308618545532,
				0.7540868520736694,
				-1.0198463201522827
			],
			"min":[
				-1.1969002485275269,
				0.406943142414093,
				-1.20514714717865
			],
			"type":"VEC3"
		},
		{
			"bufferView":13,
			"componentType":5126,
			"count":36,
			"type":"VEC3"
		},
		{
			"bufferView":14,
			"componentType":5126,
			"count":36,
			"type":"VEC2"
		},
		{
			"bufferView":15,
			"componentType":5123,
			"count":60,
			"type":"SCALAR"
		},
		{
			"bufferView":16,
			"componentType":5126,
			"count":24,
			"max":[
				0.5523456335067749,
				0.8158307671546936,
				-1.0198463201522827
			],
			"min":[
				-0.5352150797843933,
				0.7433488368988037,
				-1.20514714717865
			],
			"type":"VEC3"
		},
		{
			"bufferView":17,
			"componentType":5126,
			"count":24,
			"type":"VEC3"
		},
		{
			"bufferView":18,
			"componentType":5126,
			"count":24,
			"type":"VEC2"
		},
		{
			"bufferView":19,
			"componentType":5123,
			"count":36,
			"type":"SCALAR"
		},
		{
			"bufferView":20,
			"componentType":5126,
			"count":24,
			"max":[
				1.2861101627349854,
				0.406943142414093,
				-1.0198463201522827
			],
			"min":[
				-1.2689794301986694,
				0.004504308570176363,
				-1.20514714717865
			],
			"type":"VEC3"
		},
		{
			"bufferView":21,
			"componentType":5126,
			"count":24,
			"type":"VEC3"
		},
		{
			"bufferView":22,
			"componentType":5126,
			"count":24,
			"type":"VEC2"
		},
		{
			"bufferView":23,
			"componentType":5123,
			"count":36,
			"type":"SCALAR"
		},
		{
			"bufferView":24,
			"componentType":5126,
			"count":57,
			"max":[
				0.7969919443130493,
				0.6964807510375977,
				-0.5545364022254944
			],
			"min":[
				-0.8243967890739441,
				0.4496234357357025,
				-0.9846367239952087
			],
			"type":"VEC3"
		},
		{
			"bufferView":25,
			"componentType":5126,
			"count":57,
			"type":"VEC3"
		},
		{
			"bufferView":26,
			"componentType":5126,
			"count":57,
			"type":"VEC2"
		},
		{
			"bufferView":27,
			"componentType":5123,
			"count":96,
			"type":"SCALAR"
		},
		{
			"bufferView":28,
			"componentType":5123,
			"count":1172,
			"normalized":true,
			"type":"VEC4"
		},
		{
			"bufferView":29,
			"componentType":5126,
			"count":1172,
			"max":[
				1.281889796257019,
				0.7556167244911194,
				1.205949068069458
			],
			"min":[
				-1.2760251760482788,
				-0.00048286266974173486,
				-1.205949068069458
			],
			"type":"VEC3"
		},
		{
			"bufferView":30,
			"componentType":5126,
			"count":1172,
			"type":"VEC3"
		},
		{
			"bufferView":31,
			"componentType":5126,
			"count":1172,
			"type":"VEC2"
		},
		{
			"bufferView":32,
			"componentType":5123,
			"count":2838,
			"type":"SCALAR"
		},
		{
			"bufferView":33,
			"componentType":5123,
			"count":160,
			"normalized":true,
			"type":"VEC4"
		},
		{
			"bufferView":34,
			"componentType":5126,
			"count":160,
			"max":[
				1.06593918800354,
				0.7600604295730591,
				1.1389673948287964
			],
			"min":[
				-1.0668576955795288,
				0.16332824528217316,
				-1.1464409828186035
			],
			"type":"VEC3"
		},
		{
			"bufferView":35,
			"componentType":5126,
			"count":160,
			"type":"VEC3"
		},
		{
			"bufferView":36,
			"componentType":5126,
			"count":160,
			"type":"VEC2"
		},
		{
			"bufferView":37,
			"componentType":5123,
			"count":528,
			"type":"SCALAR"
		},
		{
			"bufferView":38,
			"componentType":5123,
			"count":302,
			"normalized":true,
			"type":"VEC4"
		},
		{
			"bufferView":39,
			"componentType":5126,
			"count":302,
			"max":[
				1.0057096481323242,
				0.6944201588630676,
				1.0489274263381958
			],
			"min":[
				-0.9998441934585571,
				0.27071884274482727,
				-1.0911180973052979
			],
			"type":"VEC3"
		},
		{
			"bufferView":40,
			"componentType":5126,
			"count":302,
			"type":"VEC3"
		},
		{
			"bufferView":41,
			"componentType":5126,
			"count":302,
			"type":"VEC2"
		},
		{
			"bufferView":42,
			"componentType":5123,
			"count":1284,
			"type":"SCALAR"
		}
	],
	"bufferViews":[
		{
			"buffer":0,
			"byteLength":432,
			"byteOffset":0,
			"target":34962
		},
		{
			"buffer":0,
			"byteLength":432,
			"byteOffset":432,
			"target":34962
		},
		{
			"buffer":0,
			"byteLength":288,
			"byteOffset":864,
			"target":34962
		},
		{
			"buffer":0,
			"byteLength":120,
			"byteOffset":1152,
			"target":34963
		},
		{
			"buffer":0,
			"byteLength":432,
			"byteOffset":1272,
			"target":34962
		},
		{
			"buffer":0,
			"byteLength":432,
			"byteOffset":1704,
			"target":34962
		},
		{
			"buffer":0,
			"byteLength":288,
			"byteOffset":2136,
			"target":34962
		},
		{
			"buffer":0,
			"byteLength":120,
			"byteOffset":2424,
			"target":34963
		},
		{
			"buffer":0,
			"byteLength":288,
			"byteOffset":2544,
			"target":34962
		},
		{
			"buffer":0,
			"byteLength":288,
			"byteOffset":2832,
			"target":34962
		},
		{
			"buffer":0,
			"byteLength":192,
			"byteOffset":3120,
			"target":34962
		},
		{
			"buffer":0,
			"byteLength":72,
			"byteOffset":3312,
			"target":34963
		},
		{
			"buffer":0,
			"byteLength":432,
			"byteOffset":3384,
			"target":34962
		},
		{
			"buffer":0,
			"byteLength":432,
			"byteOffset":3816,
			"target":34962
		},
		{
			"buffer":0,
			"byteLength":288,
			"byteOffset":4248,
			"target":34962
		},
		{
			"buffer":0,
			"byteLength":120,
			"byteOffset":4536,
			"target":34963
		},
		{
			"buffer":0,
			"byteLength":288,
			"byteOffset":4656,
			"target":34962
		},
		{
			"buffer":0,
			"byteLength":288,
			"byteOffset":4944,
			"target":34962
		},
		{
			"buffer":0,
			"byteLength":192,
			"byteOffset":5232,
			"target":34962
		},
		{
			"buffer":0,
			"byteLength":72,
			"byteOffset":5424,
			"target":34963
		},
		{
			"buffer":0,
			"byteLength":288,
			"byteOffset":5496,
			"target":34962
		},
		{
			"buffer":0,
			"byteLength":288,
			"byteOffset":5784,
			"target":34962
		},
		{
			"buffer":0,
			"byteLength":192,
			"byteOffset":6072,
			"target":34962
		},
		{
			"buffer":0,
			"byteLength":72,
			"byteOffset":6264,
			"target":34963
		},
		{
			"buffer":0,
			"byteLength":684,
			"byteOffset":6336,
			"target":34962
		},
		{
			"buffer":0,
			"byteLength":684,
			"byteOffset":7020,
			"target":34962
		},
		{
			"buffer":0,
			"byteLength":456,
			"byteOffset":7704,
			"target":34962
		},
		{
			"buffer":0,
			"byteLength":192,
			"byteOffset":8160,
			"target":34963
		},
		{
			"buffer":0,
			"byteLength":9376,
			"byteOffset":8352,
			"target":34962
		},
		{
			"buffer":0,
			"byteLength":14064,
			"byteOffset":17728,
			"target":34962
		},
		{
			"buffer":0,
			"byteLength":14064,
			"byteOffset":31792,
			"target":34962
		},
		{
			"buffer":0,
			"byteLength":9376,
			"byteOffset":45856,
			"target":34962
		},
		{
			"buffer":0,
			"byteLength":5676,
			"byteOffset":55232,
			"target":34963
		},
		{
			"buffer":0,
			"byteLength":1280,
			"byteOffset":60908,
			"target":34962
		},
		{
			"buffer":0,
			"byteLength":1920,
			"byteOffset":62188,
			"target":34962
		},
		{
			"buffer":0,
			"byteLength":1920,
			"byteOffset":64108,
			"target":34962
		},
		{
			"buffer":0,
			"byteLength":1280,
			"byteOffset":66028,
			"target":34962
		},
		{
			"buffer":0,
			"byteLength":1056,
			"byteOffset":67308,
			"target":34963
		},
		{
			"buffer":0,
			"byteLength":2416,
			"byteOffset":68364,
			"target":34962
		},
		{
			"buffer":0,
			"byteLength":3624,
			"byteOffset":70780,
			"target":34962
		},
		{
			"buffer":0,
			"byteLength":3624,
			"byteOffset":74404,
			"target":34962
		},
		{
			"buffer":0,
			"byteLength":2416,
			"byteOffset":78028,
			"target":34962
		},
		{
			"buffer":0,
			"byteLength":2568,
			"byteOffset":80444,
			"target":34963
		}
	],
	"samplers":[
		{
			"magFilter":9729,
			"minFilter":9987
		}
	],
	"buffers":[
		{
			"byteLength":83012,
			"uri":"Bed_Double2.bin"
		}
	]
}
