{
	"asset":{
		"generator":"Khronos glTF Blender I/O v4.0.44",
		"version":"2.0"
	},
	"scene":0,
	"scenes":[
		{
			"name":"Scene",
			"nodes":[
				7
			]
		}
	],
	"nodes":[
		{
			"mesh":0,
			"name":"Bed_Twin1_01-convcolonly"
		},
		{
			"mesh":1,
			"name":"Bed_Twin1_02-convcolonly"
		},
		{
			"mesh":2,
			"name":"Bed_Twin1_03-convcolonly"
		},
		{
			"mesh":3,
			"name":"Bed_Twin1_04-convcolonly"
		},
		{
			"mesh":4,
			"name":"Bed_Twin1_05-convcolonly"
		},
		{
			"mesh":5,
			"name":"Bed_Twin1_06-convcolonly"
		},
		{
			"mesh":6,
			"name":"Bed_Twin1_07-convcolonly"
		},
		{
			"children":[
				0,
				1,
				2,
				3,
				4,
				5,
				6
			],
			"mesh":7,
			"name":"Bed_Twin1"
		}
	],
	"materials":[
		{
			"doubleSided":true,
			"name":"Collision",
			"pbrMetallicRoughness":{
				"baseColorFactor":[
					0.047601714730262756,
					0.17601831257343292,
					0.8000785112380981,
					1
				],
				"metallicFactor":0,
				"roughnessFactor":0.5
			}
		},
		{
			"doubleSided":true,
			"name":"MI_Trim_Furniture",
			"normalTexture":{
				"index":0
			},
			"pbrMetallicRoughness":{
				"baseColorTexture":{
					"index":1
				},
				"metallicRoughnessTexture":{
					"index":2
				}
			}
		},
		{
			"doubleSided":true,
			"name":"MI_Trim_Metal",
			"normalTexture":{
				"index":3
			},
			"pbrMetallicRoughness":{
				"baseColorTexture":{
					"index":4
				},
				"metallicRoughnessTexture":{
					"index":5
				}
			}
		},
		{
			"doubleSided":true,
			"name":"MI_Trim_Cloth",
			"normalTexture":{
				"index":6
			},
			"pbrMetallicRoughness":{
				"baseColorTexture":{
					"index":7
				},
				"metallicRoughnessTexture":{
					"index":8
				}
			}
		}
	],
	"meshes":[
		{
			"name":"Cube.273",
			"primitives":[
				{
					"attributes":{
						"POSITION":0,
						"NORMAL":1,
						"TEXCOORD_0":2
					},
					"indices":3,
					"material":0
				}
			]
		},
		{
			"name":"Cube.274",
			"primitives":[
				{
					"attributes":{
						"POSITION":4,
						"NORMAL":5,
						"TEXCOORD_0":6
					},
					"indices":7,
					"material":0
				}
			]
		},
		{
			"name":"Cube.275",
			"primitives":[
				{
					"attributes":{
						"POSITION":8,
						"NORMAL":9,
						"TEXCOORD_0":10
					},
					"indices":11,
					"material":0
				}
			]
		},
		{
			"name":"Cube.276",
			"primitives":[
				{
					"attributes":{
						"POSITION":12,
						"NORMAL":13,
						"TEXCOORD_0":14
					},
					"indices":15,
					"material":0
				}
			]
		},
		{
			"name":"Cube.277",
			"primitives":[
				{
					"attributes":{
						"POSITION":16,
						"NORMAL":17,
						"TEXCOORD_0":18
					},
					"indices":19,
					"material":0
				}
			]
		},
		{
			"name":"Cube.278",
			"primitives":[
				{
					"attributes":{
						"POSITION":20,
						"NORMAL":21,
						"TEXCOORD_0":22
					},
					"indices":23,
					"material":0
				}
			]
		},
		{
			"name":"Cube.310",
			"primitives":[
				{
					"attributes":{
						"POSITION":24,
						"NORMAL":25,
						"TEXCOORD_0":26
					},
					"indices":27,
					"material":0
				}
			]
		},
		{
			"name":"Cube.188",
			"primitives":[
				{
					"attributes":{
						"COLOR_0":28,
						"POSITION":29,
						"NORMAL":30,
						"TEXCOORD_0":31
					},
					"indices":32,
					"material":1
				},
				{
					"attributes":{
						"COLOR_0":33,
						"POSITION":34,
						"NORMAL":35,
						"TEXCOORD_0":36
					},
					"indices":37,
					"material":2
				},
				{
					"attributes":{
						"COLOR_0":38,
						"POSITION":39,
						"NORMAL":40,
						"TEXCOORD_0":41
					},
					"indices":42,
					"material":3
				}
			]
		}
	],
	"textures":[
		{
			"sampler":0,
			"source":0
		},
		{
			"sampler":0,
			"source":1
		},
		{
			"sampler":0,
			"source":2
		},
		{
			"sampler":0,
			"source":3
		},
		{
			"sampler":0,
			"source":4
		},
		{
			"sampler":0,
			"source":5
		},
		{
			"sampler":0,
			"source":6
		},
		{
			"sampler":0,
			"source":7
		},
		{
			"sampler":0,
			"source":8
		}
	],
	"images":[
		{
			"mimeType":"image/png",
			"name":"T_Trim_Furniture_Normal",
			"uri":"T_Trim_Furniture_Normal.png"
		},
		{
			"mimeType":"image/png",
			"name":"T_Trim_Furniture_BaseColor",
			"uri":"T_Trim_Furniture_BaseColor.png"
		},
		{
			"mimeType":"image/png",
			"name":"T_Trim_Furniture_ORM",
			"uri":"T_Trim_Furniture_ORM.png"
		},
		{
			"mimeType":"image/png",
			"name":"T_Trim_Metal_Normal",
			"uri":"T_Trim_Metal_Normal.png"
		},
		{
			"mimeType":"image/png",
			"name":"T_Trim_Metal_BaseColor",
			"uri":"T_Trim_Metal_BaseColor.png"
		},
		{
			"mimeType":"image/png",
			"name":"T_Trim_Metal_ORM",
			"uri":"T_Trim_Metal_ORM.png"
		},
		{
			"mimeType":"image/png",
			"name":"T_Trim_Cloth_Normal",
			"uri":"T_Trim_Cloth_Normal.png"
		},
		{
			"mimeType":"image/png",
			"name":"T_Trim_Cloth_BaseColor",
			"uri":"T_Trim_Cloth_BaseColor.png"
		},
		{
			"mimeType":"image/png",
			"name":"T_Trim_Cloth_ORM",
			"uri":"T_Trim_Cloth_ORM.png"
		}
	],
	"accessors":[
		{
			"bufferView":0,
			"componentType":5126,
			"count":24,
			"max":[
				0.7654842138290405,
				0.7052132487297058,
				1.20514714717865
			],
			"min":[
				-0.7654829025268555,
				0.406943142414093,
				1.0198463201522827
			],
			"type":"VEC3"
		},
		{
			"bufferView":1,
			"componentType":5126,
			"count":24,
			"type":"VEC3"
		},
		{
			"bufferView":2,
			"componentType":5126,
			"count":24,
			"type":"VEC2"
		},
		{
			"bufferView":3,
			"componentType":5123,
			"count":36,
			"type":"SCALAR"
		},
		{
			"bufferView":4,
			"componentType":5126,
			"count":24,
			"max":[
				0.9435304999351501,
				0.406943142414093,
				1.20514714717865
			],
			"min":[
				-0.943528950214386,
				0.004504308570176363,
				1.0198463201522827
			],
			"type":"VEC3"
		},
		{
			"bufferView":5,
			"componentType":5126,
			"count":24,
			"type":"VEC3"
		},
		{
			"bufferView":6,
			"componentType":5126,
			"count":24,
			"type":"VEC2"
		},
		{
			"bufferView":7,
			"componentType":5123,
			"count":36,
			"type":"SCALAR"
		},
		{
			"bufferView":8,
			"componentType":5126,
			"count":36,
			"max":[
				0.7654842138290405,
				0.7540868520736694,
				-1.0198463201522827
			],
			"min":[
				-0.7654829025268555,
				0.406943142414093,
				-1.20514714717865
			],
			"type":"VEC3"
		},
		{
			"bufferView":9,
			"componentType":5126,
			"count":36,
			"type":"VEC3"
		},
		{
			"bufferView":10,
			"componentType":5126,
			"count":36,
			"type":"VEC2"
		},
		{
			"bufferView":11,
			"componentType":5123,
			"count":60,
			"type":"SCALAR"
		},
		{
			"bufferView":12,
			"componentType":5126,
			"count":24,
			"max":[
				0.9435304999351501,
				0.406943142414093,
				-1.0198463201522827
			],
			"min":[
				-0.943528950214386,
				0.004504308570176363,
				-1.20514714717865
			],
			"type":"VEC3"
		},
		{
			"bufferView":13,
			"componentType":5126,
			"count":24,
			"type":"VEC3"
		},
		{
			"bufferView":14,
			"componentType":5126,
			"count":24,
			"type":"VEC2"
		},
		{
			"bufferView":15,
			"componentType":5123,
			"count":36,
			"type":"SCALAR"
		},
		{
			"bufferView":16,
			"componentType":5126,
			"count":36,
			"max":[
				0.7189269065856934,
				0.5152995586395264,
				1.1214978694915771
			],
			"min":[
				-0.7189257144927979,
				-0.027787083759903908,
				-1.1251405477523804
			],
			"type":"VEC3"
		},
		{
			"bufferView":17,
			"componentType":5126,
			"count":36,
			"type":"VEC3"
		},
		{
			"bufferView":18,
			"componentType":5126,
			"count":36,
			"type":"VEC2"
		},
		{
			"bufferView":19,
			"componentType":5123,
			"count":60,
			"type":"SCALAR"
		},
		{
			"bufferView":20,
			"componentType":5126,
			"count":57,
			"max":[
				0.49894699454307556,
				0.6964807510375977,
				-0.5545364022254944
			],
			"min":[
				-0.4989461600780487,
				0.4496234357357025,
				-0.9846367239952087
			],
			"type":"VEC3"
		},
		{
			"bufferView":21,
			"componentType":5126,
			"count":57,
			"type":"VEC3"
		},
		{
			"bufferView":22,
			"componentType":5126,
			"count":57,
			"type":"VEC2"
		},
		{
			"bufferView":23,
			"componentType":5123,
			"count":96,
			"type":"SCALAR"
		},
		{
			"bufferView":24,
			"componentType":5126,
			"count":24,
			"max":[
				0.3292308449745178,
				0.813141405582428,
				-1.0198463201522827
			],
			"min":[
				-0.32923030853271484,
				0.7540868520736694,
				-1.20514714717865
			],
			"type":"VEC3"
		},
		{
			"bufferView":25,
			"componentType":5126,
			"count":24,
			"type":"VEC3"
		},
		{
			"bufferView":26,
			"componentType":5126,
			"count":24,
			"type":"VEC2"
		},
		{
			"bufferView":27,
			"componentType":5123,
			"count":36,
			"type":"SCALAR"
		},
		{
			"bufferView":28,
			"componentType":5123,
			"count":1232,
			"normalized":true,
			"type":"VEC4"
		},
		{
			"bufferView":29,
			"componentType":5126,
			"count":1232,
			"max":[
				0.9378617405891418,
				0.8055568933486938,
				1.205949068069458
			],
			"min":[
				-0.9378617405891418,
				0.0004533232713583857,
				-1.205949068069458
			],
			"type":"VEC3"
		},
		{
			"bufferView":30,
			"componentType":5126,
			"count":1232,
			"type":"VEC3"
		},
		{
			"bufferView":31,
			"componentType":5126,
			"count":1232,
			"type":"VEC2"
		},
		{
			"bufferView":32,
			"componentType":5123,
			"count":2988,
			"type":"SCALAR"
		},
		{
			"bufferView":33,
			"componentType":5123,
			"count":160,
			"normalized":true,
			"type":"VEC4"
		},
		{
			"bufferView":34,
			"componentType":5126,
			"count":160,
			"max":[
				0.7206220030784607,
				0.7600604295730591,
				1.138973593711853
			],
			"min":[
				-0.7275890111923218,
				0.16273373365402222,
				-1.1464409828186035
			],
			"type":"VEC3"
		},
		{
			"bufferView":35,
			"componentType":5126,
			"count":160,
			"type":"VEC3"
		},
		{
			"bufferView":36,
			"componentType":5126,
			"count":160,
			"type":"VEC2"
		},
		{
			"bufferView":37,
			"componentType":5123,
			"count":528,
			"type":"SCALAR"
		},
		{
			"bufferView":38,
			"componentType":5123,
			"count":302,
			"normalized":true,
			"type":"VEC4"
		},
		{
			"bufferView":39,
			"componentType":5126,
			"count":302,
			"max":[
				0.6707859039306641,
				0.6944201588630676,
				1.0489273071289062
			],
			"min":[
				-0.6707857847213745,
				0.27071884274482727,
				-1.0911182165145874
			],
			"type":"VEC3"
		},
		{
			"bufferView":40,
			"componentType":5126,
			"count":302,
			"type":"VEC3"
		},
		{
			"bufferView":41,
			"componentType":5126,
			"count":302,
			"type":"VEC2"
		},
		{
			"bufferView":42,
			"componentType":5123,
			"count":1284,
			"type":"SCALAR"
		}
	],
	"bufferViews":[
		{
			"buffer":0,
			"byteLength":288,
			"byteOffset":0,
			"target":34962
		},
		{
			"buffer":0,
			"byteLength":288,
			"byteOffset":288,
			"target":34962
		},
		{
			"buffer":0,
			"byteLength":192,
			"byteOffset":576,
			"target":34962
		},
		{
			"buffer":0,
			"byteLength":72,
			"byteOffset":768,
			"target":34963
		},
		{
			"buffer":0,
			"byteLength":288,
			"byteOffset":840,
			"target":34962
		},
		{
			"buffer":0,
			"byteLength":288,
			"byteOffset":1128,
			"target":34962
		},
		{
			"buffer":0,
			"byteLength":192,
			"byteOffset":1416,
			"target":34962
		},
		{
			"buffer":0,
			"byteLength":72,
			"byteOffset":1608,
			"target":34963
		},
		{
			"buffer":0,
			"byteLength":432,
			"byteOffset":1680,
			"target":34962
		},
		{
			"buffer":0,
			"byteLength":432,
			"byteOffset":2112,
			"target":34962
		},
		{
			"buffer":0,
			"byteLength":288,
			"byteOffset":2544,
			"target":34962
		},
		{
			"buffer":0,
			"byteLength":120,
			"byteOffset":2832,
			"target":34963
		},
		{
			"buffer":0,
			"byteLength":288,
			"byteOffset":2952,
			"target":34962
		},
		{
			"buffer":0,
			"byteLength":288,
			"byteOffset":3240,
			"target":34962
		},
		{
			"buffer":0,
			"byteLength":192,
			"byteOffset":3528,
			"target":34962
		},
		{
			"buffer":0,
			"byteLength":72,
			"byteOffset":3720,
			"target":34963
		},
		{
			"buffer":0,
			"byteLength":432,
			"byteOffset":3792,
			"target":34962
		},
		{
			"buffer":0,
			"byteLength":432,
			"byteOffset":4224,
			"target":34962
		},
		{
			"buffer":0,
			"byteLength":288,
			"byteOffset":4656,
			"target":34962
		},
		{
			"buffer":0,
			"byteLength":120,
			"byteOffset":4944,
			"target":34963
		},
		{
			"buffer":0,
			"byteLength":684,
			"byteOffset":5064,
			"target":34962
		},
		{
			"buffer":0,
			"byteLength":684,
			"byteOffset":5748,
			"target":34962
		},
		{
			"buffer":0,
			"byteLength":456,
			"byteOffset":6432,
			"target":34962
		},
		{
			"buffer":0,
			"byteLength":192,
			"byteOffset":6888,
			"target":34963
		},
		{
			"buffer":0,
			"byteLength":288,
			"byteOffset":7080,
			"target":34962
		},
		{
			"buffer":0,
			"byteLength":288,
			"byteOffset":7368,
			"target":34962
		},
		{
			"buffer":0,
			"byteLength":192,
			"byteOffset":7656,
			"target":34962
		},
		{
			"buffer":0,
			"byteLength":72,
			"byteOffset":7848,
			"target":34963
		},
		{
			"buffer":0,
			"byteLength":9856,
			"byteOffset":7920,
			"target":34962
		},
		{
			"buffer":0,
			"byteLength":14784,
			"byteOffset":17776,
			"target":34962
		},
		{
			"buffer":0,
			"byteLength":14784,
			"byteOffset":32560,
			"target":34962
		},
		{
			"buffer":0,
			"byteLength":9856,
			"byteOffset":47344,
			"target":34962
		},
		{
			"buffer":0,
			"byteLength":5976,
			"byteOffset":57200,
			"target":34963
		},
		{
			"buffer":0,
			"byteLength":1280,
			"byteOffset":63176,
			"target":34962
		},
		{
			"buffer":0,
			"byteLength":1920,
			"byteOffset":64456,
			"target":34962
		},
		{
			"buffer":0,
			"byteLength":1920,
			"byteOffset":66376,
			"target":34962
		},
		{
			"buffer":0,
			"byteLength":1280,
			"byteOffset":68296,
			"target":34962
		},
		{
			"buffer":0,
			"byteLength":1056,
			"byteOffset":69576,
			"target":34963
		},
		{
			"buffer":0,
			"byteLength":2416,
			"byteOffset":70632,
			"target":34962
		},
		{
			"buffer":0,
			"byteLength":3624,
			"byteOffset":73048,
			"target":34962
		},
		{
			"buffer":0,
			"byteLength":3624,
			"byteOffset":76672,
			"target":34962
		},
		{
			"buffer":0,
			"byteLength":2416,
			"byteOffset":80296,
			"target":34962
		},
		{
			"buffer":0,
			"byteLength":2568,
			"byteOffset":82712,
			"target":34963
		}
	],
	"samplers":[
		{
			"magFilter":9729,
			"minFilter":9987
		}
	],
	"buffers":[
		{
			"byteLength":85280,
			"uri":"Bed_Twin1.bin"
		}
	]
}
