{
	"asset":{
		"generator":"Khronos glTF Blender I/O v4.0.44",
		"version":"2.0"
	},
	"scene":0,
	"scenes":[
		{
			"name":"Scene",
			"nodes":[
				6
			]
		}
	],
	"nodes":[
		{
			"mesh":0,
			"name":"Bellows_1-convcolonly"
		},
		{
			"mesh":1,
			"name":"Bellows_2-convcolonly"
		},
		{
			"mesh":2,
			"name":"Bellows_3-convcolonly"
		},
		{
			"mesh":3,
			"name":"Bellows_4-convcolonly"
		},
		{
			"mesh":4,
			"name":"Bellows_5-convcolonly"
		},
		{
			"mesh":5,
			"name":"Bellows_6-convcolonly"
		},
		{
			"children":[
				0,
				1,
				2,
				3,
				4,
				5
			],
			"mesh":6,
			"name":"Bellows"
		}
	],
	"materials":[
		{
			"doubleSided":true,
			"name":"Collision",
			"pbrMetallicRoughness":{
				"baseColorFactor":[
					0.047601714730262756,
					0.17601831257343292,
					0.8000785112380981,
					1
				],
				"metallicFactor":0,
				"roughnessFactor":0.5
			}
		},
		{
			"doubleSided":true,
			"name":"MI_Trim_Furniture",
			"normalTexture":{
				"index":0
			},
			"pbrMetallicRoughness":{
				"baseColorTexture":{
					"index":1
				},
				"metallicRoughnessTexture":{
					"index":2
				}
			}
		},
		{
			"doubleSided":true,
			"name":"MI_Trim_Metal",
			"normalTexture":{
				"index":3
			},
			"pbrMetallicRoughness":{
				"baseColorTexture":{
					"index":4
				},
				"metallicRoughnessTexture":{
					"index":5
				}
			}
		},
		{
			"doubleSided":true,
			"name":"MI_Trim_Props_Vertex",
			"normalTexture":{
				"index":6
			},
			"pbrMetallicRoughness":{
				"baseColorTexture":{
					"index":7
				},
				"metallicRoughnessTexture":{
					"index":8
				}
			}
		}
	],
	"meshes":[
		{
			"name":"Cube.181",
			"primitives":[
				{
					"attributes":{
						"POSITION":0,
						"NORMAL":1,
						"TEXCOORD_0":2
					},
					"indices":3,
					"material":0
				}
			]
		},
		{
			"name":"Cube.185",
			"primitives":[
				{
					"attributes":{
						"POSITION":4,
						"NORMAL":5,
						"TEXCOORD_0":6
					},
					"indices":7,
					"material":0
				}
			]
		},
		{
			"name":"Cube.189",
			"primitives":[
				{
					"attributes":{
						"POSITION":8,
						"NORMAL":9,
						"TEXCOORD_0":10
					},
					"indices":11,
					"material":0
				}
			]
		},
		{
			"name":"Cube.190",
			"primitives":[
				{
					"attributes":{
						"POSITION":12,
						"NORMAL":13,
						"TEXCOORD_0":14
					},
					"indices":15,
					"material":0
				}
			]
		},
		{
			"name":"Cube.191",
			"primitives":[
				{
					"attributes":{
						"POSITION":16,
						"NORMAL":17,
						"TEXCOORD_0":18
					},
					"indices":19,
					"material":0
				}
			]
		},
		{
			"name":"Cube.192",
			"primitives":[
				{
					"attributes":{
						"POSITION":20,
						"NORMAL":21,
						"TEXCOORD_0":22
					},
					"indices":19,
					"material":0
				}
			]
		},
		{
			"name":"Cube.186",
			"primitives":[
				{
					"attributes":{
						"COLOR_0":23,
						"POSITION":24,
						"NORMAL":25,
						"TEXCOORD_0":26
					},
					"indices":27,
					"material":1
				},
				{
					"attributes":{
						"COLOR_0":28,
						"POSITION":29,
						"NORMAL":30,
						"TEXCOORD_0":31
					},
					"indices":32,
					"material":2
				},
				{
					"attributes":{
						"COLOR_0":33,
						"POSITION":34,
						"NORMAL":35,
						"TEXCOORD_0":36
					},
					"indices":37,
					"material":3
				}
			]
		}
	],
	"textures":[
		{
			"sampler":0,
			"source":0
		},
		{
			"sampler":0,
			"source":1
		},
		{
			"sampler":0,
			"source":2
		},
		{
			"sampler":0,
			"source":3
		},
		{
			"sampler":0,
			"source":4
		},
		{
			"sampler":0,
			"source":5
		},
		{
			"sampler":0,
			"source":6
		},
		{
			"sampler":0,
			"source":7
		},
		{
			"sampler":0,
			"source":8
		}
	],
	"images":[
		{
			"mimeType":"image/png",
			"name":"T_Trim_Furniture_Normal",
			"uri":"T_Trim_Furniture_Normal.png"
		},
		{
			"mimeType":"image/png",
			"name":"T_Trim_Furniture_BaseColor",
			"uri":"T_Trim_Furniture_BaseColor.png"
		},
		{
			"mimeType":"image/png",
			"name":"T_Trim_Furniture_ORM",
			"uri":"T_Trim_Furniture_ORM.png"
		},
		{
			"mimeType":"image/png",
			"name":"T_Trim_Metal_Normal",
			"uri":"T_Trim_Metal_Normal.png"
		},
		{
			"mimeType":"image/png",
			"name":"T_Trim_Metal_BaseColor",
			"uri":"T_Trim_Metal_BaseColor.png"
		},
		{
			"mimeType":"image/png",
			"name":"T_Trim_Metal_ORM",
			"uri":"T_Trim_Metal_ORM.png"
		},
		{
			"mimeType":"image/png",
			"name":"T_Trim_Props_Normal",
			"uri":"T_Trim_Props_Normal.png"
		},
		{
			"mimeType":"image/png",
			"name":"T_Trim_Props_BaseColor",
			"uri":"T_Trim_Props_BaseColor.png"
		},
		{
			"mimeType":"image/png",
			"name":"T_Trim_Props_ORM",
			"uri":"T_Trim_Props_ORM.png"
		}
	],
	"accessors":[
		{
			"bufferView":0,
			"componentType":5126,
			"count":62,
			"max":[
				0.2765052914619446,
				0.7356719374656677,
				0.2827582359313965
			],
			"min":[
				-0.2765045464038849,
				-0.022053241729736328,
				-0.5050007700920105
			],
			"type":"VEC3"
		},
		{
			"bufferView":1,
			"componentType":5126,
			"count":62,
			"type":"VEC3"
		},
		{
			"bufferView":2,
			"componentType":5126,
			"count":62,
			"type":"VEC2"
		},
		{
			"bufferView":3,
			"componentType":5123,
			"count":96,
			"type":"SCALAR"
		},
		{
			"bufferView":4,
			"componentType":5126,
			"count":40,
			"max":[
				0.1893884837627411,
				0.6182776093482971,
				1.0450356006622314
			],
			"min":[
				-0.18938827514648438,
				-0.022053241729736328,
				0.27553558349609375
			],
			"type":"VEC3"
		},
		{
			"bufferView":5,
			"componentType":5126,
			"count":40,
			"type":"VEC3"
		},
		{
			"bufferView":6,
			"componentType":5126,
			"count":40,
			"type":"VEC2"
		},
		{
			"bufferView":7,
			"componentType":5123,
			"count":60,
			"type":"SCALAR"
		},
		{
			"bufferView":8,
			"componentType":5126,
			"count":38,
			"max":[
				0.07429435849189758,
				1.0385926961898804,
				1.133052945137024
			],
			"min":[
				-0.07429416477680206,
				0.4875487685203552,
				-0.7585745453834534
			],
			"type":"VEC3"
		},
		{
			"bufferView":9,
			"componentType":5126,
			"count":38,
			"type":"VEC3"
		},
		{
			"bufferView":10,
			"componentType":5126,
			"count":38,
			"type":"VEC2"
		},
		{
			"bufferView":11,
			"componentType":5123,
			"count":60,
			"type":"SCALAR"
		},
		{
			"bufferView":12,
			"componentType":5126,
			"count":48,
			"max":[
				0.4341929852962494,
				1.2032687664031982,
				0.06331852078437805
			],
			"min":[
				-0.43419182300567627,
				0.00986788235604763,
				-0.06164753809571266
			],
			"type":"VEC3"
		},
		{
			"bufferView":13,
			"componentType":5126,
			"count":48,
			"type":"VEC3"
		},
		{
			"bufferView":14,
			"componentType":5126,
			"count":48,
			"type":"VEC2"
		},
		{
			"bufferView":15,
			"componentType":5123,
			"count":84,
			"type":"SCALAR"
		},
		{
			"bufferView":16,
			"componentType":5126,
			"count":24,
			"max":[
				0.37671568989753723,
				0.04190048202872276,
				0.30752483010292053
			],
			"min":[
				-0.37671467661857605,
				0.005596897564828396,
				-0.30585330724716187
			],
			"type":"VEC3"
		},
		{
			"bufferView":17,
			"componentType":5126,
			"count":24,
			"type":"VEC3"
		},
		{
			"bufferView":18,
			"componentType":5126,
			"count":24,
			"type":"VEC2"
		},
		{
			"bufferView":19,
			"componentType":5123,
			"count":36,
			"type":"SCALAR"
		},
		{
			"bufferView":20,
			"componentType":5126,
			"count":24,
			"max":[
				0.3052690327167511,
				0.23527073860168457,
				0.22415602207183838
			],
			"min":[
				-0.30526822805404663,
				0.03446308150887489,
				-0.22248467803001404
			],
			"type":"VEC3"
		},
		{
			"bufferView":21,
			"componentType":5126,
			"count":24,
			"type":"VEC3"
		},
		{
			"bufferView":22,
			"componentType":5126,
			"count":24,
			"type":"VEC2"
		},
		{
			"bufferView":23,
			"componentType":5123,
			"count":353,
			"normalized":true,
			"type":"VEC4"
		},
		{
			"bufferView":24,
			"componentType":5126,
			"count":353,
			"max":[
				0.44582775235176086,
				1.1903742551803589,
				0.6664161086082458
			],
			"min":[
				-0.4306437373161316,
				-0.00028255581855773926,
				-0.7509205341339111
			],
			"type":"VEC3"
		},
		{
			"bufferView":25,
			"componentType":5126,
			"count":353,
			"type":"VEC3"
		},
		{
			"bufferView":26,
			"componentType":5126,
			"count":353,
			"type":"VEC2"
		},
		{
			"bufferView":27,
			"componentType":5123,
			"count":600,
			"type":"SCALAR"
		},
		{
			"bufferView":28,
			"componentType":5123,
			"count":1700,
			"normalized":true,
			"type":"VEC4"
		},
		{
			"bufferView":29,
			"componentType":5126,
			"count":1700,
			"max":[
				0.3154132068157196,
				1.2009377479553223,
				1.0203495025634766
			],
			"min":[
				-0.3198171854019165,
				0.3024754524230957,
				-0.7358093857765198
			],
			"type":"VEC3"
		},
		{
			"bufferView":30,
			"componentType":5126,
			"count":1700,
			"type":"VEC3"
		},
		{
			"bufferView":31,
			"componentType":5126,
			"count":1700,
			"type":"VEC2"
		},
		{
			"bufferView":32,
			"componentType":5123,
			"count":5304,
			"type":"SCALAR"
		},
		{
			"bufferView":33,
			"componentType":5123,
			"count":712,
			"normalized":true,
			"type":"VEC4"
		},
		{
			"bufferView":34,
			"componentType":5126,
			"count":712,
			"max":[
				0.24982233345508575,
				1.0274171829223633,
				1.1307201385498047
			],
			"min":[
				-0.24985748529434204,
				0.3401062786579132,
				-0.7509205341339111
			],
			"type":"VEC3"
		},
		{
			"bufferView":35,
			"componentType":5126,
			"count":712,
			"type":"VEC3"
		},
		{
			"bufferView":36,
			"componentType":5126,
			"count":712,
			"type":"VEC2"
		},
		{
			"bufferView":37,
			"componentType":5123,
			"count":2796,
			"type":"SCALAR"
		}
	],
	"bufferViews":[
		{
			"buffer":0,
			"byteLength":744,
			"byteOffset":0,
			"target":34962
		},
		{
			"buffer":0,
			"byteLength":744,
			"byteOffset":744,
			"target":34962
		},
		{
			"buffer":0,
			"byteLength":496,
			"byteOffset":1488,
			"target":34962
		},
		{
			"buffer":0,
			"byteLength":192,
			"byteOffset":1984,
			"target":34963
		},
		{
			"buffer":0,
			"byteLength":480,
			"byteOffset":2176,
			"target":34962
		},
		{
			"buffer":0,
			"byteLength":480,
			"byteOffset":2656,
			"target":34962
		},
		{
			"buffer":0,
			"byteLength":320,
			"byteOffset":3136,
			"target":34962
		},
		{
			"buffer":0,
			"byteLength":120,
			"byteOffset":3456,
			"target":34963
		},
		{
			"buffer":0,
			"byteLength":456,
			"byteOffset":3576,
			"target":34962
		},
		{
			"buffer":0,
			"byteLength":456,
			"byteOffset":4032,
			"target":34962
		},
		{
			"buffer":0,
			"byteLength":304,
			"byteOffset":4488,
			"target":34962
		},
		{
			"buffer":0,
			"byteLength":120,
			"byteOffset":4792,
			"target":34963
		},
		{
			"buffer":0,
			"byteLength":576,
			"byteOffset":4912,
			"target":34962
		},
		{
			"buffer":0,
			"byteLength":576,
			"byteOffset":5488,
			"target":34962
		},
		{
			"buffer":0,
			"byteLength":384,
			"byteOffset":6064,
			"target":34962
		},
		{
			"buffer":0,
			"byteLength":168,
			"byteOffset":6448,
			"target":34963
		},
		{
			"buffer":0,
			"byteLength":288,
			"byteOffset":6616,
			"target":34962
		},
		{
			"buffer":0,
			"byteLength":288,
			"byteOffset":6904,
			"target":34962
		},
		{
			"buffer":0,
			"byteLength":192,
			"byteOffset":7192,
			"target":34962
		},
		{
			"buffer":0,
			"byteLength":72,
			"byteOffset":7384,
			"target":34963
		},
		{
			"buffer":0,
			"byteLength":288,
			"byteOffset":7456,
			"target":34962
		},
		{
			"buffer":0,
			"byteLength":288,
			"byteOffset":7744,
			"target":34962
		},
		{
			"buffer":0,
			"byteLength":192,
			"byteOffset":8032,
			"target":34962
		},
		{
			"buffer":0,
			"byteLength":2824,
			"byteOffset":8224,
			"target":34962
		},
		{
			"buffer":0,
			"byteLength":4236,
			"byteOffset":11048,
			"target":34962
		},
		{
			"buffer":0,
			"byteLength":4236,
			"byteOffset":15284,
			"target":34962
		},
		{
			"buffer":0,
			"byteLength":2824,
			"byteOffset":19520,
			"target":34962
		},
		{
			"buffer":0,
			"byteLength":1200,
			"byteOffset":22344,
			"target":34963
		},
		{
			"buffer":0,
			"byteLength":13600,
			"byteOffset":23544,
			"target":34962
		},
		{
			"buffer":0,
			"byteLength":20400,
			"byteOffset":37144,
			"target":34962
		},
		{
			"buffer":0,
			"byteLength":20400,
			"byteOffset":57544,
			"target":34962
		},
		{
			"buffer":0,
			"byteLength":13600,
			"byteOffset":77944,
			"target":34962
		},
		{
			"buffer":0,
			"byteLength":10608,
			"byteOffset":91544,
			"target":34963
		},
		{
			"buffer":0,
			"byteLength":5696,
			"byteOffset":102152,
			"target":34962
		},
		{
			"buffer":0,
			"byteLength":8544,
			"byteOffset":107848,
			"target":34962
		},
		{
			"buffer":0,
			"byteLength":8544,
			"byteOffset":116392,
			"target":34962
		},
		{
			"buffer":0,
			"byteLength":5696,
			"byteOffset":124936,
			"target":34962
		},
		{
			"buffer":0,
			"byteLength":5592,
			"byteOffset":130632,
			"target":34963
		}
	],
	"samplers":[
		{
			"magFilter":9729,
			"minFilter":9987
		}
	],
	"buffers":[
		{
			"byteLength":136224,
			"uri":"Bellows.bin"
		}
	]
}
