{
	"asset":{
		"generator":"Khronos glTF Blender I/O v4.0.44",
		"version":"2.0"
	},
	"scene":0,
	"scenes":[
		{
			"name":"Scene",
			"nodes":[
				1
			]
		}
	],
	"nodes":[
		{
			"mesh":0,
			"name":"Bench_MetalSides_1-convcolonly"
		},
		{
			"children":[
				0
			],
			"mesh":1,
			"name":"Bench_MetalSides"
		}
	],
	"materials":[
		{
			"doubleSided":true,
			"name":"Collision",
			"pbrMetallicRoughness":{
				"baseColorFactor":[
					0.047601714730262756,
					0.17601831257343292,
					0.8000785112380981,
					1
				],
				"metallicFactor":0,
				"roughnessFactor":0.5
			}
		},
		{
			"doubleSided":true,
			"name":"MI_Trim_Furniture",
			"normalTexture":{
				"index":0
			},
			"pbrMetallicRoughness":{
				"baseColorTexture":{
					"index":1
				},
				"metallicRoughnessTexture":{
					"index":2
				}
			}
		},
		{
			"doubleSided":true,
			"name":"MI_Trim_Metal",
			"normalTexture":{
				"index":3
			},
			"pbrMetallicRoughness":{
				"baseColorTexture":{
					"index":4
				},
				"metallicRoughnessTexture":{
					"index":5
				}
			}
		}
	],
	"meshes":[
		{
			"name":"Cube.050",
			"primitives":[
				{
					"attributes":{
						"POSITION":0,
						"NORMAL":1,
						"TEXCOORD_0":2
					},
					"indices":3,
					"material":0
				}
			]
		},
		{
			"name":"Cube.019",
			"primitives":[
				{
					"attributes":{
						"COLOR_0":4,
						"POSITION":5,
						"NORMAL":6,
						"TEXCOORD_0":7
					},
					"indices":8,
					"material":1
				},
				{
					"attributes":{
						"COLOR_0":9,
						"POSITION":10,
						"NORMAL":11,
						"TEXCOORD_0":12
					},
					"indices":13,
					"material":2
				}
			]
		}
	],
	"textures":[
		{
			"sampler":0,
			"source":0
		},
		{
			"sampler":0,
			"source":1
		},
		{
			"sampler":0,
			"source":2
		},
		{
			"sampler":0,
			"source":3
		},
		{
			"sampler":0,
			"source":4
		},
		{
			"sampler":0,
			"source":5
		}
	],
	"images":[
		{
			"mimeType":"image/png",
			"name":"T_Trim_Furniture_Normal",
			"uri":"T_Trim_Furniture_Normal.png"
		},
		{
			"mimeType":"image/png",
			"name":"T_Trim_Furniture_BaseColor",
			"uri":"T_Trim_Furniture_BaseColor.png"
		},
		{
			"mimeType":"image/png",
			"name":"T_Trim_Furniture_ORM",
			"uri":"T_Trim_Furniture_ORM.png"
		},
		{
			"mimeType":"image/png",
			"name":"T_Trim_Metal_Normal",
			"uri":"T_Trim_Metal_Normal.png"
		},
		{
			"mimeType":"image/png",
			"name":"T_Trim_Metal_BaseColor",
			"uri":"T_Trim_Metal_BaseColor.png"
		},
		{
			"mimeType":"image/png",
			"name":"T_Trim_Metal_ORM",
			"uri":"T_Trim_Metal_ORM.png"
		}
	],
	"accessors":[
		{
			"bufferView":0,
			"componentType":5126,
			"count":40,
			"max":[
				1.3941646814346313,
				0.5098201036453247,
				0.267559677362442
			],
			"min":[
				-1.394158959388733,
				-0.01576891541481018,
				-0.25609952211380005
			],
			"type":"VEC3"
		},
		{
			"bufferView":1,
			"componentType":5126,
			"count":40,
			"type":"VEC3"
		},
		{
			"bufferView":2,
			"componentType":5126,
			"count":40,
			"type":"VEC2"
		},
		{
			"bufferView":3,
			"componentType":5123,
			"count":60,
			"type":"SCALAR"
		},
		{
			"bufferView":4,
			"componentType":5123,
			"count":326,
			"normalized":true,
			"type":"VEC4"
		},
		{
			"bufferView":5,
			"componentType":5126,
			"count":326,
			"max":[
				1.4007874727249146,
				0.5306668877601624,
				0.27458661794662476
			],
			"min":[
				-1.4007874727249146,
				-0.007327278610318899,
				-0.2644702196121216
			],
			"type":"VEC3"
		},
		{
			"bufferView":6,
			"componentType":5126,
			"count":326,
			"type":"VEC3"
		},
		{
			"bufferView":7,
			"componentType":5126,
			"count":326,
			"type":"VEC2"
		},
		{
			"bufferView":8,
			"componentType":5123,
			"count":756,
			"type":"SCALAR"
		},
		{
			"bufferView":9,
			"componentType":5123,
			"count":376,
			"normalized":true,
			"type":"VEC4"
		},
		{
			"bufferView":10,
			"componentType":5126,
			"count":376,
			"max":[
				1.4136618375778198,
				0.5637122392654419,
				0.32144275307655334
			],
			"min":[
				-1.4136618375778198,
				0.3842760920524597,
				-0.2949267029762268
			],
			"type":"VEC3"
		},
		{
			"bufferView":11,
			"componentType":5126,
			"count":376,
			"type":"VEC3"
		},
		{
			"bufferView":12,
			"componentType":5126,
			"count":376,
			"type":"VEC2"
		},
		{
			"bufferView":13,
			"componentType":5123,
			"count":984,
			"type":"SCALAR"
		}
	],
	"bufferViews":[
		{
			"buffer":0,
			"byteLength":480,
			"byteOffset":0,
			"target":34962
		},
		{
			"buffer":0,
			"byteLength":480,
			"byteOffset":480,
			"target":34962
		},
		{
			"buffer":0,
			"byteLength":320,
			"byteOffset":960,
			"target":34962
		},
		{
			"buffer":0,
			"byteLength":120,
			"byteOffset":1280,
			"target":34963
		},
		{
			"buffer":0,
			"byteLength":2608,
			"byteOffset":1400,
			"target":34962
		},
		{
			"buffer":0,
			"byteLength":3912,
			"byteOffset":4008,
			"target":34962
		},
		{
			"buffer":0,
			"byteLength":3912,
			"byteOffset":7920,
			"target":34962
		},
		{
			"buffer":0,
			"byteLength":2608,
			"byteOffset":11832,
			"target":34962
		},
		{
			"buffer":0,
			"byteLength":1512,
			"byteOffset":14440,
			"target":34963
		},
		{
			"buffer":0,
			"byteLength":3008,
			"byteOffset":15952,
			"target":34962
		},
		{
			"buffer":0,
			"byteLength":4512,
			"byteOffset":18960,
			"target":34962
		},
		{
			"buffer":0,
			"byteLength":4512,
			"byteOffset":23472,
			"target":34962
		},
		{
			"buffer":0,
			"byteLength":3008,
			"byteOffset":27984,
			"target":34962
		},
		{
			"buffer":0,
			"byteLength":1968,
			"byteOffset":30992,
			"target":34963
		}
	],
	"samplers":[
		{
			"magFilter":9729,
			"minFilter":9987
		}
	],
	"buffers":[
		{
			"byteLength":32960,
			"uri":"Bench_MetalSides.bin"
		}
	]
}
