{
	"asset":{
		"generator":"Khronos glTF Blender I/O v4.0.44",
		"version":"2.0"
	},
	"scene":0,
	"scenes":[
		{
			"name":"Scene",
			"nodes":[
				1
			]
		}
	],
	"nodes":[
		{
			"mesh":0,
			"name":"Book_3_1-convcolonly"
		},
		{
			"children":[
				0
			],
			"mesh":1,
			"name":"Book_3"
		}
	],
	"materials":[
		{
			"doubleSided":true,
			"name":"Collision",
			"pbrMetallicRoughness":{
				"baseColorFactor":[
					0.047601714730262756,
					0.17601831257343292,
					0.8000785112380981,
					1
				],
				"metallicFactor":0,
				"roughnessFactor":0.5
			}
		},
		{
			"doubleSided":true,
			"name":"MI_Trim_Props_Vertex",
			"normalTexture":{
				"index":0
			},
			"pbrMetallicRoughness":{
				"baseColorTexture":{
					"index":1
				},
				"metallicRoughnessTexture":{
					"index":2
				}
			}
		},
		{
			"doubleSided":true,
			"name":"MI_Trim_Metal_Vertex",
			"normalTexture":{
				"index":3
			},
			"pbrMetallicRoughness":{
				"baseColorTexture":{
					"index":4
				},
				"metallicRoughnessTexture":{
					"index":5
				}
			}
		}
	],
	"meshes":[
		{
			"name":"Cube.116",
			"primitives":[
				{
					"attributes":{
						"POSITION":0,
						"NORMAL":1,
						"TEXCOORD_0":2
					},
					"indices":3,
					"material":0
				}
			]
		},
		{
			"name":"Cube.200",
			"primitives":[
				{
					"attributes":{
						"COLOR_0":4,
						"POSITION":5,
						"NORMAL":6,
						"TEXCOORD_0":7
					},
					"indices":8,
					"material":1
				},
				{
					"attributes":{
						"COLOR_0":9,
						"POSITION":10,
						"NORMAL":11,
						"TEXCOORD_0":12
					},
					"indices":13,
					"material":2
				}
			]
		}
	],
	"textures":[
		{
			"sampler":0,
			"source":0
		},
		{
			"sampler":0,
			"source":1
		},
		{
			"sampler":0,
			"source":2
		},
		{
			"sampler":0,
			"source":3
		},
		{
			"sampler":0,
			"source":4
		},
		{
			"sampler":0,
			"source":5
		}
	],
	"images":[
		{
			"mimeType":"image/png",
			"name":"T_Trim_Props_Normal",
			"uri":"T_Trim_Props_Normal.png"
		},
		{
			"mimeType":"image/png",
			"name":"T_Trim_Props_BaseColor",
			"uri":"T_Trim_Props_BaseColor.png"
		},
		{
			"mimeType":"image/png",
			"name":"T_Trim_Props_ORM",
			"uri":"T_Trim_Props_ORM.png"
		},
		{
			"mimeType":"image/png",
			"name":"T_Trim_Metal_Normal",
			"uri":"T_Trim_Metal_Normal.png"
		},
		{
			"mimeType":"image/png",
			"name":"T_Trim_Metal_BaseColor",
			"uri":"T_Trim_Metal_BaseColor.png"
		},
		{
			"mimeType":"image/png",
			"name":"T_Trim_Metal_ORM",
			"uri":"T_Trim_Metal_ORM.png"
		}
	],
	"accessors":[
		{
			"bufferView":0,
			"componentType":5126,
			"count":34,
			"max":[
				0.15085484087467194,
				0.048362623900175095,
				0.1665211170911789
			],
			"min":[
				-0.13470201194286346,
				-0.049170900136232376,
				-0.16652144491672516
			],
			"type":"VEC3"
		},
		{
			"bufferView":1,
			"componentType":5126,
			"count":34,
			"type":"VEC3"
		},
		{
			"bufferView":2,
			"componentType":5126,
			"count":34,
			"type":"VEC2"
		},
		{
			"bufferView":3,
			"componentType":5123,
			"count":60,
			"type":"SCALAR"
		},
		{
			"bufferView":4,
			"componentType":5123,
			"count":572,
			"normalized":true,
			"type":"VEC4"
		},
		{
			"bufferView":5,
			"componentType":5126,
			"count":572,
			"max":[
				0.14643594622612,
				0.04941593110561371,
				0.1654440015554428
			],
			"min":[
				-0.14040465652942657,
				-0.04941593110561371,
				-0.1654440015554428
			],
			"type":"VEC3"
		},
		{
			"bufferView":6,
			"componentType":5126,
			"count":572,
			"type":"VEC3"
		},
		{
			"bufferView":7,
			"componentType":5126,
			"count":572,
			"type":"VEC2"
		},
		{
			"bufferView":8,
			"componentType":5123,
			"count":1368,
			"type":"SCALAR"
		},
		{
			"bufferView":9,
			"componentType":5123,
			"count":836,
			"normalized":true,
			"type":"VEC4"
		},
		{
			"bufferView":10,
			"componentType":5126,
			"count":836,
			"max":[
				0.16978728771209717,
				0.05522121489048004,
				0.1666259914636612
			],
			"min":[
				0.05951625108718872,
				-0.05522121489048004,
				-0.1666259914636612
			],
			"type":"VEC3"
		},
		{
			"bufferView":11,
			"componentType":5126,
			"count":836,
			"type":"VEC3"
		},
		{
			"bufferView":12,
			"componentType":5126,
			"count":836,
			"type":"VEC2"
		},
		{
			"bufferView":13,
			"componentType":5123,
			"count":2496,
			"type":"SCALAR"
		}
	],
	"bufferViews":[
		{
			"buffer":0,
			"byteLength":408,
			"byteOffset":0,
			"target":34962
		},
		{
			"buffer":0,
			"byteLength":408,
			"byteOffset":408,
			"target":34962
		},
		{
			"buffer":0,
			"byteLength":272,
			"byteOffset":816,
			"target":34962
		},
		{
			"buffer":0,
			"byteLength":120,
			"byteOffset":1088,
			"target":34963
		},
		{
			"buffer":0,
			"byteLength":4576,
			"byteOffset":1208,
			"target":34962
		},
		{
			"buffer":0,
			"byteLength":6864,
			"byteOffset":5784,
			"target":34962
		},
		{
			"buffer":0,
			"byteLength":6864,
			"byteOffset":12648,
			"target":34962
		},
		{
			"buffer":0,
			"byteLength":4576,
			"byteOffset":19512,
			"target":34962
		},
		{
			"buffer":0,
			"byteLength":2736,
			"byteOffset":24088,
			"target":34963
		},
		{
			"buffer":0,
			"byteLength":6688,
			"byteOffset":26824,
			"target":34962
		},
		{
			"buffer":0,
			"byteLength":10032,
			"byteOffset":33512,
			"target":34962
		},
		{
			"buffer":0,
			"byteLength":10032,
			"byteOffset":43544,
			"target":34962
		},
		{
			"buffer":0,
			"byteLength":6688,
			"byteOffset":53576,
			"target":34962
		},
		{
			"buffer":0,
			"byteLength":4992,
			"byteOffset":60264,
			"target":34963
		}
	],
	"samplers":[
		{
			"magFilter":9729,
			"minFilter":9987
		}
	],
	"buffers":[
		{
			"byteLength":65256,
			"uri":"Book_3.bin"
		}
	]
}
