{
	"asset":{
		"generator":"Khronos glTF Blender I/O v4.0.44",
		"version":"2.0"
	},
	"scene":0,
	"scenes":[
		{
			"name":"Scene",
			"nodes":[
				1
			]
		}
	],
	"nodes":[
		{
			"mesh":0,
			"name":"Book_Open_1-convcolonly"
		},
		{
			"children":[
				0
			],
			"mesh":1,
			"name":"Book_Open"
		}
	],
	"materials":[
		{
			"doubleSided":true,
			"name":"Collision",
			"pbrMetallicRoughness":{
				"baseColorFactor":[
					0.047601714730262756,
					0.17601831257343292,
					0.8000785112380981,
					1
				],
				"metallicFactor":0,
				"roughnessFactor":0.5
			}
		},
		{
			"doubleSided":true,
			"name":"MI_Trim_Props_Vertex",
			"normalTexture":{
				"index":0
			},
			"pbrMetallicRoughness":{
				"baseColorTexture":{
					"index":1
				},
				"metallicRoughnessTexture":{
					"index":2
				}
			}
		},
		{
			"doubleSided":true,
			"name":"MI_Page_1",
			"pbrMetallicRoughness":{
				"baseColorTexture":{
					"index":3
				},
				"metallicFactor":0,
				"roughnessFactor":0.5
			}
		},
		{
			"doubleSided":true,
			"name":"MI_Page_2",
			"pbrMetallicRoughness":{
				"baseColorTexture":{
					"index":4
				},
				"metallicFactor":0,
				"roughnessFactor":0.5
			}
		}
	],
	"meshes":[
		{
			"name":"Cube.119",
			"primitives":[
				{
					"attributes":{
						"POSITION":0,
						"NORMAL":1,
						"TEXCOORD_0":2
					},
					"indices":3,
					"material":0
				}
			]
		},
		{
			"name":"Cube.142",
			"primitives":[
				{
					"attributes":{
						"COLOR_0":4,
						"POSITION":5,
						"NORMAL":6,
						"TEXCOORD_0":7
					},
					"indices":8,
					"material":1
				},
				{
					"attributes":{
						"COLOR_0":9,
						"POSITION":10,
						"NORMAL":11,
						"TEXCOORD_0":12
					},
					"indices":13,
					"material":2
				},
				{
					"attributes":{
						"COLOR_0":14,
						"POSITION":15,
						"NORMAL":16,
						"TEXCOORD_0":17
					},
					"indices":18,
					"material":3
				}
			]
		}
	],
	"textures":[
		{
			"sampler":0,
			"source":0
		},
		{
			"sampler":0,
			"source":1
		},
		{
			"sampler":0,
			"source":2
		},
		{
			"sampler":0,
			"source":3
		},
		{
			"sampler":0,
			"source":3
		}
	],
	"images":[
		{
			"mimeType":"image/png",
			"name":"T_Trim_Props_Normal",
			"uri":"T_Trim_Props_Normal.png"
		},
		{
			"mimeType":"image/png",
			"name":"T_Trim_Props_BaseColor",
			"uri":"T_Trim_Props_BaseColor.png"
		},
		{
			"mimeType":"image/png",
			"name":"T_Trim_Props_ORM",
			"uri":"T_Trim_Props_ORM.png"
		},
		{
			"mimeType":"image/png",
			"name":"T_Page_Noise",
			"uri":"T_Page_Noise.png"
		}
	],
	"accessors":[
		{
			"bufferView":0,
			"componentType":5126,
			"count":24,
			"max":[
				0.2291201502084732,
				0.04714405536651611,
				0.1442342847585678
			],
			"min":[
				-0.2291192263364792,
				0.000936937693040818,
				-0.1442345678806305
			],
			"type":"VEC3"
		},
		{
			"bufferView":1,
			"componentType":5126,
			"count":24,
			"type":"VEC3"
		},
		{
			"bufferView":2,
			"componentType":5126,
			"count":24,
			"type":"VEC2"
		},
		{
			"bufferView":3,
			"componentType":5123,
			"count":36,
			"type":"SCALAR"
		},
		{
			"bufferView":4,
			"componentType":5123,
			"count":225,
			"normalized":true,
			"type":"VEC4"
		},
		{
			"bufferView":5,
			"componentType":5126,
			"count":225,
			"max":[
				0.2293768674135208,
				0.04830487444996834,
				0.1575051248073578
			],
			"min":[
				-0.2293768674135208,
				0.0002362663799431175,
				-0.14356224238872528
			],
			"type":"VEC3"
		},
		{
			"bufferView":6,
			"componentType":5126,
			"count":225,
			"type":"VEC3"
		},
		{
			"bufferView":7,
			"componentType":5126,
			"count":225,
			"type":"VEC2"
		},
		{
			"bufferView":8,
			"componentType":5123,
			"count":648,
			"type":"SCALAR"
		},
		{
			"bufferView":9,
			"componentType":5123,
			"count":16,
			"normalized":true,
			"type":"VEC4"
		},
		{
			"bufferView":10,
			"componentType":5126,
			"count":16,
			"max":[
				0,
				0.045994363725185394,
				0.13616131246089935
			],
			"min":[
				-0.2128564864397049,
				0.035197339951992035,
				-0.13612543046474457
			],
			"type":"VEC3"
		},
		{
			"bufferView":11,
			"componentType":5126,
			"count":16,
			"type":"VEC3"
		},
		{
			"bufferView":12,
			"componentType":5126,
			"count":16,
			"type":"VEC2"
		},
		{
			"bufferView":13,
			"componentType":5123,
			"count":42,
			"type":"SCALAR"
		},
		{
			"bufferView":14,
			"componentType":5123,
			"count":16,
			"normalized":true,
			"type":"VEC4"
		},
		{
			"bufferView":15,
			"componentType":5126,
			"count":16,
			"max":[
				0.2128564864397049,
				0.045994363725185394,
				0.13616131246089935
			],
			"min":[
				0,
				0.035197339951992035,
				-0.13612543046474457
			],
			"type":"VEC3"
		},
		{
			"bufferView":16,
			"componentType":5126,
			"count":16,
			"type":"VEC3"
		},
		{
			"bufferView":17,
			"componentType":5126,
			"count":16,
			"type":"VEC2"
		},
		{
			"bufferView":18,
			"componentType":5123,
			"count":42,
			"type":"SCALAR"
		}
	],
	"bufferViews":[
		{
			"buffer":0,
			"byteLength":288,
			"byteOffset":0,
			"target":34962
		},
		{
			"buffer":0,
			"byteLength":288,
			"byteOffset":288,
			"target":34962
		},
		{
			"buffer":0,
			"byteLength":192,
			"byteOffset":576,
			"target":34962
		},
		{
			"buffer":0,
			"byteLength":72,
			"byteOffset":768,
			"target":34963
		},
		{
			"buffer":0,
			"byteLength":1800,
			"byteOffset":840,
			"target":34962
		},
		{
			"buffer":0,
			"byteLength":2700,
			"byteOffset":2640,
			"target":34962
		},
		{
			"buffer":0,
			"byteLength":2700,
			"byteOffset":5340,
			"target":34962
		},
		{
			"buffer":0,
			"byteLength":1800,
			"byteOffset":8040,
			"target":34962
		},
		{
			"buffer":0,
			"byteLength":1296,
			"byteOffset":9840,
			"target":34963
		},
		{
			"buffer":0,
			"byteLength":128,
			"byteOffset":11136,
			"target":34962
		},
		{
			"buffer":0,
			"byteLength":192,
			"byteOffset":11264,
			"target":34962
		},
		{
			"buffer":0,
			"byteLength":192,
			"byteOffset":11456,
			"target":34962
		},
		{
			"buffer":0,
			"byteLength":128,
			"byteOffset":11648,
			"target":34962
		},
		{
			"buffer":0,
			"byteLength":84,
			"byteOffset":11776,
			"target":34963
		},
		{
			"buffer":0,
			"byteLength":128,
			"byteOffset":11860,
			"target":34962
		},
		{
			"buffer":0,
			"byteLength":192,
			"byteOffset":11988,
			"target":34962
		},
		{
			"buffer":0,
			"byteLength":192,
			"byteOffset":12180,
			"target":34962
		},
		{
			"buffer":0,
			"byteLength":128,
			"byteOffset":12372,
			"target":34962
		},
		{
			"buffer":0,
			"byteLength":84,
			"byteOffset":12500,
			"target":34963
		}
	],
	"samplers":[
		{
			"magFilter":9729,
			"minFilter":9987
		}
	],
	"buffers":[
		{
			"byteLength":12584,
			"uri":"Book_Open.bin"
		}
	]
}
