{
	"asset":{
		"generator":"Khronos glTF Blender I/O v4.0.44",
		"version":"2.0"
	},
	"scene":0,
	"scenes":[
		{
			"name":"Scene",
			"nodes":[
				1
			]
		}
	],
	"nodes":[
		{
			"mesh":0,
			"name":"BookGroup_Medium_1_1-convcolonly"
		},
		{
			"children":[
				0
			],
			"mesh":1,
			"name":"BookGroup_Medium_1"
		}
	],
	"materials":[
		{
			"doubleSided":true,
			"name":"Collision",
			"pbrMetallicRoughness":{
				"baseColorFactor":[
					0.047601714730262756,
					0.17601831257343292,
					0.8000785112380981,
					1
				],
				"metallicFactor":0,
				"roughnessFactor":0.5
			}
		},
		{
			"doubleSided":true,
			"name":"MI_Trim_Props_Vertex",
			"normalTexture":{
				"index":0
			},
			"pbrMetallicRoughness":{
				"baseColorTexture":{
					"index":1
				},
				"metallicRoughnessTexture":{
					"index":2
				}
			}
		}
	],
	"meshes":[
		{
			"name":"Cube.205",
			"primitives":[
				{
					"attributes":{
						"POSITION":0,
						"NORMAL":1,
						"TEXCOORD_0":2
					},
					"indices":3,
					"material":0
				}
			]
		},
		{
			"name":"Cube.024",
			"primitives":[
				{
					"attributes":{
						"COLOR_0":4,
						"POSITION":5,
						"NORMAL":6,
						"TEXCOORD_0":7
					},
					"indices":8,
					"material":1
				}
			]
		}
	],
	"textures":[
		{
			"sampler":0,
			"source":0
		},
		{
			"sampler":0,
			"source":1
		},
		{
			"sampler":0,
			"source":2
		}
	],
	"images":[
		{
			"mimeType":"image/png",
			"name":"T_Trim_Props_Normal",
			"uri":"T_Trim_Props_Normal.png"
		},
		{
			"mimeType":"image/png",
			"name":"T_Trim_Props_BaseColor",
			"uri":"T_Trim_Props_BaseColor.png"
		},
		{
			"mimeType":"image/png",
			"name":"T_Trim_Props_ORM",
			"uri":"T_Trim_Props_ORM.png"
		}
	],
	"accessors":[
		{
			"bufferView":0,
			"componentType":5126,
			"count":24,
			"max":[
				0.5257158279418945,
				0.279804527759552,
				0.09190180897712708
			],
			"min":[
				-0.5471978783607483,
				-0.002410519402474165,
				-0.13498368859291077
			],
			"type":"VEC3"
		},
		{
			"bufferView":1,
			"componentType":5126,
			"count":24,
			"type":"VEC3"
		},
		{
			"bufferView":2,
			"componentType":5126,
			"count":24,
			"type":"VEC2"
		},
		{
			"bufferView":3,
			"componentType":5123,
			"count":36,
			"type":"SCALAR"
		},
		{
			"bufferView":4,
			"componentType":5123,
			"count":576,
			"normalized":true,
			"type":"VEC4"
		},
		{
			"bufferView":5,
			"componentType":5126,
			"count":576,
			"max":[
				0.5197001099586487,
				0.2944376766681671,
				0.0898323655128479
			],
			"min":[
				-0.5429158210754395,
				-0.003822582308202982,
				-0.15765345096588135
			],
			"type":"VEC3"
		},
		{
			"bufferView":6,
			"componentType":5126,
			"count":576,
			"type":"VEC3"
		},
		{
			"bufferView":7,
			"componentType":5126,
			"count":576,
			"type":"VEC2"
		},
		{
			"bufferView":8,
			"componentType":5123,
			"count":1248,
			"type":"SCALAR"
		}
	],
	"bufferViews":[
		{
			"buffer":0,
			"byteLength":288,
			"byteOffset":0,
			"target":34962
		},
		{
			"buffer":0,
			"byteLength":288,
			"byteOffset":288,
			"target":34962
		},
		{
			"buffer":0,
			"byteLength":192,
			"byteOffset":576,
			"target":34962
		},
		{
			"buffer":0,
			"byteLength":72,
			"byteOffset":768,
			"target":34963
		},
		{
			"buffer":0,
			"byteLength":4608,
			"byteOffset":840,
			"target":34962
		},
		{
			"buffer":0,
			"byteLength":6912,
			"byteOffset":5448,
			"target":34962
		},
		{
			"buffer":0,
			"byteLength":6912,
			"byteOffset":12360,
			"target":34962
		},
		{
			"buffer":0,
			"byteLength":4608,
			"byteOffset":19272,
			"target":34962
		},
		{
			"buffer":0,
			"byteLength":2496,
			"byteOffset":23880,
			"target":34963
		}
	],
	"samplers":[
		{
			"magFilter":9729,
			"minFilter":9987
		}
	],
	"buffers":[
		{
			"byteLength":26376,
			"uri":"BookGroup_Medium_1.bin"
		}
	]
}
