{
	"asset":{
		"generator":"Khronos glTF Blender I/O v4.0.44",
		"version":"2.0"
	},
	"scene":0,
	"scenes":[
		{
			"name":"Scene",
			"nodes":[
				4
			]
		}
	],
	"nodes":[
		{
			"mesh":0,
			"name":"CampfireTripod_1-convcolonly"
		},
		{
			"mesh":1,
			"name":"CampfireTripod_2-convcolonly"
		},
		{
			"mesh":2,
			"name":"CampfireTripod_3-convcolonly"
		},
		{
			"mesh":3,
			"name":"CampfireTripod_4-convcolonly"
		},
		{
			"children":[
				0,
				1,
				2,
				3
			],
			"mesh":4,
			"name":"CampfireTripod"
		}
	],
	"materials":[
		{
			"doubleSided":true,
			"name":"Collision",
			"pbrMetallicRoughness":{
				"baseColorFactor":[
					0.047601714730262756,
					0.17601831257343292,
					0.8000785112380981,
					1
				],
				"metallicFactor":0,
				"roughnessFactor":0.5
			}
		},
		{
			"doubleSided":true,
			"name":"MI_Trim_Furniture",
			"normalTexture":{
				"index":0
			},
			"pbrMetallicRoughness":{
				"baseColorTexture":{
					"index":1
				},
				"metallicRoughnessTexture":{
					"index":2
				}
			}
		},
		{
			"doubleSided":true,
			"name":"MI_Trim_Metal",
			"normalTexture":{
				"index":3
			},
			"pbrMetallicRoughness":{
				"baseColorTexture":{
					"index":4
				},
				"metallicRoughnessTexture":{
					"index":5
				}
			}
		}
	],
	"meshes":[
		{
			"name":"Cube.091",
			"primitives":[
				{
					"attributes":{
						"POSITION":0,
						"NORMAL":1,
						"TEXCOORD_0":2
					},
					"indices":3,
					"material":0
				}
			]
		},
		{
			"name":"Cylinder.044",
			"primitives":[
				{
					"attributes":{
						"POSITION":4,
						"NORMAL":5,
						"TEXCOORD_0":6
					},
					"indices":7,
					"material":0
				}
			]
		},
		{
			"name":"Cube.093",
			"primitives":[
				{
					"attributes":{
						"POSITION":8,
						"NORMAL":9,
						"TEXCOORD_0":10
					},
					"indices":11,
					"material":0
				}
			]
		},
		{
			"name":"Cube.094",
			"primitives":[
				{
					"attributes":{
						"POSITION":12,
						"NORMAL":13,
						"TEXCOORD_0":14
					},
					"indices":15,
					"material":0
				}
			]
		},
		{
			"name":"Cylinder.030",
			"primitives":[
				{
					"attributes":{
						"POSITION":16,
						"NORMAL":17,
						"TEXCOORD_0":18
					},
					"indices":19,
					"material":1
				},
				{
					"attributes":{
						"POSITION":20,
						"NORMAL":21,
						"TEXCOORD_0":22
					},
					"indices":23,
					"material":2
				}
			]
		}
	],
	"textures":[
		{
			"sampler":0,
			"source":0
		},
		{
			"sampler":0,
			"source":1
		},
		{
			"sampler":0,
			"source":2
		},
		{
			"sampler":0,
			"source":3
		},
		{
			"sampler":0,
			"source":4
		},
		{
			"sampler":0,
			"source":5
		}
	],
	"images":[
		{
			"mimeType":"image/png",
			"name":"T_Trim_Furniture_Normal",
			"uri":"T_Trim_Furniture_Normal.png"
		},
		{
			"mimeType":"image/png",
			"name":"T_Trim_Furniture_BaseColor",
			"uri":"T_Trim_Furniture_BaseColor.png"
		},
		{
			"mimeType":"image/png",
			"name":"T_Trim_Furniture_ORM",
			"uri":"T_Trim_Furniture_ORM.png"
		},
		{
			"mimeType":"image/png",
			"name":"T_Trim_Metal_Normal",
			"uri":"T_Trim_Metal_Normal.png"
		},
		{
			"mimeType":"image/png",
			"name":"T_Trim_Metal_BaseColor",
			"uri":"T_Trim_Metal_BaseColor.png"
		},
		{
			"mimeType":"image/png",
			"name":"T_Trim_Metal_ORM",
			"uri":"T_Trim_Metal_ORM.png"
		}
	],
	"accessors":[
		{
			"bufferView":0,
			"componentType":5126,
			"count":24,
			"max":[
				1.1468899250030518,
				1.5182982683181763,
				0.04169774055480957
			],
			"min":[
				-0.004497561603784561,
				-0.010268405079841614,
				-0.04169782996177673
			],
			"type":"VEC3"
		},
		{
			"bufferView":1,
			"componentType":5126,
			"count":24,
			"type":"VEC3"
		},
		{
			"bufferView":2,
			"componentType":5126,
			"count":24,
			"type":"VEC2"
		},
		{
			"bufferView":3,
			"componentType":5123,
			"count":36,
			"type":"SCALAR"
		},
		{
			"bufferView":4,
			"componentType":5126,
			"count":112,
			"max":[
				0.2736259996891022,
				0.8935419321060181,
				0.2736276686191559
			],
			"min":[
				-0.27362850308418274,
				-0.01300656795501709,
				-0.2736268639564514
			],
			"type":"VEC3"
		},
		{
			"bufferView":5,
			"componentType":5126,
			"count":112,
			"type":"VEC3"
		},
		{
			"bufferView":6,
			"componentType":5126,
			"count":112,
			"type":"VEC2"
		},
		{
			"bufferView":7,
			"componentType":5123,
			"count":180,
			"type":"SCALAR"
		},
		{
			"bufferView":8,
			"componentType":5126,
			"count":24,
			"max":[
				0.03423433005809784,
				1.5182982683181763,
				1.0140846967697144
			],
			"min":[
				-0.6095563173294067,
				-0.010268405079841614,
				-0.022361725568771362
			],
			"type":"VEC3"
		},
		{
			"bufferView":9,
			"componentType":5126,
			"count":24,
			"type":"VEC3"
		},
		{
			"bufferView":10,
			"componentType":5126,
			"count":24,
			"type":"VEC2"
		},
		{
			"bufferView":11,
			"componentType":5123,
			"count":36,
			"type":"SCALAR"
		},
		{
			"bufferView":12,
			"componentType":5126,
			"count":24,
			"max":[
				0.034234076738357544,
				1.5182982683181763,
				0.022361863404512405
			],
			"min":[
				-0.6095561981201172,
				-0.010268405079841614,
				-1.0140846967697144
			],
			"type":"VEC3"
		},
		{
			"bufferView":13,
			"componentType":5126,
			"count":24,
			"type":"VEC3"
		},
		{
			"bufferView":14,
			"componentType":5126,
			"count":24,
			"type":"VEC2"
		},
		{
			"bufferView":15,
			"componentType":5123,
			"count":36,
			"type":"SCALAR"
		},
		{
			"bufferView":16,
			"componentType":5126,
			"count":445,
			"max":[
				0.20748543739318848,
				0.3727593421936035,
				0.2837144434452057
			],
			"min":[
				-0.3070543110370636,
				-0.03154575079679489,
				-0.2405581772327423
			],
			"type":"VEC3"
		},
		{
			"bufferView":17,
			"componentType":5126,
			"count":445,
			"type":"VEC3"
		},
		{
			"bufferView":18,
			"componentType":5126,
			"count":445,
			"type":"VEC2"
		},
		{
			"bufferView":19,
			"componentType":5123,
			"count":1740,
			"type":"SCALAR"
		},
		{
			"bufferView":20,
			"componentType":5126,
			"count":2228,
			"max":[
				1.1432251930236816,
				1.5118708610534668,
				1.0056467056274414
			],
			"min":[
				-0.598854660987854,
				-0.012100666761398315,
				-1.005908489227295
			],
			"type":"VEC3"
		},
		{
			"bufferView":21,
			"componentType":5126,
			"count":2228,
			"type":"VEC3"
		},
		{
			"bufferView":22,
			"componentType":5126,
			"count":2228,
			"type":"VEC2"
		},
		{
			"bufferView":23,
			"componentType":5123,
			"count":6432,
			"type":"SCALAR"
		}
	],
	"bufferViews":[
		{
			"buffer":0,
			"byteLength":288,
			"byteOffset":0,
			"target":34962
		},
		{
			"buffer":0,
			"byteLength":288,
			"byteOffset":288,
			"target":34962
		},
		{
			"buffer":0,
			"byteLength":192,
			"byteOffset":576,
			"target":34962
		},
		{
			"buffer":0,
			"byteLength":72,
			"byteOffset":768,
			"target":34963
		},
		{
			"buffer":0,
			"byteLength":1344,
			"byteOffset":840,
			"target":34962
		},
		{
			"buffer":0,
			"byteLength":1344,
			"byteOffset":2184,
			"target":34962
		},
		{
			"buffer":0,
			"byteLength":896,
			"byteOffset":3528,
			"target":34962
		},
		{
			"buffer":0,
			"byteLength":360,
			"byteOffset":4424,
			"target":34963
		},
		{
			"buffer":0,
			"byteLength":288,
			"byteOffset":4784,
			"target":34962
		},
		{
			"buffer":0,
			"byteLength":288,
			"byteOffset":5072,
			"target":34962
		},
		{
			"buffer":0,
			"byteLength":192,
			"byteOffset":5360,
			"target":34962
		},
		{
			"buffer":0,
			"byteLength":72,
			"byteOffset":5552,
			"target":34963
		},
		{
			"buffer":0,
			"byteLength":288,
			"byteOffset":5624,
			"target":34962
		},
		{
			"buffer":0,
			"byteLength":288,
			"byteOffset":5912,
			"target":34962
		},
		{
			"buffer":0,
			"byteLength":192,
			"byteOffset":6200,
			"target":34962
		},
		{
			"buffer":0,
			"byteLength":72,
			"byteOffset":6392,
			"target":34963
		},
		{
			"buffer":0,
			"byteLength":5340,
			"byteOffset":6464,
			"target":34962
		},
		{
			"buffer":0,
			"byteLength":5340,
			"byteOffset":11804,
			"target":34962
		},
		{
			"buffer":0,
			"byteLength":3560,
			"byteOffset":17144,
			"target":34962
		},
		{
			"buffer":0,
			"byteLength":3480,
			"byteOffset":20704,
			"target":34963
		},
		{
			"buffer":0,
			"byteLength":26736,
			"byteOffset":24184,
			"target":34962
		},
		{
			"buffer":0,
			"byteLength":26736,
			"byteOffset":50920,
			"target":34962
		},
		{
			"buffer":0,
			"byteLength":17824,
			"byteOffset":77656,
			"target":34962
		},
		{
			"buffer":0,
			"byteLength":12864,
			"byteOffset":95480,
			"target":34963
		}
	],
	"samplers":[
		{
			"magFilter":9729,
			"minFilter":9987
		}
	],
	"buffers":[
		{
			"byteLength":108344,
			"uri":"CampfireTripod.bin"
		}
	]
}
