{
	"asset":{
		"generator":"Khronos glTF Blender I/O v4.0.44",
		"version":"2.0"
	},
	"scene":0,
	"scenes":[
		{
			"name":"Scene",
			"nodes":[
				11
			]
		}
	],
	"nodes":[
		{
			"mesh":0,
			"name":"CandleStick_Stand_01-convcolonly"
		},
		{
			"mesh":1,
			"name":"CandleStick_Stand_02-convcolonly"
		},
		{
			"mesh":2,
			"name":"CandleStick_Stand_03-convcolonly"
		},
		{
			"mesh":3,
			"name":"CandleStick_Stand_04-convcolonly"
		},
		{
			"mesh":4,
			"name":"CandleStick_Stand_05-convcolonly"
		},
		{
			"mesh":5,
			"name":"CandleStick_Stand_06-convcolonly"
		},
		{
			"mesh":6,
			"name":"CandleStick_Stand_07-convcolonly"
		},
		{
			"mesh":7,
			"name":"CandleStick_Stand_08-convcolonly"
		},
		{
			"mesh":8,
			"name":"CandleStick_Stand_09-convcolonly"
		},
		{
			"mesh":9,
			"name":"CandleStick_Stand_10-convcolonly"
		},
		{
			"mesh":10,
			"name":"CandleStick_Stand_11-convcolonly"
		},
		{
			"children":[
				0,
				1,
				2,
				3,
				4,
				5,
				6,
				7,
				8,
				9,
				10
			],
			"mesh":11,
			"name":"CandleStick_Stand"
		}
	],
	"materials":[
		{
			"doubleSided":true,
			"name":"Collision",
			"pbrMetallicRoughness":{
				"baseColorFactor":[
					0.047601714730262756,
					0.17601831257343292,
					0.8000785112380981,
					1
				],
				"metallicFactor":0,
				"roughnessFactor":0.5
			}
		},
		{
			"doubleSided":true,
			"name":"MI_Trim_Metal",
			"normalTexture":{
				"index":0
			},
			"pbrMetallicRoughness":{
				"baseColorTexture":{
					"index":1
				},
				"metallicRoughnessTexture":{
					"index":2
				}
			}
		},
		{
			"doubleSided":true,
			"name":"MI_Trim_Props_Vertex",
			"normalTexture":{
				"index":3
			},
			"pbrMetallicRoughness":{
				"baseColorTexture":{
					"index":4
				},
				"metallicRoughnessTexture":{
					"index":5
				}
			}
		}
	],
	"meshes":[
		{
			"name":"Cube.221",
			"primitives":[
				{
					"attributes":{
						"POSITION":0,
						"NORMAL":1,
						"TEXCOORD_0":2
					},
					"indices":3,
					"material":0
				}
			]
		},
		{
			"name":"Cube.230",
			"primitives":[
				{
					"attributes":{
						"POSITION":4,
						"NORMAL":5,
						"TEXCOORD_0":6
					},
					"indices":7,
					"material":0
				}
			]
		},
		{
			"name":"Cube.231",
			"primitives":[
				{
					"attributes":{
						"POSITION":8,
						"NORMAL":9,
						"TEXCOORD_0":10
					},
					"indices":11,
					"material":0
				}
			]
		},
		{
			"name":"Cube.232",
			"primitives":[
				{
					"attributes":{
						"POSITION":12,
						"NORMAL":13,
						"TEXCOORD_0":14
					},
					"indices":15,
					"material":0
				}
			]
		},
		{
			"name":"Cube.233",
			"primitives":[
				{
					"attributes":{
						"POSITION":16,
						"NORMAL":17,
						"TEXCOORD_0":18
					},
					"indices":19,
					"material":0
				}
			]
		},
		{
			"name":"Cube.234",
			"primitives":[
				{
					"attributes":{
						"POSITION":20,
						"NORMAL":21,
						"TEXCOORD_0":22
					},
					"indices":23,
					"material":0
				}
			]
		},
		{
			"name":"Cube.235",
			"primitives":[
				{
					"attributes":{
						"POSITION":24,
						"NORMAL":25,
						"TEXCOORD_0":26
					},
					"indices":27,
					"material":0
				}
			]
		},
		{
			"name":"Cube.242",
			"primitives":[
				{
					"attributes":{
						"POSITION":28,
						"NORMAL":29,
						"TEXCOORD_0":30
					},
					"indices":31,
					"material":0
				}
			]
		},
		{
			"name":"Cube.243",
			"primitives":[
				{
					"attributes":{
						"POSITION":32,
						"NORMAL":33,
						"TEXCOORD_0":34
					},
					"indices":35,
					"material":0
				}
			]
		},
		{
			"name":"Cube.244",
			"primitives":[
				{
					"attributes":{
						"POSITION":36,
						"NORMAL":37,
						"TEXCOORD_0":38
					},
					"indices":39,
					"material":0
				}
			]
		},
		{
			"name":"Cube.245",
			"primitives":[
				{
					"attributes":{
						"POSITION":40,
						"NORMAL":41,
						"TEXCOORD_0":42
					},
					"indices":43,
					"material":0
				}
			]
		},
		{
			"name":"Cylinder.127",
			"primitives":[
				{
					"attributes":{
						"COLOR_0":44,
						"POSITION":45,
						"NORMAL":46,
						"TEXCOORD_0":47
					},
					"indices":48,
					"material":1
				},
				{
					"attributes":{
						"COLOR_0":49,
						"POSITION":50,
						"NORMAL":51,
						"TEXCOORD_0":52
					},
					"indices":53,
					"material":2
				}
			]
		}
	],
	"textures":[
		{
			"sampler":0,
			"source":0
		},
		{
			"sampler":0,
			"source":1
		},
		{
			"sampler":0,
			"source":2
		},
		{
			"sampler":0,
			"source":3
		},
		{
			"sampler":0,
			"source":4
		},
		{
			"sampler":0,
			"source":5
		}
	],
	"images":[
		{
			"mimeType":"image/png",
			"name":"T_Trim_Metal_Normal",
			"uri":"T_Trim_Metal_Normal.png"
		},
		{
			"mimeType":"image/png",
			"name":"T_Trim_Metal_BaseColor",
			"uri":"T_Trim_Metal_BaseColor.png"
		},
		{
			"mimeType":"image/png",
			"name":"T_Trim_Metal_ORM",
			"uri":"T_Trim_Metal_ORM.png"
		},
		{
			"mimeType":"image/png",
			"name":"T_Trim_Props_Normal",
			"uri":"T_Trim_Props_Normal.png"
		},
		{
			"mimeType":"image/png",
			"name":"T_Trim_Props_BaseColor",
			"uri":"T_Trim_Props_BaseColor.png"
		},
		{
			"mimeType":"image/png",
			"name":"T_Trim_Props_ORM",
			"uri":"T_Trim_Props_ORM.png"
		}
	],
	"accessors":[
		{
			"bufferView":0,
			"componentType":5126,
			"count":24,
			"max":[
				0.0386383943259716,
				1.2766114473342896,
				0.362385630607605
			],
			"min":[
				-0.037322595715522766,
				0.9841485619544983,
				0.2920821011066437
			],
			"type":"VEC3"
		},
		{
			"bufferView":1,
			"componentType":5126,
			"count":24,
			"type":"VEC3"
		},
		{
			"bufferView":2,
			"componentType":5126,
			"count":24,
			"type":"VEC2"
		},
		{
			"bufferView":3,
			"componentType":5123,
			"count":36,
			"type":"SCALAR"
		},
		{
			"bufferView":4,
			"componentType":5126,
			"count":24,
			"max":[
				0.02865595556795597,
				0.9709586501121521,
				0.022442881017923355
			],
			"min":[
				-0.027340084314346313,
				0.23454025387763977,
				-0.02938265912234783
			],
			"type":"VEC3"
		},
		{
			"bufferView":5,
			"componentType":5126,
			"count":24,
			"type":"VEC3"
		},
		{
			"bufferView":6,
			"componentType":5126,
			"count":24,
			"type":"VEC2"
		},
		{
			"bufferView":7,
			"componentType":5123,
			"count":36,
			"type":"SCALAR"
		},
		{
			"bufferView":8,
			"componentType":5126,
			"count":40,
			"max":[
				0.29318538308143616,
				0.24857056140899658,
				0.2890585660934448
			],
			"min":[
				-0.291871041059494,
				0.003927938640117645,
				-0.29599761962890625
			],
			"type":"VEC3"
		},
		{
			"bufferView":9,
			"componentType":5126,
			"count":40,
			"type":"VEC3"
		},
		{
			"bufferView":10,
			"componentType":5126,
			"count":40,
			"type":"VEC2"
		},
		{
			"bufferView":11,
			"componentType":5123,
			"count":60,
			"type":"SCALAR"
		},
		{
			"bufferView":12,
			"componentType":5126,
			"count":24,
			"max":[
				-0.17921175062656403,
				1.296725869178772,
				0.28356674313545227
			],
			"min":[
				-0.2826364040374756,
				0.9841485619544983,
				0.18014216423034668
			],
			"type":"VEC3"
		},
		{
			"bufferView":13,
			"componentType":5126,
			"count":24,
			"type":"VEC3"
		},
		{
			"bufferView":14,
			"componentType":5126,
			"count":24,
			"type":"VEC2"
		},
		{
			"bufferView":15,
			"componentType":5123,
			"count":36,
			"type":"SCALAR"
		},
		{
			"bufferView":16,
			"componentType":5126,
			"count":24,
			"max":[
				-0.2920821011066437,
				1.296725869178772,
				0.03863838315010071
			],
			"min":[
				-0.362385630607605,
				0.9841485619544983,
				-0.03732261061668396
			],
			"type":"VEC3"
		},
		{
			"bufferView":17,
			"componentType":5126,
			"count":24,
			"type":"VEC3"
		},
		{
			"bufferView":18,
			"componentType":5126,
			"count":24,
			"type":"VEC2"
		},
		{
			"bufferView":19,
			"componentType":5123,
			"count":36,
			"type":"SCALAR"
		},
		{
			"bufferView":20,
			"componentType":5126,
			"count":24,
			"max":[
				-0.18014216423034668,
				1.2572407722473145,
				-0.17921175062656403
			],
			"min":[
				-0.28356674313545227,
				0.9841485619544983,
				-0.2826364040374756
			],
			"type":"VEC3"
		},
		{
			"bufferView":21,
			"componentType":5126,
			"count":24,
			"type":"VEC3"
		},
		{
			"bufferView":22,
			"componentType":5126,
			"count":24,
			"type":"VEC2"
		},
		{
			"bufferView":23,
			"componentType":5123,
			"count":36,
			"type":"SCALAR"
		},
		{
			"bufferView":24,
			"componentType":5126,
			"count":24,
			"max":[
				0.03732262924313545,
				1.2766114473342896,
				-0.2920821011066437
			],
			"min":[
				-0.038638368248939514,
				0.9841485619544983,
				-0.362385630607605
			],
			"type":"VEC3"
		},
		{
			"bufferView":25,
			"componentType":5126,
			"count":24,
			"type":"VEC3"
		},
		{
			"bufferView":26,
			"componentType":5126,
			"count":24,
			"type":"VEC2"
		},
		{
			"bufferView":27,
			"componentType":5123,
			"count":36,
			"type":"SCALAR"
		},
		{
			"bufferView":28,
			"componentType":5126,
			"count":24,
			"max":[
				0.282636433839798,
				1.2922630310058594,
				-0.1801421344280243
			],
			"min":[
				0.1792117953300476,
				0.9841485619544983,
				-0.28356674313545227
			],
			"type":"VEC3"
		},
		{
			"bufferView":29,
			"componentType":5126,
			"count":24,
			"type":"VEC3"
		},
		{
			"bufferView":30,
			"componentType":5126,
			"count":24,
			"type":"VEC2"
		},
		{
			"bufferView":31,
			"componentType":5123,
			"count":36,
			"type":"SCALAR"
		},
		{
			"bufferView":32,
			"componentType":5126,
			"count":24,
			"max":[
				0.3623856008052826,
				1.2977045774459839,
				0.03732277452945709
			],
			"min":[
				0.2920820713043213,
				0.9841485619544983,
				-0.03863825276494026
			],
			"type":"VEC3"
		},
		{
			"bufferView":33,
			"componentType":5126,
			"count":24,
			"type":"VEC3"
		},
		{
			"bufferView":34,
			"componentType":5126,
			"count":24,
			"type":"VEC2"
		},
		{
			"bufferView":35,
			"componentType":5123,
			"count":36,
			"type":"SCALAR"
		},
		{
			"bufferView":36,
			"componentType":5126,
			"count":24,
			"max":[
				0.28356659412384033,
				1.2684766054153442,
				0.2826365828514099
			],
			"min":[
				0.18014198541641235,
				0.9841485619544983,
				0.17921195924282074
			],
			"type":"VEC3"
		},
		{
			"bufferView":37,
			"componentType":5126,
			"count":24,
			"type":"VEC3"
		},
		{
			"bufferView":38,
			"componentType":5126,
			"count":24,
			"type":"VEC2"
		},
		{
			"bufferView":39,
			"componentType":5123,
			"count":36,
			"type":"SCALAR"
		},
		{
			"bufferView":40,
			"componentType":5126,
			"count":100,
			"max":[
				0.29419440031051636,
				1.1731350421905518,
				0.30933424830436707
			],
			"min":[
				-0.29419437050819397,
				0.9286546111106873,
				-0.30933427810668945
			],
			"type":"VEC3"
		},
		{
			"bufferView":41,
			"componentType":5126,
			"count":100,
			"type":"VEC3"
		},
		{
			"bufferView":42,
			"componentType":5126,
			"count":100,
			"type":"VEC2"
		},
		{
			"bufferView":43,
			"componentType":5123,
			"count":168,
			"type":"SCALAR"
		},
		{
			"bufferView":44,
			"componentType":5123,
			"count":2810,
			"normalized":true,
			"type":"VEC4"
		},
		{
			"bufferView":45,
			"componentType":5126,
			"count":2810,
			"max":[
				0.3656429648399353,
				1.1970200538635254,
				0.36562031507492065
			],
			"min":[
				-0.36662405729293823,
				-0.007947052828967571,
				-0.36566540598869324
			],
			"type":"VEC3"
		},
		{
			"bufferView":46,
			"componentType":5126,
			"count":2810,
			"type":"VEC3"
		},
		{
			"bufferView":47,
			"componentType":5126,
			"count":2810,
			"type":"VEC2"
		},
		{
			"bufferView":48,
			"componentType":5123,
			"count":11124,
			"type":"SCALAR"
		},
		{
			"bufferView":49,
			"componentType":5123,
			"count":1985,
			"normalized":true,
			"type":"VEC4"
		},
		{
			"bufferView":50,
			"componentType":5126,
			"count":1985,
			"max":[
				0.3439567983150482,
				1.304558515548706,
				0.3408641815185547
			],
			"min":[
				-0.34282851219177246,
				0.9577401280403137,
				-0.34276488423347473
			],
			"type":"VEC3"
		},
		{
			"bufferView":51,
			"componentType":5126,
			"count":1985,
			"type":"VEC3"
		},
		{
			"bufferView":52,
			"componentType":5126,
			"count":1985,
			"type":"VEC2"
		},
		{
			"bufferView":53,
			"componentType":5123,
			"count":6090,
			"type":"SCALAR"
		}
	],
	"bufferViews":[
		{
			"buffer":0,
			"byteLength":288,
			"byteOffset":0,
			"target":34962
		},
		{
			"buffer":0,
			"byteLength":288,
			"byteOffset":288,
			"target":34962
		},
		{
			"buffer":0,
			"byteLength":192,
			"byteOffset":576,
			"target":34962
		},
		{
			"buffer":0,
			"byteLength":72,
			"byteOffset":768,
			"target":34963
		},
		{
			"buffer":0,
			"byteLength":288,
			"byteOffset":840,
			"target":34962
		},
		{
			"buffer":0,
			"byteLength":288,
			"byteOffset":1128,
			"target":34962
		},
		{
			"buffer":0,
			"byteLength":192,
			"byteOffset":1416,
			"target":34962
		},
		{
			"buffer":0,
			"byteLength":72,
			"byteOffset":1608,
			"target":34963
		},
		{
			"buffer":0,
			"byteLength":480,
			"byteOffset":1680,
			"target":34962
		},
		{
			"buffer":0,
			"byteLength":480,
			"byteOffset":2160,
			"target":34962
		},
		{
			"buffer":0,
			"byteLength":320,
			"byteOffset":2640,
			"target":34962
		},
		{
			"buffer":0,
			"byteLength":120,
			"byteOffset":2960,
			"target":34963
		},
		{
			"buffer":0,
			"byteLength":288,
			"byteOffset":3080,
			"target":34962
		},
		{
			"buffer":0,
			"byteLength":288,
			"byteOffset":3368,
			"target":34962
		},
		{
			"buffer":0,
			"byteLength":192,
			"byteOffset":3656,
			"target":34962
		},
		{
			"buffer":0,
			"byteLength":72,
			"byteOffset":3848,
			"target":34963
		},
		{
			"buffer":0,
			"byteLength":288,
			"byteOffset":3920,
			"target":34962
		},
		{
			"buffer":0,
			"byteLength":288,
			"byteOffset":4208,
			"target":34962
		},
		{
			"buffer":0,
			"byteLength":192,
			"byteOffset":4496,
			"target":34962
		},
		{
			"buffer":0,
			"byteLength":72,
			"byteOffset":4688,
			"target":34963
		},
		{
			"buffer":0,
			"byteLength":288,
			"byteOffset":4760,
			"target":34962
		},
		{
			"buffer":0,
			"byteLength":288,
			"byteOffset":5048,
			"target":34962
		},
		{
			"buffer":0,
			"byteLength":192,
			"byteOffset":5336,
			"target":34962
		},
		{
			"buffer":0,
			"byteLength":72,
			"byteOffset":5528,
			"target":34963
		},
		{
			"buffer":0,
			"byteLength":288,
			"byteOffset":5600,
			"target":34962
		},
		{
			"buffer":0,
			"byteLength":288,
			"byteOffset":5888,
			"target":34962
		},
		{
			"buffer":0,
			"byteLength":192,
			"byteOffset":6176,
			"target":34962
		},
		{
			"buffer":0,
			"byteLength":72,
			"byteOffset":6368,
			"target":34963
		},
		{
			"buffer":0,
			"byteLength":288,
			"byteOffset":6440,
			"target":34962
		},
		{
			"buffer":0,
			"byteLength":288,
			"byteOffset":6728,
			"target":34962
		},
		{
			"buffer":0,
			"byteLength":192,
			"byteOffset":7016,
			"target":34962
		},
		{
			"buffer":0,
			"byteLength":72,
			"byteOffset":7208,
			"target":34963
		},
		{
			"buffer":0,
			"byteLength":288,
			"byteOffset":7280,
			"target":34962
		},
		{
			"buffer":0,
			"byteLength":288,
			"byteOffset":7568,
			"target":34962
		},
		{
			"buffer":0,
			"byteLength":192,
			"byteOffset":7856,
			"target":34962
		},
		{
			"buffer":0,
			"byteLength":72,
			"byteOffset":8048,
			"target":34963
		},
		{
			"buffer":0,
			"byteLength":288,
			"byteOffset":8120,
			"target":34962
		},
		{
			"buffer":0,
			"byteLength":288,
			"byteOffset":8408,
			"target":34962
		},
		{
			"buffer":0,
			"byteLength":192,
			"byteOffset":8696,
			"target":34962
		},
		{
			"buffer":0,
			"byteLength":72,
			"byteOffset":8888,
			"target":34963
		},
		{
			"buffer":0,
			"byteLength":1200,
			"byteOffset":8960,
			"target":34962
		},
		{
			"buffer":0,
			"byteLength":1200,
			"byteOffset":10160,
			"target":34962
		},
		{
			"buffer":0,
			"byteLength":800,
			"byteOffset":11360,
			"target":34962
		},
		{
			"buffer":0,
			"byteLength":336,
			"byteOffset":12160,
			"target":34963
		},
		{
			"buffer":0,
			"byteLength":22480,
			"byteOffset":12496,
			"target":34962
		},
		{
			"buffer":0,
			"byteLength":33720,
			"byteOffset":34976,
			"target":34962
		},
		{
			"buffer":0,
			"byteLength":33720,
			"byteOffset":68696,
			"target":34962
		},
		{
			"buffer":0,
			"byteLength":22480,
			"byteOffset":102416,
			"target":34962
		},
		{
			"buffer":0,
			"byteLength":22248,
			"byteOffset":124896,
			"target":34963
		},
		{
			"buffer":0,
			"byteLength":15880,
			"byteOffset":147144,
			"target":34962
		},
		{
			"buffer":0,
			"byteLength":23820,
			"byteOffset":163024,
			"target":34962
		},
		{
			"buffer":0,
			"byteLength":23820,
			"byteOffset":186844,
			"target":34962
		},
		{
			"buffer":0,
			"byteLength":15880,
			"byteOffset":210664,
			"target":34962
		},
		{
			"buffer":0,
			"byteLength":12180,
			"byteOffset":226544,
			"target":34963
		}
	],
	"samplers":[
		{
			"magFilter":9729,
			"minFilter":9987
		}
	],
	"buffers":[
		{
			"byteLength":238724,
			"uri":"CandleStick_Stand.bin"
		}
	]
}
