{
	"asset":{
		"generator":"Khronos glTF Blender I/O v4.0.44",
		"version":"2.0"
	},
	"scene":0,
	"scenes":[
		{
			"name":"Scene",
			"nodes":[
				2
			]
		}
	],
	"nodes":[
		{
			"mesh":0,
			"name":"Cauldron_1-convcolonly"
		},
		{
			"mesh":1,
			"name":"Cauldron_2-convcolonly"
		},
		{
			"children":[
				0,
				1
			],
			"mesh":2,
			"name":"Cauldron"
		}
	],
	"materials":[
		{
			"doubleSided":true,
			"name":"Collision",
			"pbrMetallicRoughness":{
				"baseColorFactor":[
					0.047601714730262756,
					0.17601831257343292,
					0.8000785112380981,
					1
				],
				"metallicFactor":0,
				"roughnessFactor":0.5
			}
		},
		{
			"doubleSided":true,
			"name":"MI_Trim_Metal",
			"normalTexture":{
				"index":0
			},
			"pbrMetallicRoughness":{
				"baseColorTexture":{
					"index":1
				},
				"metallicRoughnessTexture":{
					"index":2
				}
			}
		}
	],
	"meshes":[
		{
			"name":"Cube.373",
			"primitives":[
				{
					"attributes":{
						"POSITION":0,
						"NORMAL":1,
						"TEXCOORD_0":2
					},
					"indices":3,
					"material":0
				}
			]
		},
		{
			"name":"Cube.374",
			"primitives":[
				{
					"attributes":{
						"POSITION":4,
						"NORMAL":5,
						"TEXCOORD_0":6
					},
					"indices":7,
					"material":0
				}
			]
		},
		{
			"name":"Sphere",
			"primitives":[
				{
					"attributes":{
						"POSITION":8,
						"NORMAL":9,
						"TEXCOORD_0":10
					},
					"indices":11,
					"material":1
				}
			]
		}
	],
	"textures":[
		{
			"sampler":0,
			"source":0
		},
		{
			"sampler":0,
			"source":1
		},
		{
			"sampler":0,
			"source":2
		}
	],
	"images":[
		{
			"mimeType":"image/png",
			"name":"T_Trim_Metal_Normal",
			"uri":"T_Trim_Metal_Normal.png"
		},
		{
			"mimeType":"image/png",
			"name":"T_Trim_Metal_BaseColor",
			"uri":"T_Trim_Metal_BaseColor.png"
		},
		{
			"mimeType":"image/png",
			"name":"T_Trim_Metal_ORM",
			"uri":"T_Trim_Metal_ORM.png"
		}
	],
	"accessors":[
		{
			"bufferView":0,
			"componentType":5126,
			"count":140,
			"max":[
				0.46294325590133667,
				0.8182118535041809,
				0.48676735162734985
			],
			"min":[
				-0.4629433751106262,
				0.2016281932592392,
				-0.48676741123199463
			],
			"type":"VEC3"
		},
		{
			"bufferView":1,
			"componentType":5126,
			"count":140,
			"type":"VEC3"
		},
		{
			"bufferView":2,
			"componentType":5126,
			"count":140,
			"type":"VEC2"
		},
		{
			"bufferView":3,
			"componentType":5123,
			"count":228,
			"type":"SCALAR"
		},
		{
			"bufferView":4,
			"componentType":5126,
			"count":36,
			"max":[
				0.30127599835395813,
				0.34381407499313354,
				0.20100045204162598
			],
			"min":[
				-0.29859459400177,
				-0.006145775318145752,
				-0.3191279172897339
			],
			"type":"VEC3"
		},
		{
			"bufferView":5,
			"componentType":5126,
			"count":36,
			"type":"VEC3"
		},
		{
			"bufferView":6,
			"componentType":5126,
			"count":36,
			"type":"VEC2"
		},
		{
			"bufferView":7,
			"componentType":5123,
			"count":60,
			"type":"SCALAR"
		},
		{
			"bufferView":8,
			"componentType":5126,
			"count":1581,
			"max":[
				0.494550496339798,
				0.8127009272575378,
				0.47197872400283813
			],
			"min":[
				-0.49455055594444275,
				-0.0028319580014795065,
				-0.4719788134098053
			],
			"type":"VEC3"
		},
		{
			"bufferView":9,
			"componentType":5126,
			"count":1581,
			"type":"VEC3"
		},
		{
			"bufferView":10,
			"componentType":5126,
			"count":1581,
			"type":"VEC2"
		},
		{
			"bufferView":11,
			"componentType":5123,
			"count":6060,
			"type":"SCALAR"
		}
	],
	"bufferViews":[
		{
			"buffer":0,
			"byteLength":1680,
			"byteOffset":0,
			"target":34962
		},
		{
			"buffer":0,
			"byteLength":1680,
			"byteOffset":1680,
			"target":34962
		},
		{
			"buffer":0,
			"byteLength":1120,
			"byteOffset":3360,
			"target":34962
		},
		{
			"buffer":0,
			"byteLength":456,
			"byteOffset":4480,
			"target":34963
		},
		{
			"buffer":0,
			"byteLength":432,
			"byteOffset":4936,
			"target":34962
		},
		{
			"buffer":0,
			"byteLength":432,
			"byteOffset":5368,
			"target":34962
		},
		{
			"buffer":0,
			"byteLength":288,
			"byteOffset":5800,
			"target":34962
		},
		{
			"buffer":0,
			"byteLength":120,
			"byteOffset":6088,
			"target":34963
		},
		{
			"buffer":0,
			"byteLength":18972,
			"byteOffset":6208,
			"target":34962
		},
		{
			"buffer":0,
			"byteLength":18972,
			"byteOffset":25180,
			"target":34962
		},
		{
			"buffer":0,
			"byteLength":12648,
			"byteOffset":44152,
			"target":34962
		},
		{
			"buffer":0,
			"byteLength":12120,
			"byteOffset":56800,
			"target":34963
		}
	],
	"samplers":[
		{
			"magFilter":9729,
			"minFilter":9987
		}
	],
	"buffers":[
		{
			"byteLength":68920,
			"uri":"Cauldron.bin"
		}
	]
}
