{
	"asset":{
		"generator":"Khronos glTF Blender I/O v4.0.44",
		"version":"2.0"
	},
	"scene":0,
	"scenes":[
		{
			"name":"Scene",
			"nodes":[
				4
			]
		}
	],
	"nodes":[
		{
			"mesh":0,
			"name":"Chair_3_1-convcolonly"
		},
		{
			"mesh":1,
			"name":"Chair_3_2-convcolonly"
		},
		{
			"mesh":2,
			"name":"Chair_3_3-convcolonly"
		},
		{
			"mesh":3,
			"name":"Chair_3_4-convcolonly"
		},
		{
			"children":[
				0,
				1,
				2,
				3
			],
			"mesh":4,
			"name":"Chair_3"
		}
	],
	"materials":[
		{
			"doubleSided":true,
			"name":"Collision",
			"pbrMetallicRoughness":{
				"baseColorFactor":[
					0.047601714730262756,
					0.17601831257343292,
					0.8000785112380981,
					1
				],
				"metallicFactor":0,
				"roughnessFactor":0.5
			}
		},
		{
			"doubleSided":true,
			"name":"MI_Trim_Furniture",
			"normalTexture":{
				"index":0
			},
			"pbrMetallicRoughness":{
				"baseColorTexture":{
					"index":1
				},
				"metallicRoughnessTexture":{
					"index":2
				}
			}
		},
		{
			"doubleSided":true,
			"name":"MI_Trim_Metal",
			"normalTexture":{
				"index":3
			},
			"pbrMetallicRoughness":{
				"baseColorTexture":{
					"index":4
				},
				"metallicRoughnessTexture":{
					"index":5
				}
			}
		}
	],
	"meshes":[
		{
			"name":"Cube.067",
			"primitives":[
				{
					"attributes":{
						"POSITION":0,
						"NORMAL":1,
						"TEXCOORD_0":2
					},
					"indices":3,
					"material":0
				}
			]
		},
		{
			"name":"Cube.068",
			"primitives":[
				{
					"attributes":{
						"POSITION":4,
						"NORMAL":5,
						"TEXCOORD_0":6
					},
					"indices":7,
					"material":0
				}
			]
		},
		{
			"name":"Cube.070",
			"primitives":[
				{
					"attributes":{
						"POSITION":8,
						"NORMAL":9,
						"TEXCOORD_0":10
					},
					"indices":11,
					"material":0
				}
			]
		},
		{
			"name":"Cube.071",
			"primitives":[
				{
					"attributes":{
						"POSITION":12,
						"NORMAL":13,
						"TEXCOORD_0":14
					},
					"indices":15,
					"material":0
				}
			]
		},
		{
			"name":"Cube.047",
			"primitives":[
				{
					"attributes":{
						"COLOR_0":16,
						"POSITION":17,
						"NORMAL":18,
						"TEXCOORD_0":19
					},
					"indices":20,
					"material":1
				},
				{
					"attributes":{
						"COLOR_0":21,
						"POSITION":22,
						"NORMAL":23,
						"TEXCOORD_0":24
					},
					"indices":25,
					"material":2
				}
			]
		}
	],
	"textures":[
		{
			"sampler":0,
			"source":0
		},
		{
			"sampler":0,
			"source":1
		},
		{
			"sampler":0,
			"source":2
		},
		{
			"sampler":0,
			"source":3
		},
		{
			"sampler":0,
			"source":4
		},
		{
			"sampler":0,
			"source":5
		}
	],
	"images":[
		{
			"mimeType":"image/png",
			"name":"T_Trim_Furniture_Normal",
			"uri":"T_Trim_Furniture_Normal.png"
		},
		{
			"mimeType":"image/png",
			"name":"T_Trim_Furniture_BaseColor",
			"uri":"T_Trim_Furniture_BaseColor.png"
		},
		{
			"mimeType":"image/png",
			"name":"T_Trim_Furniture_ORM",
			"uri":"T_Trim_Furniture_ORM.png"
		},
		{
			"mimeType":"image/png",
			"name":"T_Trim_Metal_Normal",
			"uri":"T_Trim_Metal_Normal.png"
		},
		{
			"mimeType":"image/png",
			"name":"T_Trim_Metal_BaseColor",
			"uri":"T_Trim_Metal_BaseColor.png"
		},
		{
			"mimeType":"image/png",
			"name":"T_Trim_Metal_ORM",
			"uri":"T_Trim_Metal_ORM.png"
		}
	],
	"accessors":[
		{
			"bufferView":0,
			"componentType":5126,
			"count":24,
			"max":[
				0.2995646297931671,
				0.5015596747398376,
				0.26357027888298035
			],
			"min":[
				-0.29956358671188354,
				0.012256592512130737,
				-0.25098007917404175
			],
			"type":"VEC3"
		},
		{
			"bufferView":1,
			"componentType":5126,
			"count":24,
			"type":"VEC3"
		},
		{
			"bufferView":2,
			"componentType":5126,
			"count":24,
			"type":"VEC2"
		},
		{
			"bufferView":3,
			"componentType":5123,
			"count":36,
			"type":"SCALAR"
		},
		{
			"bufferView":4,
			"componentType":5126,
			"count":66,
			"max":[
				0.29519832134246826,
				1.4856793880462646,
				-0.19224132597446442
			],
			"min":[
				-0.29519712924957275,
				0.48352470993995667,
				-0.31650763750076294
			],
			"type":"VEC3"
		},
		{
			"bufferView":5,
			"componentType":5126,
			"count":66,
			"type":"VEC3"
		},
		{
			"bufferView":6,
			"componentType":5126,
			"count":66,
			"type":"VEC2"
		},
		{
			"bufferView":7,
			"componentType":5123,
			"count":108,
			"type":"SCALAR"
		},
		{
			"bufferView":8,
			"componentType":5126,
			"count":24,
			"max":[
				0.3349287211894989,
				0.7564757466316223,
				0.2568429410457611
			],
			"min":[
				0.19361793994903564,
				0.5011704564094543,
				-0.25098007917404175
			],
			"type":"VEC3"
		},
		{
			"bufferView":9,
			"componentType":5126,
			"count":24,
			"type":"VEC3"
		},
		{
			"bufferView":10,
			"componentType":5126,
			"count":24,
			"type":"VEC2"
		},
		{
			"bufferView":11,
			"componentType":5123,
			"count":36,
			"type":"SCALAR"
		},
		{
			"bufferView":12,
			"componentType":5126,
			"count":24,
			"max":[
				-0.19361793994903564,
				0.7564757466316223,
				0.2568429410457611
			],
			"min":[
				-0.3349287211894989,
				0.5011704564094543,
				-0.25098007917404175
			],
			"type":"VEC3"
		},
		{
			"bufferView":13,
			"componentType":5126,
			"count":24,
			"type":"VEC3"
		},
		{
			"bufferView":14,
			"componentType":5126,
			"count":24,
			"type":"VEC2"
		},
		{
			"bufferView":15,
			"componentType":5123,
			"count":36,
			"type":"SCALAR"
		},
		{
			"bufferView":16,
			"componentType":5123,
			"count":743,
			"normalized":true,
			"type":"VEC4"
		},
		{
			"bufferView":17,
			"componentType":5126,
			"count":743,
			"max":[
				0.3381490707397461,
				1.4575014114379883,
				0.2865629494190216
			],
			"min":[
				-0.3381490707397461,
				-0.0015538185834884644,
				-0.30743715167045593
			],
			"type":"VEC3"
		},
		{
			"bufferView":18,
			"componentType":5126,
			"count":743,
			"type":"VEC3"
		},
		{
			"bufferView":19,
			"componentType":5126,
			"count":743,
			"type":"VEC2"
		},
		{
			"bufferView":20,
			"componentType":5123,
			"count":1554,
			"type":"SCALAR"
		},
		{
			"bufferView":21,
			"componentType":5123,
			"count":384,
			"normalized":true,
			"type":"VEC4"
		},
		{
			"bufferView":22,
			"componentType":5126,
			"count":384,
			"max":[
				0.30860134959220886,
				1.4822955131530762,
				0.23777922987937927
			],
			"min":[
				-0.30860134959220886,
				0.17136044800281525,
				-0.315324604511261
			],
			"type":"VEC3"
		},
		{
			"bufferView":23,
			"componentType":5126,
			"count":384,
			"type":"VEC3"
		},
		{
			"bufferView":24,
			"componentType":5126,
			"count":384,
			"type":"VEC2"
		},
		{
			"bufferView":25,
			"componentType":5123,
			"count":1044,
			"type":"SCALAR"
		}
	],
	"bufferViews":[
		{
			"buffer":0,
			"byteLength":288,
			"byteOffset":0,
			"target":34962
		},
		{
			"buffer":0,
			"byteLength":288,
			"byteOffset":288,
			"target":34962
		},
		{
			"buffer":0,
			"byteLength":192,
			"byteOffset":576,
			"target":34962
		},
		{
			"buffer":0,
			"byteLength":72,
			"byteOffset":768,
			"target":34963
		},
		{
			"buffer":0,
			"byteLength":792,
			"byteOffset":840,
			"target":34962
		},
		{
			"buffer":0,
			"byteLength":792,
			"byteOffset":1632,
			"target":34962
		},
		{
			"buffer":0,
			"byteLength":528,
			"byteOffset":2424,
			"target":34962
		},
		{
			"buffer":0,
			"byteLength":216,
			"byteOffset":2952,
			"target":34963
		},
		{
			"buffer":0,
			"byteLength":288,
			"byteOffset":3168,
			"target":34962
		},
		{
			"buffer":0,
			"byteLength":288,
			"byteOffset":3456,
			"target":34962
		},
		{
			"buffer":0,
			"byteLength":192,
			"byteOffset":3744,
			"target":34962
		},
		{
			"buffer":0,
			"byteLength":72,
			"byteOffset":3936,
			"target":34963
		},
		{
			"buffer":0,
			"byteLength":288,
			"byteOffset":4008,
			"target":34962
		},
		{
			"buffer":0,
			"byteLength":288,
			"byteOffset":4296,
			"target":34962
		},
		{
			"buffer":0,
			"byteLength":192,
			"byteOffset":4584,
			"target":34962
		},
		{
			"buffer":0,
			"byteLength":72,
			"byteOffset":4776,
			"target":34963
		},
		{
			"buffer":0,
			"byteLength":5944,
			"byteOffset":4848,
			"target":34962
		},
		{
			"buffer":0,
			"byteLength":8916,
			"byteOffset":10792,
			"target":34962
		},
		{
			"buffer":0,
			"byteLength":8916,
			"byteOffset":19708,
			"target":34962
		},
		{
			"buffer":0,
			"byteLength":5944,
			"byteOffset":28624,
			"target":34962
		},
		{
			"buffer":0,
			"byteLength":3108,
			"byteOffset":34568,
			"target":34963
		},
		{
			"buffer":0,
			"byteLength":3072,
			"byteOffset":37676,
			"target":34962
		},
		{
			"buffer":0,
			"byteLength":4608,
			"byteOffset":40748,
			"target":34962
		},
		{
			"buffer":0,
			"byteLength":4608,
			"byteOffset":45356,
			"target":34962
		},
		{
			"buffer":0,
			"byteLength":3072,
			"byteOffset":49964,
			"target":34962
		},
		{
			"buffer":0,
			"byteLength":2088,
			"byteOffset":53036,
			"target":34963
		}
	],
	"samplers":[
		{
			"magFilter":9729,
			"minFilter":9987
		}
	],
	"buffers":[
		{
			"byteLength":55124,
			"uri":"Chair_3.bin"
		}
	]
}
