{
	"asset":{
		"generator":"Khronos glTF Blender I/O v4.0.44",
		"version":"2.0"
	},
	"scene":0,
	"scenes":[
		{
			"name":"Scene",
			"nodes":[
				11
			]
		}
	],
	"nodes":[
		{
			"mesh":0,
			"name":"Chandelier_Large_01-convcolonly"
		},
		{
			"mesh":1,
			"name":"Chandelier_Large_02-convcolonly"
		},
		{
			"mesh":2,
			"name":"Chandelier_Large_03-convcolonly"
		},
		{
			"mesh":3,
			"name":"Chandelier_Large_04-convcolonly"
		},
		{
			"mesh":4,
			"name":"Chandelier_Large_05-convcolonly"
		},
		{
			"mesh":5,
			"name":"Chandelier_Large_06-convcolonly"
		},
		{
			"mesh":6,
			"name":"Chandelier_Large_07-convcolonly"
		},
		{
			"mesh":7,
			"name":"Chandelier_Large_08-convcolonly"
		},
		{
			"mesh":8,
			"name":"Chandelier_Large_09-convcolonly"
		},
		{
			"mesh":9,
			"name":"Chandelier_Large_10-convcolonly"
		},
		{
			"mesh":10,
			"name":"Chandelier_Large_11-convcolonly"
		},
		{
			"children":[
				0,
				1,
				2,
				3,
				4,
				5,
				6,
				7,
				8,
				9,
				10
			],
			"mesh":11,
			"name":"Chandelier_Large"
		}
	],
	"materials":[
		{
			"doubleSided":true,
			"name":"Collision",
			"pbrMetallicRoughness":{
				"baseColorFactor":[
					0.047601714730262756,
					0.17601831257343292,
					0.8000785112380981,
					1
				],
				"metallicFactor":0,
				"roughnessFactor":0.5
			}
		},
		{
			"doubleSided":true,
			"name":"MI_Trim_Metal",
			"normalTexture":{
				"index":0
			},
			"pbrMetallicRoughness":{
				"baseColorTexture":{
					"index":1
				},
				"metallicRoughnessTexture":{
					"index":2
				}
			}
		},
		{
			"doubleSided":true,
			"name":"MI_Trim_Props_Vertex",
			"normalTexture":{
				"index":3
			},
			"pbrMetallicRoughness":{
				"baseColorTexture":{
					"index":4
				},
				"metallicRoughnessTexture":{
					"index":5
				}
			}
		}
	],
	"meshes":[
		{
			"name":"Cube.246",
			"primitives":[
				{
					"attributes":{
						"POSITION":0,
						"NORMAL":1,
						"TEXCOORD_0":2
					},
					"indices":3,
					"material":0
				}
			]
		},
		{
			"name":"Cube.247",
			"primitives":[
				{
					"attributes":{
						"POSITION":4,
						"NORMAL":5,
						"TEXCOORD_0":6
					},
					"indices":7,
					"material":0
				}
			]
		},
		{
			"name":"Cube.248",
			"primitives":[
				{
					"attributes":{
						"POSITION":8,
						"NORMAL":9,
						"TEXCOORD_0":10
					},
					"indices":11,
					"material":0
				}
			]
		},
		{
			"name":"Cube.249",
			"primitives":[
				{
					"attributes":{
						"POSITION":12,
						"NORMAL":13,
						"TEXCOORD_0":14
					},
					"indices":15,
					"material":0
				}
			]
		},
		{
			"name":"Cube.250",
			"primitives":[
				{
					"attributes":{
						"POSITION":16,
						"NORMAL":17,
						"TEXCOORD_0":18
					},
					"indices":19,
					"material":0
				}
			]
		},
		{
			"name":"Cube.251",
			"primitives":[
				{
					"attributes":{
						"POSITION":20,
						"NORMAL":21,
						"TEXCOORD_0":22
					},
					"indices":23,
					"material":0
				}
			]
		},
		{
			"name":"Cube.252",
			"primitives":[
				{
					"attributes":{
						"POSITION":24,
						"NORMAL":25,
						"TEXCOORD_0":26
					},
					"indices":27,
					"material":0
				}
			]
		},
		{
			"name":"Cube.253",
			"primitives":[
				{
					"attributes":{
						"POSITION":28,
						"NORMAL":29,
						"TEXCOORD_0":30
					},
					"indices":31,
					"material":0
				}
			]
		},
		{
			"name":"Cube.254",
			"primitives":[
				{
					"attributes":{
						"POSITION":32,
						"NORMAL":33,
						"TEXCOORD_0":34
					},
					"indices":35,
					"material":0
				}
			]
		},
		{
			"name":"Cube.255",
			"primitives":[
				{
					"attributes":{
						"POSITION":36,
						"NORMAL":37,
						"TEXCOORD_0":38
					},
					"indices":39,
					"material":0
				}
			]
		},
		{
			"name":"Cube.256",
			"primitives":[
				{
					"attributes":{
						"POSITION":40,
						"NORMAL":41,
						"TEXCOORD_0":42
					},
					"indices":43,
					"material":0
				}
			]
		},
		{
			"name":"Cylinder.083",
			"primitives":[
				{
					"attributes":{
						"COLOR_0":44,
						"POSITION":45,
						"NORMAL":46,
						"TEXCOORD_0":47
					},
					"indices":48,
					"material":1
				},
				{
					"attributes":{
						"COLOR_0":49,
						"POSITION":50,
						"NORMAL":51,
						"TEXCOORD_0":52
					},
					"indices":53,
					"material":2
				}
			]
		}
	],
	"textures":[
		{
			"sampler":0,
			"source":0
		},
		{
			"sampler":0,
			"source":1
		},
		{
			"sampler":0,
			"source":2
		},
		{
			"sampler":0,
			"source":3
		},
		{
			"sampler":0,
			"source":4
		},
		{
			"sampler":0,
			"source":5
		}
	],
	"images":[
		{
			"mimeType":"image/png",
			"name":"T_Trim_Metal_Normal",
			"uri":"T_Trim_Metal_Normal.png"
		},
		{
			"mimeType":"image/png",
			"name":"T_Trim_Metal_BaseColor",
			"uri":"T_Trim_Metal_BaseColor.png"
		},
		{
			"mimeType":"image/png",
			"name":"T_Trim_Metal_ORM",
			"uri":"T_Trim_Metal_ORM.png"
		},
		{
			"mimeType":"image/png",
			"name":"T_Trim_Props_Normal",
			"uri":"T_Trim_Props_Normal.png"
		},
		{
			"mimeType":"image/png",
			"name":"T_Trim_Props_BaseColor",
			"uri":"T_Trim_Props_BaseColor.png"
		},
		{
			"mimeType":"image/png",
			"name":"T_Trim_Props_ORM",
			"uri":"T_Trim_Props_ORM.png"
		}
	],
	"accessors":[
		{
			"bufferView":0,
			"componentType":5126,
			"count":100,
			"max":[
				0.6311292052268982,
				-1.8017573356628418,
				0.6636087894439697
			],
			"min":[
				-0.6311299204826355,
				-2.2907094955444336,
				-0.663608968257904
			],
			"type":"VEC3"
		},
		{
			"bufferView":1,
			"componentType":5126,
			"count":100,
			"type":"VEC3"
		},
		{
			"bufferView":2,
			"componentType":5126,
			"count":100,
			"type":"VEC2"
		},
		{
			"bufferView":3,
			"componentType":5123,
			"count":168,
			"type":"SCALAR"
		},
		{
			"bufferView":4,
			"componentType":5126,
			"count":24,
			"max":[
				0.04958171397447586,
				-2.1502790451049805,
				0.613519012928009
			],
			"min":[
				-0.04712119325995445,
				-2.4952592849731445,
				0.5613903403282166
			],
			"type":"VEC3"
		},
		{
			"bufferView":5,
			"componentType":5126,
			"count":24,
			"type":"VEC3"
		},
		{
			"bufferView":6,
			"componentType":5126,
			"count":24,
			"type":"VEC2"
		},
		{
			"bufferView":7,
			"componentType":5123,
			"count":36,
			"type":"SCALAR"
		},
		{
			"bufferView":8,
			"componentType":5126,
			"count":24,
			"max":[
				-0.3619033992290497,
				-2.128359079360962,
				0.467646062374115
			],
			"min":[
				-0.46601924300193787,
				-2.497065782546997,
				0.36364132165908813
			],
			"type":"VEC3"
		},
		{
			"bufferView":9,
			"componentType":5126,
			"count":24,
			"type":"VEC3"
		},
		{
			"bufferView":10,
			"componentType":5126,
			"count":24,
			"type":"VEC2"
		},
		{
			"bufferView":11,
			"componentType":5123,
			"count":36,
			"type":"SCALAR"
		},
		{
			"bufferView":12,
			"componentType":5126,
			"count":24,
			"max":[
				-0.5613890886306763,
				-2.128359079360962,
				0.0495784617960453
			],
			"min":[
				-0.6135175228118896,
				-2.497065782546997,
				-0.04712444543838501
			],
			"type":"VEC3"
		},
		{
			"bufferView":13,
			"componentType":5126,
			"count":24,
			"type":"VEC3"
		},
		{
			"bufferView":14,
			"componentType":5126,
			"count":24,
			"type":"VEC2"
		},
		{
			"bufferView":15,
			"componentType":5123,
			"count":36,
			"type":"SCALAR"
		},
		{
			"bufferView":16,
			"componentType":5126,
			"count":24,
			"max":[
				-0.36364006996154785,
				-2.17138934135437,
				-0.36190661787986755
			],
			"min":[
				-0.4676445424556732,
				-2.493520498275757,
				-0.4660225510597229
			],
			"type":"VEC3"
		},
		{
			"bufferView":17,
			"componentType":5126,
			"count":24,
			"type":"VEC3"
		},
		{
			"bufferView":18,
			"componentType":5126,
			"count":24,
			"type":"VEC2"
		},
		{
			"bufferView":19,
			"componentType":5123,
			"count":36,
			"type":"SCALAR"
		},
		{
			"bufferView":20,
			"componentType":5126,
			"count":24,
			"max":[
				0.04712575674057007,
				-2.1502790451049805,
				-0.5613923668861389
			],
			"min":[
				-0.049577150493860245,
				-2.4952592849731445,
				-0.6135207414627075
			],
			"type":"VEC3"
		},
		{
			"bufferView":21,
			"componentType":5126,
			"count":24,
			"type":"VEC3"
		},
		{
			"bufferView":22,
			"componentType":5126,
			"count":24,
			"type":"VEC2"
		},
		{
			"bufferView":23,
			"componentType":5123,
			"count":36,
			"type":"SCALAR"
		},
		{
			"bufferView":24,
			"componentType":5126,
			"count":24,
			"max":[
				0.4660241901874542,
				-2.1332225799560547,
				-0.36364322900772095
			],
			"min":[
				0.3619079887866974,
				-2.4966650009155273,
				-0.4676477909088135
			],
			"type":"VEC3"
		},
		{
			"bufferView":25,
			"componentType":5126,
			"count":24,
			"type":"VEC3"
		},
		{
			"bufferView":26,
			"componentType":5126,
			"count":24,
			"type":"VEC2"
		},
		{
			"bufferView":27,
			"componentType":5123,
			"count":36,
			"type":"SCALAR"
		},
		{
			"bufferView":28,
			"componentType":5126,
			"count":24,
			"max":[
				0.6135223507881165,
				-2.1272928714752197,
				0.047122739255428314
			],
			"min":[
				0.5613936185836792,
				-2.4971532821655273,
				-0.0495801642537117
			],
			"type":"VEC3"
		},
		{
			"bufferView":29,
			"componentType":5126,
			"count":24,
			"type":"VEC3"
		},
		{
			"bufferView":30,
			"componentType":5126,
			"count":24,
			"type":"VEC2"
		},
		{
			"bufferView":31,
			"componentType":5123,
			"count":36,
			"type":"SCALAR"
		},
		{
			"bufferView":32,
			"componentType":5126,
			"count":24,
			"max":[
				0.4676491320133209,
				-2.159144639968872,
				0.4660211205482483
			],
			"min":[
				0.36364424228668213,
				-2.4945287704467773,
				0.361905038356781
			],
			"type":"VEC3"
		},
		{
			"bufferView":33,
			"componentType":5126,
			"count":24,
			"type":"VEC3"
		},
		{
			"bufferView":34,
			"componentType":5126,
			"count":24,
			"type":"VEC2"
		},
		{
			"bufferView":35,
			"componentType":5123,
			"count":36,
			"type":"SCALAR"
		},
		{
			"bufferView":36,
			"componentType":5126,
			"count":60,
			"max":[
				0.2406402826309204,
				-1.0512335300445557,
				0.2522970139980316
			],
			"min":[
				-0.2406405657529831,
				-1.4870080947875977,
				-0.25375160574913025
			],
			"type":"VEC3"
		},
		{
			"bufferView":37,
			"componentType":5126,
			"count":60,
			"type":"VEC3"
		},
		{
			"bufferView":38,
			"componentType":5126,
			"count":60,
			"type":"VEC2"
		},
		{
			"bufferView":39,
			"componentType":5123,
			"count":108,
			"type":"SCALAR"
		},
		{
			"bufferView":40,
			"componentType":5126,
			"count":60,
			"max":[
				0.3804917335510254,
				-1.4887046813964844,
				0.4000726640224457
			],
			"min":[
				-0.3804921805858612,
				-1.8017573356628418,
				-0.4000731110572815
			],
			"type":"VEC3"
		},
		{
			"bufferView":41,
			"componentType":5126,
			"count":60,
			"type":"VEC3"
		},
		{
			"bufferView":42,
			"componentType":5126,
			"count":60,
			"type":"VEC2"
		},
		{
			"bufferView":43,
			"componentType":5123,
			"count":108,
			"type":"SCALAR"
		},
		{
			"bufferView":44,
			"componentType":5123,
			"count":3574,
			"normalized":true,
			"type":"VEC4"
		},
		{
			"bufferView":45,
			"componentType":5126,
			"count":3574,
			"max":[
				0.651257336139679,
				0.1164110004901886,
				0.651257336139679
			],
			"min":[
				-0.6512573957443237,
				-2.3393287658691406,
				-0.651257336139679
			],
			"type":"VEC3"
		},
		{
			"bufferView":46,
			"componentType":5126,
			"count":3574,
			"type":"VEC3"
		},
		{
			"bufferView":47,
			"componentType":5126,
			"count":3574,
			"type":"VEC2"
		},
		{
			"bufferView":48,
			"componentType":5123,
			"count":10350,
			"type":"SCALAR"
		},
		{
			"bufferView":49,
			"componentType":5123,
			"count":4378,
			"normalized":true,
			"type":"VEC4"
		},
		{
			"bufferView":50,
			"componentType":5126,
			"count":4378,
			"max":[
				0.6183496117591858,
				-1.4838701486587524,
				0.6136910319328308
			],
			"min":[
				-0.6160293221473694,
				-2.5004072189331055,
				-0.6165067553520203
			],
			"type":"VEC3"
		},
		{
			"bufferView":51,
			"componentType":5126,
			"count":4378,
			"type":"VEC3"
		},
		{
			"bufferView":52,
			"componentType":5126,
			"count":4378,
			"type":"VEC2"
		},
		{
			"bufferView":53,
			"componentType":5123,
			"count":13470,
			"type":"SCALAR"
		}
	],
	"bufferViews":[
		{
			"buffer":0,
			"byteLength":1200,
			"byteOffset":0,
			"target":34962
		},
		{
			"buffer":0,
			"byteLength":1200,
			"byteOffset":1200,
			"target":34962
		},
		{
			"buffer":0,
			"byteLength":800,
			"byteOffset":2400,
			"target":34962
		},
		{
			"buffer":0,
			"byteLength":336,
			"byteOffset":3200,
			"target":34963
		},
		{
			"buffer":0,
			"byteLength":288,
			"byteOffset":3536,
			"target":34962
		},
		{
			"buffer":0,
			"byteLength":288,
			"byteOffset":3824,
			"target":34962
		},
		{
			"buffer":0,
			"byteLength":192,
			"byteOffset":4112,
			"target":34962
		},
		{
			"buffer":0,
			"byteLength":72,
			"byteOffset":4304,
			"target":34963
		},
		{
			"buffer":0,
			"byteLength":288,
			"byteOffset":4376,
			"target":34962
		},
		{
			"buffer":0,
			"byteLength":288,
			"byteOffset":4664,
			"target":34962
		},
		{
			"buffer":0,
			"byteLength":192,
			"byteOffset":4952,
			"target":34962
		},
		{
			"buffer":0,
			"byteLength":72,
			"byteOffset":5144,
			"target":34963
		},
		{
			"buffer":0,
			"byteLength":288,
			"byteOffset":5216,
			"target":34962
		},
		{
			"buffer":0,
			"byteLength":288,
			"byteOffset":5504,
			"target":34962
		},
		{
			"buffer":0,
			"byteLength":192,
			"byteOffset":5792,
			"target":34962
		},
		{
			"buffer":0,
			"byteLength":72,
			"byteOffset":5984,
			"target":34963
		},
		{
			"buffer":0,
			"byteLength":288,
			"byteOffset":6056,
			"target":34962
		},
		{
			"buffer":0,
			"byteLength":288,
			"byteOffset":6344,
			"target":34962
		},
		{
			"buffer":0,
			"byteLength":192,
			"byteOffset":6632,
			"target":34962
		},
		{
			"buffer":0,
			"byteLength":72,
			"byteOffset":6824,
			"target":34963
		},
		{
			"buffer":0,
			"byteLength":288,
			"byteOffset":6896,
			"target":34962
		},
		{
			"buffer":0,
			"byteLength":288,
			"byteOffset":7184,
			"target":34962
		},
		{
			"buffer":0,
			"byteLength":192,
			"byteOffset":7472,
			"target":34962
		},
		{
			"buffer":0,
			"byteLength":72,
			"byteOffset":7664,
			"target":34963
		},
		{
			"buffer":0,
			"byteLength":288,
			"byteOffset":7736,
			"target":34962
		},
		{
			"buffer":0,
			"byteLength":288,
			"byteOffset":8024,
			"target":34962
		},
		{
			"buffer":0,
			"byteLength":192,
			"byteOffset":8312,
			"target":34962
		},
		{
			"buffer":0,
			"byteLength":72,
			"byteOffset":8504,
			"target":34963
		},
		{
			"buffer":0,
			"byteLength":288,
			"byteOffset":8576,
			"target":34962
		},
		{
			"buffer":0,
			"byteLength":288,
			"byteOffset":8864,
			"target":34962
		},
		{
			"buffer":0,
			"byteLength":192,
			"byteOffset":9152,
			"target":34962
		},
		{
			"buffer":0,
			"byteLength":72,
			"byteOffset":9344,
			"target":34963
		},
		{
			"buffer":0,
			"byteLength":288,
			"byteOffset":9416,
			"target":34962
		},
		{
			"buffer":0,
			"byteLength":288,
			"byteOffset":9704,
			"target":34962
		},
		{
			"buffer":0,
			"byteLength":192,
			"byteOffset":9992,
			"target":34962
		},
		{
			"buffer":0,
			"byteLength":72,
			"byteOffset":10184,
			"target":34963
		},
		{
			"buffer":0,
			"byteLength":720,
			"byteOffset":10256,
			"target":34962
		},
		{
			"buffer":0,
			"byteLength":720,
			"byteOffset":10976,
			"target":34962
		},
		{
			"buffer":0,
			"byteLength":480,
			"byteOffset":11696,
			"target":34962
		},
		{
			"buffer":0,
			"byteLength":216,
			"byteOffset":12176,
			"target":34963
		},
		{
			"buffer":0,
			"byteLength":720,
			"byteOffset":12392,
			"target":34962
		},
		{
			"buffer":0,
			"byteLength":720,
			"byteOffset":13112,
			"target":34962
		},
		{
			"buffer":0,
			"byteLength":480,
			"byteOffset":13832,
			"target":34962
		},
		{
			"buffer":0,
			"byteLength":216,
			"byteOffset":14312,
			"target":34963
		},
		{
			"buffer":0,
			"byteLength":28592,
			"byteOffset":14528,
			"target":34962
		},
		{
			"buffer":0,
			"byteLength":42888,
			"byteOffset":43120,
			"target":34962
		},
		{
			"buffer":0,
			"byteLength":42888,
			"byteOffset":86008,
			"target":34962
		},
		{
			"buffer":0,
			"byteLength":28592,
			"byteOffset":128896,
			"target":34962
		},
		{
			"buffer":0,
			"byteLength":20700,
			"byteOffset":157488,
			"target":34963
		},
		{
			"buffer":0,
			"byteLength":35024,
			"byteOffset":178188,
			"target":34962
		},
		{
			"buffer":0,
			"byteLength":52536,
			"byteOffset":213212,
			"target":34962
		},
		{
			"buffer":0,
			"byteLength":52536,
			"byteOffset":265748,
			"target":34962
		},
		{
			"buffer":0,
			"byteLength":35024,
			"byteOffset":318284,
			"target":34962
		},
		{
			"buffer":0,
			"byteLength":26940,
			"byteOffset":353308,
			"target":34963
		}
	],
	"samplers":[
		{
			"magFilter":9729,
			"minFilter":9987
		}
	],
	"buffers":[
		{
			"byteLength":380248,
			"uri":"Chandelier_Large.bin"
		}
	]
}
