{
	"asset":{
		"generator":"Khronos glTF Blender I/O v4.0.44",
		"version":"2.0"
	},
	"scene":0,
	"scenes":[
		{
			"name":"Scene",
			"nodes":[
				9
			]
		}
	],
	"nodes":[
		{
			"mesh":0,
			"name":"Chandelier_01-convcolonly"
		},
		{
			"mesh":1,
			"name":"Chandelier_02-convcolonly"
		},
		{
			"mesh":2,
			"name":"Chandelier_03-convcolonly"
		},
		{
			"mesh":3,
			"name":"Chandelier_04-convcolonly"
		},
		{
			"mesh":4,
			"name":"Chandelier_05-convcolonly"
		},
		{
			"mesh":5,
			"name":"Chandelier_06-convcolonly"
		},
		{
			"mesh":6,
			"name":"Chandelier_07-convcolonly"
		},
		{
			"mesh":7,
			"name":"Chandelier_08-convcolonly"
		},
		{
			"mesh":8,
			"name":"Chandelier_09-convcolonly"
		},
		{
			"children":[
				0,
				1,
				2,
				3,
				4,
				5,
				6,
				7,
				8
			],
			"mesh":9,
			"name":"Chandelier"
		}
	],
	"materials":[
		{
			"doubleSided":true,
			"name":"Collision",
			"pbrMetallicRoughness":{
				"baseColorFactor":[
					0.047601714730262756,
					0.17601831257343292,
					0.8000785112380981,
					1
				],
				"metallicFactor":0,
				"roughnessFactor":0.5
			}
		},
		{
			"doubleSided":true,
			"name":"MI_Trim_Metal",
			"normalTexture":{
				"index":0
			},
			"pbrMetallicRoughness":{
				"baseColorTexture":{
					"index":1
				},
				"metallicRoughnessTexture":{
					"index":2
				}
			}
		},
		{
			"doubleSided":true,
			"name":"MI_Trim_Furniture",
			"normalTexture":{
				"index":3
			},
			"pbrMetallicRoughness":{
				"baseColorTexture":{
					"index":4
				},
				"metallicRoughnessTexture":{
					"index":5
				}
			}
		},
		{
			"doubleSided":true,
			"name":"MI_Trim_Props_Vertex",
			"normalTexture":{
				"index":6
			},
			"pbrMetallicRoughness":{
				"baseColorTexture":{
					"index":7
				},
				"metallicRoughnessTexture":{
					"index":8
				}
			}
		}
	],
	"meshes":[
		{
			"name":"Cube.257",
			"primitives":[
				{
					"attributes":{
						"POSITION":0,
						"NORMAL":1,
						"TEXCOORD_0":2
					},
					"indices":3,
					"material":0
				}
			]
		},
		{
			"name":"Cube.258",
			"primitives":[
				{
					"attributes":{
						"POSITION":4,
						"NORMAL":5,
						"TEXCOORD_0":6
					},
					"indices":7,
					"material":0
				}
			]
		},
		{
			"name":"Cube.259",
			"primitives":[
				{
					"attributes":{
						"POSITION":8,
						"NORMAL":9,
						"TEXCOORD_0":10
					},
					"indices":11,
					"material":0
				}
			]
		},
		{
			"name":"Cube.260",
			"primitives":[
				{
					"attributes":{
						"POSITION":12,
						"NORMAL":13,
						"TEXCOORD_0":14
					},
					"indices":15,
					"material":0
				}
			]
		},
		{
			"name":"Cube.261",
			"primitives":[
				{
					"attributes":{
						"POSITION":16,
						"NORMAL":17,
						"TEXCOORD_0":18
					},
					"indices":19,
					"material":0
				}
			]
		},
		{
			"name":"Cube.262",
			"primitives":[
				{
					"attributes":{
						"POSITION":20,
						"NORMAL":21,
						"TEXCOORD_0":22
					},
					"indices":23,
					"material":0
				}
			]
		},
		{
			"name":"Cube.263",
			"primitives":[
				{
					"attributes":{
						"POSITION":24,
						"NORMAL":25,
						"TEXCOORD_0":26
					},
					"indices":27,
					"material":0
				}
			]
		},
		{
			"name":"Cube.264",
			"primitives":[
				{
					"attributes":{
						"POSITION":28,
						"NORMAL":29,
						"TEXCOORD_0":30
					},
					"indices":31,
					"material":0
				}
			]
		},
		{
			"name":"Cube.265",
			"primitives":[
				{
					"attributes":{
						"POSITION":32,
						"NORMAL":33,
						"TEXCOORD_0":34
					},
					"indices":35,
					"material":0
				}
			]
		},
		{
			"name":"Cylinder.092",
			"primitives":[
				{
					"attributes":{
						"COLOR_0":36,
						"POSITION":37,
						"NORMAL":38,
						"TEXCOORD_0":39
					},
					"indices":40,
					"material":1
				},
				{
					"attributes":{
						"COLOR_0":41,
						"POSITION":42,
						"NORMAL":43,
						"TEXCOORD_0":44
					},
					"indices":45,
					"material":2
				},
				{
					"attributes":{
						"COLOR_0":46,
						"POSITION":47,
						"NORMAL":48,
						"TEXCOORD_0":49
					},
					"indices":50,
					"material":3
				}
			]
		}
	],
	"textures":[
		{
			"sampler":0,
			"source":0
		},
		{
			"sampler":0,
			"source":1
		},
		{
			"sampler":0,
			"source":2
		},
		{
			"sampler":0,
			"source":3
		},
		{
			"sampler":0,
			"source":4
		},
		{
			"sampler":0,
			"source":5
		},
		{
			"sampler":0,
			"source":6
		},
		{
			"sampler":0,
			"source":7
		},
		{
			"sampler":0,
			"source":8
		}
	],
	"images":[
		{
			"mimeType":"image/png",
			"name":"T_Trim_Metal_Normal",
			"uri":"T_Trim_Metal_Normal.png"
		},
		{
			"mimeType":"image/png",
			"name":"T_Trim_Metal_BaseColor",
			"uri":"T_Trim_Metal_BaseColor.png"
		},
		{
			"mimeType":"image/png",
			"name":"T_Trim_Metal_ORM",
			"uri":"T_Trim_Metal_ORM.png"
		},
		{
			"mimeType":"image/png",
			"name":"T_Trim_Furniture_Normal",
			"uri":"T_Trim_Furniture_Normal.png"
		},
		{
			"mimeType":"image/png",
			"name":"T_Trim_Furniture_BaseColor",
			"uri":"T_Trim_Furniture_BaseColor.png"
		},
		{
			"mimeType":"image/png",
			"name":"T_Trim_Furniture_ORM",
			"uri":"T_Trim_Furniture_ORM.png"
		},
		{
			"mimeType":"image/png",
			"name":"T_Trim_Props_Normal",
			"uri":"T_Trim_Props_Normal.png"
		},
		{
			"mimeType":"image/png",
			"name":"T_Trim_Props_BaseColor",
			"uri":"T_Trim_Props_BaseColor.png"
		},
		{
			"mimeType":"image/png",
			"name":"T_Trim_Props_ORM",
			"uri":"T_Trim_Props_ORM.png"
		}
	],
	"accessors":[
		{
			"bufferView":0,
			"componentType":5126,
			"count":100,
			"max":[
				0.5570545792579651,
				-0.592379093170166,
				0.5849934220314026
			],
			"min":[
				-0.5570527911186218,
				-1.2585899829864502,
				-0.5864483118057251
			],
			"type":"VEC3"
		},
		{
			"bufferView":1,
			"componentType":5126,
			"count":100,
			"type":"VEC3"
		},
		{
			"bufferView":2,
			"componentType":5126,
			"count":100,
			"type":"VEC2"
		},
		{
			"bufferView":3,
			"componentType":5123,
			"count":168,
			"type":"SCALAR"
		},
		{
			"bufferView":4,
			"componentType":5126,
			"count":24,
			"max":[
				0.04783531650900841,
				-0.928278386592865,
				0.613519012928009
			],
			"min":[
				-0.04553183913230896,
				-1.3671965599060059,
				0.5257766842842102
			],
			"type":"VEC3"
		},
		{
			"bufferView":5,
			"componentType":5126,
			"count":24,
			"type":"VEC3"
		},
		{
			"bufferView":6,
			"componentType":5126,
			"count":24,
			"type":"VEC2"
		},
		{
			"bufferView":7,
			"componentType":5123,
			"count":36,
			"type":"SCALAR"
		},
		{
			"bufferView":8,
			"componentType":5126,
			"count":24,
			"max":[
				-0.33894476294517517,
				-0.9003896117210388,
				0.467646062374115
			],
			"min":[
				-0.46601924300193787,
				-1.3694950342178345,
				0.3405725061893463
			],
			"type":"VEC3"
		},
		{
			"bufferView":9,
			"componentType":5126,
			"count":24,
			"type":"VEC3"
		},
		{
			"bufferView":10,
			"componentType":5126,
			"count":24,
			"type":"VEC2"
		},
		{
			"bufferView":11,
			"componentType":5123,
			"count":36,
			"type":"SCALAR"
		},
		{
			"bufferView":12,
			"componentType":5126,
			"count":24,
			"max":[
				-0.5257754325866699,
				-0.9003896117210388,
				0.047831982374191284
			],
			"min":[
				-0.6135175228118896,
				-1.3694950342178345,
				-0.045535169541835785
			],
			"type":"VEC3"
		},
		{
			"bufferView":13,
			"componentType":5126,
			"count":24,
			"type":"VEC3"
		},
		{
			"bufferView":14,
			"componentType":5126,
			"count":24,
			"type":"VEC2"
		},
		{
			"bufferView":15,
			"componentType":5123,
			"count":36,
			"type":"SCALAR"
		},
		{
			"bufferView":16,
			"componentType":5126,
			"count":24,
			"max":[
				-0.34057125449180603,
				-0.9551370143890381,
				-0.33894795179367065
			],
			"min":[
				-0.4676445424556732,
				-1.3649842739105225,
				-0.4660225510597229
			],
			"type":"VEC3"
		},
		{
			"bufferView":17,
			"componentType":5126,
			"count":24,
			"type":"VEC3"
		},
		{
			"bufferView":18,
			"componentType":5126,
			"count":24,
			"type":"VEC2"
		},
		{
			"bufferView":19,
			"componentType":5123,
			"count":36,
			"type":"SCALAR"
		},
		{
			"bufferView":20,
			"componentType":5126,
			"count":24,
			"max":[
				0.04553677514195442,
				-0.928278386592865,
				-0.5257787108421326
			],
			"min":[
				-0.047830384224653244,
				-1.3671965599060059,
				-0.6135207414627075
			],
			"type":"VEC3"
		},
		{
			"bufferView":21,
			"componentType":5126,
			"count":24,
			"type":"VEC3"
		},
		{
			"bufferView":22,
			"componentType":5126,
			"count":24,
			"type":"VEC2"
		},
		{
			"bufferView":23,
			"componentType":5123,
			"count":36,
			"type":"SCALAR"
		},
		{
			"bufferView":24,
			"componentType":5126,
			"count":24,
			"max":[
				0.4660241901874542,
				-0.906577467918396,
				-0.3405744135379791
			],
			"min":[
				0.3389492928981781,
				-1.3689850568771362,
				-0.4676477909088135
			],
			"type":"VEC3"
		},
		{
			"bufferView":25,
			"componentType":5126,
			"count":24,
			"type":"VEC3"
		},
		{
			"bufferView":26,
			"componentType":5126,
			"count":24,
			"type":"VEC2"
		},
		{
			"bufferView":27,
			"componentType":5123,
			"count":36,
			"type":"SCALAR"
		},
		{
			"bufferView":28,
			"componentType":5126,
			"count":24,
			"max":[
				0.6135223507881165,
				-0.8990330696105957,
				0.045533712953329086
			],
			"min":[
				0.5257799029350281,
				-1.3696062564849854,
				-0.04783344268798828
			],
			"type":"VEC3"
		},
		{
			"bufferView":29,
			"componentType":5126,
			"count":24,
			"type":"VEC3"
		},
		{
			"bufferView":30,
			"componentType":5126,
			"count":24,
			"type":"VEC2"
		},
		{
			"bufferView":31,
			"componentType":5123,
			"count":36,
			"type":"SCALAR"
		},
		{
			"bufferView":32,
			"componentType":5126,
			"count":24,
			"max":[
				0.4676491320133209,
				-0.9395580887794495,
				0.4660211205482483
			],
			"min":[
				0.3405754268169403,
				-1.3662670850753784,
				0.3389463722705841
			],
			"type":"VEC3"
		},
		{
			"bufferView":33,
			"componentType":5126,
			"count":24,
			"type":"VEC3"
		},
		{
			"bufferView":34,
			"componentType":5126,
			"count":24,
			"type":"VEC2"
		},
		{
			"bufferView":35,
			"componentType":5123,
			"count":36,
			"type":"SCALAR"
		},
		{
			"bufferView":36,
			"componentType":5123,
			"count":3582,
			"normalized":true,
			"type":"VEC4"
		},
		{
			"bufferView":37,
			"componentType":5126,
			"count":3582,
			"max":[
				0.651257336139679,
				0.035917043685913086,
				0.651257336139679
			],
			"min":[
				-0.6512573957443237,
				-1.2606366872787476,
				-0.651257336139679
			],
			"type":"VEC3"
		},
		{
			"bufferView":38,
			"componentType":5126,
			"count":3582,
			"type":"VEC3"
		},
		{
			"bufferView":39,
			"componentType":5126,
			"count":3582,
			"type":"VEC2"
		},
		{
			"bufferView":40,
			"componentType":5123,
			"count":10230,
			"type":"SCALAR"
		},
		{
			"bufferView":41,
			"componentType":5123,
			"count":248,
			"normalized":true,
			"type":"VEC4"
		},
		{
			"bufferView":42,
			"componentType":5126,
			"count":248,
			"max":[
				0.5572736859321594,
				-1.1233465671539307,
				0.5544241070747375
			],
			"min":[
				-0.5575311183929443,
				-1.2585351467132568,
				-0.5542735457420349
			],
			"type":"VEC3"
		},
		{
			"bufferView":43,
			"componentType":5126,
			"count":248,
			"type":"VEC3"
		},
		{
			"bufferView":44,
			"componentType":5126,
			"count":248,
			"type":"VEC2"
		},
		{
			"bufferView":45,
			"componentType":5123,
			"count":720,
			"type":"SCALAR"
		},
		{
			"bufferView":46,
			"componentType":5123,
			"count":1985,
			"normalized":true,
			"type":"VEC4"
		},
		{
			"bufferView":47,
			"componentType":5126,
			"count":1985,
			"max":[
				0.6183496117591858,
				-0.9082695245742798,
				0.6136910319328308
			],
			"min":[
				-0.6160293221473694,
				-1.4217151403427124,
				-0.6165067553520203
			],
			"type":"VEC3"
		},
		{
			"bufferView":48,
			"componentType":5126,
			"count":1985,
			"type":"VEC3"
		},
		{
			"bufferView":49,
			"componentType":5126,
			"count":1985,
			"type":"VEC2"
		},
		{
			"bufferView":50,
			"componentType":5123,
			"count":6090,
			"type":"SCALAR"
		}
	],
	"bufferViews":[
		{
			"buffer":0,
			"byteLength":1200,
			"byteOffset":0,
			"target":34962
		},
		{
			"buffer":0,
			"byteLength":1200,
			"byteOffset":1200,
			"target":34962
		},
		{
			"buffer":0,
			"byteLength":800,
			"byteOffset":2400,
			"target":34962
		},
		{
			"buffer":0,
			"byteLength":336,
			"byteOffset":3200,
			"target":34963
		},
		{
			"buffer":0,
			"byteLength":288,
			"byteOffset":3536,
			"target":34962
		},
		{
			"buffer":0,
			"byteLength":288,
			"byteOffset":3824,
			"target":34962
		},
		{
			"buffer":0,
			"byteLength":192,
			"byteOffset":4112,
			"target":34962
		},
		{
			"buffer":0,
			"byteLength":72,
			"byteOffset":4304,
			"target":34963
		},
		{
			"buffer":0,
			"byteLength":288,
			"byteOffset":4376,
			"target":34962
		},
		{
			"buffer":0,
			"byteLength":288,
			"byteOffset":4664,
			"target":34962
		},
		{
			"buffer":0,
			"byteLength":192,
			"byteOffset":4952,
			"target":34962
		},
		{
			"buffer":0,
			"byteLength":72,
			"byteOffset":5144,
			"target":34963
		},
		{
			"buffer":0,
			"byteLength":288,
			"byteOffset":5216,
			"target":34962
		},
		{
			"buffer":0,
			"byteLength":288,
			"byteOffset":5504,
			"target":34962
		},
		{
			"buffer":0,
			"byteLength":192,
			"byteOffset":5792,
			"target":34962
		},
		{
			"buffer":0,
			"byteLength":72,
			"byteOffset":5984,
			"target":34963
		},
		{
			"buffer":0,
			"byteLength":288,
			"byteOffset":6056,
			"target":34962
		},
		{
			"buffer":0,
			"byteLength":288,
			"byteOffset":6344,
			"target":34962
		},
		{
			"buffer":0,
			"byteLength":192,
			"byteOffset":6632,
			"target":34962
		},
		{
			"buffer":0,
			"byteLength":72,
			"byteOffset":6824,
			"target":34963
		},
		{
			"buffer":0,
			"byteLength":288,
			"byteOffset":6896,
			"target":34962
		},
		{
			"buffer":0,
			"byteLength":288,
			"byteOffset":7184,
			"target":34962
		},
		{
			"buffer":0,
			"byteLength":192,
			"byteOffset":7472,
			"target":34962
		},
		{
			"buffer":0,
			"byteLength":72,
			"byteOffset":7664,
			"target":34963
		},
		{
			"buffer":0,
			"byteLength":288,
			"byteOffset":7736,
			"target":34962
		},
		{
			"buffer":0,
			"byteLength":288,
			"byteOffset":8024,
			"target":34962
		},
		{
			"buffer":0,
			"byteLength":192,
			"byteOffset":8312,
			"target":34962
		},
		{
			"buffer":0,
			"byteLength":72,
			"byteOffset":8504,
			"target":34963
		},
		{
			"buffer":0,
			"byteLength":288,
			"byteOffset":8576,
			"target":34962
		},
		{
			"buffer":0,
			"byteLength":288,
			"byteOffset":8864,
			"target":34962
		},
		{
			"buffer":0,
			"byteLength":192,
			"byteOffset":9152,
			"target":34962
		},
		{
			"buffer":0,
			"byteLength":72,
			"byteOffset":9344,
			"target":34963
		},
		{
			"buffer":0,
			"byteLength":288,
			"byteOffset":9416,
			"target":34962
		},
		{
			"buffer":0,
			"byteLength":288,
			"byteOffset":9704,
			"target":34962
		},
		{
			"buffer":0,
			"byteLength":192,
			"byteOffset":9992,
			"target":34962
		},
		{
			"buffer":0,
			"byteLength":72,
			"byteOffset":10184,
			"target":34963
		},
		{
			"buffer":0,
			"byteLength":28656,
			"byteOffset":10256,
			"target":34962
		},
		{
			"buffer":0,
			"byteLength":42984,
			"byteOffset":38912,
			"target":34962
		},
		{
			"buffer":0,
			"byteLength":42984,
			"byteOffset":81896,
			"target":34962
		},
		{
			"buffer":0,
			"byteLength":28656,
			"byteOffset":124880,
			"target":34962
		},
		{
			"buffer":0,
			"byteLength":20460,
			"byteOffset":153536,
			"target":34963
		},
		{
			"buffer":0,
			"byteLength":1984,
			"byteOffset":173996,
			"target":34962
		},
		{
			"buffer":0,
			"byteLength":2976,
			"byteOffset":175980,
			"target":34962
		},
		{
			"buffer":0,
			"byteLength":2976,
			"byteOffset":178956,
			"target":34962
		},
		{
			"buffer":0,
			"byteLength":1984,
			"byteOffset":181932,
			"target":34962
		},
		{
			"buffer":0,
			"byteLength":1440,
			"byteOffset":183916,
			"target":34963
		},
		{
			"buffer":0,
			"byteLength":15880,
			"byteOffset":185356,
			"target":34962
		},
		{
			"buffer":0,
			"byteLength":23820,
			"byteOffset":201236,
			"target":34962
		},
		{
			"buffer":0,
			"byteLength":23820,
			"byteOffset":225056,
			"target":34962
		},
		{
			"buffer":0,
			"byteLength":15880,
			"byteOffset":248876,
			"target":34962
		},
		{
			"buffer":0,
			"byteLength":12180,
			"byteOffset":264756,
			"target":34963
		}
	],
	"samplers":[
		{
			"magFilter":9729,
			"minFilter":9987
		}
	],
	"buffers":[
		{
			"byteLength":276936,
			"uri":"Chandelier.bin"
		}
	]
}
