{
	"asset":{
		"generator":"Khronos glTF Blender I/O v4.3.47",
		"version":"2.0"
	},
	"scene":0,
	"scenes":[
		{
			"name":"Scene",
			"nodes":[
				5
			]
		}
	],
	"nodes":[
		{
			"name":"Chest_Top",
			"translation":[
				1.8592691830576769e-09,
				0.42861831188201904,
				-0.2908601462841034
			]
		},
		{
			"children":[
				0
			],
			"name":"Chest_Bottom",
			"rotation":[
				0,
				-1.1920928955078125e-07,
				0,
				1
			]
		},
		{
			"children":[
				1
			],
			"name":"Root",
			"rotation":[
				0,
				1.1920928955078125e-07,
				0,
				1
			]
		},
		{
			"mesh":0,
			"name":"Chest_Legendary_Base",
			"skin":0
		},
		{
			"mesh":1,
			"name":"Chest_Legendary_Lid",
			"skin":0
		},
		{
			"children":[
				3,
				4,
				2
			],
			"name":"Chest_Armature"
		}
	],
	"animations":[
		{
			"channels":[
				{
					"sampler":0,
					"target":{
						"node":2,
						"path":"translation"
					}
				},
				{
					"sampler":1,
					"target":{
						"node":2,
						"path":"rotation"
					}
				},
				{
					"sampler":2,
					"target":{
						"node":2,
						"path":"scale"
					}
				},
				{
					"sampler":3,
					"target":{
						"node":1,
						"path":"translation"
					}
				},
				{
					"sampler":4,
					"target":{
						"node":1,
						"path":"rotation"
					}
				},
				{
					"sampler":5,
					"target":{
						"node":1,
						"path":"scale"
					}
				},
				{
					"sampler":6,
					"target":{
						"node":0,
						"path":"translation"
					}
				},
				{
					"sampler":7,
					"target":{
						"node":0,
						"path":"rotation"
					}
				},
				{
					"sampler":8,
					"target":{
						"node":0,
						"path":"scale"
					}
				}
			],
			"name":"Close",
			"samplers":[
				{
					"input":15,
					"interpolation":"STEP",
					"output":16
				},
				{
					"input":15,
					"interpolation":"STEP",
					"output":17
				},
				{
					"input":15,
					"interpolation":"STEP",
					"output":18
				},
				{
					"input":19,
					"interpolation":"LINEAR",
					"output":20
				},
				{
					"input":19,
					"interpolation":"LINEAR",
					"output":21
				},
				{
					"input":15,
					"interpolation":"STEP",
					"output":22
				},
				{
					"input":15,
					"interpolation":"STEP",
					"output":23
				},
				{
					"input":19,
					"interpolation":"LINEAR",
					"output":24
				},
				{
					"input":15,
					"interpolation":"STEP",
					"output":25
				}
			]
		},
		{
			"channels":[
				{
					"sampler":0,
					"target":{
						"node":2,
						"path":"translation"
					}
				},
				{
					"sampler":1,
					"target":{
						"node":2,
						"path":"rotation"
					}
				},
				{
					"sampler":2,
					"target":{
						"node":2,
						"path":"scale"
					}
				},
				{
					"sampler":3,
					"target":{
						"node":1,
						"path":"translation"
					}
				},
				{
					"sampler":4,
					"target":{
						"node":1,
						"path":"rotation"
					}
				},
				{
					"sampler":5,
					"target":{
						"node":1,
						"path":"scale"
					}
				},
				{
					"sampler":6,
					"target":{
						"node":0,
						"path":"translation"
					}
				},
				{
					"sampler":7,
					"target":{
						"node":0,
						"path":"rotation"
					}
				},
				{
					"sampler":8,
					"target":{
						"node":0,
						"path":"scale"
					}
				}
			],
			"name":"Closed",
			"samplers":[
				{
					"input":26,
					"interpolation":"STEP",
					"output":27
				},
				{
					"input":26,
					"interpolation":"STEP",
					"output":28
				},
				{
					"input":26,
					"interpolation":"STEP",
					"output":29
				},
				{
					"input":26,
					"interpolation":"STEP",
					"output":30
				},
				{
					"input":26,
					"interpolation":"STEP",
					"output":31
				},
				{
					"input":26,
					"interpolation":"STEP",
					"output":32
				},
				{
					"input":26,
					"interpolation":"STEP",
					"output":33
				},
				{
					"input":26,
					"interpolation":"STEP",
					"output":34
				},
				{
					"input":26,
					"interpolation":"STEP",
					"output":35
				}
			]
		},
		{
			"channels":[
				{
					"sampler":0,
					"target":{
						"node":2,
						"path":"translation"
					}
				},
				{
					"sampler":1,
					"target":{
						"node":2,
						"path":"rotation"
					}
				},
				{
					"sampler":2,
					"target":{
						"node":2,
						"path":"scale"
					}
				},
				{
					"sampler":3,
					"target":{
						"node":1,
						"path":"translation"
					}
				},
				{
					"sampler":4,
					"target":{
						"node":1,
						"path":"rotation"
					}
				},
				{
					"sampler":5,
					"target":{
						"node":1,
						"path":"scale"
					}
				},
				{
					"sampler":6,
					"target":{
						"node":0,
						"path":"translation"
					}
				},
				{
					"sampler":7,
					"target":{
						"node":0,
						"path":"rotation"
					}
				},
				{
					"sampler":8,
					"target":{
						"node":0,
						"path":"scale"
					}
				}
			],
			"name":"Open",
			"samplers":[
				{
					"input":36,
					"interpolation":"STEP",
					"output":37
				},
				{
					"input":36,
					"interpolation":"STEP",
					"output":38
				},
				{
					"input":36,
					"interpolation":"STEP",
					"output":39
				},
				{
					"input":40,
					"interpolation":"LINEAR",
					"output":41
				},
				{
					"input":40,
					"interpolation":"LINEAR",
					"output":42
				},
				{
					"input":36,
					"interpolation":"STEP",
					"output":43
				},
				{
					"input":36,
					"interpolation":"STEP",
					"output":44
				},
				{
					"input":40,
					"interpolation":"LINEAR",
					"output":45
				},
				{
					"input":36,
					"interpolation":"STEP",
					"output":46
				}
			]
		},
		{
			"channels":[
				{
					"sampler":0,
					"target":{
						"node":2,
						"path":"translation"
					}
				},
				{
					"sampler":1,
					"target":{
						"node":2,
						"path":"rotation"
					}
				},
				{
					"sampler":2,
					"target":{
						"node":2,
						"path":"scale"
					}
				},
				{
					"sampler":3,
					"target":{
						"node":1,
						"path":"translation"
					}
				},
				{
					"sampler":4,
					"target":{
						"node":1,
						"path":"rotation"
					}
				},
				{
					"sampler":5,
					"target":{
						"node":1,
						"path":"scale"
					}
				},
				{
					"sampler":6,
					"target":{
						"node":0,
						"path":"translation"
					}
				},
				{
					"sampler":7,
					"target":{
						"node":0,
						"path":"rotation"
					}
				},
				{
					"sampler":8,
					"target":{
						"node":0,
						"path":"scale"
					}
				}
			],
			"name":"Opened",
			"samplers":[
				{
					"input":26,
					"interpolation":"STEP",
					"output":47
				},
				{
					"input":26,
					"interpolation":"STEP",
					"output":48
				},
				{
					"input":26,
					"interpolation":"STEP",
					"output":49
				},
				{
					"input":26,
					"interpolation":"STEP",
					"output":50
				},
				{
					"input":26,
					"interpolation":"STEP",
					"output":51
				},
				{
					"input":26,
					"interpolation":"STEP",
					"output":52
				},
				{
					"input":26,
					"interpolation":"STEP",
					"output":53
				},
				{
					"input":26,
					"interpolation":"STEP",
					"output":54
				},
				{
					"input":26,
					"interpolation":"STEP",
					"output":55
				}
			]
		}
	],
	"materials":[
		{
			"doubleSided":true,
			"name":"MI_Trim_Metal_Vertex",
			"normalTexture":{
				"index":0
			},
			"pbrMetallicRoughness":{
				"baseColorTexture":{
					"index":1
				},
				"metallicRoughnessTexture":{
					"index":2
				}
			}
		}
	],
	"meshes":[
		{
			"name":"Cube.184",
			"primitives":[
				{
					"attributes":{
						"POSITION":0,
						"NORMAL":1,
						"TEXCOORD_0":2,
						"COLOR_0":3,
						"JOINTS_0":4,
						"WEIGHTS_0":5
					},
					"indices":6,
					"material":0
				}
			]
		},
		{
			"name":"Cube.165",
			"primitives":[
				{
					"attributes":{
						"POSITION":8,
						"NORMAL":9,
						"TEXCOORD_0":10,
						"COLOR_0":11,
						"JOINTS_0":12,
						"WEIGHTS_0":13
					},
					"indices":14,
					"material":0
				}
			]
		}
	],
	"textures":[
		{
			"sampler":0,
			"source":0
		},
		{
			"sampler":0,
			"source":1
		},
		{
			"sampler":0,
			"source":2
		}
	],
	"images":[
		{
			"mimeType":"image/png",
			"name":"T_Trim_Metal_Normal",
			"uri":"T_Trim_Metal_Normal.png"
		},
		{
			"mimeType":"image/png",
			"name":"T_Trim_Metal_BaseColor",
			"uri":"T_Trim_Metal_BaseColor.png"
		},
		{
			"mimeType":"image/png",
			"name":"T_Trim_Metal_ORM",
			"uri":"T_Trim_Metal_ORM.png"
		}
	],
	"skins":[
		{
			"inverseBindMatrices":7,
			"joints":[
				2,
				1,
				0
			],
			"name":"Chest_Armature"
		}
	],
	"accessors":[
		{
			"bufferView":0,
			"componentType":5126,
			"count":1200,
			"max":[
				0.5568840503692627,
				0.43102023005485535,
				0.35588863492012024
			],
			"min":[
				-0.5568840503692627,
				-0.006533971522003412,
				-0.3275706470012665
			],
			"type":"VEC3"
		},
		{
			"bufferView":1,
			"componentType":5126,
			"count":1200,
			"type":"VEC3"
		},
		{
			"bufferView":2,
			"componentType":5126,
			"count":1200,
			"type":"VEC2"
		},
		{
			"bufferView":3,
			"componentType":5123,
			"count":1200,
			"normalized":true,
			"type":"VEC4"
		},
		{
			"bufferView":4,
			"componentType":5121,
			"count":1200,
			"type":"VEC4"
		},
		{
			"bufferView":5,
			"componentType":5126,
			"count":1200,
			"type":"VEC4"
		},
		{
			"bufferView":6,
			"componentType":5123,
			"count":3750,
			"type":"SCALAR"
		},
		{
			"bufferView":7,
			"componentType":5126,
			"count":3,
			"type":"MAT4"
		},
		{
			"bufferView":8,
			"componentType":5126,
			"count":1134,
			"max":[
				0.6945431232452393,
				0.8297933340072632,
				0.3394021689891815
			],
			"min":[
				-0.6945431232452393,
				0.4007894992828369,
				-0.3482244908809662
			],
			"type":"VEC3"
		},
		{
			"bufferView":9,
			"componentType":5126,
			"count":1134,
			"type":"VEC3"
		},
		{
			"bufferView":10,
			"componentType":5126,
			"count":1134,
			"type":"VEC2"
		},
		{
			"bufferView":11,
			"componentType":5123,
			"count":1134,
			"normalized":true,
			"type":"VEC4"
		},
		{
			"bufferView":12,
			"componentType":5121,
			"count":1134,
			"type":"VEC4"
		},
		{
			"bufferView":13,
			"componentType":5126,
			"count":1134,
			"type":"VEC4"
		},
		{
			"bufferView":14,
			"componentType":5123,
			"count":2658,
			"type":"SCALAR"
		},
		{
			"bufferView":15,
			"componentType":5126,
			"count":2,
			"max":[
				0.5
			],
			"min":[
				0.03333333333333333
			],
			"type":"SCALAR"
		},
		{
			"bufferView":16,
			"componentType":5126,
			"count":2,
			"type":"VEC3"
		},
		{
			"bufferView":17,
			"componentType":5126,
			"count":2,
			"type":"VEC4"
		},
		{
			"bufferView":18,
			"componentType":5126,
			"count":2,
			"type":"VEC3"
		},
		{
			"bufferView":19,
			"componentType":5126,
			"count":15,
			"max":[
				0.5
			],
			"min":[
				0.03333333333333333
			],
			"type":"SCALAR"
		},
		{
			"bufferView":20,
			"componentType":5126,
			"count":15,
			"type":"VEC3"
		},
		{
			"bufferView":21,
			"componentType":5126,
			"count":15,
			"type":"VEC4"
		},
		{
			"bufferView":22,
			"componentType":5126,
			"count":2,
			"type":"VEC3"
		},
		{
			"bufferView":23,
			"componentType":5126,
			"count":2,
			"type":"VEC3"
		},
		{
			"bufferView":24,
			"componentType":5126,
			"count":15,
			"type":"VEC4"
		},
		{
			"bufferView":25,
			"componentType":5126,
			"count":2,
			"type":"VEC3"
		},
		{
			"bufferView":26,
			"componentType":5126,
			"count":2,
			"max":[
				0.3333333333333333
			],
			"min":[
				0
			],
			"type":"SCALAR"
		},
		{
			"bufferView":27,
			"componentType":5126,
			"count":2,
			"type":"VEC3"
		},
		{
			"bufferView":28,
			"componentType":5126,
			"count":2,
			"type":"VEC4"
		},
		{
			"bufferView":29,
			"componentType":5126,
			"count":2,
			"type":"VEC3"
		},
		{
			"bufferView":30,
			"componentType":5126,
			"count":2,
			"type":"VEC3"
		},
		{
			"bufferView":31,
			"componentType":5126,
			"count":2,
			"type":"VEC4"
		},
		{
			"bufferView":32,
			"componentType":5126,
			"count":2,
			"type":"VEC3"
		},
		{
			"bufferView":33,
			"componentType":5126,
			"count":2,
			"type":"VEC3"
		},
		{
			"bufferView":34,
			"componentType":5126,
			"count":2,
			"type":"VEC4"
		},
		{
			"bufferView":35,
			"componentType":5126,
			"count":2,
			"type":"VEC3"
		},
		{
			"bufferView":36,
			"componentType":5126,
			"count":2,
			"max":[
				0.6333333333333333
			],
			"min":[
				0
			],
			"type":"SCALAR"
		},
		{
			"bufferView":37,
			"componentType":5126,
			"count":2,
			"type":"VEC3"
		},
		{
			"bufferView":38,
			"componentType":5126,
			"count":2,
			"type":"VEC4"
		},
		{
			"bufferView":39,
			"componentType":5126,
			"count":2,
			"type":"VEC3"
		},
		{
			"bufferView":40,
			"componentType":5126,
			"count":20,
			"max":[
				0.6333333333333333
			],
			"min":[
				0
			],
			"type":"SCALAR"
		},
		{
			"bufferView":41,
			"componentType":5126,
			"count":20,
			"type":"VEC3"
		},
		{
			"bufferView":42,
			"componentType":5126,
			"count":20,
			"type":"VEC4"
		},
		{
			"bufferView":43,
			"componentType":5126,
			"count":2,
			"type":"VEC3"
		},
		{
			"bufferView":44,
			"componentType":5126,
			"count":2,
			"type":"VEC3"
		},
		{
			"bufferView":45,
			"componentType":5126,
			"count":20,
			"type":"VEC4"
		},
		{
			"bufferView":46,
			"componentType":5126,
			"count":2,
			"type":"VEC3"
		},
		{
			"bufferView":47,
			"componentType":5126,
			"count":2,
			"type":"VEC3"
		},
		{
			"bufferView":48,
			"componentType":5126,
			"count":2,
			"type":"VEC4"
		},
		{
			"bufferView":49,
			"componentType":5126,
			"count":2,
			"type":"VEC3"
		},
		{
			"bufferView":50,
			"componentType":5126,
			"count":2,
			"type":"VEC3"
		},
		{
			"bufferView":51,
			"componentType":5126,
			"count":2,
			"type":"VEC4"
		},
		{
			"bufferView":52,
			"componentType":5126,
			"count":2,
			"type":"VEC3"
		},
		{
			"bufferView":53,
			"componentType":5126,
			"count":2,
			"type":"VEC3"
		},
		{
			"bufferView":54,
			"componentType":5126,
			"count":2,
			"type":"VEC4"
		},
		{
			"bufferView":55,
			"componentType":5126,
			"count":2,
			"type":"VEC3"
		}
	],
	"bufferViews":[
		{
			"buffer":0,
			"byteLength":14400,
			"byteOffset":0,
			"target":34962
		},
		{
			"buffer":0,
			"byteLength":14400,
			"byteOffset":14400,
			"target":34962
		},
		{
			"buffer":0,
			"byteLength":9600,
			"byteOffset":28800,
			"target":34962
		},
		{
			"buffer":0,
			"byteLength":9600,
			"byteOffset":38400,
			"target":34962
		},
		{
			"buffer":0,
			"byteLength":4800,
			"byteOffset":48000,
			"target":34962
		},
		{
			"buffer":0,
			"byteLength":19200,
			"byteOffset":52800,
			"target":34962
		},
		{
			"buffer":0,
			"byteLength":7500,
			"byteOffset":72000,
			"target":34963
		},
		{
			"buffer":0,
			"byteLength":192,
			"byteOffset":79500
		},
		{
			"buffer":0,
			"byteLength":13608,
			"byteOffset":79692,
			"target":34962
		},
		{
			"buffer":0,
			"byteLength":13608,
			"byteOffset":93300,
			"target":34962
		},
		{
			"buffer":0,
			"byteLength":9072,
			"byteOffset":106908,
			"target":34962
		},
		{
			"buffer":0,
			"byteLength":9072,
			"byteOffset":115980,
			"target":34962
		},
		{
			"buffer":0,
			"byteLength":4536,
			"byteOffset":125052,
			"target":34962
		},
		{
			"buffer":0,
			"byteLength":18144,
			"byteOffset":129588,
			"target":34962
		},
		{
			"buffer":0,
			"byteLength":5316,
			"byteOffset":147732,
			"target":34963
		},
		{
			"buffer":0,
			"byteLength":8,
			"byteOffset":153048
		},
		{
			"buffer":0,
			"byteLength":24,
			"byteOffset":153056
		},
		{
			"buffer":0,
			"byteLength":32,
			"byteOffset":153080
		},
		{
			"buffer":0,
			"byteLength":24,
			"byteOffset":153112
		},
		{
			"buffer":0,
			"byteLength":60,
			"byteOffset":153136
		},
		{
			"buffer":0,
			"byteLength":180,
			"byteOffset":153196
		},
		{
			"buffer":0,
			"byteLength":240,
			"byteOffset":153376
		},
		{
			"buffer":0,
			"byteLength":24,
			"byteOffset":153616
		},
		{
			"buffer":0,
			"byteLength":24,
			"byteOffset":153640
		},
		{
			"buffer":0,
			"byteLength":240,
			"byteOffset":153664
		},
		{
			"buffer":0,
			"byteLength":24,
			"byteOffset":153904
		},
		{
			"buffer":0,
			"byteLength":8,
			"byteOffset":153928
		},
		{
			"buffer":0,
			"byteLength":24,
			"byteOffset":153936
		},
		{
			"buffer":0,
			"byteLength":32,
			"byteOffset":153960
		},
		{
			"buffer":0,
			"byteLength":24,
			"byteOffset":153992
		},
		{
			"buffer":0,
			"byteLength":24,
			"byteOffset":154016
		},
		{
			"buffer":0,
			"byteLength":32,
			"byteOffset":154040
		},
		{
			"buffer":0,
			"byteLength":24,
			"byteOffset":154072
		},
		{
			"buffer":0,
			"byteLength":24,
			"byteOffset":154096
		},
		{
			"buffer":0,
			"byteLength":32,
			"byteOffset":154120
		},
		{
			"buffer":0,
			"byteLength":24,
			"byteOffset":154152
		},
		{
			"buffer":0,
			"byteLength":8,
			"byteOffset":154176
		},
		{
			"buffer":0,
			"byteLength":24,
			"byteOffset":154184
		},
		{
			"buffer":0,
			"byteLength":32,
			"byteOffset":154208
		},
		{
			"buffer":0,
			"byteLength":24,
			"byteOffset":154240
		},
		{
			"buffer":0,
			"byteLength":80,
			"byteOffset":154264
		},
		{
			"buffer":0,
			"byteLength":240,
			"byteOffset":154344
		},
		{
			"buffer":0,
			"byteLength":320,
			"byteOffset":154584
		},
		{
			"buffer":0,
			"byteLength":24,
			"byteOffset":154904
		},
		{
			"buffer":0,
			"byteLength":24,
			"byteOffset":154928
		},
		{
			"buffer":0,
			"byteLength":320,
			"byteOffset":154952
		},
		{
			"buffer":0,
			"byteLength":24,
			"byteOffset":155272
		},
		{
			"buffer":0,
			"byteLength":24,
			"byteOffset":155296
		},
		{
			"buffer":0,
			"byteLength":32,
			"byteOffset":155320
		},
		{
			"buffer":0,
			"byteLength":24,
			"byteOffset":155352
		},
		{
			"buffer":0,
			"byteLength":24,
			"byteOffset":155376
		},
		{
			"buffer":0,
			"byteLength":32,
			"byteOffset":155400
		},
		{
			"buffer":0,
			"byteLength":24,
			"byteOffset":155432
		},
		{
			"buffer":0,
			"byteLength":24,
			"byteOffset":155456
		},
		{
			"buffer":0,
			"byteLength":32,
			"byteOffset":155480
		},
		{
			"buffer":0,
			"byteLength":24,
			"byteOffset":155512
		}
	],
	"samplers":[
		{
			"magFilter":9729,
			"minFilter":9987
		}
	],
	"buffers":[
		{
			"byteLength":155536,
			"uri":"Chest_Legendary.bin"
		}
	]
}
