{
	"asset":{
		"generator":"Khronos glTF Blender I/O v4.0.44",
		"version":"2.0"
	},
	"scene":0,
	"scenes":[
		{
			"name":"Scene",
			"nodes":[
				1
			]
		}
	],
	"nodes":[
		{
			"mesh":0,
			"name":"Crate_Wooden_1-convcolonly"
		},
		{
			"children":[
				0
			],
			"mesh":1,
			"name":"Crate_Wooden",
			"scale":[
				0.7800000309944153,
				0.7800000309944153,
				0.7800000309944153
			]
		}
	],
	"materials":[
		{
			"doubleSided":true,
			"name":"Collision",
			"pbrMetallicRoughness":{
				"baseColorFactor":[
					0.047601714730262756,
					0.17601831257343292,
					0.8000785112380981,
					1
				],
				"metallicFactor":0,
				"roughnessFactor":0.5
			}
		},
		{
			"doubleSided":true,
			"name":"MI_Trim_Furniture",
			"normalTexture":{
				"index":0
			},
			"pbrMetallicRoughness":{
				"baseColorTexture":{
					"index":1
				},
				"metallicRoughnessTexture":{
					"index":2
				}
			}
		},
		{
			"doubleSided":true,
			"name":"MI_Trim_Metal",
			"normalTexture":{
				"index":3
			},
			"pbrMetallicRoughness":{
				"baseColorTexture":{
					"index":4
				},
				"metallicRoughnessTexture":{
					"index":5
				}
			}
		}
	],
	"meshes":[
		{
			"name":"Cube.012",
			"primitives":[
				{
					"attributes":{
						"POSITION":0,
						"NORMAL":1,
						"TEXCOORD_0":2
					},
					"indices":3,
					"material":0
				}
			]
		},
		{
			"name":"Cube.017",
			"primitives":[
				{
					"attributes":{
						"COLOR_0":4,
						"POSITION":5,
						"NORMAL":6,
						"TEXCOORD_0":7
					},
					"indices":8,
					"material":1
				},
				{
					"attributes":{
						"COLOR_0":9,
						"POSITION":10,
						"NORMAL":11,
						"TEXCOORD_0":12
					},
					"indices":13,
					"material":2
				}
			]
		}
	],
	"textures":[
		{
			"sampler":0,
			"source":0
		},
		{
			"sampler":0,
			"source":1
		},
		{
			"sampler":0,
			"source":2
		},
		{
			"sampler":0,
			"source":3
		},
		{
			"sampler":0,
			"source":4
		},
		{
			"sampler":0,
			"source":5
		}
	],
	"images":[
		{
			"mimeType":"image/png",
			"name":"T_Trim_Furniture_Normal",
			"uri":"T_Trim_Furniture_Normal.png"
		},
		{
			"mimeType":"image/png",
			"name":"T_Trim_Furniture_BaseColor",
			"uri":"T_Trim_Furniture_BaseColor.png"
		},
		{
			"mimeType":"image/png",
			"name":"T_Trim_Furniture_ORM",
			"uri":"T_Trim_Furniture_ORM.png"
		},
		{
			"mimeType":"image/png",
			"name":"T_Trim_Metal_Normal",
			"uri":"T_Trim_Metal_Normal.png"
		},
		{
			"mimeType":"image/png",
			"name":"T_Trim_Metal_BaseColor",
			"uri":"T_Trim_Metal_BaseColor.png"
		},
		{
			"mimeType":"image/png",
			"name":"T_Trim_Metal_ORM",
			"uri":"T_Trim_Metal_ORM.png"
		}
	],
	"accessors":[
		{
			"bufferView":0,
			"componentType":5126,
			"count":24,
			"max":[
				0.3999443054199219,
				0.8613332509994507,
				0.43151411414146423
			],
			"min":[
				-0.39994266629219055,
				0.012256592512130737,
				-0.4315149784088135
			],
			"type":"VEC3"
		},
		{
			"bufferView":1,
			"componentType":5126,
			"count":24,
			"type":"VEC3"
		},
		{
			"bufferView":2,
			"componentType":5126,
			"count":24,
			"type":"VEC2"
		},
		{
			"bufferView":3,
			"componentType":5123,
			"count":36,
			"type":"SCALAR"
		},
		{
			"bufferView":4,
			"componentType":5123,
			"count":610,
			"normalized":true,
			"type":"VEC4"
		},
		{
			"bufferView":5,
			"componentType":5126,
			"count":610,
			"max":[
				0.5338637828826904,
				1.093560814857483,
				0.5513647794723511
			],
			"min":[
				-0.5459548234939575,
				-0.03450348228216171,
				-0.5464894771575928
			],
			"type":"VEC3"
		},
		{
			"bufferView":6,
			"componentType":5126,
			"count":610,
			"type":"VEC3"
		},
		{
			"bufferView":7,
			"componentType":5126,
			"count":610,
			"type":"VEC2"
		},
		{
			"bufferView":8,
			"componentType":5123,
			"count":984,
			"type":"SCALAR"
		},
		{
			"bufferView":9,
			"componentType":5123,
			"count":816,
			"normalized":true,
			"type":"VEC4"
		},
		{
			"bufferView":10,
			"componentType":5126,
			"count":816,
			"max":[
				0.5213589668273926,
				1.1262773275375366,
				0.5822392702102661
			],
			"min":[
				-0.5213589668273926,
				-0.06721998751163483,
				-0.5822392702102661
			],
			"type":"VEC3"
		},
		{
			"bufferView":11,
			"componentType":5126,
			"count":816,
			"type":"VEC3"
		},
		{
			"bufferView":12,
			"componentType":5126,
			"count":816,
			"type":"VEC2"
		},
		{
			"bufferView":13,
			"componentType":5123,
			"count":3744,
			"type":"SCALAR"
		}
	],
	"bufferViews":[
		{
			"buffer":0,
			"byteLength":288,
			"byteOffset":0,
			"target":34962
		},
		{
			"buffer":0,
			"byteLength":288,
			"byteOffset":288,
			"target":34962
		},
		{
			"buffer":0,
			"byteLength":192,
			"byteOffset":576,
			"target":34962
		},
		{
			"buffer":0,
			"byteLength":72,
			"byteOffset":768,
			"target":34963
		},
		{
			"buffer":0,
			"byteLength":4880,
			"byteOffset":840,
			"target":34962
		},
		{
			"buffer":0,
			"byteLength":7320,
			"byteOffset":5720,
			"target":34962
		},
		{
			"buffer":0,
			"byteLength":7320,
			"byteOffset":13040,
			"target":34962
		},
		{
			"buffer":0,
			"byteLength":4880,
			"byteOffset":20360,
			"target":34962
		},
		{
			"buffer":0,
			"byteLength":1968,
			"byteOffset":25240,
			"target":34963
		},
		{
			"buffer":0,
			"byteLength":6528,
			"byteOffset":27208,
			"target":34962
		},
		{
			"buffer":0,
			"byteLength":9792,
			"byteOffset":33736,
			"target":34962
		},
		{
			"buffer":0,
			"byteLength":9792,
			"byteOffset":43528,
			"target":34962
		},
		{
			"buffer":0,
			"byteLength":6528,
			"byteOffset":53320,
			"target":34962
		},
		{
			"buffer":0,
			"byteLength":7488,
			"byteOffset":59848,
			"target":34963
		}
	],
	"samplers":[
		{
			"magFilter":9729,
			"minFilter":9987
		}
	],
	"buffers":[
		{
			"byteLength":67336,
			"uri":"Crate_Wooden.bin"
		}
	]
}
