{
	"asset":{
		"generator":"Khronos glTF Blender I/O v4.0.44",
		"version":"2.0"
	},
	"scene":0,
	"scenes":[
		{
			"name":"Scene",
			"nodes":[
				0
			]
		}
	],
	"nodes":[
		{
			"mesh":0,
			"name":"Dagger_Steel_Steel"
		}
	],
	"materials":[
		{
			"doubleSided":true,
			"name":"MI_Trim_Props",
			"normalTexture":{
				"index":0
			},
			"pbrMetallicRoughness":{
				"baseColorTexture":{
					"index":1
				},
				"metallicRoughnessTexture":{
					"index":2
				}
			}
		}
	],
	"meshes":[
		{
			"name":"meshId0_name.002",
			"primitives":[
				{
					"attributes":{
						"POSITION":0,
						"NORMAL":1,
						"TEXCOORD_0":2
					},
					"indices":3,
					"material":0
				}
			]
		}
	],
	"textures":[
		{
			"sampler":0,
			"source":0
		},
		{
			"sampler":0,
			"source":1
		},
		{
			"sampler":0,
			"source":2
		}
	],
	"images":[
		{
			"mimeType":"image/png",
			"name":"T_Trim_Props_Normal",
			"uri":"T_Trim_Props_Normal.png"
		},
		{
			"mimeType":"image/png",
			"name":"T_Trim_Props_BaseColor",
			"uri":"T_Trim_Props_BaseColor.png"
		},
		{
			"mimeType":"image/png",
			"name":"T_Trim_Props_ORM",
			"uri":"T_Trim_Props_ORM.png"
		}
	],
	"accessors":[
		{
			"bufferView":0,
			"componentType":5126,
			"count":1439,
			"max":[
				0.1054869294166565,
				0.5737619400024414,
				0.026932738721370697
			],
			"min":[
				-0.1054869294166565,
				-0.18934749066829681,
				-0.026932738721370697
			],
			"type":"VEC3"
		},
		{
			"bufferView":1,
			"componentType":5126,
			"count":1439,
			"type":"VEC3"
		},
		{
			"bufferView":2,
			"componentType":5126,
			"count":1439,
			"type":"VEC2"
		},
		{
			"bufferView":3,
			"componentType":5123,
			"count":4350,
			"type":"SCALAR"
		}
	],
	"bufferViews":[
		{
			"buffer":0,
			"byteLength":17268,
			"byteOffset":0,
			"target":34962
		},
		{
			"buffer":0,
			"byteLength":17268,
			"byteOffset":17268,
			"target":34962
		},
		{
			"buffer":0,
			"byteLength":11512,
			"byteOffset":34536,
			"target":34962
		},
		{
			"buffer":0,
			"byteLength":8700,
			"byteOffset":46048,
			"target":34963
		}
	],
	"samplers":[
		{
			"magFilter":9729,
			"minFilter":9987
		}
	],
	"buffers":[
		{
			"byteLength":54748,
			"uri":"Dagger_Steel_Steel.bin"
		}
	]
}
