{
	"asset":{
		"generator":"Khronos glTF Blender I/O v4.0.44",
		"version":"2.0"
	},
	"scene":0,
	"scenes":[
		{
			"name":"Scene",
			"nodes":[
				1
			]
		}
	],
	"nodes":[
		{
			"mesh":0,
			"name":"Dresser_1_1-convcolonly"
		},
		{
			"children":[
				0
			],
			"mesh":1,
			"name":"Dresser_1"
		}
	],
	"materials":[
		{
			"doubleSided":true,
			"name":"Collision",
			"pbrMetallicRoughness":{
				"baseColorFactor":[
					0.047601714730262756,
					0.17601831257343292,
					0.8000785112380981,
					1
				],
				"metallicFactor":0,
				"roughnessFactor":0.5
			}
		},
		{
			"doubleSided":true,
			"name":"MI_Trim_Metal",
			"normalTexture":{
				"index":0
			},
			"pbrMetallicRoughness":{
				"baseColorTexture":{
					"index":1
				},
				"metallicRoughnessTexture":{
					"index":2
				}
			}
		},
		{
			"doubleSided":true,
			"name":"MI_Trim_Furniture",
			"normalTexture":{
				"index":3
			},
			"pbrMetallicRoughness":{
				"baseColorTexture":{
					"index":4
				},
				"metallicRoughnessTexture":{
					"index":5
				}
			}
		}
	],
	"meshes":[
		{
			"name":"Cube.007",
			"primitives":[
				{
					"attributes":{
						"POSITION":0,
						"NORMAL":1,
						"TEXCOORD_0":2
					},
					"indices":3,
					"material":0
				}
			]
		},
		{
			"name":"Cube.083",
			"primitives":[
				{
					"attributes":{
						"COLOR_0":4,
						"POSITION":5,
						"NORMAL":6,
						"TEXCOORD_0":7
					},
					"indices":8,
					"material":1
				},
				{
					"attributes":{
						"COLOR_0":9,
						"POSITION":10,
						"NORMAL":11,
						"TEXCOORD_0":12
					},
					"indices":13,
					"material":2
				}
			]
		}
	],
	"textures":[
		{
			"sampler":0,
			"source":0
		},
		{
			"sampler":0,
			"source":1
		},
		{
			"sampler":0,
			"source":2
		},
		{
			"sampler":0,
			"source":3
		},
		{
			"sampler":0,
			"source":4
		},
		{
			"sampler":0,
			"source":5
		}
	],
	"images":[
		{
			"mimeType":"image/png",
			"name":"T_Trim_Metal_Normal",
			"uri":"T_Trim_Metal_Normal.png"
		},
		{
			"mimeType":"image/png",
			"name":"T_Trim_Metal_BaseColor",
			"uri":"T_Trim_Metal_BaseColor.png"
		},
		{
			"mimeType":"image/png",
			"name":"T_Trim_Metal_ORM",
			"uri":"T_Trim_Metal_ORM.png"
		},
		{
			"mimeType":"image/png",
			"name":"T_Trim_Furniture_Normal",
			"uri":"T_Trim_Furniture_Normal.png"
		},
		{
			"mimeType":"image/png",
			"name":"T_Trim_Furniture_BaseColor",
			"uri":"T_Trim_Furniture_BaseColor.png"
		},
		{
			"mimeType":"image/png",
			"name":"T_Trim_Furniture_ORM",
			"uri":"T_Trim_Furniture_ORM.png"
		}
	],
	"accessors":[
		{
			"bufferView":0,
			"componentType":5126,
			"count":24,
			"max":[
				0.7333933711051941,
				1.100043535232544,
				0.20573732256889343
			],
			"min":[
				-0.7333928346633911,
				-0.022053241729736328,
				-0.20731526613235474
			],
			"type":"VEC3"
		},
		{
			"bufferView":1,
			"componentType":5126,
			"count":24,
			"type":"VEC3"
		},
		{
			"bufferView":2,
			"componentType":5126,
			"count":24,
			"type":"VEC2"
		},
		{
			"bufferView":3,
			"componentType":5123,
			"count":36,
			"type":"SCALAR"
		},
		{
			"bufferView":4,
			"componentType":5123,
			"count":1146,
			"normalized":true,
			"type":"VEC4"
		},
		{
			"bufferView":5,
			"componentType":5126,
			"count":1146,
			"max":[
				0.4279881715774536,
				0.799098014831543,
				0.17817015945911407
			],
			"min":[
				-0.42544564604759216,
				0.3939771354198456,
				0.13630932569503784
			],
			"type":"VEC3"
		},
		{
			"bufferView":6,
			"componentType":5126,
			"count":1146,
			"type":"VEC3"
		},
		{
			"bufferView":7,
			"componentType":5126,
			"count":1146,
			"type":"VEC2"
		},
		{
			"bufferView":8,
			"componentType":5123,
			"count":4740,
			"type":"SCALAR"
		},
		{
			"bufferView":9,
			"componentType":5123,
			"count":443,
			"normalized":true,
			"type":"VEC4"
		},
		{
			"bufferView":10,
			"componentType":5126,
			"count":443,
			"max":[
				0.7306193113327026,
				1.0933676958084106,
				0.2082521617412567
			],
			"min":[
				-0.7306193113327026,
				-0.01738297939300537,
				-0.20637629926204681
			],
			"type":"VEC3"
		},
		{
			"bufferView":11,
			"componentType":5126,
			"count":443,
			"type":"VEC3"
		},
		{
			"bufferView":12,
			"componentType":5126,
			"count":443,
			"type":"VEC2"
		},
		{
			"bufferView":13,
			"componentType":5123,
			"count":900,
			"type":"SCALAR"
		}
	],
	"bufferViews":[
		{
			"buffer":0,
			"byteLength":288,
			"byteOffset":0,
			"target":34962
		},
		{
			"buffer":0,
			"byteLength":288,
			"byteOffset":288,
			"target":34962
		},
		{
			"buffer":0,
			"byteLength":192,
			"byteOffset":576,
			"target":34962
		},
		{
			"buffer":0,
			"byteLength":72,
			"byteOffset":768,
			"target":34963
		},
		{
			"buffer":0,
			"byteLength":9168,
			"byteOffset":840,
			"target":34962
		},
		{
			"buffer":0,
			"byteLength":13752,
			"byteOffset":10008,
			"target":34962
		},
		{
			"buffer":0,
			"byteLength":13752,
			"byteOffset":23760,
			"target":34962
		},
		{
			"buffer":0,
			"byteLength":9168,
			"byteOffset":37512,
			"target":34962
		},
		{
			"buffer":0,
			"byteLength":9480,
			"byteOffset":46680,
			"target":34963
		},
		{
			"buffer":0,
			"byteLength":3544,
			"byteOffset":56160,
			"target":34962
		},
		{
			"buffer":0,
			"byteLength":5316,
			"byteOffset":59704,
			"target":34962
		},
		{
			"buffer":0,
			"byteLength":5316,
			"byteOffset":65020,
			"target":34962
		},
		{
			"buffer":0,
			"byteLength":3544,
			"byteOffset":70336,
			"target":34962
		},
		{
			"buffer":0,
			"byteLength":1800,
			"byteOffset":73880,
			"target":34963
		}
	],
	"samplers":[
		{
			"magFilter":9729,
			"minFilter":9987
		}
	],
	"buffers":[
		{
			"byteLength":75680,
			"uri":"Dresser_1.bin"
		}
	]
}
