{
	"asset":{
		"generator":"Khronos glTF Blender I/O v4.0.44",
		"version":"2.0"
	},
	"scene":0,
	"scenes":[
		{
			"name":"Scene",
			"nodes":[
				7
			]
		}
	],
	"nodes":[
		{
			"mesh":0,
			"name":"Dummy_1-convcolonly"
		},
		{
			"mesh":1,
			"name":"Dummy_2-convcolonly"
		},
		{
			"mesh":2,
			"name":"Dummy_3-convcolonly"
		},
		{
			"mesh":3,
			"name":"Dummy_4-convcolonly"
		},
		{
			"mesh":4,
			"name":"Dummy_5-convcolonly"
		},
		{
			"mesh":5,
			"name":"Dummy_6-convcolonly"
		},
		{
			"mesh":6,
			"name":"Dummy_7-convcolonly"
		},
		{
			"children":[
				0,
				1,
				2,
				3,
				4,
				5,
				6
			],
			"mesh":7,
			"name":"Dummy"
		}
	],
	"materials":[
		{
			"doubleSided":true,
			"name":"Collision",
			"pbrMetallicRoughness":{
				"baseColorFactor":[
					0.047601714730262756,
					0.17601831257343292,
					0.8000785112380981,
					1
				],
				"metallicFactor":0,
				"roughnessFactor":0.5
			}
		},
		{
			"doubleSided":true,
			"name":"MI_Trim_Furniture",
			"normalTexture":{
				"index":0
			},
			"pbrMetallicRoughness":{
				"baseColorTexture":{
					"index":1
				},
				"metallicRoughnessTexture":{
					"index":2
				}
			}
		},
		{
			"doubleSided":true,
			"name":"MI_Trim_Metal",
			"normalTexture":{
				"index":3
			},
			"pbrMetallicRoughness":{
				"baseColorTexture":{
					"index":4
				},
				"metallicRoughnessTexture":{
					"index":5
				}
			}
		},
		{
			"doubleSided":true,
			"name":"MI_Trim_Cloth",
			"normalTexture":{
				"index":6
			},
			"pbrMetallicRoughness":{
				"baseColorTexture":{
					"index":7
				},
				"metallicRoughnessTexture":{
					"index":8
				}
			}
		}
	],
	"meshes":[
		{
			"name":"Cube.199",
			"primitives":[
				{
					"attributes":{
						"POSITION":0,
						"NORMAL":1,
						"TEXCOORD_0":2
					},
					"indices":3,
					"material":0
				}
			]
		},
		{
			"name":"Cube.208",
			"primitives":[
				{
					"attributes":{
						"POSITION":4,
						"NORMAL":5,
						"TEXCOORD_0":6
					},
					"indices":7,
					"material":0
				}
			]
		},
		{
			"name":"Cube.209",
			"primitives":[
				{
					"attributes":{
						"POSITION":8,
						"NORMAL":9,
						"TEXCOORD_0":10
					},
					"indices":11,
					"material":0
				}
			]
		},
		{
			"name":"Cube.210",
			"primitives":[
				{
					"attributes":{
						"POSITION":12,
						"NORMAL":13,
						"TEXCOORD_0":14
					},
					"indices":15,
					"material":0
				}
			]
		},
		{
			"name":"Cube.213",
			"primitives":[
				{
					"attributes":{
						"POSITION":16,
						"NORMAL":17,
						"TEXCOORD_0":18
					},
					"indices":11,
					"material":0
				}
			]
		},
		{
			"name":"Cube.214",
			"primitives":[
				{
					"attributes":{
						"POSITION":19,
						"NORMAL":20,
						"TEXCOORD_0":21
					},
					"indices":22,
					"material":0
				}
			]
		},
		{
			"name":"Cube.216",
			"primitives":[
				{
					"attributes":{
						"POSITION":23,
						"NORMAL":24,
						"TEXCOORD_0":25
					},
					"indices":26,
					"material":0
				}
			]
		},
		{
			"name":"Cube.223",
			"primitives":[
				{
					"attributes":{
						"POSITION":27,
						"NORMAL":28,
						"TEXCOORD_0":29
					},
					"indices":30,
					"material":1
				},
				{
					"attributes":{
						"POSITION":31,
						"NORMAL":32,
						"TEXCOORD_0":33
					},
					"indices":34,
					"material":2
				},
				{
					"attributes":{
						"POSITION":35,
						"NORMAL":36,
						"TEXCOORD_0":37
					},
					"indices":38,
					"material":3
				}
			]
		}
	],
	"textures":[
		{
			"sampler":0,
			"source":0
		},
		{
			"sampler":0,
			"source":1
		},
		{
			"sampler":0,
			"source":2
		},
		{
			"sampler":0,
			"source":3
		},
		{
			"sampler":0,
			"source":4
		},
		{
			"sampler":0,
			"source":5
		},
		{
			"sampler":0,
			"source":6
		},
		{
			"sampler":0,
			"source":7
		},
		{
			"sampler":0,
			"source":8
		}
	],
	"images":[
		{
			"mimeType":"image/png",
			"name":"T_Trim_Furniture_Normal",
			"uri":"T_Trim_Furniture_Normal.png"
		},
		{
			"mimeType":"image/png",
			"name":"T_Trim_Furniture_BaseColor",
			"uri":"T_Trim_Furniture_BaseColor.png"
		},
		{
			"mimeType":"image/png",
			"name":"T_Trim_Furniture_ORM",
			"uri":"T_Trim_Furniture_ORM.png"
		},
		{
			"mimeType":"image/png",
			"name":"T_Trim_Metal_Normal",
			"uri":"T_Trim_Metal_Normal.png"
		},
		{
			"mimeType":"image/png",
			"name":"T_Trim_Metal_BaseColor",
			"uri":"T_Trim_Metal_BaseColor.png"
		},
		{
			"mimeType":"image/png",
			"name":"T_Trim_Metal_ORM",
			"uri":"T_Trim_Metal_ORM.png"
		},
		{
			"mimeType":"image/png",
			"name":"T_Trim_Cloth_Normal",
			"uri":"T_Trim_Cloth_Normal.png"
		},
		{
			"mimeType":"image/png",
			"name":"T_Trim_Cloth_BaseColor",
			"uri":"T_Trim_Cloth_BaseColor.png"
		},
		{
			"mimeType":"image/png",
			"name":"T_Trim_Cloth_ORM",
			"uri":"T_Trim_Cloth_ORM.png"
		}
	],
	"accessors":[
		{
			"bufferView":0,
			"componentType":5126,
			"count":36,
			"max":[
				0.2912832796573639,
				0.27859795093536377,
				0.05841509997844696
			],
			"min":[
				-0.2912825644016266,
				-0.010255195200443268,
				-0.05841521918773651
			],
			"type":"VEC3"
		},
		{
			"bufferView":1,
			"componentType":5126,
			"count":36,
			"type":"VEC3"
		},
		{
			"bufferView":2,
			"componentType":5126,
			"count":36,
			"type":"VEC2"
		},
		{
			"bufferView":3,
			"componentType":5123,
			"count":60,
			"type":"SCALAR"
		},
		{
			"bufferView":4,
			"componentType":5126,
			"count":36,
			"max":[
				0.058415111154317856,
				0.27859795093536377,
				0.2912825644016266
			],
			"min":[
				-0.05841523036360741,
				-0.010255195200443268,
				-0.2912832796573639
			],
			"type":"VEC3"
		},
		{
			"bufferView":5,
			"componentType":5126,
			"count":36,
			"type":"VEC3"
		},
		{
			"bufferView":6,
			"componentType":5126,
			"count":36,
			"type":"VEC2"
		},
		{
			"bufferView":7,
			"componentType":5123,
			"count":60,
			"type":"SCALAR"
		},
		{
			"bufferView":8,
			"componentType":5126,
			"count":24,
			"max":[
				0.05841510370373726,
				0.8939883708953857,
				0.05069482699036598
			],
			"min":[
				-0.05841522291302681,
				0.27859795093536377,
				-0.05069494619965553
			],
			"type":"VEC3"
		},
		{
			"bufferView":9,
			"componentType":5126,
			"count":24,
			"type":"VEC3"
		},
		{
			"bufferView":10,
			"componentType":5126,
			"count":24,
			"type":"VEC2"
		},
		{
			"bufferView":11,
			"componentType":5123,
			"count":36,
			"type":"SCALAR"
		},
		{
			"bufferView":12,
			"componentType":5126,
			"count":40,
			"max":[
				0.2371823638677597,
				1.5872658491134644,
				0.20583578944206238
			],
			"min":[
				-0.2371828556060791,
				0.8939883708953857,
				-0.20583626627922058
			],
			"type":"VEC3"
		},
		{
			"bufferView":13,
			"componentType":5126,
			"count":40,
			"type":"VEC3"
		},
		{
			"bufferView":14,
			"componentType":5126,
			"count":40,
			"type":"VEC2"
		},
		{
			"bufferView":15,
			"componentType":5123,
			"count":60,
			"type":"SCALAR"
		},
		{
			"bufferView":16,
			"componentType":5126,
			"count":24,
			"max":[
				0.15874576568603516,
				1.8729937076568604,
				0.10700983554124832
			],
			"min":[
				-0.12330653518438339,
				1.5872658491134644,
				-0.10701008141040802
			],
			"type":"VEC3"
		},
		{
			"bufferView":17,
			"componentType":5126,
			"count":24,
			"type":"VEC3"
		},
		{
			"bufferView":18,
			"componentType":5126,
			"count":24,
			"type":"VEC2"
		},
		{
			"bufferView":19,
			"componentType":5126,
			"count":24,
			"max":[
				-0.14310483634471893,
				1.5900776386260986,
				0.09501854330301285
			],
			"min":[
				-0.39019957184791565,
				1.3396313190460205,
				-0.09501886367797852
			],
			"type":"VEC3"
		},
		{
			"bufferView":20,
			"componentType":5126,
			"count":24,
			"type":"VEC3"
		},
		{
			"bufferView":21,
			"componentType":5126,
			"count":24,
			"type":"VEC2"
		},
		{
			"bufferView":22,
			"componentType":5123,
			"count":36,
			"type":"SCALAR"
		},
		{
			"bufferView":23,
			"componentType":5126,
			"count":24,
			"max":[
				0.39019957184791565,
				1.5900776386260986,
				0.09501854330301285
			],
			"min":[
				0.14310483634471893,
				1.3396313190460205,
				-0.09501886367797852
			],
			"type":"VEC3"
		},
		{
			"bufferView":24,
			"componentType":5126,
			"count":24,
			"type":"VEC3"
		},
		{
			"bufferView":25,
			"componentType":5126,
			"count":24,
			"type":"VEC2"
		},
		{
			"bufferView":26,
			"componentType":5123,
			"count":36,
			"type":"SCALAR"
		},
		{
			"bufferView":27,
			"componentType":5126,
			"count":924,
			"max":[
				0.2925231158733368,
				1.6169136762619019,
				0.2925231158733368
			],
			"min":[
				-0.2920801341533661,
				-0.002887953072786331,
				-0.2920801341533661
			],
			"type":"VEC3"
		},
		{
			"bufferView":28,
			"componentType":5126,
			"count":924,
			"type":"VEC3"
		},
		{
			"bufferView":29,
			"componentType":5126,
			"count":924,
			"type":"VEC2"
		},
		{
			"bufferView":30,
			"componentType":5123,
			"count":3702,
			"type":"SCALAR"
		},
		{
			"bufferView":31,
			"componentType":5126,
			"count":128,
			"max":[
				0.22404655814170837,
				0.24871774017810822,
				0.22404655814170837
			],
			"min":[
				-0.22404655814170837,
				0.061605341732501984,
				-0.22404655814170837
			],
			"type":"VEC3"
		},
		{
			"bufferView":32,
			"componentType":5126,
			"count":128,
			"type":"VEC3"
		},
		{
			"bufferView":33,
			"componentType":5126,
			"count":128,
			"type":"VEC2"
		},
		{
			"bufferView":34,
			"componentType":5123,
			"count":528,
			"type":"SCALAR"
		},
		{
			"bufferView":35,
			"componentType":5126,
			"count":943,
			"max":[
				0.4044542610645294,
				1.8597913980484009,
				0.17893469333648682
			],
			"min":[
				-0.4040466845035553,
				0.8079881072044373,
				-0.17773109674453735
			],
			"type":"VEC3"
		},
		{
			"bufferView":36,
			"componentType":5126,
			"count":943,
			"type":"VEC3"
		},
		{
			"bufferView":37,
			"componentType":5126,
			"count":943,
			"type":"VEC2"
		},
		{
			"bufferView":38,
			"componentType":5123,
			"count":4344,
			"type":"SCALAR"
		}
	],
	"bufferViews":[
		{
			"buffer":0,
			"byteLength":432,
			"byteOffset":0,
			"target":34962
		},
		{
			"buffer":0,
			"byteLength":432,
			"byteOffset":432,
			"target":34962
		},
		{
			"buffer":0,
			"byteLength":288,
			"byteOffset":864,
			"target":34962
		},
		{
			"buffer":0,
			"byteLength":120,
			"byteOffset":1152,
			"target":34963
		},
		{
			"buffer":0,
			"byteLength":432,
			"byteOffset":1272,
			"target":34962
		},
		{
			"buffer":0,
			"byteLength":432,
			"byteOffset":1704,
			"target":34962
		},
		{
			"buffer":0,
			"byteLength":288,
			"byteOffset":2136,
			"target":34962
		},
		{
			"buffer":0,
			"byteLength":120,
			"byteOffset":2424,
			"target":34963
		},
		{
			"buffer":0,
			"byteLength":288,
			"byteOffset":2544,
			"target":34962
		},
		{
			"buffer":0,
			"byteLength":288,
			"byteOffset":2832,
			"target":34962
		},
		{
			"buffer":0,
			"byteLength":192,
			"byteOffset":3120,
			"target":34962
		},
		{
			"buffer":0,
			"byteLength":72,
			"byteOffset":3312,
			"target":34963
		},
		{
			"buffer":0,
			"byteLength":480,
			"byteOffset":3384,
			"target":34962
		},
		{
			"buffer":0,
			"byteLength":480,
			"byteOffset":3864,
			"target":34962
		},
		{
			"buffer":0,
			"byteLength":320,
			"byteOffset":4344,
			"target":34962
		},
		{
			"buffer":0,
			"byteLength":120,
			"byteOffset":4664,
			"target":34963
		},
		{
			"buffer":0,
			"byteLength":288,
			"byteOffset":4784,
			"target":34962
		},
		{
			"buffer":0,
			"byteLength":288,
			"byteOffset":5072,
			"target":34962
		},
		{
			"buffer":0,
			"byteLength":192,
			"byteOffset":5360,
			"target":34962
		},
		{
			"buffer":0,
			"byteLength":288,
			"byteOffset":5552,
			"target":34962
		},
		{
			"buffer":0,
			"byteLength":288,
			"byteOffset":5840,
			"target":34962
		},
		{
			"buffer":0,
			"byteLength":192,
			"byteOffset":6128,
			"target":34962
		},
		{
			"buffer":0,
			"byteLength":72,
			"byteOffset":6320,
			"target":34963
		},
		{
			"buffer":0,
			"byteLength":288,
			"byteOffset":6392,
			"target":34962
		},
		{
			"buffer":0,
			"byteLength":288,
			"byteOffset":6680,
			"target":34962
		},
		{
			"buffer":0,
			"byteLength":192,
			"byteOffset":6968,
			"target":34962
		},
		{
			"buffer":0,
			"byteLength":72,
			"byteOffset":7160,
			"target":34963
		},
		{
			"buffer":0,
			"byteLength":11088,
			"byteOffset":7232,
			"target":34962
		},
		{
			"buffer":0,
			"byteLength":11088,
			"byteOffset":18320,
			"target":34962
		},
		{
			"buffer":0,
			"byteLength":7392,
			"byteOffset":29408,
			"target":34962
		},
		{
			"buffer":0,
			"byteLength":7404,
			"byteOffset":36800,
			"target":34963
		},
		{
			"buffer":0,
			"byteLength":1536,
			"byteOffset":44204,
			"target":34962
		},
		{
			"buffer":0,
			"byteLength":1536,
			"byteOffset":45740,
			"target":34962
		},
		{
			"buffer":0,
			"byteLength":1024,
			"byteOffset":47276,
			"target":34962
		},
		{
			"buffer":0,
			"byteLength":1056,
			"byteOffset":48300,
			"target":34963
		},
		{
			"buffer":0,
			"byteLength":11316,
			"byteOffset":49356,
			"target":34962
		},
		{
			"buffer":0,
			"byteLength":11316,
			"byteOffset":60672,
			"target":34962
		},
		{
			"buffer":0,
			"byteLength":7544,
			"byteOffset":71988,
			"target":34962
		},
		{
			"buffer":0,
			"byteLength":8688,
			"byteOffset":79532,
			"target":34963
		}
	],
	"samplers":[
		{
			"magFilter":9729,
			"minFilter":9987
		}
	],
	"buffers":[
		{
			"byteLength":88220,
			"uri":"Dummy.bin"
		}
	]
}
