{
	"asset":{
		"generator":"Khronos glTF Blender I/O v4.0.44",
		"version":"2.0"
	},
	"scene":0,
	"scenes":[
		{
			"name":"Scene",
			"nodes":[
				1
			]
		}
	],
	"nodes":[
		{
			"mesh":0,
			"name":"FarmCrate_GreenApples_1-convcolonly"
		},
		{
			"children":[
				0
			],
			"mesh":1,
			"name":"FarmCrate_GreenApples"
		}
	],
	"materials":[
		{
			"doubleSided":true,
			"name":"Collision",
			"pbrMetallicRoughness":{
				"baseColorFactor":[
					0.047601714730262756,
					0.17601831257343292,
					0.8000785112380981,
					1
				],
				"metallicFactor":0,
				"roughnessFactor":0.5
			}
		},
		{
			"doubleSided":true,
			"name":"MI_Trim_Furniture",
			"normalTexture":{
				"index":0
			},
			"pbrMetallicRoughness":{
				"baseColorTexture":{
					"index":1
				},
				"metallicRoughnessTexture":{
					"index":2
				}
			}
		},
		{
			"doubleSided":true,
			"name":"MI_Trim_Metal",
			"normalTexture":{
				"index":3
			},
			"pbrMetallicRoughness":{
				"baseColorTexture":{
					"index":4
				},
				"metallicRoughnessTexture":{
					"index":5
				}
			}
		},
		{
			"doubleSided":true,
			"name":"MI_Trim_Props_Vertex",
			"normalTexture":{
				"index":6
			},
			"pbrMetallicRoughness":{
				"baseColorTexture":{
					"index":7
				},
				"metallicRoughnessTexture":{
					"index":8
				}
			}
		}
	],
	"meshes":[
		{
			"name":"Cube.082",
			"primitives":[
				{
					"attributes":{
						"POSITION":0,
						"NORMAL":1,
						"TEXCOORD_0":2
					},
					"indices":3,
					"material":0
				}
			]
		},
		{
			"name":"Cylinder.008",
			"primitives":[
				{
					"attributes":{
						"COLOR_0":4,
						"POSITION":5,
						"NORMAL":6,
						"TEXCOORD_0":7
					},
					"indices":8,
					"material":1
				},
				{
					"attributes":{
						"COLOR_0":9,
						"POSITION":10,
						"NORMAL":11,
						"TEXCOORD_0":12
					},
					"indices":13,
					"material":2
				},
				{
					"attributes":{
						"COLOR_0":14,
						"POSITION":15,
						"NORMAL":16,
						"TEXCOORD_0":17
					},
					"indices":18,
					"material":3
				}
			]
		}
	],
	"textures":[
		{
			"sampler":0,
			"source":0
		},
		{
			"sampler":0,
			"source":1
		},
		{
			"sampler":0,
			"source":2
		},
		{
			"sampler":0,
			"source":3
		},
		{
			"sampler":0,
			"source":4
		},
		{
			"sampler":0,
			"source":5
		},
		{
			"sampler":0,
			"source":6
		},
		{
			"sampler":0,
			"source":7
		},
		{
			"sampler":0,
			"source":8
		}
	],
	"images":[
		{
			"mimeType":"image/png",
			"name":"T_Trim_Furniture_Normal",
			"uri":"T_Trim_Furniture_Normal.png"
		},
		{
			"mimeType":"image/png",
			"name":"T_Trim_Furniture_BaseColor",
			"uri":"T_Trim_Furniture_BaseColor.png"
		},
		{
			"mimeType":"image/png",
			"name":"T_Trim_Furniture_ORM",
			"uri":"T_Trim_Furniture_ORM.png"
		},
		{
			"mimeType":"image/png",
			"name":"T_Trim_Metal_Normal",
			"uri":"T_Trim_Metal_Normal.png"
		},
		{
			"mimeType":"image/png",
			"name":"T_Trim_Metal_BaseColor",
			"uri":"T_Trim_Metal_BaseColor.png"
		},
		{
			"mimeType":"image/png",
			"name":"T_Trim_Metal_ORM",
			"uri":"T_Trim_Metal_ORM.png"
		},
		{
			"mimeType":"image/png",
			"name":"T_Trim_Props_Normal",
			"uri":"T_Trim_Props_Normal.png"
		},
		{
			"mimeType":"image/png",
			"name":"T_Trim_Props_BaseColor",
			"uri":"T_Trim_Props_BaseColor.png"
		},
		{
			"mimeType":"image/png",
			"name":"T_Trim_Props_ORM",
			"uri":"T_Trim_Props_ORM.png"
		}
	],
	"accessors":[
		{
			"bufferView":0,
			"componentType":5126,
			"count":24,
			"max":[
				0.31106236577033997,
				0.2299911230802536,
				0.2042771875858307
			],
			"min":[
				-0.3110615909099579,
				-0.014357274398207664,
				-0.20427757501602173
			],
			"type":"VEC3"
		},
		{
			"bufferView":1,
			"componentType":5126,
			"count":24,
			"type":"VEC3"
		},
		{
			"bufferView":2,
			"componentType":5126,
			"count":24,
			"type":"VEC2"
		},
		{
			"bufferView":3,
			"componentType":5123,
			"count":36,
			"type":"SCALAR"
		},
		{
			"bufferView":4,
			"componentType":5123,
			"count":556,
			"normalized":true,
			"type":"VEC4"
		},
		{
			"bufferView":5,
			"componentType":5126,
			"count":556,
			"max":[
				0.35689881443977356,
				0.227791890501976,
				0.1984616219997406
			],
			"min":[
				-0.35689881443977356,
				-0.01598539389669895,
				-0.1984616219997406
			],
			"type":"VEC3"
		},
		{
			"bufferView":6,
			"componentType":5126,
			"count":556,
			"type":"VEC3"
		},
		{
			"bufferView":7,
			"componentType":5126,
			"count":556,
			"type":"VEC2"
		},
		{
			"bufferView":8,
			"componentType":5123,
			"count":1608,
			"type":"SCALAR"
		},
		{
			"bufferView":9,
			"componentType":5123,
			"count":288,
			"normalized":true,
			"type":"VEC4"
		},
		{
			"bufferView":10,
			"componentType":5126,
			"count":288,
			"max":[
				0.28873270750045776,
				0.20590126514434814,
				0.20708000659942627
			],
			"min":[
				-0.29124000668525696,
				0.017275460064411163,
				-0.20708000659942627
			],
			"type":"VEC3"
		},
		{
			"bufferView":11,
			"componentType":5126,
			"count":288,
			"type":"VEC3"
		},
		{
			"bufferView":12,
			"componentType":5126,
			"count":288,
			"type":"VEC2"
		},
		{
			"bufferView":13,
			"componentType":5123,
			"count":1368,
			"type":"SCALAR"
		},
		{
			"bufferView":14,
			"componentType":5123,
			"count":1972,
			"normalized":true,
			"type":"VEC4"
		},
		{
			"bufferView":15,
			"componentType":5126,
			"count":1972,
			"max":[
				0.2745838463306427,
				0.1874011904001236,
				0.17990170419216156
			],
			"min":[
				-0.28331905603408813,
				-0.008630113676190376,
				-0.173710897564888
			],
			"type":"VEC3"
		},
		{
			"bufferView":16,
			"componentType":5126,
			"count":1972,
			"type":"VEC3"
		},
		{
			"bufferView":17,
			"componentType":5126,
			"count":1972,
			"type":"VEC2"
		},
		{
			"bufferView":18,
			"componentType":5123,
			"count":9384,
			"type":"SCALAR"
		}
	],
	"bufferViews":[
		{
			"buffer":0,
			"byteLength":288,
			"byteOffset":0,
			"target":34962
		},
		{
			"buffer":0,
			"byteLength":288,
			"byteOffset":288,
			"target":34962
		},
		{
			"buffer":0,
			"byteLength":192,
			"byteOffset":576,
			"target":34962
		},
		{
			"buffer":0,
			"byteLength":72,
			"byteOffset":768,
			"target":34963
		},
		{
			"buffer":0,
			"byteLength":4448,
			"byteOffset":840,
			"target":34962
		},
		{
			"buffer":0,
			"byteLength":6672,
			"byteOffset":5288,
			"target":34962
		},
		{
			"buffer":0,
			"byteLength":6672,
			"byteOffset":11960,
			"target":34962
		},
		{
			"buffer":0,
			"byteLength":4448,
			"byteOffset":18632,
			"target":34962
		},
		{
			"buffer":0,
			"byteLength":3216,
			"byteOffset":23080,
			"target":34963
		},
		{
			"buffer":0,
			"byteLength":2304,
			"byteOffset":26296,
			"target":34962
		},
		{
			"buffer":0,
			"byteLength":3456,
			"byteOffset":28600,
			"target":34962
		},
		{
			"buffer":0,
			"byteLength":3456,
			"byteOffset":32056,
			"target":34962
		},
		{
			"buffer":0,
			"byteLength":2304,
			"byteOffset":35512,
			"target":34962
		},
		{
			"buffer":0,
			"byteLength":2736,
			"byteOffset":37816,
			"target":34963
		},
		{
			"buffer":0,
			"byteLength":15776,
			"byteOffset":40552,
			"target":34962
		},
		{
			"buffer":0,
			"byteLength":23664,
			"byteOffset":56328,
			"target":34962
		},
		{
			"buffer":0,
			"byteLength":23664,
			"byteOffset":79992,
			"target":34962
		},
		{
			"buffer":0,
			"byteLength":15776,
			"byteOffset":103656,
			"target":34962
		},
		{
			"buffer":0,
			"byteLength":18768,
			"byteOffset":119432,
			"target":34963
		}
	],
	"samplers":[
		{
			"magFilter":9729,
			"minFilter":9987
		}
	],
	"buffers":[
		{
			"byteLength":138200,
			"uri":"FarmCrate_GreenApples.bin"
		}
	]
}
