{
	"asset":{
		"generator":"Khronos glTF Blender I/O v4.0.44",
		"version":"2.0"
	},
	"scene":0,
	"scenes":[
		{
			"name":"Scene",
			"nodes":[
				0
			]
		}
	],
	"nodes":[
		{
			"mesh":0,
			"name":"Hammer_Medium_Steel"
		}
	],
	"materials":[
		{
			"doubleSided":true,
			"name":"MI_Trim_Props",
			"normalTexture":{
				"index":0
			},
			"pbrMetallicRoughness":{
				"baseColorTexture":{
					"index":1
				},
				"metallicRoughnessTexture":{
					"index":2
				}
			}
		}
	],
	"meshes":[
		{
			"name":"Cube.160",
			"primitives":[
				{
					"attributes":{
						"POSITION":0,
						"NORMAL":1,
						"TEXCOORD_0":2
					},
					"indices":3,
					"material":0
				}
			]
		}
	],
	"textures":[
		{
			"sampler":0,
			"source":0
		},
		{
			"sampler":0,
			"source":1
		},
		{
			"sampler":0,
			"source":2
		}
	],
	"images":[
		{
			"mimeType":"image/png",
			"name":"T_Trim_Props_Normal",
			"uri":"T_Trim_Props_Normal.png"
		},
		{
			"mimeType":"image/png",
			"name":"T_Trim_Props_BaseColor",
			"uri":"T_Trim_Props_BaseColor.png"
		},
		{
			"mimeType":"image/png",
			"name":"T_Trim_Props_ORM",
			"uri":"T_Trim_Props_ORM.png"
		}
	],
	"accessors":[
		{
			"bufferView":0,
			"componentType":5126,
			"count":484,
			"max":[
				0.07645431160926819,
				0.25058314204216003,
				0.024643713608384132
			],
			"min":[
				-0.07645431160926819,
				-0.1630592793226242,
				-0.024643713608384132
			],
			"type":"VEC3"
		},
		{
			"bufferView":1,
			"componentType":5126,
			"count":484,
			"type":"VEC3"
		},
		{
			"bufferView":2,
			"componentType":5126,
			"count":484,
			"type":"VEC2"
		},
		{
			"bufferView":3,
			"componentType":5123,
			"count":1950,
			"type":"SCALAR"
		}
	],
	"bufferViews":[
		{
			"buffer":0,
			"byteLength":5808,
			"byteOffset":0,
			"target":34962
		},
		{
			"buffer":0,
			"byteLength":5808,
			"byteOffset":5808,
			"target":34962
		},
		{
			"buffer":0,
			"byteLength":3872,
			"byteOffset":11616,
			"target":34962
		},
		{
			"buffer":0,
			"byteLength":3900,
			"byteOffset":15488,
			"target":34963
		}
	],
	"samplers":[
		{
			"magFilter":9729,
			"minFilter":9987
		}
	],
	"buffers":[
		{
			"byteLength":19388,
			"uri":"Hammer_Medium_Steel.bin"
		}
	]
}
