{
	"asset":{
		"generator":"Khronos glTF Blender I/O v4.0.44",
		"version":"2.0"
	},
	"scene":0,
	"scenes":[
		{
			"name":"Scene",
			"nodes":[
				4
			]
		}
	],
	"nodes":[
		{
			"mesh":0,
			"name":"Lantern_Wall_1-convcolonly"
		},
		{
			"mesh":1,
			"name":"Lantern_Wall_2-convcolonly"
		},
		{
			"mesh":2,
			"name":"Lantern_Wall_3-convcolonly"
		},
		{
			"mesh":3,
			"name":"Lantern_Wall_4-convcolonly"
		},
		{
			"children":[
				0,
				1,
				2,
				3
			],
			"mesh":4,
			"name":"Lantern_Wall"
		}
	],
	"materials":[
		{
			"doubleSided":true,
			"name":"Collision",
			"pbrMetallicRoughness":{
				"baseColorFactor":[
					0.047601714730262756,
					0.17601831257343292,
					0.8000785112380981,
					1
				],
				"metallicFactor":0,
				"roughnessFactor":0.5
			}
		},
		{
			"doubleSided":true,
			"name":"MI_Trim_Metal",
			"normalTexture":{
				"index":0
			},
			"pbrMetallicRoughness":{
				"baseColorTexture":{
					"index":1
				},
				"metallicRoughnessTexture":{
					"index":2
				}
			}
		}
	],
	"meshes":[
		{
			"name":"Cube.095",
			"primitives":[
				{
					"attributes":{
						"POSITION":0,
						"NORMAL":1,
						"TEXCOORD_0":2
					},
					"indices":3,
					"material":0
				}
			]
		},
		{
			"name":"Cube.099",
			"primitives":[
				{
					"attributes":{
						"POSITION":4,
						"NORMAL":5,
						"TEXCOORD_0":6
					},
					"indices":7,
					"material":0
				}
			]
		},
		{
			"name":"Cube.100",
			"primitives":[
				{
					"attributes":{
						"POSITION":8,
						"NORMAL":9,
						"TEXCOORD_0":10
					},
					"indices":11,
					"material":0
				}
			]
		},
		{
			"name":"Cube.101",
			"primitives":[
				{
					"attributes":{
						"POSITION":12,
						"NORMAL":13,
						"TEXCOORD_0":14
					},
					"indices":15,
					"material":0
				}
			]
		},
		{
			"name":"Cube.018",
			"primitives":[
				{
					"attributes":{
						"POSITION":16,
						"NORMAL":17,
						"TEXCOORD_0":18
					},
					"indices":19,
					"material":1
				}
			]
		}
	],
	"textures":[
		{
			"sampler":0,
			"source":0
		},
		{
			"sampler":0,
			"source":1
		},
		{
			"sampler":0,
			"source":2
		}
	],
	"images":[
		{
			"mimeType":"image/png",
			"name":"T_Trim_Metal_Normal",
			"uri":"T_Trim_Metal_Normal.png"
		},
		{
			"mimeType":"image/png",
			"name":"T_Trim_Metal_BaseColor",
			"uri":"T_Trim_Metal_BaseColor.png"
		},
		{
			"mimeType":"image/png",
			"name":"T_Trim_Metal_ORM",
			"uri":"T_Trim_Metal_ORM.png"
		}
	],
	"accessors":[
		{
			"bufferView":0,
			"componentType":5126,
			"count":24,
			"max":[
				0.07331306487321854,
				1.3932303190231323,
				0.03295126557350159
			],
			"min":[
				-0.07331274449825287,
				0.11800156533718109,
				-0.05082044005393982
			],
			"type":"VEC3"
		},
		{
			"bufferView":1,
			"componentType":5126,
			"count":24,
			"type":"VEC3"
		},
		{
			"bufferView":2,
			"componentType":5126,
			"count":24,
			"type":"VEC2"
		},
		{
			"bufferView":3,
			"componentType":5123,
			"count":36,
			"type":"SCALAR"
		},
		{
			"bufferView":4,
			"componentType":5126,
			"count":24,
			"max":[
				0.07331305742263794,
				1.391650915145874,
				1.2377269268035889
			],
			"min":[
				-0.07331273704767227,
				1.265191674232483,
				-0.03254476189613342
			],
			"type":"VEC3"
		},
		{
			"bufferView":5,
			"componentType":5126,
			"count":24,
			"type":"VEC3"
		},
		{
			"bufferView":6,
			"componentType":5126,
			"count":24,
			"type":"VEC2"
		},
		{
			"bufferView":7,
			"componentType":5123,
			"count":36,
			"type":"SCALAR"
		},
		{
			"bufferView":8,
			"componentType":5126,
			"count":40,
			"max":[
				0.17057356238365173,
				0.6222804188728333,
				0.9743216633796692
			],
			"min":[
				-0.17057828605175018,
				0.06802698969841003,
				0.6398665308952332
			],
			"type":"VEC3"
		},
		{
			"bufferView":9,
			"componentType":5126,
			"count":40,
			"type":"VEC3"
		},
		{
			"bufferView":10,
			"componentType":5126,
			"count":40,
			"type":"VEC2"
		},
		{
			"bufferView":11,
			"componentType":5123,
			"count":60,
			"type":"SCALAR"
		},
		{
			"bufferView":12,
			"componentType":5126,
			"count":24,
			"max":[
				0.006937678903341293,
				1.3215878009796143,
				0.4757305085659027
			],
			"min":[
				-0.031895413994789124,
				0.7981531023979187,
				-0.04253975674510002
			],
			"type":"VEC3"
		},
		{
			"bufferView":13,
			"componentType":5126,
			"count":24,
			"type":"VEC3"
		},
		{
			"bufferView":14,
			"componentType":5126,
			"count":24,
			"type":"VEC2"
		},
		{
			"bufferView":15,
			"componentType":5123,
			"count":36,
			"type":"SCALAR"
		},
		{
			"bufferView":16,
			"componentType":5126,
			"count":3222,
			"max":[
				0.178670734167099,
				1.4188451766967773,
				1.2513371706008911
			],
			"min":[
				-0.1786707192659378,
				0.08183755725622177,
				-0.05097728595137596
			],
			"type":"VEC3"
		},
		{
			"bufferView":17,
			"componentType":5126,
			"count":3222,
			"type":"VEC3"
		},
		{
			"bufferView":18,
			"componentType":5126,
			"count":3222,
			"type":"VEC2"
		},
		{
			"bufferView":19,
			"componentType":5123,
			"count":8466,
			"type":"SCALAR"
		}
	],
	"bufferViews":[
		{
			"buffer":0,
			"byteLength":288,
			"byteOffset":0,
			"target":34962
		},
		{
			"buffer":0,
			"byteLength":288,
			"byteOffset":288,
			"target":34962
		},
		{
			"buffer":0,
			"byteLength":192,
			"byteOffset":576,
			"target":34962
		},
		{
			"buffer":0,
			"byteLength":72,
			"byteOffset":768,
			"target":34963
		},
		{
			"buffer":0,
			"byteLength":288,
			"byteOffset":840,
			"target":34962
		},
		{
			"buffer":0,
			"byteLength":288,
			"byteOffset":1128,
			"target":34962
		},
		{
			"buffer":0,
			"byteLength":192,
			"byteOffset":1416,
			"target":34962
		},
		{
			"buffer":0,
			"byteLength":72,
			"byteOffset":1608,
			"target":34963
		},
		{
			"buffer":0,
			"byteLength":480,
			"byteOffset":1680,
			"target":34962
		},
		{
			"buffer":0,
			"byteLength":480,
			"byteOffset":2160,
			"target":34962
		},
		{
			"buffer":0,
			"byteLength":320,
			"byteOffset":2640,
			"target":34962
		},
		{
			"buffer":0,
			"byteLength":120,
			"byteOffset":2960,
			"target":34963
		},
		{
			"buffer":0,
			"byteLength":288,
			"byteOffset":3080,
			"target":34962
		},
		{
			"buffer":0,
			"byteLength":288,
			"byteOffset":3368,
			"target":34962
		},
		{
			"buffer":0,
			"byteLength":192,
			"byteOffset":3656,
			"target":34962
		},
		{
			"buffer":0,
			"byteLength":72,
			"byteOffset":3848,
			"target":34963
		},
		{
			"buffer":0,
			"byteLength":38664,
			"byteOffset":3920,
			"target":34962
		},
		{
			"buffer":0,
			"byteLength":38664,
			"byteOffset":42584,
			"target":34962
		},
		{
			"buffer":0,
			"byteLength":25776,
			"byteOffset":81248,
			"target":34962
		},
		{
			"buffer":0,
			"byteLength":16932,
			"byteOffset":107024,
			"target":34963
		}
	],
	"samplers":[
		{
			"magFilter":9729,
			"minFilter":9987
		}
	],
	"buffers":[
		{
			"byteLength":123956,
			"uri":"Lantern_Wall.bin"
		}
	]
}
