{
	"asset":{
		"generator":"Khronos glTF Blender I/O v4.0.44",
		"version":"2.0"
	},
	"scene":0,
	"scenes":[
		{
			"name":"Scene",
			"nodes":[
				2
			]
		}
	],
	"nodes":[
		{
			"mesh":0,
			"name":"Leek_1-convcolonly"
		},
		{
			"mesh":1,
			"name":"Leek_2-convcolonly"
		},
		{
			"children":[
				0,
				1
			],
			"mesh":2,
			"name":"Leek"
		}
	],
	"materials":[
		{
			"doubleSided":true,
			"name":"Collision",
			"pbrMetallicRoughness":{
				"baseColorFactor":[
					0.047601714730262756,
					0.17601831257343292,
					0.8000785112380981,
					1
				],
				"metallicFactor":0,
				"roughnessFactor":0.5
			}
		},
		{
			"doubleSided":true,
			"name":"MI_Trim_Props_Vertex",
			"normalTexture":{
				"index":0
			},
			"pbrMetallicRoughness":{
				"baseColorTexture":{
					"index":1
				},
				"metallicRoughnessTexture":{
					"index":2
				}
			}
		}
	],
	"meshes":[
		{
			"name":"Cube.174",
			"primitives":[
				{
					"attributes":{
						"POSITION":0,
						"NORMAL":1,
						"TEXCOORD_0":2
					},
					"indices":3,
					"material":0
				}
			]
		},
		{
			"name":"Cube.203",
			"primitives":[
				{
					"attributes":{
						"POSITION":4,
						"NORMAL":5,
						"TEXCOORD_0":6
					},
					"indices":7,
					"material":0
				}
			]
		},
		{
			"name":"Cylinder.065",
			"primitives":[
				{
					"attributes":{
						"COLOR_0":8,
						"POSITION":9,
						"NORMAL":10,
						"TEXCOORD_0":11
					},
					"indices":12,
					"material":1
				}
			]
		}
	],
	"textures":[
		{
			"sampler":0,
			"source":0
		},
		{
			"sampler":0,
			"source":1
		},
		{
			"sampler":0,
			"source":2
		}
	],
	"images":[
		{
			"mimeType":"image/png",
			"name":"T_Trim_Props_Normal",
			"uri":"T_Trim_Props_Normal.png"
		},
		{
			"mimeType":"image/png",
			"name":"T_Trim_Props_BaseColor",
			"uri":"T_Trim_Props_BaseColor.png"
		},
		{
			"mimeType":"image/png",
			"name":"T_Trim_Props_ORM",
			"uri":"T_Trim_Props_ORM.png"
		}
	],
	"accessors":[
		{
			"bufferView":0,
			"componentType":5126,
			"count":24,
			"max":[
				0.03168216720223427,
				0.07180426269769669,
				0.04180954024195671
			],
			"min":[
				-0.04032524302601814,
				-0.17568835616111755,
				-0.017560742795467377
			],
			"type":"VEC3"
		},
		{
			"bufferView":1,
			"componentType":5126,
			"count":24,
			"type":"VEC3"
		},
		{
			"bufferView":2,
			"componentType":5126,
			"count":24,
			"type":"VEC2"
		},
		{
			"bufferView":3,
			"componentType":5123,
			"count":36,
			"type":"SCALAR"
		},
		{
			"bufferView":4,
			"componentType":5126,
			"count":34,
			"max":[
				0.05703262612223625,
				0.5014908909797668,
				0.04180954396724701
			],
			"min":[
				-0.08271221071481705,
				0.07180426269769669,
				-0.01756075769662857
			],
			"type":"VEC3"
		},
		{
			"bufferView":5,
			"componentType":5126,
			"count":34,
			"type":"VEC3"
		},
		{
			"bufferView":6,
			"componentType":5126,
			"count":34,
			"type":"VEC2"
		},
		{
			"bufferView":7,
			"componentType":5123,
			"count":60,
			"type":"SCALAR"
		},
		{
			"bufferView":8,
			"componentType":5123,
			"count":177,
			"normalized":true,
			"type":"VEC4"
		},
		{
			"bufferView":9,
			"componentType":5126,
			"count":177,
			"max":[
				0.05280549079179764,
				0.5035396814346313,
				0.0389498695731163
			],
			"min":[
				-0.07715290039777756,
				-0.18078455328941345,
				-0.025533854961395264
			],
			"type":"VEC3"
		},
		{
			"bufferView":10,
			"componentType":5126,
			"count":177,
			"type":"VEC3"
		},
		{
			"bufferView":11,
			"componentType":5126,
			"count":177,
			"type":"VEC2"
		},
		{
			"bufferView":12,
			"componentType":5123,
			"count":996,
			"type":"SCALAR"
		}
	],
	"bufferViews":[
		{
			"buffer":0,
			"byteLength":288,
			"byteOffset":0,
			"target":34962
		},
		{
			"buffer":0,
			"byteLength":288,
			"byteOffset":288,
			"target":34962
		},
		{
			"buffer":0,
			"byteLength":192,
			"byteOffset":576,
			"target":34962
		},
		{
			"buffer":0,
			"byteLength":72,
			"byteOffset":768,
			"target":34963
		},
		{
			"buffer":0,
			"byteLength":408,
			"byteOffset":840,
			"target":34962
		},
		{
			"buffer":0,
			"byteLength":408,
			"byteOffset":1248,
			"target":34962
		},
		{
			"buffer":0,
			"byteLength":272,
			"byteOffset":1656,
			"target":34962
		},
		{
			"buffer":0,
			"byteLength":120,
			"byteOffset":1928,
			"target":34963
		},
		{
			"buffer":0,
			"byteLength":1416,
			"byteOffset":2048,
			"target":34962
		},
		{
			"buffer":0,
			"byteLength":2124,
			"byteOffset":3464,
			"target":34962
		},
		{
			"buffer":0,
			"byteLength":2124,
			"byteOffset":5588,
			"target":34962
		},
		{
			"buffer":0,
			"byteLength":1416,
			"byteOffset":7712,
			"target":34962
		},
		{
			"buffer":0,
			"byteLength":1992,
			"byteOffset":9128,
			"target":34963
		}
	],
	"samplers":[
		{
			"magFilter":9729,
			"minFilter":9987
		}
	],
	"buffers":[
		{
			"byteLength":11120,
			"uri":"Leek.bin"
		}
	]
}
