{
	"asset":{
		"generator":"Khronos glTF Blender I/O v4.0.44",
		"version":"2.0"
	},
	"scene":0,
	"scenes":[
		{
			"name":"Scene",
			"nodes":[
				1
			]
		}
	],
	"nodes":[
		{
			"mesh":0,
			"name":"Nightstand_Drawer_1-convcolonly"
		},
		{
			"children":[
				0
			],
			"mesh":1,
			"name":"Nightstand_Drawer"
		}
	],
	"materials":[
		{
			"doubleSided":true,
			"name":"Collision",
			"pbrMetallicRoughness":{
				"baseColorFactor":[
					0.047601714730262756,
					0.17601831257343292,
					0.8000785112380981,
					1
				],
				"metallicFactor":0,
				"roughnessFactor":0.5
			}
		},
		{
			"doubleSided":true,
			"name":"MI_Trim_Furniture",
			"normalTexture":{
				"index":0
			},
			"pbrMetallicRoughness":{
				"baseColorTexture":{
					"index":1
				},
				"metallicRoughnessTexture":{
					"index":2
				}
			}
		},
		{
			"doubleSided":true,
			"name":"MI_Trim_Metal",
			"normalTexture":{
				"index":3
			},
			"pbrMetallicRoughness":{
				"baseColorTexture":{
					"index":4
				},
				"metallicRoughnessTexture":{
					"index":5
				}
			}
		}
	],
	"meshes":[
		{
			"name":"Cube.023",
			"primitives":[
				{
					"attributes":{
						"POSITION":0,
						"NORMAL":1,
						"TEXCOORD_0":2
					},
					"indices":3,
					"material":0
				}
			]
		},
		{
			"name":"Cube.051",
			"primitives":[
				{
					"attributes":{
						"COLOR_0":4,
						"POSITION":5,
						"NORMAL":6,
						"TEXCOORD_0":7
					},
					"indices":8,
					"material":1
				},
				{
					"attributes":{
						"COLOR_0":9,
						"POSITION":10,
						"NORMAL":11,
						"TEXCOORD_0":12
					},
					"indices":13,
					"material":2
				}
			]
		}
	],
	"textures":[
		{
			"sampler":0,
			"source":0
		},
		{
			"sampler":0,
			"source":1
		},
		{
			"sampler":0,
			"source":2
		},
		{
			"sampler":0,
			"source":3
		},
		{
			"sampler":0,
			"source":4
		},
		{
			"sampler":0,
			"source":5
		}
	],
	"images":[
		{
			"mimeType":"image/png",
			"name":"T_Trim_Furniture_Normal",
			"uri":"T_Trim_Furniture_Normal.png"
		},
		{
			"mimeType":"image/png",
			"name":"T_Trim_Furniture_BaseColor",
			"uri":"T_Trim_Furniture_BaseColor.png"
		},
		{
			"mimeType":"image/png",
			"name":"T_Trim_Furniture_ORM",
			"uri":"T_Trim_Furniture_ORM.png"
		},
		{
			"mimeType":"image/png",
			"name":"T_Trim_Metal_Normal",
			"uri":"T_Trim_Metal_Normal.png"
		},
		{
			"mimeType":"image/png",
			"name":"T_Trim_Metal_BaseColor",
			"uri":"T_Trim_Metal_BaseColor.png"
		},
		{
			"mimeType":"image/png",
			"name":"T_Trim_Metal_ORM",
			"uri":"T_Trim_Metal_ORM.png"
		}
	],
	"accessors":[
		{
			"bufferView":0,
			"componentType":5126,
			"count":24,
			"max":[
				0.35844501852989197,
				0.8869932293891907,
				0.2463727593421936
			],
			"min":[
				-0.3584432601928711,
				0.0037505626678466797,
				-0.24637451767921448
			],
			"type":"VEC3"
		},
		{
			"bufferView":1,
			"componentType":5126,
			"count":24,
			"type":"VEC3"
		},
		{
			"bufferView":2,
			"componentType":5126,
			"count":24,
			"type":"VEC2"
		},
		{
			"bufferView":3,
			"componentType":5123,
			"count":36,
			"type":"SCALAR"
		},
		{
			"bufferView":4,
			"componentType":5123,
			"count":498,
			"normalized":true,
			"type":"VEC4"
		},
		{
			"bufferView":5,
			"componentType":5126,
			"count":498,
			"max":[
				0.3561858534812927,
				0.8854460120201111,
				0.2388598918914795
			],
			"min":[
				-0.35618603229522705,
				-0.00581110967323184,
				-0.22807741165161133
			],
			"type":"VEC3"
		},
		{
			"bufferView":6,
			"componentType":5126,
			"count":498,
			"type":"VEC3"
		},
		{
			"bufferView":7,
			"componentType":5126,
			"count":498,
			"type":"VEC2"
		},
		{
			"bufferView":8,
			"componentType":5123,
			"count":750,
			"type":"SCALAR"
		},
		{
			"bufferView":9,
			"componentType":5123,
			"count":990,
			"normalized":true,
			"type":"VEC4"
		},
		{
			"bufferView":10,
			"componentType":5126,
			"count":990,
			"max":[
				0.3609079122543335,
				0.8892723917961121,
				0.2455882728099823
			],
			"min":[
				-0.3609079122543335,
				0.5996977090835571,
				-0.2455882728099823
			],
			"type":"VEC3"
		},
		{
			"bufferView":11,
			"componentType":5126,
			"count":990,
			"type":"VEC3"
		},
		{
			"bufferView":12,
			"componentType":5126,
			"count":990,
			"type":"VEC2"
		},
		{
			"bufferView":13,
			"componentType":5123,
			"count":3348,
			"type":"SCALAR"
		}
	],
	"bufferViews":[
		{
			"buffer":0,
			"byteLength":288,
			"byteOffset":0,
			"target":34962
		},
		{
			"buffer":0,
			"byteLength":288,
			"byteOffset":288,
			"target":34962
		},
		{
			"buffer":0,
			"byteLength":192,
			"byteOffset":576,
			"target":34962
		},
		{
			"buffer":0,
			"byteLength":72,
			"byteOffset":768,
			"target":34963
		},
		{
			"buffer":0,
			"byteLength":3984,
			"byteOffset":840,
			"target":34962
		},
		{
			"buffer":0,
			"byteLength":5976,
			"byteOffset":4824,
			"target":34962
		},
		{
			"buffer":0,
			"byteLength":5976,
			"byteOffset":10800,
			"target":34962
		},
		{
			"buffer":0,
			"byteLength":3984,
			"byteOffset":16776,
			"target":34962
		},
		{
			"buffer":0,
			"byteLength":1500,
			"byteOffset":20760,
			"target":34963
		},
		{
			"buffer":0,
			"byteLength":7920,
			"byteOffset":22260,
			"target":34962
		},
		{
			"buffer":0,
			"byteLength":11880,
			"byteOffset":30180,
			"target":34962
		},
		{
			"buffer":0,
			"byteLength":11880,
			"byteOffset":42060,
			"target":34962
		},
		{
			"buffer":0,
			"byteLength":7920,
			"byteOffset":53940,
			"target":34962
		},
		{
			"buffer":0,
			"byteLength":6696,
			"byteOffset":61860,
			"target":34963
		}
	],
	"samplers":[
		{
			"magFilter":9729,
			"minFilter":9987
		}
	],
	"buffers":[
		{
			"byteLength":68556,
			"uri":"Nightstand_Drawer.bin"
		}
	]
}
