{
	"asset":{
		"generator":"Khronos glTF Blender I/O v4.0.44",
		"version":"2.0"
	},
	"scene":0,
	"scenes":[
		{
			"name":"Scene",
			"nodes":[
				0
			]
		}
	],
	"nodes":[
		{
			"mesh":0,
			"name":"Page_Single"
		}
	],
	"materials":[
		{
			"doubleSided":true,
			"name":"MI_Page_2",
			"pbrMetallicRoughness":{
				"baseColorTexture":{
					"index":0
				},
				"metallicFactor":0,
				"roughnessFactor":0.5
			}
		}
	],
	"meshes":[
		{
			"name":"Cube.037",
			"primitives":[
				{
					"attributes":{
						"COLOR_0":0,
						"POSITION":1,
						"NORMAL":2,
						"TEXCOORD_0":3
					},
					"indices":4,
					"material":0
				}
			]
		}
	],
	"textures":[
		{
			"sampler":0,
			"source":0
		}
	],
	"images":[
		{
			"mimeType":"image/png",
			"name":"T_Page_Noise",
			"uri":"T_Page_Noise.png"
		}
	],
	"accessors":[
		{
			"bufferView":0,
			"componentType":5123,
			"count":27,
			"normalized":true,
			"type":"VEC4"
		},
		{
			"bufferView":1,
			"componentType":5126,
			"count":27,
			"max":[
				0.09883182495832443,
				0.01087692566215992,
				0.11840114742517471
			],
			"min":[
				-0.09537367522716522,
				0.001232747919857502,
				-0.1183699443936348
			],
			"type":"VEC3"
		},
		{
			"bufferView":2,
			"componentType":5126,
			"count":27,
			"type":"VEC3"
		},
		{
			"bufferView":3,
			"componentType":5126,
			"count":27,
			"type":"VEC2"
		},
		{
			"bufferView":4,
			"componentType":5123,
			"count":75,
			"type":"SCALAR"
		}
	],
	"bufferViews":[
		{
			"buffer":0,
			"byteLength":216,
			"byteOffset":0,
			"target":34962
		},
		{
			"buffer":0,
			"byteLength":324,
			"byteOffset":216,
			"target":34962
		},
		{
			"buffer":0,
			"byteLength":324,
			"byteOffset":540,
			"target":34962
		},
		{
			"buffer":0,
			"byteLength":216,
			"byteOffset":864,
			"target":34962
		},
		{
			"buffer":0,
			"byteLength":150,
			"byteOffset":1080,
			"target":34963
		}
	],
	"samplers":[
		{
			"magFilter":9729,
			"minFilter":9987
		}
	],
	"buffers":[
		{
			"byteLength":1232,
			"uri":"Page_Single.bin"
		}
	]
}
