{
	"asset":{
		"generator":"Khronos glTF Blender I/O v4.0.44",
		"version":"2.0"
	},
	"scene":0,
	"scenes":[
		{
			"name":"Scene",
			"nodes":[
				1
			]
		}
	],
	"nodes":[
		{
			"mesh":0,
			"name":"Page_Stack_Large_1-convcolonly"
		},
		{
			"children":[
				0
			],
			"mesh":1,
			"name":"Page_Stack_Large"
		}
	],
	"materials":[
		{
			"doubleSided":true,
			"name":"Collision",
			"pbrMetallicRoughness":{
				"baseColorFactor":[
					0.047601714730262756,
					0.17601831257343292,
					0.8000785112380981,
					1
				],
				"metallicFactor":0,
				"roughnessFactor":0.5
			}
		},
		{
			"doubleSided":true,
			"name":"MI_Trim_Props_Vertex",
			"normalTexture":{
				"index":0
			},
			"pbrMetallicRoughness":{
				"baseColorTexture":{
					"index":1
				},
				"metallicRoughnessTexture":{
					"index":2
				}
			}
		},
		{
			"doubleSided":true,
			"name":"MI_Page_1",
			"pbrMetallicRoughness":{
				"baseColorTexture":{
					"index":3
				},
				"metallicFactor":0,
				"roughnessFactor":0.5
			}
		},
		{
			"doubleSided":true,
			"name":"MI_Page_2",
			"pbrMetallicRoughness":{
				"baseColorTexture":{
					"index":4
				},
				"metallicFactor":0,
				"roughnessFactor":0.5
			}
		}
	],
	"meshes":[
		{
			"name":"Cube.175",
			"primitives":[
				{
					"attributes":{
						"POSITION":0,
						"NORMAL":1,
						"TEXCOORD_0":2
					},
					"indices":3,
					"material":0
				}
			]
		},
		{
			"name":"Cube.039",
			"primitives":[
				{
					"attributes":{
						"COLOR_0":4,
						"POSITION":5,
						"NORMAL":6,
						"TEXCOORD_0":7
					},
					"indices":8,
					"material":1
				},
				{
					"attributes":{
						"COLOR_0":9,
						"POSITION":10,
						"NORMAL":11,
						"TEXCOORD_0":12
					},
					"indices":13,
					"material":2
				},
				{
					"attributes":{
						"COLOR_0":14,
						"POSITION":15,
						"NORMAL":16,
						"TEXCOORD_0":17
					},
					"indices":18,
					"material":3
				}
			]
		}
	],
	"textures":[
		{
			"sampler":0,
			"source":0
		},
		{
			"sampler":0,
			"source":1
		},
		{
			"sampler":0,
			"source":2
		},
		{
			"sampler":0,
			"source":3
		},
		{
			"sampler":0,
			"source":3
		}
	],
	"images":[
		{
			"mimeType":"image/png",
			"name":"T_Trim_Props_Normal",
			"uri":"T_Trim_Props_Normal.png"
		},
		{
			"mimeType":"image/png",
			"name":"T_Trim_Props_BaseColor",
			"uri":"T_Trim_Props_BaseColor.png"
		},
		{
			"mimeType":"image/png",
			"name":"T_Trim_Props_ORM",
			"uri":"T_Trim_Props_ORM.png"
		},
		{
			"mimeType":"image/png",
			"name":"T_Page_Noise",
			"uri":"T_Page_Noise.png"
		}
	],
	"accessors":[
		{
			"bufferView":0,
			"componentType":5126,
			"count":24,
			"max":[
				0.09906837344169617,
				0.10565030574798584,
				0.12026456743478775
			],
			"min":[
				-0.09775301069021225,
				-0.011621777899563313,
				-0.11797616630792618
			],
			"type":"VEC3"
		},
		{
			"bufferView":1,
			"componentType":5126,
			"count":24,
			"type":"VEC3"
		},
		{
			"bufferView":2,
			"componentType":5126,
			"count":24,
			"type":"VEC2"
		},
		{
			"bufferView":3,
			"componentType":5123,
			"count":36,
			"type":"SCALAR"
		},
		{
			"bufferView":4,
			"componentType":5123,
			"count":110,
			"normalized":true,
			"type":"VEC4"
		},
		{
			"bufferView":5,
			"componentType":5126,
			"count":110,
			"max":[
				0.09920017421245575,
				0.09951169788837433,
				0.11897066235542297
			],
			"min":[
				-0.09587308764457703,
				-0.012725364416837692,
				-0.11891644448041916
			],
			"type":"VEC3"
		},
		{
			"bufferView":6,
			"componentType":5126,
			"count":110,
			"type":"VEC3"
		},
		{
			"bufferView":7,
			"componentType":5126,
			"count":110,
			"type":"VEC2"
		},
		{
			"bufferView":8,
			"componentType":5123,
			"count":282,
			"type":"SCALAR"
		},
		{
			"bufferView":9,
			"componentType":5123,
			"count":168,
			"normalized":true,
			"type":"VEC4"
		},
		{
			"bufferView":10,
			"componentType":5126,
			"count":168,
			"max":[
				0.09883182495832443,
				0.10450153052806854,
				0.15248535573482513
			],
			"min":[
				-0.1461687833070755,
				-0.006444761995226145,
				-0.16194836795330048
			],
			"type":"VEC3"
		},
		{
			"bufferView":11,
			"componentType":5126,
			"count":168,
			"type":"VEC3"
		},
		{
			"bufferView":12,
			"componentType":5126,
			"count":168,
			"type":"VEC2"
		},
		{
			"bufferView":13,
			"componentType":5123,
			"count":408,
			"type":"SCALAR"
		},
		{
			"bufferView":14,
			"componentType":5123,
			"count":54,
			"normalized":true,
			"type":"VEC4"
		},
		{
			"bufferView":15,
			"componentType":5126,
			"count":54,
			"max":[
				0.1714000105857849,
				0.06813342869281769,
				0.1665857583284378
			],
			"min":[
				-0.132405623793602,
				0.031116608530282974,
				-0.11240464448928833
			],
			"type":"VEC3"
		},
		{
			"bufferView":16,
			"componentType":5126,
			"count":54,
			"type":"VEC3"
		},
		{
			"bufferView":17,
			"componentType":5126,
			"count":54,
			"type":"VEC2"
		},
		{
			"bufferView":18,
			"componentType":5123,
			"count":150,
			"type":"SCALAR"
		}
	],
	"bufferViews":[
		{
			"buffer":0,
			"byteLength":288,
			"byteOffset":0,
			"target":34962
		},
		{
			"buffer":0,
			"byteLength":288,
			"byteOffset":288,
			"target":34962
		},
		{
			"buffer":0,
			"byteLength":192,
			"byteOffset":576,
			"target":34962
		},
		{
			"buffer":0,
			"byteLength":72,
			"byteOffset":768,
			"target":34963
		},
		{
			"buffer":0,
			"byteLength":880,
			"byteOffset":840,
			"target":34962
		},
		{
			"buffer":0,
			"byteLength":1320,
			"byteOffset":1720,
			"target":34962
		},
		{
			"buffer":0,
			"byteLength":1320,
			"byteOffset":3040,
			"target":34962
		},
		{
			"buffer":0,
			"byteLength":880,
			"byteOffset":4360,
			"target":34962
		},
		{
			"buffer":0,
			"byteLength":564,
			"byteOffset":5240,
			"target":34963
		},
		{
			"buffer":0,
			"byteLength":1344,
			"byteOffset":5804,
			"target":34962
		},
		{
			"buffer":0,
			"byteLength":2016,
			"byteOffset":7148,
			"target":34962
		},
		{
			"buffer":0,
			"byteLength":2016,
			"byteOffset":9164,
			"target":34962
		},
		{
			"buffer":0,
			"byteLength":1344,
			"byteOffset":11180,
			"target":34962
		},
		{
			"buffer":0,
			"byteLength":816,
			"byteOffset":12524,
			"target":34963
		},
		{
			"buffer":0,
			"byteLength":432,
			"byteOffset":13340,
			"target":34962
		},
		{
			"buffer":0,
			"byteLength":648,
			"byteOffset":13772,
			"target":34962
		},
		{
			"buffer":0,
			"byteLength":648,
			"byteOffset":14420,
			"target":34962
		},
		{
			"buffer":0,
			"byteLength":432,
			"byteOffset":15068,
			"target":34962
		},
		{
			"buffer":0,
			"byteLength":300,
			"byteOffset":15500,
			"target":34963
		}
	],
	"samplers":[
		{
			"magFilter":9729,
			"minFilter":9987
		}
	],
	"buffers":[
		{
			"byteLength":15800,
			"uri":"Page_Stack_Large.bin"
		}
	]
}
