{
	"asset":{
		"generator":"Khronos glTF Blender I/O v4.0.44",
		"version":"2.0"
	},
	"scene":0,
	"scenes":[
		{
			"name":"Scene",
			"nodes":[
				0
			]
		}
	],
	"nodes":[
		{
			"mesh":0,
			"name":"Page_Stack_Small"
		}
	],
	"materials":[
		{
			"doubleSided":true,
			"name":"MI_Page_1",
			"pbrMetallicRoughness":{
				"baseColorTexture":{
					"index":0
				},
				"metallicFactor":0,
				"roughnessFactor":0.5
			}
		},
		{
			"doubleSided":true,
			"name":"MI_Page_2",
			"pbrMetallicRoughness":{
				"baseColorTexture":{
					"index":1
				},
				"metallicFactor":0,
				"roughnessFactor":0.5
			}
		}
	],
	"meshes":[
		{
			"name":"Cube.038",
			"primitives":[
				{
					"attributes":{
						"COLOR_0":0,
						"POSITION":1,
						"NORMAL":2,
						"TEXCOORD_0":3
					},
					"indices":4,
					"material":0
				},
				{
					"attributes":{
						"COLOR_0":5,
						"POSITION":6,
						"NORMAL":7,
						"TEXCOORD_0":8
					},
					"indices":9,
					"material":1
				}
			]
		}
	],
	"textures":[
		{
			"sampler":0,
			"source":0
		},
		{
			"sampler":0,
			"source":0
		}
	],
	"images":[
		{
			"mimeType":"image/png",
			"name":"T_Page_Noise",
			"uri":"T_Page_Noise.png"
		}
	],
	"accessors":[
		{
			"bufferView":0,
			"componentType":5123,
			"count":56,
			"normalized":true,
			"type":"VEC4"
		},
		{
			"bufferView":1,
			"componentType":5126,
			"count":56,
			"max":[
				0.191339910030365,
				0.01294873096048832,
				0.11840113997459412
			],
			"min":[
				-0.09537367522716522,
				0.0004891799762845039,
				-0.2926102876663208
			],
			"type":"VEC3"
		},
		{
			"bufferView":2,
			"componentType":5126,
			"count":56,
			"type":"VEC3"
		},
		{
			"bufferView":3,
			"componentType":5126,
			"count":56,
			"type":"VEC2"
		},
		{
			"bufferView":4,
			"componentType":5123,
			"count":156,
			"type":"SCALAR"
		},
		{
			"bufferView":5,
			"componentType":5123,
			"count":54,
			"normalized":true,
			"type":"VEC4"
		},
		{
			"bufferView":6,
			"componentType":5126,
			"count":54,
			"max":[
				0.29657185077667236,
				0.0018635899759829044,
				0.09506562352180481
			],
			"min":[
				-0.23461109399795532,
				0.0018044051248580217,
				-0.25125473737716675
			],
			"type":"VEC3"
		},
		{
			"bufferView":7,
			"componentType":5126,
			"count":54,
			"type":"VEC3"
		},
		{
			"bufferView":8,
			"componentType":5126,
			"count":54,
			"type":"VEC2"
		},
		{
			"bufferView":9,
			"componentType":5123,
			"count":150,
			"type":"SCALAR"
		}
	],
	"bufferViews":[
		{
			"buffer":0,
			"byteLength":448,
			"byteOffset":0,
			"target":34962
		},
		{
			"buffer":0,
			"byteLength":672,
			"byteOffset":448,
			"target":34962
		},
		{
			"buffer":0,
			"byteLength":672,
			"byteOffset":1120,
			"target":34962
		},
		{
			"buffer":0,
			"byteLength":448,
			"byteOffset":1792,
			"target":34962
		},
		{
			"buffer":0,
			"byteLength":312,
			"byteOffset":2240,
			"target":34963
		},
		{
			"buffer":0,
			"byteLength":432,
			"byteOffset":2552,
			"target":34962
		},
		{
			"buffer":0,
			"byteLength":648,
			"byteOffset":2984,
			"target":34962
		},
		{
			"buffer":0,
			"byteLength":648,
			"byteOffset":3632,
			"target":34962
		},
		{
			"buffer":0,
			"byteLength":432,
			"byteOffset":4280,
			"target":34962
		},
		{
			"buffer":0,
			"byteLength":300,
			"byteOffset":4712,
			"target":34963
		}
	],
	"samplers":[
		{
			"magFilter":9729,
			"minFilter":9987
		}
	],
	"buffers":[
		{
			"byteLength":5012,
			"uri":"Page_Stack_Small.bin"
		}
	]
}
