{
	"asset":{
		"generator":"Khronos glTF Blender I/O v4.0.44",
		"version":"2.0"
	},
	"scene":0,
	"scenes":[
		{
			"name":"Scene",
			"nodes":[
				0
			]
		}
	],
	"nodes":[
		{
			"mesh":0,
			"name":"Parchment"
		}
	],
	"materials":[
		{
			"doubleSided":true,
			"name":"MI_Page_1",
			"pbrMetallicRoughness":{
				"baseColorTexture":{
					"index":0
				},
				"metallicFactor":0,
				"roughnessFactor":0.5
			}
		},
		{
			"doubleSided":true,
			"name":"MI_Page_Empty",
			"pbrMetallicRoughness":{
				"baseColorTexture":{
					"index":1
				},
				"metallicFactor":0,
				"roughnessFactor":0.5
			}
		}
	],
	"meshes":[
		{
			"name":"Cube.036",
			"primitives":[
				{
					"attributes":{
						"COLOR_0":0,
						"POSITION":1,
						"NORMAL":2,
						"TEXCOORD_0":3
					},
					"indices":4,
					"material":0
				},
				{
					"attributes":{
						"COLOR_0":5,
						"POSITION":6,
						"NORMAL":7,
						"TEXCOORD_0":8
					},
					"indices":9,
					"material":1
				}
			]
		}
	],
	"textures":[
		{
			"sampler":0,
			"source":0
		},
		{
			"sampler":0,
			"source":0
		}
	],
	"images":[
		{
			"mimeType":"image/png",
			"name":"T_Page_Noise",
			"uri":"T_Page_Noise.png"
		}
	],
	"accessors":[
		{
			"bufferView":0,
			"componentType":5123,
			"count":138,
			"normalized":true,
			"type":"VEC4"
		},
		{
			"bufferView":1,
			"componentType":5126,
			"count":138,
			"max":[
				0.1231701523065567,
				0.04743289574980736,
				0.12972958385944366
			],
			"min":[
				-0.11479343473911285,
				-7.820501923561096e-05,
				-0.13075903058052063
			],
			"type":"VEC3"
		},
		{
			"bufferView":2,
			"componentType":5126,
			"count":138,
			"type":"VEC3"
		},
		{
			"bufferView":3,
			"componentType":5126,
			"count":138,
			"type":"VEC2"
		},
		{
			"bufferView":4,
			"componentType":5123,
			"count":657,
			"type":"SCALAR"
		},
		{
			"bufferView":5,
			"componentType":5123,
			"count":97,
			"normalized":true,
			"type":"VEC4"
		},
		{
			"bufferView":6,
			"componentType":5126,
			"count":97,
			"max":[
				0.1231701523065567,
				0.04743289574980736,
				0.12976181507110596
			],
			"min":[
				-0.11479343473911285,
				-0.00161026231944561,
				-0.13075903058052063
			],
			"type":"VEC3"
		},
		{
			"bufferView":7,
			"componentType":5126,
			"count":97,
			"type":"VEC3"
		},
		{
			"bufferView":8,
			"componentType":5126,
			"count":97,
			"type":"VEC2"
		},
		{
			"bufferView":9,
			"componentType":5123,
			"count":411,
			"type":"SCALAR"
		}
	],
	"bufferViews":[
		{
			"buffer":0,
			"byteLength":1104,
			"byteOffset":0,
			"target":34962
		},
		{
			"buffer":0,
			"byteLength":1656,
			"byteOffset":1104,
			"target":34962
		},
		{
			"buffer":0,
			"byteLength":1656,
			"byteOffset":2760,
			"target":34962
		},
		{
			"buffer":0,
			"byteLength":1104,
			"byteOffset":4416,
			"target":34962
		},
		{
			"buffer":0,
			"byteLength":1314,
			"byteOffset":5520,
			"target":34963
		},
		{
			"buffer":0,
			"byteLength":776,
			"byteOffset":6836,
			"target":34962
		},
		{
			"buffer":0,
			"byteLength":1164,
			"byteOffset":7612,
			"target":34962
		},
		{
			"buffer":0,
			"byteLength":1164,
			"byteOffset":8776,
			"target":34962
		},
		{
			"buffer":0,
			"byteLength":776,
			"byteOffset":9940,
			"target":34962
		},
		{
			"buffer":0,
			"byteLength":822,
			"byteOffset":10716,
			"target":34963
		}
	],
	"samplers":[
		{
			"magFilter":9729,
			"minFilter":9987
		}
	],
	"buffers":[
		{
			"byteLength":11540,
			"uri":"Parchment.bin"
		}
	]
}
