{
	"asset":{
		"generator":"Khronos glTF Blender I/O v4.0.44",
		"version":"2.0"
	},
	"scene":0,
	"scenes":[
		{
			"name":"Scene",
			"nodes":[
				0
			]
		}
	],
	"nodes":[
		{
			"mesh":0,
			"name":"Parts_Chain_Straight"
		}
	],
	"materials":[
		{
			"doubleSided":true,
			"name":"MI_Trim_Metal",
			"normalTexture":{
				"index":0
			},
			"pbrMetallicRoughness":{
				"baseColorTexture":{
					"index":1
				},
				"metallicRoughnessTexture":{
					"index":2
				}
			}
		}
	],
	"meshes":[
		{
			"name":"Cylinder.001",
			"primitives":[
				{
					"attributes":{
						"COLOR_0":0,
						"POSITION":1,
						"NORMAL":2,
						"TEXCOORD_0":3
					},
					"indices":4,
					"material":0
				}
			]
		}
	],
	"textures":[
		{
			"sampler":0,
			"source":0
		},
		{
			"sampler":0,
			"source":1
		},
		{
			"sampler":0,
			"source":2
		}
	],
	"images":[
		{
			"mimeType":"image/png",
			"name":"T_Trim_Metal_Normal",
			"uri":"T_Trim_Metal_Normal.png"
		},
		{
			"mimeType":"image/png",
			"name":"T_Trim_Metal_BaseColor",
			"uri":"T_Trim_Metal_BaseColor.png"
		},
		{
			"mimeType":"image/png",
			"name":"T_Trim_Metal_ORM",
			"uri":"T_Trim_Metal_ORM.png"
		}
	],
	"accessors":[
		{
			"bufferView":0,
			"componentType":5123,
			"count":972,
			"normalized":true,
			"type":"VEC4"
		},
		{
			"bufferView":1,
			"componentType":5126,
			"count":972,
			"max":[
				0.05948743224143982,
				0.0023379577323794365,
				0.058583371341228485
			],
			"min":[
				-0.05948629230260849,
				-1.21627676486969,
				-0.05858289822936058
			],
			"type":"VEC3"
		},
		{
			"bufferView":2,
			"componentType":5126,
			"count":972,
			"type":"VEC3"
		},
		{
			"bufferView":3,
			"componentType":5126,
			"count":972,
			"type":"VEC2"
		},
		{
			"bufferView":4,
			"componentType":5123,
			"count":2670,
			"type":"SCALAR"
		}
	],
	"bufferViews":[
		{
			"buffer":0,
			"byteLength":7776,
			"byteOffset":0,
			"target":34962
		},
		{
			"buffer":0,
			"byteLength":11664,
			"byteOffset":7776,
			"target":34962
		},
		{
			"buffer":0,
			"byteLength":11664,
			"byteOffset":19440,
			"target":34962
		},
		{
			"buffer":0,
			"byteLength":7776,
			"byteOffset":31104,
			"target":34962
		},
		{
			"buffer":0,
			"byteLength":5340,
			"byteOffset":38880,
			"target":34963
		}
	],
	"samplers":[
		{
			"magFilter":9729,
			"minFilter":9987
		}
	],
	"buffers":[
		{
			"byteLength":44220,
			"uri":"Parts_Chain_Straight.bin"
		}
	]
}
