{
	"asset":{
		"generator":"Khronos glTF Blender I/O v4.0.44",
		"version":"2.0"
	},
	"scene":0,
	"scenes":[
		{
			"name":"Scene",
			"nodes":[
				1
			]
		}
	],
	"nodes":[
		{
			"mesh":0,
			"name":"Potion_3_1-convcolonly"
		},
		{
			"children":[
				0
			],
			"mesh":1,
			"name":"Potion_3"
		}
	],
	"materials":[
		{
			"doubleSided":true,
			"name":"Collision",
			"pbrMetallicRoughness":{
				"baseColorFactor":[
					0.047601714730262756,
					0.17601831257343292,
					0.8000785112380981,
					1
				],
				"metallicFactor":0,
				"roughnessFactor":0.5
			}
		},
		{
			"doubleSided":true,
			"name":"MI_Trim_Props_Vertex",
			"normalTexture":{
				"index":0
			},
			"pbrMetallicRoughness":{
				"baseColorTexture":{
					"index":1
				},
				"metallicRoughnessTexture":{
					"index":2
				}
			}
		},
		{
			"doubleSided":true,
			"name":"MI_Trim_Metal",
			"normalTexture":{
				"index":3
			},
			"pbrMetallicRoughness":{
				"baseColorTexture":{
					"index":4
				},
				"metallicRoughnessTexture":{
					"index":5
				}
			}
		}
	],
	"meshes":[
		{
			"name":"Cylinder.104",
			"primitives":[
				{
					"attributes":{
						"POSITION":0,
						"NORMAL":1,
						"TEXCOORD_0":2
					},
					"indices":3,
					"material":0
				}
			]
		},
		{
			"name":"Sphere.001",
			"primitives":[
				{
					"attributes":{
						"COLOR_0":4,
						"POSITION":5,
						"NORMAL":6,
						"TEXCOORD_0":7
					},
					"indices":8,
					"material":1
				},
				{
					"attributes":{
						"COLOR_0":9,
						"POSITION":10,
						"NORMAL":11,
						"TEXCOORD_0":12
					},
					"indices":13,
					"material":2
				}
			]
		}
	],
	"textures":[
		{
			"sampler":0,
			"source":0
		},
		{
			"sampler":0,
			"source":1
		},
		{
			"sampler":0,
			"source":2
		},
		{
			"sampler":0,
			"source":3
		},
		{
			"sampler":0,
			"source":4
		},
		{
			"sampler":0,
			"source":5
		}
	],
	"images":[
		{
			"mimeType":"image/png",
			"name":"T_Trim_Props_Normal",
			"uri":"T_Trim_Props_Normal.png"
		},
		{
			"mimeType":"image/png",
			"name":"T_Trim_Props_BaseColor",
			"uri":"T_Trim_Props_BaseColor.png"
		},
		{
			"mimeType":"image/png",
			"name":"T_Trim_Props_ORM",
			"uri":"T_Trim_Props_ORM.png"
		},
		{
			"mimeType":"image/png",
			"name":"T_Trim_Metal_Normal",
			"uri":"T_Trim_Metal_Normal.png"
		},
		{
			"mimeType":"image/png",
			"name":"T_Trim_Metal_BaseColor",
			"uri":"T_Trim_Metal_BaseColor.png"
		},
		{
			"mimeType":"image/png",
			"name":"T_Trim_Metal_ORM",
			"uri":"T_Trim_Metal_ORM.png"
		}
	],
	"accessors":[
		{
			"bufferView":0,
			"componentType":5126,
			"count":80,
			"max":[
				0.08009050041437149,
				0.2623629570007324,
				0.08009050041437149
			],
			"min":[
				-0.08009050041437149,
				0.00043936914880760014,
				-0.08009050041437149
			],
			"type":"VEC3"
		},
		{
			"bufferView":1,
			"componentType":5126,
			"count":80,
			"type":"VEC3"
		},
		{
			"bufferView":2,
			"componentType":5126,
			"count":80,
			"type":"VEC2"
		},
		{
			"bufferView":3,
			"componentType":5123,
			"count":132,
			"type":"SCALAR"
		},
		{
			"bufferView":4,
			"componentType":5123,
			"count":289,
			"normalized":true,
			"type":"VEC4"
		},
		{
			"bufferView":5,
			"componentType":5126,
			"count":289,
			"max":[
				0.0636141374707222,
				0.27398180961608887,
				0.06361594051122665
			],
			"min":[
				-0.06361895054578781,
				0.06681803613901138,
				-0.06361716240644455
			],
			"type":"VEC3"
		},
		{
			"bufferView":6,
			"componentType":5126,
			"count":289,
			"type":"VEC3"
		},
		{
			"bufferView":7,
			"componentType":5126,
			"count":289,
			"type":"VEC2"
		},
		{
			"bufferView":8,
			"componentType":5123,
			"count":1200,
			"type":"SCALAR"
		},
		{
			"bufferView":9,
			"componentType":5123,
			"count":448,
			"normalized":true,
			"type":"VEC4"
		},
		{
			"bufferView":10,
			"componentType":5126,
			"count":448,
			"max":[
				0.07844699919223785,
				0.1292264610528946,
				0.0784476026892662
			],
			"min":[
				-0.07844941318035126,
				-0.00011873725452460349,
				-0.0784488096833229
			],
			"type":"VEC3"
		},
		{
			"bufferView":11,
			"componentType":5126,
			"count":448,
			"type":"VEC3"
		},
		{
			"bufferView":12,
			"componentType":5126,
			"count":448,
			"type":"VEC2"
		},
		{
			"bufferView":13,
			"componentType":5123,
			"count":1044,
			"type":"SCALAR"
		}
	],
	"bufferViews":[
		{
			"buffer":0,
			"byteLength":960,
			"byteOffset":0,
			"target":34962
		},
		{
			"buffer":0,
			"byteLength":960,
			"byteOffset":960,
			"target":34962
		},
		{
			"buffer":0,
			"byteLength":640,
			"byteOffset":1920,
			"target":34962
		},
		{
			"buffer":0,
			"byteLength":264,
			"byteOffset":2560,
			"target":34963
		},
		{
			"buffer":0,
			"byteLength":2312,
			"byteOffset":2824,
			"target":34962
		},
		{
			"buffer":0,
			"byteLength":3468,
			"byteOffset":5136,
			"target":34962
		},
		{
			"buffer":0,
			"byteLength":3468,
			"byteOffset":8604,
			"target":34962
		},
		{
			"buffer":0,
			"byteLength":2312,
			"byteOffset":12072,
			"target":34962
		},
		{
			"buffer":0,
			"byteLength":2400,
			"byteOffset":14384,
			"target":34963
		},
		{
			"buffer":0,
			"byteLength":3584,
			"byteOffset":16784,
			"target":34962
		},
		{
			"buffer":0,
			"byteLength":5376,
			"byteOffset":20368,
			"target":34962
		},
		{
			"buffer":0,
			"byteLength":5376,
			"byteOffset":25744,
			"target":34962
		},
		{
			"buffer":0,
			"byteLength":3584,
			"byteOffset":31120,
			"target":34962
		},
		{
			"buffer":0,
			"byteLength":2088,
			"byteOffset":34704,
			"target":34963
		}
	],
	"samplers":[
		{
			"magFilter":9729,
			"minFilter":9987
		}
	],
	"buffers":[
		{
			"byteLength":36792,
			"uri":"Potion_3.bin"
		}
	]
}
