{
	"asset":{
		"generator":"Khronos glTF Blender I/O v4.0.44",
		"version":"2.0"
	},
	"scene":0,
	"scenes":[
		{
			"name":"Scene",
			"nodes":[
				1
			]
		}
	],
	"nodes":[
		{
			"mesh":0,
			"name":"Pouch_Large_1-convcolonly"
		},
		{
			"children":[
				0
			],
			"mesh":1,
			"name":"Pouch_Large"
		}
	],
	"materials":[
		{
			"doubleSided":true,
			"name":"Collision",
			"pbrMetallicRoughness":{
				"baseColorFactor":[
					0.047601714730262756,
					0.17601831257343292,
					0.8000785112380981,
					1
				],
				"metallicFactor":0,
				"roughnessFactor":0.5
			}
		},
		{
			"doubleSided":true,
			"name":"MI_Trim_Props_Vertex",
			"normalTexture":{
				"index":0
			},
			"pbrMetallicRoughness":{
				"baseColorTexture":{
					"index":1
				},
				"metallicRoughnessTexture":{
					"index":2
				}
			}
		},
		{
			"doubleSided":true,
			"name":"MI_Trim_Metal",
			"normalTexture":{
				"index":3
			},
			"pbrMetallicRoughness":{
				"baseColorTexture":{
					"index":4
				},
				"metallicRoughnessTexture":{
					"index":5
				}
			}
		}
	],
	"meshes":[
		{
			"name":"Cube.197",
			"primitives":[
				{
					"attributes":{
						"POSITION":0,
						"NORMAL":1,
						"TEXCOORD_0":2
					},
					"indices":3,
					"material":0
				}
			]
		},
		{
			"name":"Cube.144",
			"primitives":[
				{
					"attributes":{
						"COLOR_0":4,
						"POSITION":5,
						"NORMAL":6,
						"TEXCOORD_0":7
					},
					"indices":8,
					"material":1
				},
				{
					"attributes":{
						"COLOR_0":9,
						"POSITION":10,
						"NORMAL":11,
						"TEXCOORD_0":12
					},
					"indices":13,
					"material":2
				}
			]
		}
	],
	"textures":[
		{
			"sampler":0,
			"source":0
		},
		{
			"sampler":0,
			"source":1
		},
		{
			"sampler":0,
			"source":2
		},
		{
			"sampler":0,
			"source":3
		},
		{
			"sampler":0,
			"source":4
		},
		{
			"sampler":0,
			"source":5
		}
	],
	"images":[
		{
			"mimeType":"image/png",
			"name":"T_Trim_Props_Normal",
			"uri":"T_Trim_Props_Normal.png"
		},
		{
			"mimeType":"image/png",
			"name":"T_Trim_Props_BaseColor",
			"uri":"T_Trim_Props_BaseColor.png"
		},
		{
			"mimeType":"image/png",
			"name":"T_Trim_Props_ORM",
			"uri":"T_Trim_Props_ORM.png"
		},
		{
			"mimeType":"image/png",
			"name":"T_Trim_Metal_Normal",
			"uri":"T_Trim_Metal_Normal.png"
		},
		{
			"mimeType":"image/png",
			"name":"T_Trim_Metal_BaseColor",
			"uri":"T_Trim_Metal_BaseColor.png"
		},
		{
			"mimeType":"image/png",
			"name":"T_Trim_Metal_ORM",
			"uri":"T_Trim_Metal_ORM.png"
		}
	],
	"accessors":[
		{
			"bufferView":0,
			"componentType":5126,
			"count":40,
			"max":[
				0.11618013679981232,
				0.1632271260023117,
				0.06137030944228172
			],
			"min":[
				-0.11486472934484482,
				0.0010170377790927887,
				-0.040499866008758545
			],
			"type":"VEC3"
		},
		{
			"bufferView":1,
			"componentType":5126,
			"count":40,
			"type":"VEC3"
		},
		{
			"bufferView":2,
			"componentType":5126,
			"count":40,
			"type":"VEC2"
		},
		{
			"bufferView":3,
			"componentType":5123,
			"count":60,
			"type":"SCALAR"
		},
		{
			"bufferView":4,
			"componentType":5123,
			"count":454,
			"normalized":true,
			"type":"VEC4"
		},
		{
			"bufferView":5,
			"componentType":5126,
			"count":454,
			"max":[
				0.1117013618350029,
				0.15981073677539825,
				0.06788310408592224
			],
			"min":[
				-0.11379196494817734,
				0.0007084211683832109,
				-0.04801042750477791
			],
			"type":"VEC3"
		},
		{
			"bufferView":6,
			"componentType":5126,
			"count":454,
			"type":"VEC3"
		},
		{
			"bufferView":7,
			"componentType":5126,
			"count":454,
			"type":"VEC2"
		},
		{
			"bufferView":8,
			"componentType":5123,
			"count":1542,
			"type":"SCALAR"
		},
		{
			"bufferView":9,
			"componentType":5123,
			"count":226,
			"normalized":true,
			"type":"VEC4"
		},
		{
			"bufferView":10,
			"componentType":5126,
			"count":226,
			"max":[
				0.0754198506474495,
				0.11255805194377899,
				0.07180917263031006
			],
			"min":[
				-0.07589969784021378,
				0.06666167080402374,
				0.04826852306723595
			],
			"type":"VEC3"
		},
		{
			"bufferView":11,
			"componentType":5126,
			"count":226,
			"type":"VEC3"
		},
		{
			"bufferView":12,
			"componentType":5126,
			"count":226,
			"type":"VEC2"
		},
		{
			"bufferView":13,
			"componentType":5123,
			"count":648,
			"type":"SCALAR"
		}
	],
	"bufferViews":[
		{
			"buffer":0,
			"byteLength":480,
			"byteOffset":0,
			"target":34962
		},
		{
			"buffer":0,
			"byteLength":480,
			"byteOffset":480,
			"target":34962
		},
		{
			"buffer":0,
			"byteLength":320,
			"byteOffset":960,
			"target":34962
		},
		{
			"buffer":0,
			"byteLength":120,
			"byteOffset":1280,
			"target":34963
		},
		{
			"buffer":0,
			"byteLength":3632,
			"byteOffset":1400,
			"target":34962
		},
		{
			"buffer":0,
			"byteLength":5448,
			"byteOffset":5032,
			"target":34962
		},
		{
			"buffer":0,
			"byteLength":5448,
			"byteOffset":10480,
			"target":34962
		},
		{
			"buffer":0,
			"byteLength":3632,
			"byteOffset":15928,
			"target":34962
		},
		{
			"buffer":0,
			"byteLength":3084,
			"byteOffset":19560,
			"target":34963
		},
		{
			"buffer":0,
			"byteLength":1808,
			"byteOffset":22644,
			"target":34962
		},
		{
			"buffer":0,
			"byteLength":2712,
			"byteOffset":24452,
			"target":34962
		},
		{
			"buffer":0,
			"byteLength":2712,
			"byteOffset":27164,
			"target":34962
		},
		{
			"buffer":0,
			"byteLength":1808,
			"byteOffset":29876,
			"target":34962
		},
		{
			"buffer":0,
			"byteLength":1296,
			"byteOffset":31684,
			"target":34963
		}
	],
	"samplers":[
		{
			"magFilter":9729,
			"minFilter":9987
		}
	],
	"buffers":[
		{
			"byteLength":32980,
			"uri":"Pouch_Large.bin"
		}
	]
}
