{
	"asset":{
		"generator":"Khronos glTF Blender I/O v4.0.44",
		"version":"2.0"
	},
	"scene":0,
	"scenes":[
		{
			"name":"Scene",
			"nodes":[
				0
			]
		}
	],
	"nodes":[
		{
			"mesh":0,
			"name":"Rug_1"
		}
	],
	"materials":[
		{
			"doubleSided":true,
			"name":"MI_Banner",
			"normalTexture":{
				"index":0
			},
			"pbrMetallicRoughness":{
				"baseColorTexture":{
					"index":1
				},
				"metallicRoughnessTexture":{
					"index":2
				}
			}
		}
	],
	"meshes":[
		{
			"name":"Cube.010",
			"primitives":[
				{
					"attributes":{
						"COLOR_0":0,
						"POSITION":1,
						"NORMAL":2,
						"TEXCOORD_0":3,
						"TEXCOORD_1":4
					},
					"indices":5,
					"material":0
				}
			]
		}
	],
	"textures":[
		{
			"sampler":0,
			"source":0
		},
		{
			"sampler":0,
			"source":1
		},
		{
			"sampler":0,
			"source":2
		}
	],
	"images":[
		{
			"mimeType":"image/png",
			"name":"T_Trim_Cloth_Normal",
			"uri":"T_Trim_Cloth_Normal.png"
		},
		{
			"mimeType":"image/png",
			"name":"T_Trim_Cloth_BaseColor",
			"uri":"T_Trim_Cloth_BaseColor.png"
		},
		{
			"mimeType":"image/png",
			"name":"T_Trim_Cloth_ORM",
			"uri":"T_Trim_Cloth_ORM.png"
		}
	],
	"accessors":[
		{
			"bufferView":0,
			"componentType":5123,
			"count":79,
			"normalized":true,
			"type":"VEC4"
		},
		{
			"bufferView":1,
			"componentType":5126,
			"count":79,
			"max":[
				0.7371718883514404,
				6.556510925292969e-07,
				0.18061718344688416
			],
			"min":[
				-0.7370909452438354,
				5.960464477539062e-07,
				-0.1780613660812378
			],
			"type":"VEC3"
		},
		{
			"bufferView":2,
			"componentType":5126,
			"count":79,
			"type":"VEC3"
		},
		{
			"bufferView":3,
			"componentType":5126,
			"count":79,
			"type":"VEC2"
		},
		{
			"bufferView":4,
			"componentType":5126,
			"count":79,
			"type":"VEC2"
		},
		{
			"bufferView":5,
			"componentType":5123,
			"count":276,
			"type":"SCALAR"
		}
	],
	"bufferViews":[
		{
			"buffer":0,
			"byteLength":632,
			"byteOffset":0,
			"target":34962
		},
		{
			"buffer":0,
			"byteLength":948,
			"byteOffset":632,
			"target":34962
		},
		{
			"buffer":0,
			"byteLength":948,
			"byteOffset":1580,
			"target":34962
		},
		{
			"buffer":0,
			"byteLength":632,
			"byteOffset":2528,
			"target":34962
		},
		{
			"buffer":0,
			"byteLength":632,
			"byteOffset":3160,
			"target":34962
		},
		{
			"buffer":0,
			"byteLength":552,
			"byteOffset":3792,
			"target":34963
		}
	],
	"samplers":[
		{
			"magFilter":9729,
			"minFilter":9987
		}
	],
	"buffers":[
		{
			"byteLength":4344,
			"uri":"Rug_1.bin"
		}
	]
}
