{
	"asset":{
		"generator":"Khronos glTF Blender I/O v4.0.44",
		"version":"2.0"
	},
	"scene":0,
	"scenes":[
		{
			"name":"Scene",
			"nodes":[
				1
			]
		}
	],
	"nodes":[
		{
			"mesh":0,
			"name":"Scroll_1_1-convcolonly"
		},
		{
			"children":[
				0
			],
			"mesh":1,
			"name":"Scroll_1"
		}
	],
	"materials":[
		{
			"doubleSided":true,
			"name":"Collision",
			"pbrMetallicRoughness":{
				"baseColorFactor":[
					0.047601714730262756,
					0.17601831257343292,
					0.8000785112380981,
					1
				],
				"metallicFactor":0,
				"roughnessFactor":0.5
			}
		},
		{
			"doubleSided":true,
			"name":"MI_Page_Empty",
			"pbrMetallicRoughness":{
				"baseColorTexture":{
					"index":0
				},
				"metallicFactor":0,
				"roughnessFactor":0.5
			}
		},
		{
			"doubleSided":true,
			"name":"MI_Trim_Props_Vertex",
			"normalTexture":{
				"index":1
			},
			"pbrMetallicRoughness":{
				"baseColorTexture":{
					"index":2
				},
				"metallicRoughnessTexture":{
					"index":3
				}
			}
		}
	],
	"meshes":[
		{
			"name":"Cube.176",
			"primitives":[
				{
					"attributes":{
						"POSITION":0,
						"NORMAL":1,
						"TEXCOORD_0":2
					},
					"indices":3,
					"material":0
				}
			]
		},
		{
			"name":"Cube.152",
			"primitives":[
				{
					"attributes":{
						"COLOR_0":4,
						"POSITION":5,
						"NORMAL":6,
						"TEXCOORD_0":7
					},
					"indices":8,
					"material":1
				},
				{
					"attributes":{
						"COLOR_0":9,
						"POSITION":10,
						"NORMAL":11,
						"TEXCOORD_0":12
					},
					"indices":13,
					"material":2
				}
			]
		}
	],
	"textures":[
		{
			"sampler":0,
			"source":0
		},
		{
			"sampler":0,
			"source":1
		},
		{
			"sampler":0,
			"source":2
		},
		{
			"sampler":0,
			"source":3
		}
	],
	"images":[
		{
			"mimeType":"image/png",
			"name":"T_Page_Noise",
			"uri":"T_Page_Noise.png"
		},
		{
			"mimeType":"image/png",
			"name":"T_Trim_Props_Normal",
			"uri":"T_Trim_Props_Normal.png"
		},
		{
			"mimeType":"image/png",
			"name":"T_Trim_Props_BaseColor",
			"uri":"T_Trim_Props_BaseColor.png"
		},
		{
			"mimeType":"image/png",
			"name":"T_Trim_Props_ORM",
			"uri":"T_Trim_Props_ORM.png"
		}
	],
	"accessors":[
		{
			"bufferView":0,
			"componentType":5126,
			"count":24,
			"max":[
				0.11013861745595932,
				0.05583645775914192,
				0.03283260762691498
			],
			"min":[
				-0.10851049423217773,
				0.007096892222762108,
				-0.024271922186017036
			],
			"type":"VEC3"
		},
		{
			"bufferView":1,
			"componentType":5126,
			"count":24,
			"type":"VEC3"
		},
		{
			"bufferView":2,
			"componentType":5126,
			"count":24,
			"type":"VEC2"
		},
		{
			"bufferView":3,
			"componentType":5123,
			"count":36,
			"type":"SCALAR"
		},
		{
			"bufferView":4,
			"componentType":5123,
			"count":344,
			"normalized":true,
			"type":"VEC4"
		},
		{
			"bufferView":5,
			"componentType":5126,
			"count":344,
			"max":[
				0.12319763749837875,
				0.05978281795978546,
				0.037676237523555756
			],
			"min":[
				-0.12069449573755264,
				0.0012552384287118912,
				-0.025440212339162827
			],
			"type":"VEC3"
		},
		{
			"bufferView":6,
			"componentType":5126,
			"count":344,
			"type":"VEC3"
		},
		{
			"bufferView":7,
			"componentType":5126,
			"count":344,
			"type":"VEC2"
		},
		{
			"bufferView":8,
			"componentType":5123,
			"count":1308,
			"type":"SCALAR"
		},
		{
			"bufferView":9,
			"componentType":5123,
			"count":82,
			"normalized":true,
			"type":"VEC4"
		},
		{
			"bufferView":10,
			"componentType":5126,
			"count":82,
			"max":[
				0.01670416072010994,
				0.05059728026390076,
				0.02792986109852791
			],
			"min":[
				-0.01670416072010994,
				0.0009954404085874557,
				-0.021671976894140244
			],
			"type":"VEC3"
		},
		{
			"bufferView":11,
			"componentType":5126,
			"count":82,
			"type":"VEC3"
		},
		{
			"bufferView":12,
			"componentType":5126,
			"count":82,
			"type":"VEC2"
		},
		{
			"bufferView":13,
			"componentType":5123,
			"count":228,
			"type":"SCALAR"
		}
	],
	"bufferViews":[
		{
			"buffer":0,
			"byteLength":288,
			"byteOffset":0,
			"target":34962
		},
		{
			"buffer":0,
			"byteLength":288,
			"byteOffset":288,
			"target":34962
		},
		{
			"buffer":0,
			"byteLength":192,
			"byteOffset":576,
			"target":34962
		},
		{
			"buffer":0,
			"byteLength":72,
			"byteOffset":768,
			"target":34963
		},
		{
			"buffer":0,
			"byteLength":2752,
			"byteOffset":840,
			"target":34962
		},
		{
			"buffer":0,
			"byteLength":4128,
			"byteOffset":3592,
			"target":34962
		},
		{
			"buffer":0,
			"byteLength":4128,
			"byteOffset":7720,
			"target":34962
		},
		{
			"buffer":0,
			"byteLength":2752,
			"byteOffset":11848,
			"target":34962
		},
		{
			"buffer":0,
			"byteLength":2616,
			"byteOffset":14600,
			"target":34963
		},
		{
			"buffer":0,
			"byteLength":656,
			"byteOffset":17216,
			"target":34962
		},
		{
			"buffer":0,
			"byteLength":984,
			"byteOffset":17872,
			"target":34962
		},
		{
			"buffer":0,
			"byteLength":984,
			"byteOffset":18856,
			"target":34962
		},
		{
			"buffer":0,
			"byteLength":656,
			"byteOffset":19840,
			"target":34962
		},
		{
			"buffer":0,
			"byteLength":456,
			"byteOffset":20496,
			"target":34963
		}
	],
	"samplers":[
		{
			"magFilter":9729,
			"minFilter":9987
		}
	],
	"buffers":[
		{
			"byteLength":20952,
			"uri":"Scroll_1.bin"
		}
	]
}
