{
	"asset":{
		"generator":"Khronos glTF Blender I/O v4.0.44",
		"version":"2.0"
	},
	"scene":0,
	"scenes":[
		{
			"name":"Scene",
			"nodes":[
				1
			]
		}
	],
	"nodes":[
		{
			"mesh":0,
			"name":"Scroll_2_1-convcolonly"
		},
		{
			"children":[
				0
			],
			"mesh":1,
			"name":"Scroll_2"
		}
	],
	"materials":[
		{
			"doubleSided":true,
			"name":"Collision",
			"pbrMetallicRoughness":{
				"baseColorFactor":[
					0.047601714730262756,
					0.17601831257343292,
					0.8000785112380981,
					1
				],
				"metallicFactor":0,
				"roughnessFactor":0.5
			}
		},
		{
			"doubleSided":true,
			"name":"MI_Page_Empty",
			"pbrMetallicRoughness":{
				"baseColorTexture":{
					"index":0
				},
				"metallicFactor":0,
				"roughnessFactor":0.5
			}
		},
		{
			"doubleSided":true,
			"name":"MI_Trim_Props_Vertex",
			"normalTexture":{
				"index":1
			},
			"pbrMetallicRoughness":{
				"baseColorTexture":{
					"index":2
				},
				"metallicRoughnessTexture":{
					"index":3
				}
			}
		}
	],
	"meshes":[
		{
			"name":"Cube.177",
			"primitives":[
				{
					"attributes":{
						"POSITION":0,
						"NORMAL":1,
						"TEXCOORD_0":2
					},
					"indices":3,
					"material":0
				}
			]
		},
		{
			"name":"Cube.156",
			"primitives":[
				{
					"attributes":{
						"COLOR_0":4,
						"POSITION":5,
						"NORMAL":6,
						"TEXCOORD_0":7
					},
					"indices":8,
					"material":1
				},
				{
					"attributes":{
						"COLOR_0":9,
						"POSITION":10,
						"NORMAL":11,
						"TEXCOORD_0":12
					},
					"indices":13,
					"material":2
				}
			]
		}
	],
	"textures":[
		{
			"sampler":0,
			"source":0
		},
		{
			"sampler":0,
			"source":1
		},
		{
			"sampler":0,
			"source":2
		},
		{
			"sampler":0,
			"source":3
		}
	],
	"images":[
		{
			"mimeType":"image/png",
			"name":"T_Page_Noise",
			"uri":"T_Page_Noise.png"
		},
		{
			"mimeType":"image/png",
			"name":"T_Trim_Props_Normal",
			"uri":"T_Trim_Props_Normal.png"
		},
		{
			"mimeType":"image/png",
			"name":"T_Trim_Props_BaseColor",
			"uri":"T_Trim_Props_BaseColor.png"
		},
		{
			"mimeType":"image/png",
			"name":"T_Trim_Props_ORM",
			"uri":"T_Trim_Props_ORM.png"
		}
	],
	"accessors":[
		{
			"bufferView":0,
			"componentType":5126,
			"count":24,
			"max":[
				0.11013861745595932,
				0.05583645775914192,
				0.03283260762691498
			],
			"min":[
				-0.10851049423217773,
				0.007096892222762108,
				-0.024271922186017036
			],
			"type":"VEC3"
		},
		{
			"bufferView":1,
			"componentType":5126,
			"count":24,
			"type":"VEC3"
		},
		{
			"bufferView":2,
			"componentType":5126,
			"count":24,
			"type":"VEC2"
		},
		{
			"bufferView":3,
			"componentType":5123,
			"count":36,
			"type":"SCALAR"
		},
		{
			"bufferView":4,
			"componentType":5123,
			"count":341,
			"normalized":true,
			"type":"VEC4"
		},
		{
			"bufferView":5,
			"componentType":5126,
			"count":341,
			"max":[
				0.12022127211093903,
				0.059123024344444275,
				0.03823823481798172
			],
			"min":[
				-0.11272069811820984,
				0.0008520148694515228,
				-0.025440212339162827
			],
			"type":"VEC3"
		},
		{
			"bufferView":6,
			"componentType":5126,
			"count":341,
			"type":"VEC3"
		},
		{
			"bufferView":7,
			"componentType":5126,
			"count":341,
			"type":"VEC2"
		},
		{
			"bufferView":8,
			"componentType":5123,
			"count":1308,
			"type":"SCALAR"
		},
		{
			"bufferView":9,
			"componentType":5123,
			"count":268,
			"normalized":true,
			"type":"VEC4"
		},
		{
			"bufferView":10,
			"componentType":5126,
			"count":268,
			"max":[
				0.017295602709054947,
				0.051771700382232666,
				0.028807982802391052
			],
			"min":[
				-0.017295602709054947,
				0.00041361525654792786,
				-0.022550098598003387
			],
			"type":"VEC3"
		},
		{
			"bufferView":11,
			"componentType":5126,
			"count":268,
			"type":"VEC3"
		},
		{
			"bufferView":12,
			"componentType":5126,
			"count":268,
			"type":"VEC2"
		},
		{
			"bufferView":13,
			"componentType":5123,
			"count":708,
			"type":"SCALAR"
		}
	],
	"bufferViews":[
		{
			"buffer":0,
			"byteLength":288,
			"byteOffset":0,
			"target":34962
		},
		{
			"buffer":0,
			"byteLength":288,
			"byteOffset":288,
			"target":34962
		},
		{
			"buffer":0,
			"byteLength":192,
			"byteOffset":576,
			"target":34962
		},
		{
			"buffer":0,
			"byteLength":72,
			"byteOffset":768,
			"target":34963
		},
		{
			"buffer":0,
			"byteLength":2728,
			"byteOffset":840,
			"target":34962
		},
		{
			"buffer":0,
			"byteLength":4092,
			"byteOffset":3568,
			"target":34962
		},
		{
			"buffer":0,
			"byteLength":4092,
			"byteOffset":7660,
			"target":34962
		},
		{
			"buffer":0,
			"byteLength":2728,
			"byteOffset":11752,
			"target":34962
		},
		{
			"buffer":0,
			"byteLength":2616,
			"byteOffset":14480,
			"target":34963
		},
		{
			"buffer":0,
			"byteLength":2144,
			"byteOffset":17096,
			"target":34962
		},
		{
			"buffer":0,
			"byteLength":3216,
			"byteOffset":19240,
			"target":34962
		},
		{
			"buffer":0,
			"byteLength":3216,
			"byteOffset":22456,
			"target":34962
		},
		{
			"buffer":0,
			"byteLength":2144,
			"byteOffset":25672,
			"target":34962
		},
		{
			"buffer":0,
			"byteLength":1416,
			"byteOffset":27816,
			"target":34963
		}
	],
	"samplers":[
		{
			"magFilter":9729,
			"minFilter":9987
		}
	],
	"buffers":[
		{
			"byteLength":29232,
			"uri":"Scroll_2.bin"
		}
	]
}
