{
	"asset":{
		"generator":"Khronos glTF Blender I/O v4.0.44",
		"version":"2.0"
	},
	"scene":0,
	"scenes":[
		{
			"name":"Scene",
			"nodes":[
				1
			]
		}
	],
	"nodes":[
		{
			"mesh":0,
			"name":"Shelf_Small_1-convcolonly"
		},
		{
			"children":[
				0
			],
			"mesh":1,
			"name":"Shelf_Small"
		}
	],
	"materials":[
		{
			"doubleSided":true,
			"name":"Collision",
			"pbrMetallicRoughness":{
				"baseColorFactor":[
					0.047601714730262756,
					0.17601831257343292,
					0.8000785112380981,
					1
				],
				"metallicFactor":0,
				"roughnessFactor":0.5
			}
		},
		{
			"doubleSided":true,
			"name":"MI_Trim_Metal",
			"normalTexture":{
				"index":0
			},
			"pbrMetallicRoughness":{
				"baseColorTexture":{
					"index":1
				},
				"metallicRoughnessTexture":{
					"index":2
				}
			}
		},
		{
			"doubleSided":true,
			"name":"MI_Trim_Furniture",
			"normalTexture":{
				"index":3
			},
			"pbrMetallicRoughness":{
				"baseColorTexture":{
					"index":4
				},
				"metallicRoughnessTexture":{
					"index":5
				}
			}
		}
	],
	"meshes":[
		{
			"name":"Cube.041",
			"primitives":[
				{
					"attributes":{
						"POSITION":0,
						"NORMAL":1,
						"TEXCOORD_0":2
					},
					"indices":3,
					"material":0
				}
			]
		},
		{
			"name":"Cube.162",
			"primitives":[
				{
					"attributes":{
						"COLOR_0":4,
						"POSITION":5,
						"NORMAL":6,
						"TEXCOORD_0":7
					},
					"indices":8,
					"material":1
				},
				{
					"attributes":{
						"COLOR_0":9,
						"POSITION":10,
						"NORMAL":11,
						"TEXCOORD_0":12
					},
					"indices":13,
					"material":2
				}
			]
		}
	],
	"textures":[
		{
			"sampler":0,
			"source":0
		},
		{
			"sampler":0,
			"source":1
		},
		{
			"sampler":0,
			"source":2
		},
		{
			"sampler":0,
			"source":3
		},
		{
			"sampler":0,
			"source":4
		},
		{
			"sampler":0,
			"source":5
		}
	],
	"images":[
		{
			"mimeType":"image/png",
			"name":"T_Trim_Metal_Normal",
			"uri":"T_Trim_Metal_Normal.png"
		},
		{
			"mimeType":"image/png",
			"name":"T_Trim_Metal_BaseColor",
			"uri":"T_Trim_Metal_BaseColor.png"
		},
		{
			"mimeType":"image/png",
			"name":"T_Trim_Metal_ORM",
			"uri":"T_Trim_Metal_ORM.png"
		},
		{
			"mimeType":"image/png",
			"name":"T_Trim_Furniture_Normal",
			"uri":"T_Trim_Furniture_Normal.png"
		},
		{
			"mimeType":"image/png",
			"name":"T_Trim_Furniture_BaseColor",
			"uri":"T_Trim_Furniture_BaseColor.png"
		},
		{
			"mimeType":"image/png",
			"name":"T_Trim_Furniture_ORM",
			"uri":"T_Trim_Furniture_ORM.png"
		}
	],
	"accessors":[
		{
			"bufferView":0,
			"componentType":5126,
			"count":24,
			"max":[
				0.5642936825752258,
				0.6354349851608276,
				0.2825705111026764
			],
			"min":[
				-0.5642927885055542,
				-0.015768904238939285,
				0.024094760417938232
			],
			"type":"VEC3"
		},
		{
			"bufferView":1,
			"componentType":5126,
			"count":24,
			"type":"VEC3"
		},
		{
			"bufferView":2,
			"componentType":5126,
			"count":24,
			"type":"VEC2"
		},
		{
			"bufferView":3,
			"componentType":5123,
			"count":36,
			"type":"SCALAR"
		},
		{
			"bufferView":4,
			"componentType":5123,
			"count":688,
			"normalized":true,
			"type":"VEC4"
		},
		{
			"bufferView":5,
			"componentType":5126,
			"count":688,
			"max":[
				0.568484365940094,
				0.47293800115585327,
				0.2822330594062805
			],
			"min":[
				-0.5686498880386353,
				0.0399734228849411,
				0.02318727970123291
			],
			"type":"VEC3"
		},
		{
			"bufferView":6,
			"componentType":5126,
			"count":688,
			"type":"VEC3"
		},
		{
			"bufferView":7,
			"componentType":5126,
			"count":688,
			"type":"VEC2"
		},
		{
			"bufferView":8,
			"componentType":5123,
			"count":2160,
			"type":"SCALAR"
		},
		{
			"bufferView":9,
			"componentType":5123,
			"count":284,
			"normalized":true,
			"type":"VEC4"
		},
		{
			"bufferView":10,
			"componentType":5126,
			"count":284,
			"max":[
				0.5429956912994385,
				0.6282642483711243,
				0.2946760654449463
			],
			"min":[
				-0.5431612133979797,
				-0.019115358591079712,
				0.010097309947013855
			],
			"type":"VEC3"
		},
		{
			"bufferView":11,
			"componentType":5126,
			"count":284,
			"type":"VEC3"
		},
		{
			"bufferView":12,
			"componentType":5126,
			"count":284,
			"type":"VEC2"
		},
		{
			"bufferView":13,
			"componentType":5123,
			"count":618,
			"type":"SCALAR"
		}
	],
	"bufferViews":[
		{
			"buffer":0,
			"byteLength":288,
			"byteOffset":0,
			"target":34962
		},
		{
			"buffer":0,
			"byteLength":288,
			"byteOffset":288,
			"target":34962
		},
		{
			"buffer":0,
			"byteLength":192,
			"byteOffset":576,
			"target":34962
		},
		{
			"buffer":0,
			"byteLength":72,
			"byteOffset":768,
			"target":34963
		},
		{
			"buffer":0,
			"byteLength":5504,
			"byteOffset":840,
			"target":34962
		},
		{
			"buffer":0,
			"byteLength":8256,
			"byteOffset":6344,
			"target":34962
		},
		{
			"buffer":0,
			"byteLength":8256,
			"byteOffset":14600,
			"target":34962
		},
		{
			"buffer":0,
			"byteLength":5504,
			"byteOffset":22856,
			"target":34962
		},
		{
			"buffer":0,
			"byteLength":4320,
			"byteOffset":28360,
			"target":34963
		},
		{
			"buffer":0,
			"byteLength":2272,
			"byteOffset":32680,
			"target":34962
		},
		{
			"buffer":0,
			"byteLength":3408,
			"byteOffset":34952,
			"target":34962
		},
		{
			"buffer":0,
			"byteLength":3408,
			"byteOffset":38360,
			"target":34962
		},
		{
			"buffer":0,
			"byteLength":2272,
			"byteOffset":41768,
			"target":34962
		},
		{
			"buffer":0,
			"byteLength":1236,
			"byteOffset":44040,
			"target":34963
		}
	],
	"samplers":[
		{
			"magFilter":9729,
			"minFilter":9987
		}
	],
	"buffers":[
		{
			"byteLength":45276,
			"uri":"Shelf_Small.bin"
		}
	]
}
