{
	"asset":{
		"generator":"Khronos glTF Blender I/O v4.0.44",
		"version":"2.0"
	},
	"scene":0,
	"scenes":[
		{
			"name":"Scene",
			"nodes":[
				2
			]
		}
	],
	"nodes":[
		{
			"mesh":0,
			"name":"Shelf_Sword_1-convcolonly"
		},
		{
			"mesh":1,
			"name":"Shelf_Sword_2-convcolonly"
		},
		{
			"children":[
				0,
				1
			],
			"mesh":2,
			"name":"Shelf_Sword"
		}
	],
	"materials":[
		{
			"doubleSided":true,
			"name":"Collision",
			"pbrMetallicRoughness":{
				"baseColorFactor":[
					0.047601714730262756,
					0.17601831257343292,
					0.8000785112380981,
					1
				],
				"metallicFactor":0,
				"roughnessFactor":0.5
			}
		},
		{
			"doubleSided":true,
			"name":"MI_Trim_Furniture",
			"normalTexture":{
				"index":0
			},
			"pbrMetallicRoughness":{
				"baseColorTexture":{
					"index":1
				},
				"metallicRoughnessTexture":{
					"index":2
				}
			}
		}
	],
	"meshes":[
		{
			"name":"Cube.266",
			"primitives":[
				{
					"attributes":{
						"POSITION":0,
						"NORMAL":1,
						"TEXCOORD_0":2
					},
					"indices":3,
					"material":0
				}
			]
		},
		{
			"name":"Cube.285",
			"primitives":[
				{
					"attributes":{
						"POSITION":4,
						"NORMAL":5,
						"TEXCOORD_0":6
					},
					"indices":7,
					"material":0
				}
			]
		},
		{
			"name":"Cube.229",
			"primitives":[
				{
					"attributes":{
						"POSITION":8,
						"NORMAL":9,
						"TEXCOORD_0":10
					},
					"indices":11,
					"material":1
				}
			]
		}
	],
	"textures":[
		{
			"sampler":0,
			"source":0
		},
		{
			"sampler":0,
			"source":1
		},
		{
			"sampler":0,
			"source":2
		}
	],
	"images":[
		{
			"mimeType":"image/png",
			"name":"T_Trim_Furniture_Normal",
			"uri":"T_Trim_Furniture_Normal.png"
		},
		{
			"mimeType":"image/png",
			"name":"T_Trim_Furniture_BaseColor",
			"uri":"T_Trim_Furniture_BaseColor.png"
		},
		{
			"mimeType":"image/png",
			"name":"T_Trim_Furniture_ORM",
			"uri":"T_Trim_Furniture_ORM.png"
		}
	],
	"accessors":[
		{
			"bufferView":0,
			"componentType":5126,
			"count":34,
			"max":[
				-0.407150000333786,
				0.17302018404006958,
				0.18951520323753357
			],
			"min":[
				-0.47626155614852905,
				-0.09655112773180008,
				-0.0037563666701316833
			],
			"type":"VEC3"
		},
		{
			"bufferView":1,
			"componentType":5126,
			"count":34,
			"type":"VEC3"
		},
		{
			"bufferView":2,
			"componentType":5126,
			"count":34,
			"type":"VEC2"
		},
		{
			"bufferView":3,
			"componentType":5123,
			"count":60,
			"type":"SCALAR"
		},
		{
			"bufferView":4,
			"componentType":5126,
			"count":34,
			"max":[
				0.47626155614852905,
				0.17302018404006958,
				0.18951520323753357
			],
			"min":[
				0.407150000333786,
				-0.09655112773180008,
				-0.0037563666701316833
			],
			"type":"VEC3"
		},
		{
			"bufferView":5,
			"componentType":5126,
			"count":34,
			"type":"VEC3"
		},
		{
			"bufferView":6,
			"componentType":5126,
			"count":34,
			"type":"VEC2"
		},
		{
			"bufferView":7,
			"componentType":5123,
			"count":60,
			"type":"SCALAR"
		},
		{
			"bufferView":8,
			"componentType":5126,
			"count":408,
			"max":[
				0.47362661361694336,
				0.1736510992050171,
				0.19608764350414276
			],
			"min":[
				-0.4736272394657135,
				-0.09727457165718079,
				-0.009032368659973145
			],
			"type":"VEC3"
		},
		{
			"bufferView":9,
			"componentType":5126,
			"count":408,
			"type":"VEC3"
		},
		{
			"bufferView":10,
			"componentType":5126,
			"count":408,
			"type":"VEC2"
		},
		{
			"bufferView":11,
			"componentType":5123,
			"count":948,
			"type":"SCALAR"
		}
	],
	"bufferViews":[
		{
			"buffer":0,
			"byteLength":408,
			"byteOffset":0,
			"target":34962
		},
		{
			"buffer":0,
			"byteLength":408,
			"byteOffset":408,
			"target":34962
		},
		{
			"buffer":0,
			"byteLength":272,
			"byteOffset":816,
			"target":34962
		},
		{
			"buffer":0,
			"byteLength":120,
			"byteOffset":1088,
			"target":34963
		},
		{
			"buffer":0,
			"byteLength":408,
			"byteOffset":1208,
			"target":34962
		},
		{
			"buffer":0,
			"byteLength":408,
			"byteOffset":1616,
			"target":34962
		},
		{
			"buffer":0,
			"byteLength":272,
			"byteOffset":2024,
			"target":34962
		},
		{
			"buffer":0,
			"byteLength":120,
			"byteOffset":2296,
			"target":34963
		},
		{
			"buffer":0,
			"byteLength":4896,
			"byteOffset":2416,
			"target":34962
		},
		{
			"buffer":0,
			"byteLength":4896,
			"byteOffset":7312,
			"target":34962
		},
		{
			"buffer":0,
			"byteLength":3264,
			"byteOffset":12208,
			"target":34962
		},
		{
			"buffer":0,
			"byteLength":1896,
			"byteOffset":15472,
			"target":34963
		}
	],
	"samplers":[
		{
			"magFilter":9729,
			"minFilter":9987
		}
	],
	"buffers":[
		{
			"byteLength":17368,
			"uri":"Shelf_Sword.bin"
		}
	]
}
