{
	"asset":{
		"generator":"Khronos glTF Blender I/O v4.0.44",
		"version":"2.0"
	},
	"scene":0,
	"scenes":[
		{
			"name":"Scene",
			"nodes":[
				1
			]
		}
	],
	"nodes":[
		{
			"mesh":0,
			"name":"Shield_Metal_1-convcolonly"
		},
		{
			"children":[
				0
			],
			"mesh":1,
			"name":"Shield_Metal"
		}
	],
	"materials":[
		{
			"doubleSided":true,
			"name":"Collision",
			"pbrMetallicRoughness":{
				"baseColorFactor":[
					0.047601714730262756,
					0.17601831257343292,
					0.8000785112380981,
					1
				],
				"metallicFactor":0,
				"roughnessFactor":0.5
			}
		},
		{
			"doubleSided":true,
			"name":"MI_Trim_Metal_Vertex",
			"normalTexture":{
				"index":0
			},
			"pbrMetallicRoughness":{
				"baseColorTexture":{
					"index":1
				},
				"metallicRoughnessTexture":{
					"index":2
				}
			}
		},
		{
			"doubleSided":true,
			"name":"MI_Trim_Props",
			"normalTexture":{
				"index":3
			},
			"pbrMetallicRoughness":{
				"baseColorTexture":{
					"index":4
				},
				"metallicRoughnessTexture":{
					"index":5
				}
			}
		},
		{
			"doubleSided":true,
			"name":"MI_Trim_Furniture",
			"normalTexture":{
				"index":6
			},
			"pbrMetallicRoughness":{
				"baseColorTexture":{
					"index":7
				},
				"metallicRoughnessTexture":{
					"index":8
				}
			}
		}
	],
	"meshes":[
		{
			"name":"Cube.003",
			"primitives":[
				{
					"attributes":{
						"POSITION":0,
						"NORMAL":1,
						"TEXCOORD_0":2
					},
					"indices":3,
					"material":0
				}
			]
		},
		{
			"name":"Cube.195",
			"primitives":[
				{
					"attributes":{
						"COLOR_0":4,
						"POSITION":5,
						"NORMAL":6,
						"TEXCOORD_0":7
					},
					"indices":8,
					"material":1
				},
				{
					"attributes":{
						"COLOR_0":9,
						"POSITION":10,
						"NORMAL":11,
						"TEXCOORD_0":12
					},
					"indices":13,
					"material":2
				},
				{
					"attributes":{
						"COLOR_0":14,
						"POSITION":15,
						"NORMAL":16,
						"TEXCOORD_0":17
					},
					"indices":18,
					"material":3
				}
			]
		}
	],
	"textures":[
		{
			"sampler":0,
			"source":0
		},
		{
			"sampler":0,
			"source":1
		},
		{
			"sampler":0,
			"source":2
		},
		{
			"sampler":0,
			"source":3
		},
		{
			"sampler":0,
			"source":4
		},
		{
			"sampler":0,
			"source":5
		},
		{
			"sampler":0,
			"source":6
		},
		{
			"sampler":0,
			"source":7
		},
		{
			"sampler":0,
			"source":8
		}
	],
	"images":[
		{
			"mimeType":"image/png",
			"name":"T_Trim_Metal_Normal",
			"uri":"T_Trim_Metal_Normal.png"
		},
		{
			"mimeType":"image/png",
			"name":"T_Trim_Metal_BaseColor",
			"uri":"T_Trim_Metal_BaseColor.png"
		},
		{
			"mimeType":"image/png",
			"name":"T_Trim_Metal_ORM",
			"uri":"T_Trim_Metal_ORM.png"
		},
		{
			"mimeType":"image/png",
			"name":"T_Trim_Props_Normal",
			"uri":"T_Trim_Props_Normal.png"
		},
		{
			"mimeType":"image/png",
			"name":"T_Trim_Props_BaseColor",
			"uri":"T_Trim_Props_BaseColor.png"
		},
		{
			"mimeType":"image/png",
			"name":"T_Trim_Props_ORM",
			"uri":"T_Trim_Props_ORM.png"
		},
		{
			"mimeType":"image/png",
			"name":"T_Trim_Furniture_Normal",
			"uri":"T_Trim_Furniture_Normal.png"
		},
		{
			"mimeType":"image/png",
			"name":"T_Trim_Furniture_BaseColor",
			"uri":"T_Trim_Furniture_BaseColor.png"
		},
		{
			"mimeType":"image/png",
			"name":"T_Trim_Furniture_ORM",
			"uri":"T_Trim_Furniture_ORM.png"
		}
	],
	"accessors":[
		{
			"bufferView":0,
			"componentType":5126,
			"count":100,
			"max":[
				0.31503477692604065,
				0.2946147918701172,
				0.15791729092597961
			],
			"min":[
				-0.31503477692604065,
				-0.2946147918701172,
				0.015189969912171364
			],
			"type":"VEC3"
		},
		{
			"bufferView":1,
			"componentType":5126,
			"count":100,
			"type":"VEC3"
		},
		{
			"bufferView":2,
			"componentType":5126,
			"count":100,
			"type":"VEC2"
		},
		{
			"bufferView":3,
			"componentType":5123,
			"count":168,
			"type":"SCALAR"
		},
		{
			"bufferView":4,
			"componentType":5123,
			"count":1043,
			"normalized":true,
			"type":"VEC4"
		},
		{
			"bufferView":5,
			"componentType":5126,
			"count":1043,
			"max":[
				0.30728819966316223,
				0.3104481101036072,
				0.17805080115795135
			],
			"min":[
				-0.30728819966316223,
				-0.3104481101036072,
				0.018366262316703796
			],
			"type":"VEC3"
		},
		{
			"bufferView":6,
			"componentType":5126,
			"count":1043,
			"type":"VEC3"
		},
		{
			"bufferView":7,
			"componentType":5126,
			"count":1043,
			"type":"VEC2"
		},
		{
			"bufferView":8,
			"componentType":5123,
			"count":2916,
			"type":"SCALAR"
		},
		{
			"bufferView":9,
			"componentType":5123,
			"count":148,
			"normalized":true,
			"type":"VEC4"
		},
		{
			"bufferView":10,
			"componentType":5126,
			"count":148,
			"max":[
				0.018362004309892654,
				0.15646028518676758,
				0.04415608197450638
			],
			"min":[
				-0.018362004309892654,
				-0.15646028518676758,
				-0.0007735927356407046
			],
			"type":"VEC3"
		},
		{
			"bufferView":11,
			"componentType":5126,
			"count":148,
			"type":"VEC3"
		},
		{
			"bufferView":12,
			"componentType":5126,
			"count":148,
			"type":"VEC2"
		},
		{
			"bufferView":13,
			"componentType":5123,
			"count":420,
			"type":"SCALAR"
		},
		{
			"bufferView":14,
			"componentType":5123,
			"count":180,
			"normalized":true,
			"type":"VEC4"
		},
		{
			"bufferView":15,
			"componentType":5126,
			"count":180,
			"max":[
				0.2710861563682556,
				0.2733711302280426,
				0.04954192414879799
			],
			"min":[
				-0.27280959486961365,
				-0.27186161279678345,
				0.02749248780310154
			],
			"type":"VEC3"
		},
		{
			"bufferView":16,
			"componentType":5126,
			"count":180,
			"type":"VEC3"
		},
		{
			"bufferView":17,
			"componentType":5126,
			"count":180,
			"type":"VEC2"
		},
		{
			"bufferView":18,
			"componentType":5123,
			"count":720,
			"type":"SCALAR"
		}
	],
	"bufferViews":[
		{
			"buffer":0,
			"byteLength":1200,
			"byteOffset":0,
			"target":34962
		},
		{
			"buffer":0,
			"byteLength":1200,
			"byteOffset":1200,
			"target":34962
		},
		{
			"buffer":0,
			"byteLength":800,
			"byteOffset":2400,
			"target":34962
		},
		{
			"buffer":0,
			"byteLength":336,
			"byteOffset":3200,
			"target":34963
		},
		{
			"buffer":0,
			"byteLength":8344,
			"byteOffset":3536,
			"target":34962
		},
		{
			"buffer":0,
			"byteLength":12516,
			"byteOffset":11880,
			"target":34962
		},
		{
			"buffer":0,
			"byteLength":12516,
			"byteOffset":24396,
			"target":34962
		},
		{
			"buffer":0,
			"byteLength":8344,
			"byteOffset":36912,
			"target":34962
		},
		{
			"buffer":0,
			"byteLength":5832,
			"byteOffset":45256,
			"target":34963
		},
		{
			"buffer":0,
			"byteLength":1184,
			"byteOffset":51088,
			"target":34962
		},
		{
			"buffer":0,
			"byteLength":1776,
			"byteOffset":52272,
			"target":34962
		},
		{
			"buffer":0,
			"byteLength":1776,
			"byteOffset":54048,
			"target":34962
		},
		{
			"buffer":0,
			"byteLength":1184,
			"byteOffset":55824,
			"target":34962
		},
		{
			"buffer":0,
			"byteLength":840,
			"byteOffset":57008,
			"target":34963
		},
		{
			"buffer":0,
			"byteLength":1440,
			"byteOffset":57848,
			"target":34962
		},
		{
			"buffer":0,
			"byteLength":2160,
			"byteOffset":59288,
			"target":34962
		},
		{
			"buffer":0,
			"byteLength":2160,
			"byteOffset":61448,
			"target":34962
		},
		{
			"buffer":0,
			"byteLength":1440,
			"byteOffset":63608,
			"target":34962
		},
		{
			"buffer":0,
			"byteLength":1440,
			"byteOffset":65048,
			"target":34963
		}
	],
	"samplers":[
		{
			"magFilter":9729,
			"minFilter":9987
		}
	],
	"buffers":[
		{
			"byteLength":66488,
			"uri":"Shield_Metal.bin"
		}
	]
}
