{
	"asset":{
		"generator":"Khronos glTF Blender I/O v4.0.44",
		"version":"2.0"
	},
	"scene":0,
	"scenes":[
		{
			"name":"Scene",
			"nodes":[
				0
			]
		}
	],
	"nodes":[
		{
			"mesh":0,
			"name":"SmallBottles_2"
		}
	],
	"materials":[
		{
			"doubleSided":true,
			"name":"MI_Trim_Props_Vertex",
			"normalTexture":{
				"index":0
			},
			"pbrMetallicRoughness":{
				"baseColorTexture":{
					"index":1
				},
				"metallicRoughnessTexture":{
					"index":2
				}
			}
		}
	],
	"meshes":[
		{
			"name":"Cube.157",
			"primitives":[
				{
					"attributes":{
						"COLOR_0":0,
						"POSITION":1,
						"NORMAL":2,
						"TEXCOORD_0":3
					},
					"indices":4,
					"material":0
				}
			]
		}
	],
	"textures":[
		{
			"sampler":0,
			"source":0
		},
		{
			"sampler":0,
			"source":1
		},
		{
			"sampler":0,
			"source":2
		}
	],
	"images":[
		{
			"mimeType":"image/png",
			"name":"T_Trim_Props_Normal",
			"uri":"T_Trim_Props_Normal.png"
		},
		{
			"mimeType":"image/png",
			"name":"T_Trim_Props_BaseColor",
			"uri":"T_Trim_Props_BaseColor.png"
		},
		{
			"mimeType":"image/png",
			"name":"T_Trim_Props_ORM",
			"uri":"T_Trim_Props_ORM.png"
		}
	],
	"accessors":[
		{
			"bufferView":0,
			"componentType":5123,
			"count":846,
			"normalized":true,
			"type":"VEC4"
		},
		{
			"bufferView":1,
			"componentType":5126,
			"count":846,
			"max":[
				0.22669494152069092,
				0.14179514348506927,
				0.03064601868391037
			],
			"min":[
				-0.18320731818675995,
				7.504344102926552e-05,
				-0.03189421817660332
			],
			"type":"VEC3"
		},
		{
			"bufferView":2,
			"componentType":5126,
			"count":846,
			"type":"VEC3"
		},
		{
			"bufferView":3,
			"componentType":5126,
			"count":846,
			"type":"VEC2"
		},
		{
			"bufferView":4,
			"componentType":5123,
			"count":2772,
			"type":"SCALAR"
		}
	],
	"bufferViews":[
		{
			"buffer":0,
			"byteLength":6768,
			"byteOffset":0,
			"target":34962
		},
		{
			"buffer":0,
			"byteLength":10152,
			"byteOffset":6768,
			"target":34962
		},
		{
			"buffer":0,
			"byteLength":10152,
			"byteOffset":16920,
			"target":34962
		},
		{
			"buffer":0,
			"byteLength":6768,
			"byteOffset":27072,
			"target":34962
		},
		{
			"buffer":0,
			"byteLength":5544,
			"byteOffset":33840,
			"target":34963
		}
	],
	"samplers":[
		{
			"magFilter":9729,
			"minFilter":9987
		}
	],
	"buffers":[
		{
			"byteLength":39384,
			"uri":"SmallBottles_2.bin"
		}
	]
}
