{
	"asset":{
		"generator":"Khronos glTF Blender I/O v4.0.44",
		"version":"2.0"
	},
	"scene":0,
	"scenes":[
		{
			"name":"Scene",
			"nodes":[
				10
			]
		}
	],
	"nodes":[
		{
			"mesh":0,
			"name":"Stall_Empty_01-convcolonly"
		},
		{
			"mesh":1,
			"name":"Stall_Empty_02-convcolonly"
		},
		{
			"mesh":2,
			"name":"Stall_Empty_03-convcolonly"
		},
		{
			"mesh":3,
			"name":"Stall_Empty_04-convcolonly"
		},
		{
			"mesh":4,
			"name":"Stall_Empty_05-convcolonly"
		},
		{
			"mesh":5,
			"name":"Stall_Empty_06-convcolonly"
		},
		{
			"mesh":6,
			"name":"Stall_Empty_07-convcolonly"
		},
		{
			"mesh":7,
			"name":"Stall_Empty_08-convcolonly"
		},
		{
			"mesh":8,
			"name":"Stall_Empty_09-convcolonly"
		},
		{
			"mesh":9,
			"name":"Stall_Empty_10-convcolonly"
		},
		{
			"children":[
				0,
				1,
				2,
				3,
				4,
				5,
				6,
				7,
				8,
				9
			],
			"mesh":10,
			"name":"Stall_Empty"
		}
	],
	"materials":[
		{
			"doubleSided":true,
			"name":"Collision",
			"pbrMetallicRoughness":{
				"baseColorFactor":[
					0.047601714730262756,
					0.17601831257343292,
					0.8000785112380981,
					1
				],
				"metallicFactor":0,
				"roughnessFactor":0.5
			}
		},
		{
			"doubleSided":true,
			"name":"MI_Trim_Metal",
			"normalTexture":{
				"index":0
			},
			"pbrMetallicRoughness":{
				"baseColorTexture":{
					"index":1
				},
				"metallicRoughnessTexture":{
					"index":2
				}
			}
		},
		{
			"doubleSided":true,
			"name":"MI_Trim_Furniture",
			"normalTexture":{
				"index":3
			},
			"pbrMetallicRoughness":{
				"baseColorTexture":{
					"index":4
				},
				"metallicRoughnessTexture":{
					"index":5
				}
			}
		},
		{
			"doubleSided":true,
			"name":"MI_Banner",
			"normalTexture":{
				"index":6
			},
			"pbrMetallicRoughness":{
				"baseColorTexture":{
					"index":7
				},
				"metallicRoughnessTexture":{
					"index":8
				}
			}
		}
	],
	"meshes":[
		{
			"name":"Cube.375",
			"primitives":[
				{
					"attributes":{
						"POSITION":0,
						"NORMAL":1,
						"TEXCOORD_0":2
					},
					"indices":3,
					"material":0
				}
			]
		},
		{
			"name":"Cube.377",
			"primitives":[
				{
					"attributes":{
						"POSITION":4,
						"NORMAL":5,
						"TEXCOORD_0":6
					},
					"indices":7,
					"material":0
				}
			]
		},
		{
			"name":"Cube.378",
			"primitives":[
				{
					"attributes":{
						"POSITION":8,
						"NORMAL":9,
						"TEXCOORD_0":10
					},
					"indices":11,
					"material":0
				}
			]
		},
		{
			"name":"Cube.379",
			"primitives":[
				{
					"attributes":{
						"POSITION":12,
						"NORMAL":13,
						"TEXCOORD_0":14
					},
					"indices":15,
					"material":0
				}
			]
		},
		{
			"name":"Cube.380",
			"primitives":[
				{
					"attributes":{
						"POSITION":16,
						"NORMAL":17,
						"TEXCOORD_0":18
					},
					"indices":19,
					"material":0
				}
			]
		},
		{
			"name":"Cube.381",
			"primitives":[
				{
					"attributes":{
						"POSITION":20,
						"NORMAL":21,
						"TEXCOORD_0":22
					},
					"indices":23,
					"material":0
				}
			]
		},
		{
			"name":"Cube.382",
			"primitives":[
				{
					"attributes":{
						"POSITION":24,
						"NORMAL":25,
						"TEXCOORD_0":26
					},
					"indices":27,
					"material":0
				}
			]
		},
		{
			"name":"Cube.383",
			"primitives":[
				{
					"attributes":{
						"POSITION":28,
						"NORMAL":29,
						"TEXCOORD_0":30
					},
					"indices":31,
					"material":0
				}
			]
		},
		{
			"name":"Cube.534",
			"primitives":[
				{
					"attributes":{
						"POSITION":32,
						"NORMAL":33,
						"TEXCOORD_0":34
					},
					"indices":35,
					"material":0
				}
			]
		},
		{
			"name":"Cube.535",
			"primitives":[
				{
					"attributes":{
						"POSITION":36,
						"NORMAL":37,
						"TEXCOORD_0":38
					},
					"indices":39,
					"material":0
				}
			]
		},
		{
			"name":"Cube.212",
			"primitives":[
				{
					"attributes":{
						"COLOR_0":40,
						"POSITION":41,
						"NORMAL":42,
						"TEXCOORD_0":43,
						"TEXCOORD_1":44
					},
					"indices":45,
					"material":1
				},
				{
					"attributes":{
						"COLOR_0":46,
						"POSITION":47,
						"NORMAL":48,
						"TEXCOORD_0":49,
						"TEXCOORD_1":50
					},
					"indices":51,
					"material":2
				},
				{
					"attributes":{
						"COLOR_0":52,
						"POSITION":53,
						"NORMAL":54,
						"TEXCOORD_0":55,
						"TEXCOORD_1":56
					},
					"indices":57,
					"material":3
				}
			]
		}
	],
	"textures":[
		{
			"sampler":0,
			"source":0
		},
		{
			"sampler":0,
			"source":1
		},
		{
			"sampler":0,
			"source":2
		},
		{
			"sampler":0,
			"source":3
		},
		{
			"sampler":0,
			"source":4
		},
		{
			"sampler":0,
			"source":5
		},
		{
			"sampler":0,
			"source":6
		},
		{
			"sampler":0,
			"source":7
		},
		{
			"sampler":0,
			"source":8
		}
	],
	"images":[
		{
			"mimeType":"image/png",
			"name":"T_Trim_Metal_Normal",
			"uri":"T_Trim_Metal_Normal.png"
		},
		{
			"mimeType":"image/png",
			"name":"T_Trim_Metal_BaseColor",
			"uri":"T_Trim_Metal_BaseColor.png"
		},
		{
			"mimeType":"image/png",
			"name":"T_Trim_Metal_ORM",
			"uri":"T_Trim_Metal_ORM.png"
		},
		{
			"mimeType":"image/png",
			"name":"T_Trim_Furniture_Normal",
			"uri":"T_Trim_Furniture_Normal.png"
		},
		{
			"mimeType":"image/png",
			"name":"T_Trim_Furniture_BaseColor",
			"uri":"T_Trim_Furniture_BaseColor.png"
		},
		{
			"mimeType":"image/png",
			"name":"T_Trim_Furniture_ORM",
			"uri":"T_Trim_Furniture_ORM.png"
		},
		{
			"mimeType":"image/png",
			"name":"T_Trim_Cloth_Normal",
			"uri":"T_Trim_Cloth_Normal.png"
		},
		{
			"mimeType":"image/png",
			"name":"T_Trim_Cloth_BaseColor",
			"uri":"T_Trim_Cloth_BaseColor.png"
		},
		{
			"mimeType":"image/png",
			"name":"T_Trim_Cloth_ORM",
			"uri":"T_Trim_Cloth_ORM.png"
		}
	],
	"accessors":[
		{
			"bufferView":0,
			"componentType":5126,
			"count":24,
			"max":[
				0.8991330862045288,
				0.8372561931610107,
				0.4176519811153412
			],
			"min":[
				-0.8991294503211975,
				0.0053132981993258,
				-0.4050772488117218
			],
			"type":"VEC3"
		},
		{
			"bufferView":1,
			"componentType":5126,
			"count":24,
			"type":"VEC3"
		},
		{
			"bufferView":2,
			"componentType":5126,
			"count":24,
			"type":"VEC2"
		},
		{
			"bufferView":3,
			"componentType":5123,
			"count":36,
			"type":"SCALAR"
		},
		{
			"bufferView":4,
			"componentType":5126,
			"count":24,
			"max":[
				0.9104820489883423,
				2.6237003803253174,
				0.43176373839378357
			],
			"min":[
				0.4175245463848114,
				2.21240234375,
				-0.3827545940876007
			],
			"type":"VEC3"
		},
		{
			"bufferView":5,
			"componentType":5126,
			"count":24,
			"type":"VEC3"
		},
		{
			"bufferView":6,
			"componentType":5126,
			"count":24,
			"type":"VEC2"
		},
		{
			"bufferView":7,
			"componentType":5123,
			"count":36,
			"type":"SCALAR"
		},
		{
			"bufferView":8,
			"componentType":5126,
			"count":24,
			"max":[
				0.4175245463848114,
				2.579582691192627,
				0.43176373839378357
			],
			"min":[
				-0.4175208806991577,
				2.21240234375,
				-0.3827545940876007
			],
			"type":"VEC3"
		},
		{
			"bufferView":9,
			"componentType":5126,
			"count":24,
			"type":"VEC3"
		},
		{
			"bufferView":10,
			"componentType":5126,
			"count":24,
			"type":"VEC2"
		},
		{
			"bufferView":11,
			"componentType":5123,
			"count":36,
			"type":"SCALAR"
		},
		{
			"bufferView":12,
			"componentType":5126,
			"count":24,
			"max":[
				-0.4175208806991577,
				2.6237003803253174,
				0.43176373839378357
			],
			"min":[
				-0.9104783535003662,
				2.21240234375,
				-0.3827545940876007
			],
			"type":"VEC3"
		},
		{
			"bufferView":13,
			"componentType":5126,
			"count":24,
			"type":"VEC3"
		},
		{
			"bufferView":14,
			"componentType":5126,
			"count":24,
			"type":"VEC2"
		},
		{
			"bufferView":15,
			"componentType":5123,
			"count":36,
			"type":"SCALAR"
		},
		{
			"bufferView":16,
			"componentType":5126,
			"count":24,
			"max":[
				-0.8481668829917908,
				2.5585877895355225,
				0.4085078239440918
			],
			"min":[
				-0.8991294503211975,
				0.7820984721183777,
				0.3128209114074707
			],
			"type":"VEC3"
		},
		{
			"bufferView":17,
			"componentType":5126,
			"count":24,
			"type":"VEC3"
		},
		{
			"bufferView":18,
			"componentType":5126,
			"count":24,
			"type":"VEC2"
		},
		{
			"bufferView":19,
			"componentType":5123,
			"count":36,
			"type":"SCALAR"
		},
		{
			"bufferView":20,
			"componentType":5126,
			"count":24,
			"max":[
				0.8991294503211975,
				2.5585877895355225,
				0.4085078239440918
			],
			"min":[
				0.8481668829917908,
				0.7820984721183777,
				0.3128209114074707
			],
			"type":"VEC3"
		},
		{
			"bufferView":21,
			"componentType":5126,
			"count":24,
			"type":"VEC3"
		},
		{
			"bufferView":22,
			"componentType":5126,
			"count":24,
			"type":"VEC2"
		},
		{
			"bufferView":23,
			"componentType":5123,
			"count":36,
			"type":"SCALAR"
		},
		{
			"bufferView":24,
			"componentType":5126,
			"count":24,
			"max":[
				-0.8481668829917908,
				2.34818172454834,
				-0.3128209114074707
			],
			"min":[
				-0.8991294503211975,
				0.7820984721183777,
				-0.4085078239440918
			],
			"type":"VEC3"
		},
		{
			"bufferView":25,
			"componentType":5126,
			"count":24,
			"type":"VEC3"
		},
		{
			"bufferView":26,
			"componentType":5126,
			"count":24,
			"type":"VEC2"
		},
		{
			"bufferView":27,
			"componentType":5123,
			"count":36,
			"type":"SCALAR"
		},
		{
			"bufferView":28,
			"componentType":5126,
			"count":24,
			"max":[
				0.8991294503211975,
				2.34818172454834,
				-0.3128209114074707
			],
			"min":[
				0.8481668829917908,
				0.7820984721183777,
				-0.4085078239440918
			],
			"type":"VEC3"
		},
		{
			"bufferView":29,
			"componentType":5126,
			"count":24,
			"type":"VEC3"
		},
		{
			"bufferView":30,
			"componentType":5126,
			"count":24,
			"type":"VEC2"
		},
		{
			"bufferView":31,
			"componentType":5123,
			"count":36,
			"type":"SCALAR"
		},
		{
			"bufferView":32,
			"componentType":5126,
			"count":24,
			"max":[
				-0.7369822859764099,
				2.2968883514404297,
				-0.3708285987377167
			],
			"min":[
				-0.8592547178268433,
				0.7820984721183777,
				-0.41322246193885803
			],
			"type":"VEC3"
		},
		{
			"bufferView":33,
			"componentType":5126,
			"count":24,
			"type":"VEC3"
		},
		{
			"bufferView":34,
			"componentType":5126,
			"count":24,
			"type":"VEC2"
		},
		{
			"bufferView":35,
			"componentType":5123,
			"count":36,
			"type":"SCALAR"
		},
		{
			"bufferView":36,
			"componentType":5126,
			"count":24,
			"max":[
				0.8592547178268433,
				2.2968883514404297,
				-0.3708285987377167
			],
			"min":[
				0.7369822859764099,
				0.7820984721183777,
				-0.41322246193885803
			],
			"type":"VEC3"
		},
		{
			"bufferView":37,
			"componentType":5126,
			"count":24,
			"type":"VEC3"
		},
		{
			"bufferView":38,
			"componentType":5126,
			"count":24,
			"type":"VEC2"
		},
		{
			"bufferView":39,
			"componentType":5123,
			"count":36,
			"type":"SCALAR"
		},
		{
			"bufferView":40,
			"componentType":5123,
			"count":536,
			"normalized":true,
			"type":"VEC4"
		},
		{
			"bufferView":41,
			"componentType":5126,
			"count":536,
			"max":[
				0.9224295020103455,
				0.8559355139732361,
				0.4060481786727905
			],
			"min":[
				-0.9224295020103455,
				0.2437753826379776,
				-0.41325682401657104
			],
			"type":"VEC3"
		},
		{
			"bufferView":42,
			"componentType":5126,
			"count":536,
			"type":"VEC3"
		},
		{
			"bufferView":43,
			"componentType":5126,
			"count":536,
			"type":"VEC2"
		},
		{
			"bufferView":44,
			"componentType":5126,
			"count":536,
			"type":"VEC2"
		},
		{
			"bufferView":45,
			"componentType":5123,
			"count":1632,
			"type":"SCALAR"
		},
		{
			"bufferView":46,
			"componentType":5123,
			"count":576,
			"normalized":true,
			"type":"VEC4"
		},
		{
			"bufferView":47,
			"componentType":5126,
			"count":576,
			"max":[
				0.9138581156730652,
				2.572237730026245,
				0.4367961883544922
			],
			"min":[
				-0.9138581156730652,
				-0.0048178937286138535,
				-0.4360024333000183
			],
			"type":"VEC3"
		},
		{
			"bufferView":48,
			"componentType":5126,
			"count":576,
			"type":"VEC3"
		},
		{
			"bufferView":49,
			"componentType":5126,
			"count":576,
			"type":"VEC2"
		},
		{
			"bufferView":50,
			"componentType":5126,
			"count":576,
			"type":"VEC2"
		},
		{
			"bufferView":51,
			"componentType":5123,
			"count":924,
			"type":"SCALAR"
		},
		{
			"bufferView":52,
			"componentType":5123,
			"count":538,
			"normalized":true,
			"type":"VEC4"
		},
		{
			"bufferView":53,
			"componentType":5126,
			"count":538,
			"max":[
				0.9121408462524414,
				2.6223647594451904,
				0.47154372930526733
			],
			"min":[
				-0.9121408462524414,
				0.975335419178009,
				-0.4607115387916565
			],
			"type":"VEC3"
		},
		{
			"bufferView":54,
			"componentType":5126,
			"count":538,
			"type":"VEC3"
		},
		{
			"bufferView":55,
			"componentType":5126,
			"count":538,
			"type":"VEC2"
		},
		{
			"bufferView":56,
			"componentType":5126,
			"count":538,
			"type":"VEC2"
		},
		{
			"bufferView":57,
			"componentType":5123,
			"count":1932,
			"type":"SCALAR"
		}
	],
	"bufferViews":[
		{
			"buffer":0,
			"byteLength":288,
			"byteOffset":0,
			"target":34962
		},
		{
			"buffer":0,
			"byteLength":288,
			"byteOffset":288,
			"target":34962
		},
		{
			"buffer":0,
			"byteLength":192,
			"byteOffset":576,
			"target":34962
		},
		{
			"buffer":0,
			"byteLength":72,
			"byteOffset":768,
			"target":34963
		},
		{
			"buffer":0,
			"byteLength":288,
			"byteOffset":840,
			"target":34962
		},
		{
			"buffer":0,
			"byteLength":288,
			"byteOffset":1128,
			"target":34962
		},
		{
			"buffer":0,
			"byteLength":192,
			"byteOffset":1416,
			"target":34962
		},
		{
			"buffer":0,
			"byteLength":72,
			"byteOffset":1608,
			"target":34963
		},
		{
			"buffer":0,
			"byteLength":288,
			"byteOffset":1680,
			"target":34962
		},
		{
			"buffer":0,
			"byteLength":288,
			"byteOffset":1968,
			"target":34962
		},
		{
			"buffer":0,
			"byteLength":192,
			"byteOffset":2256,
			"target":34962
		},
		{
			"buffer":0,
			"byteLength":72,
			"byteOffset":2448,
			"target":34963
		},
		{
			"buffer":0,
			"byteLength":288,
			"byteOffset":2520,
			"target":34962
		},
		{
			"buffer":0,
			"byteLength":288,
			"byteOffset":2808,
			"target":34962
		},
		{
			"buffer":0,
			"byteLength":192,
			"byteOffset":3096,
			"target":34962
		},
		{
			"buffer":0,
			"byteLength":72,
			"byteOffset":3288,
			"target":34963
		},
		{
			"buffer":0,
			"byteLength":288,
			"byteOffset":3360,
			"target":34962
		},
		{
			"buffer":0,
			"byteLength":288,
			"byteOffset":3648,
			"target":34962
		},
		{
			"buffer":0,
			"byteLength":192,
			"byteOffset":3936,
			"target":34962
		},
		{
			"buffer":0,
			"byteLength":72,
			"byteOffset":4128,
			"target":34963
		},
		{
			"buffer":0,
			"byteLength":288,
			"byteOffset":4200,
			"target":34962
		},
		{
			"buffer":0,
			"byteLength":288,
			"byteOffset":4488,
			"target":34962
		},
		{
			"buffer":0,
			"byteLength":192,
			"byteOffset":4776,
			"target":34962
		},
		{
			"buffer":0,
			"byteLength":72,
			"byteOffset":4968,
			"target":34963
		},
		{
			"buffer":0,
			"byteLength":288,
			"byteOffset":5040,
			"target":34962
		},
		{
			"buffer":0,
			"byteLength":288,
			"byteOffset":5328,
			"target":34962
		},
		{
			"buffer":0,
			"byteLength":192,
			"byteOffset":5616,
			"target":34962
		},
		{
			"buffer":0,
			"byteLength":72,
			"byteOffset":5808,
			"target":34963
		},
		{
			"buffer":0,
			"byteLength":288,
			"byteOffset":5880,
			"target":34962
		},
		{
			"buffer":0,
			"byteLength":288,
			"byteOffset":6168,
			"target":34962
		},
		{
			"buffer":0,
			"byteLength":192,
			"byteOffset":6456,
			"target":34962
		},
		{
			"buffer":0,
			"byteLength":72,
			"byteOffset":6648,
			"target":34963
		},
		{
			"buffer":0,
			"byteLength":288,
			"byteOffset":6720,
			"target":34962
		},
		{
			"buffer":0,
			"byteLength":288,
			"byteOffset":7008,
			"target":34962
		},
		{
			"buffer":0,
			"byteLength":192,
			"byteOffset":7296,
			"target":34962
		},
		{
			"buffer":0,
			"byteLength":72,
			"byteOffset":7488,
			"target":34963
		},
		{
			"buffer":0,
			"byteLength":288,
			"byteOffset":7560,
			"target":34962
		},
		{
			"buffer":0,
			"byteLength":288,
			"byteOffset":7848,
			"target":34962
		},
		{
			"buffer":0,
			"byteLength":192,
			"byteOffset":8136,
			"target":34962
		},
		{
			"buffer":0,
			"byteLength":72,
			"byteOffset":8328,
			"target":34963
		},
		{
			"buffer":0,
			"byteLength":4288,
			"byteOffset":8400,
			"target":34962
		},
		{
			"buffer":0,
			"byteLength":6432,
			"byteOffset":12688,
			"target":34962
		},
		{
			"buffer":0,
			"byteLength":6432,
			"byteOffset":19120,
			"target":34962
		},
		{
			"buffer":0,
			"byteLength":4288,
			"byteOffset":25552,
			"target":34962
		},
		{
			"buffer":0,
			"byteLength":4288,
			"byteOffset":29840,
			"target":34962
		},
		{
			"buffer":0,
			"byteLength":3264,
			"byteOffset":34128,
			"target":34963
		},
		{
			"buffer":0,
			"byteLength":4608,
			"byteOffset":37392,
			"target":34962
		},
		{
			"buffer":0,
			"byteLength":6912,
			"byteOffset":42000,
			"target":34962
		},
		{
			"buffer":0,
			"byteLength":6912,
			"byteOffset":48912,
			"target":34962
		},
		{
			"buffer":0,
			"byteLength":4608,
			"byteOffset":55824,
			"target":34962
		},
		{
			"buffer":0,
			"byteLength":4608,
			"byteOffset":60432,
			"target":34962
		},
		{
			"buffer":0,
			"byteLength":1848,
			"byteOffset":65040,
			"target":34963
		},
		{
			"buffer":0,
			"byteLength":4304,
			"byteOffset":66888,
			"target":34962
		},
		{
			"buffer":0,
			"byteLength":6456,
			"byteOffset":71192,
			"target":34962
		},
		{
			"buffer":0,
			"byteLength":6456,
			"byteOffset":77648,
			"target":34962
		},
		{
			"buffer":0,
			"byteLength":4304,
			"byteOffset":84104,
			"target":34962
		},
		{
			"buffer":0,
			"byteLength":4304,
			"byteOffset":88408,
			"target":34962
		},
		{
			"buffer":0,
			"byteLength":3864,
			"byteOffset":92712,
			"target":34963
		}
	],
	"samplers":[
		{
			"magFilter":9729,
			"minFilter":9987
		}
	],
	"buffers":[
		{
			"byteLength":96576,
			"uri":"Stall_Empty.bin"
		}
	]
}
