{
	"asset":{
		"generator":"Khronos glTF Blender I/O v4.0.44",
		"version":"2.0"
	},
	"scene":0,
	"scenes":[
		{
			"name":"Scene",
			"nodes":[
				16
			]
		}
	],
	"nodes":[
		{
			"mesh":0,
			"name":"Stall_Cart_Empty_01-convcolonly"
		},
		{
			"mesh":1,
			"name":"Stall_Cart_Empty_02-convcolonly"
		},
		{
			"mesh":2,
			"name":"Stall_Cart_Empty_03-convcolonly"
		},
		{
			"mesh":3,
			"name":"Stall_Cart_Empty_04-convcolonly"
		},
		{
			"mesh":4,
			"name":"Stall_Cart_Empty_05-convcolonly"
		},
		{
			"mesh":5,
			"name":"Stall_Cart_Empty_06-convcolonly"
		},
		{
			"mesh":6,
			"name":"Stall_Cart_Empty_07-convcolonly"
		},
		{
			"mesh":7,
			"name":"Stall_Cart_Empty_08-convcolonly"
		},
		{
			"mesh":8,
			"name":"Stall_Cart_Empty_09-convcolonly"
		},
		{
			"mesh":9,
			"name":"Stall_Cart_Empty_10-convcolonly"
		},
		{
			"mesh":10,
			"name":"Stall_Cart_Empty_11-convcolonly"
		},
		{
			"mesh":11,
			"name":"Stall_Cart_Empty_12-convcolonly"
		},
		{
			"mesh":12,
			"name":"Stall_Cart_Empty_13-convcolonly"
		},
		{
			"mesh":13,
			"name":"Stall_Cart_Empty_14-convcolonly"
		},
		{
			"mesh":14,
			"name":"Stall_Cart_Empty_15-convcolonly"
		},
		{
			"mesh":15,
			"name":"Stall_Cart_Empty_16-convcolonly"
		},
		{
			"children":[
				0,
				1,
				2,
				3,
				4,
				5,
				6,
				7,
				8,
				9,
				10,
				11,
				12,
				13,
				14,
				15
			],
			"mesh":16,
			"name":"Stall_Cart_Empty"
		}
	],
	"materials":[
		{
			"doubleSided":true,
			"name":"Collision",
			"pbrMetallicRoughness":{
				"baseColorFactor":[
					0.047601714730262756,
					0.17601831257343292,
					0.8000785112380981,
					1
				],
				"metallicFactor":0,
				"roughnessFactor":0.5
			}
		},
		{
			"doubleSided":true,
			"name":"MI_Trim_Metal",
			"normalTexture":{
				"index":0
			},
			"pbrMetallicRoughness":{
				"baseColorTexture":{
					"index":1
				},
				"metallicRoughnessTexture":{
					"index":2
				}
			}
		},
		{
			"doubleSided":true,
			"name":"MI_Trim_Furniture",
			"normalTexture":{
				"index":3
			},
			"pbrMetallicRoughness":{
				"baseColorTexture":{
					"index":4
				},
				"metallicRoughnessTexture":{
					"index":5
				}
			}
		},
		{
			"doubleSided":true,
			"name":"MI_Banner",
			"normalTexture":{
				"index":6
			},
			"pbrMetallicRoughness":{
				"baseColorTexture":{
					"index":7
				},
				"metallicRoughnessTexture":{
					"index":8
				}
			}
		}
	],
	"meshes":[
		{
			"name":"Cube.384",
			"primitives":[
				{
					"attributes":{
						"POSITION":0,
						"NORMAL":1,
						"TEXCOORD_0":2
					},
					"indices":3,
					"material":0
				}
			]
		},
		{
			"name":"Cube.391",
			"primitives":[
				{
					"attributes":{
						"POSITION":4,
						"NORMAL":5,
						"TEXCOORD_0":6
					},
					"indices":7,
					"material":0
				}
			]
		},
		{
			"name":"Cube.492",
			"primitives":[
				{
					"attributes":{
						"POSITION":8,
						"NORMAL":9,
						"TEXCOORD_0":10
					},
					"indices":11,
					"material":0
				}
			]
		},
		{
			"name":"Cube.493",
			"primitives":[
				{
					"attributes":{
						"POSITION":12,
						"NORMAL":13,
						"TEXCOORD_0":14
					},
					"indices":15,
					"material":0
				}
			]
		},
		{
			"name":"Cube.494",
			"primitives":[
				{
					"attributes":{
						"POSITION":16,
						"NORMAL":17,
						"TEXCOORD_0":18
					},
					"indices":15,
					"material":0
				}
			]
		},
		{
			"name":"Cube.495",
			"primitives":[
				{
					"attributes":{
						"POSITION":19,
						"NORMAL":20,
						"TEXCOORD_0":21
					},
					"indices":22,
					"material":0
				}
			]
		},
		{
			"name":"Cube.496",
			"primitives":[
				{
					"attributes":{
						"POSITION":23,
						"NORMAL":24,
						"TEXCOORD_0":25
					},
					"indices":26,
					"material":0
				}
			]
		},
		{
			"name":"Cube.497",
			"primitives":[
				{
					"attributes":{
						"POSITION":27,
						"NORMAL":28,
						"TEXCOORD_0":29
					},
					"indices":30,
					"material":0
				}
			]
		},
		{
			"name":"Cube.498",
			"primitives":[
				{
					"attributes":{
						"POSITION":31,
						"NORMAL":32,
						"TEXCOORD_0":33
					},
					"indices":34,
					"material":0
				}
			]
		},
		{
			"name":"Cube.499",
			"primitives":[
				{
					"attributes":{
						"POSITION":35,
						"NORMAL":36,
						"TEXCOORD_0":37
					},
					"indices":38,
					"material":0
				}
			]
		},
		{
			"name":"Cube.500",
			"primitives":[
				{
					"attributes":{
						"POSITION":39,
						"NORMAL":40,
						"TEXCOORD_0":41
					},
					"indices":42,
					"material":0
				}
			]
		},
		{
			"name":"Cube.501",
			"primitives":[
				{
					"attributes":{
						"POSITION":43,
						"NORMAL":44,
						"TEXCOORD_0":45
					},
					"indices":46,
					"material":0
				}
			]
		},
		{
			"name":"Cube.502",
			"primitives":[
				{
					"attributes":{
						"POSITION":47,
						"NORMAL":48,
						"TEXCOORD_0":49
					},
					"indices":46,
					"material":0
				}
			]
		},
		{
			"name":"Cube.503",
			"primitives":[
				{
					"attributes":{
						"POSITION":50,
						"NORMAL":51,
						"TEXCOORD_0":52
					},
					"indices":53,
					"material":0
				}
			]
		},
		{
			"name":"Cube.504",
			"primitives":[
				{
					"attributes":{
						"POSITION":54,
						"NORMAL":55,
						"TEXCOORD_0":56
					},
					"indices":57,
					"material":0
				}
			]
		},
		{
			"name":"Cube.505",
			"primitives":[
				{
					"attributes":{
						"POSITION":58,
						"NORMAL":59,
						"TEXCOORD_0":60
					},
					"indices":61,
					"material":0
				}
			]
		},
		{
			"name":"Cylinder.094",
			"primitives":[
				{
					"attributes":{
						"COLOR_0":62,
						"POSITION":63,
						"NORMAL":64,
						"TEXCOORD_0":65,
						"TEXCOORD_1":66
					},
					"indices":67,
					"material":1
				},
				{
					"attributes":{
						"COLOR_0":68,
						"POSITION":69,
						"NORMAL":70,
						"TEXCOORD_0":71,
						"TEXCOORD_1":72
					},
					"indices":73,
					"material":2
				},
				{
					"attributes":{
						"COLOR_0":74,
						"POSITION":75,
						"NORMAL":76,
						"TEXCOORD_0":77,
						"TEXCOORD_1":78
					},
					"indices":79,
					"material":3
				}
			]
		}
	],
	"textures":[
		{
			"sampler":0,
			"source":0
		},
		{
			"sampler":0,
			"source":1
		},
		{
			"sampler":0,
			"source":2
		},
		{
			"sampler":0,
			"source":3
		},
		{
			"sampler":0,
			"source":4
		},
		{
			"sampler":0,
			"source":5
		},
		{
			"sampler":0,
			"source":6
		},
		{
			"sampler":0,
			"source":7
		},
		{
			"sampler":0,
			"source":8
		}
	],
	"images":[
		{
			"mimeType":"image/png",
			"name":"T_Trim_Metal_Normal",
			"uri":"T_Trim_Metal_Normal.png"
		},
		{
			"mimeType":"image/png",
			"name":"T_Trim_Metal_BaseColor",
			"uri":"T_Trim_Metal_BaseColor.png"
		},
		{
			"mimeType":"image/png",
			"name":"T_Trim_Metal_ORM",
			"uri":"T_Trim_Metal_ORM.png"
		},
		{
			"mimeType":"image/png",
			"name":"T_Trim_Furniture_Normal",
			"uri":"T_Trim_Furniture_Normal.png"
		},
		{
			"mimeType":"image/png",
			"name":"T_Trim_Furniture_BaseColor",
			"uri":"T_Trim_Furniture_BaseColor.png"
		},
		{
			"mimeType":"image/png",
			"name":"T_Trim_Furniture_ORM",
			"uri":"T_Trim_Furniture_ORM.png"
		},
		{
			"mimeType":"image/png",
			"name":"T_Trim_Cloth_Normal",
			"uri":"T_Trim_Cloth_Normal.png"
		},
		{
			"mimeType":"image/png",
			"name":"T_Trim_Cloth_BaseColor",
			"uri":"T_Trim_Cloth_BaseColor.png"
		},
		{
			"mimeType":"image/png",
			"name":"T_Trim_Cloth_ORM",
			"uri":"T_Trim_Cloth_ORM.png"
		}
	],
	"accessors":[
		{
			"bufferView":0,
			"componentType":5126,
			"count":24,
			"max":[
				0.8991330862045288,
				0.8372561931610107,
				0.4176519811153412
			],
			"min":[
				-0.8991294503211975,
				0.0053132981993258,
				-0.4050772488117218
			],
			"type":"VEC3"
		},
		{
			"bufferView":1,
			"componentType":5126,
			"count":24,
			"type":"VEC3"
		},
		{
			"bufferView":2,
			"componentType":5126,
			"count":24,
			"type":"VEC2"
		},
		{
			"bufferView":3,
			"componentType":5123,
			"count":36,
			"type":"SCALAR"
		},
		{
			"bufferView":4,
			"componentType":5126,
			"count":24,
			"max":[
				0.8991294503211975,
				2.34818172454834,
				-0.3128209114074707
			],
			"min":[
				0.8481668829917908,
				0.7820984721183777,
				-0.4085078239440918
			],
			"type":"VEC3"
		},
		{
			"bufferView":5,
			"componentType":5126,
			"count":24,
			"type":"VEC3"
		},
		{
			"bufferView":6,
			"componentType":5126,
			"count":24,
			"type":"VEC2"
		},
		{
			"bufferView":7,
			"componentType":5123,
			"count":36,
			"type":"SCALAR"
		},
		{
			"bufferView":8,
			"componentType":5126,
			"count":24,
			"max":[
				0.8339619636535645,
				1.129316806793213,
				-0.070454441010952
			],
			"min":[
				-0.8339583873748779,
				0.8282368183135986,
				-0.39565205574035645
			],
			"type":"VEC3"
		},
		{
			"bufferView":9,
			"componentType":5126,
			"count":24,
			"type":"VEC3"
		},
		{
			"bufferView":10,
			"componentType":5126,
			"count":24,
			"type":"VEC2"
		},
		{
			"bufferView":11,
			"componentType":5123,
			"count":36,
			"type":"SCALAR"
		},
		{
			"bufferView":12,
			"componentType":5126,
			"count":24,
			"max":[
				0.8339619636535645,
				1.2753721475601196,
				-0.3426952362060547
			],
			"min":[
				-0.8339583873748779,
				1.1673953533172607,
				-0.38044941425323486
			],
			"type":"VEC3"
		},
		{
			"bufferView":13,
			"componentType":5126,
			"count":24,
			"type":"VEC3"
		},
		{
			"bufferView":14,
			"componentType":5126,
			"count":24,
			"type":"VEC2"
		},
		{
			"bufferView":15,
			"componentType":5123,
			"count":36,
			"type":"SCALAR"
		},
		{
			"bufferView":16,
			"componentType":5126,
			"count":24,
			"max":[
				0.8339619636535645,
				2.0050649642944336,
				-0.337789386510849
			],
			"min":[
				-0.8339583873748779,
				1.8970881700515747,
				-0.38044941425323486
			],
			"type":"VEC3"
		},
		{
			"bufferView":17,
			"componentType":5126,
			"count":24,
			"type":"VEC3"
		},
		{
			"bufferView":18,
			"componentType":5126,
			"count":24,
			"type":"VEC2"
		},
		{
			"bufferView":19,
			"componentType":5126,
			"count":24,
			"max":[
				0.9104820489883423,
				2.6237003803253174,
				0.43176373839378357
			],
			"min":[
				0.4175245463848114,
				2.21240234375,
				-0.3827545940876007
			],
			"type":"VEC3"
		},
		{
			"bufferView":20,
			"componentType":5126,
			"count":24,
			"type":"VEC3"
		},
		{
			"bufferView":21,
			"componentType":5126,
			"count":24,
			"type":"VEC2"
		},
		{
			"bufferView":22,
			"componentType":5123,
			"count":36,
			"type":"SCALAR"
		},
		{
			"bufferView":23,
			"componentType":5126,
			"count":24,
			"max":[
				0.4175245463848114,
				2.579582691192627,
				0.43176373839378357
			],
			"min":[
				-0.4175208806991577,
				2.21240234375,
				-0.3827545940876007
			],
			"type":"VEC3"
		},
		{
			"bufferView":24,
			"componentType":5126,
			"count":24,
			"type":"VEC3"
		},
		{
			"bufferView":25,
			"componentType":5126,
			"count":24,
			"type":"VEC2"
		},
		{
			"bufferView":26,
			"componentType":5123,
			"count":36,
			"type":"SCALAR"
		},
		{
			"bufferView":27,
			"componentType":5126,
			"count":24,
			"max":[
				-0.4175208806991577,
				2.6237003803253174,
				0.43176373839378357
			],
			"min":[
				-0.9104783535003662,
				2.21240234375,
				-0.3827545940876007
			],
			"type":"VEC3"
		},
		{
			"bufferView":28,
			"componentType":5126,
			"count":24,
			"type":"VEC3"
		},
		{
			"bufferView":29,
			"componentType":5126,
			"count":24,
			"type":"VEC2"
		},
		{
			"bufferView":30,
			"componentType":5123,
			"count":36,
			"type":"SCALAR"
		},
		{
			"bufferView":31,
			"componentType":5126,
			"count":24,
			"max":[
				-0.8481668829917908,
				2.5585877895355225,
				0.4085078239440918
			],
			"min":[
				-0.8991294503211975,
				0.7820984721183777,
				0.3128209114074707
			],
			"type":"VEC3"
		},
		{
			"bufferView":32,
			"componentType":5126,
			"count":24,
			"type":"VEC3"
		},
		{
			"bufferView":33,
			"componentType":5126,
			"count":24,
			"type":"VEC2"
		},
		{
			"bufferView":34,
			"componentType":5123,
			"count":36,
			"type":"SCALAR"
		},
		{
			"bufferView":35,
			"componentType":5126,
			"count":24,
			"max":[
				-0.8481668829917908,
				2.34818172454834,
				-0.3128209114074707
			],
			"min":[
				-0.8991294503211975,
				0.7820984721183777,
				-0.4085078239440918
			],
			"type":"VEC3"
		},
		{
			"bufferView":36,
			"componentType":5126,
			"count":24,
			"type":"VEC3"
		},
		{
			"bufferView":37,
			"componentType":5126,
			"count":24,
			"type":"VEC2"
		},
		{
			"bufferView":38,
			"componentType":5123,
			"count":36,
			"type":"SCALAR"
		},
		{
			"bufferView":39,
			"componentType":5126,
			"count":24,
			"max":[
				0.8991294503211975,
				2.5585877895355225,
				0.4085078239440918
			],
			"min":[
				0.8481668829917908,
				0.7820984721183777,
				0.3128209114074707
			],
			"type":"VEC3"
		},
		{
			"bufferView":40,
			"componentType":5126,
			"count":24,
			"type":"VEC3"
		},
		{
			"bufferView":41,
			"componentType":5126,
			"count":24,
			"type":"VEC2"
		},
		{
			"bufferView":42,
			"componentType":5123,
			"count":36,
			"type":"SCALAR"
		},
		{
			"bufferView":43,
			"componentType":5126,
			"count":24,
			"max":[
				-0.8714960217475891,
				0.9359175562858582,
				-0.22768010199069977
			],
			"min":[
				-2.1024084091186523,
				0.6232498288154602,
				-0.284948468208313
			],
			"type":"VEC3"
		},
		{
			"bufferView":44,
			"componentType":5126,
			"count":24,
			"type":"VEC3"
		},
		{
			"bufferView":45,
			"componentType":5126,
			"count":24,
			"type":"VEC2"
		},
		{
			"bufferView":46,
			"componentType":5123,
			"count":36,
			"type":"SCALAR"
		},
		{
			"bufferView":47,
			"componentType":5126,
			"count":24,
			"max":[
				-0.8714960217475891,
				0.9359175562858582,
				0.2871374189853668
			],
			"min":[
				-2.1024084091186523,
				0.6232498288154602,
				0.2298690527677536
			],
			"type":"VEC3"
		},
		{
			"bufferView":48,
			"componentType":5126,
			"count":24,
			"type":"VEC3"
		},
		{
			"bufferView":49,
			"componentType":5126,
			"count":24,
			"type":"VEC2"
		},
		{
			"bufferView":50,
			"componentType":5126,
			"count":48,
			"max":[
				0.39253658056259155,
				0.7839040160179138,
				0.517383873462677
			],
			"min":[
				-0.3850686550140381,
				0.006298676133155823,
				-0.5222224593162537
			],
			"type":"VEC3"
		},
		{
			"bufferView":51,
			"componentType":5126,
			"count":48,
			"type":"VEC3"
		},
		{
			"bufferView":52,
			"componentType":5126,
			"count":48,
			"type":"VEC2"
		},
		{
			"bufferView":53,
			"componentType":5123,
			"count":84,
			"type":"SCALAR"
		},
		{
			"bufferView":54,
			"componentType":5126,
			"count":24,
			"max":[
				-0.7369822859764099,
				2.2968883514404297,
				-0.3708285987377167
			],
			"min":[
				-0.8592547178268433,
				0.7820984721183777,
				-0.41322246193885803
			],
			"type":"VEC3"
		},
		{
			"bufferView":55,
			"componentType":5126,
			"count":24,
			"type":"VEC3"
		},
		{
			"bufferView":56,
			"componentType":5126,
			"count":24,
			"type":"VEC2"
		},
		{
			"bufferView":57,
			"componentType":5123,
			"count":36,
			"type":"SCALAR"
		},
		{
			"bufferView":58,
			"componentType":5126,
			"count":24,
			"max":[
				0.8592547178268433,
				2.2968883514404297,
				-0.3708285987377167
			],
			"min":[
				0.7369822859764099,
				0.7820984721183777,
				-0.41322246193885803
			],
			"type":"VEC3"
		},
		{
			"bufferView":59,
			"componentType":5126,
			"count":24,
			"type":"VEC3"
		},
		{
			"bufferView":60,
			"componentType":5126,
			"count":24,
			"type":"VEC2"
		},
		{
			"bufferView":61,
			"componentType":5123,
			"count":36,
			"type":"SCALAR"
		},
		{
			"bufferView":62,
			"componentType":5123,
			"count":2130,
			"normalized":true,
			"type":"VEC4"
		},
		{
			"bufferView":63,
			"componentType":5126,
			"count":2130,
			"max":[
				0.9137552380561829,
				1.9630831480026245,
				0.5298508405685425
			],
			"min":[
				-0.9137551784515381,
				-0.0038988939486443996,
				-0.5298508405685425
			],
			"type":"VEC3"
		},
		{
			"bufferView":64,
			"componentType":5126,
			"count":2130,
			"type":"VEC3"
		},
		{
			"bufferView":65,
			"componentType":5126,
			"count":2130,
			"type":"VEC2"
		},
		{
			"bufferView":66,
			"componentType":5126,
			"count":2130,
			"type":"VEC2"
		},
		{
			"bufferView":67,
			"componentType":5123,
			"count":6654,
			"type":"SCALAR"
		},
		{
			"bufferView":68,
			"componentType":5123,
			"count":1968,
			"normalized":true,
			"type":"VEC4"
		},
		{
			"bufferView":69,
			"componentType":5126,
			"count":1968,
			"max":[
				0.9089454412460327,
				2.572237730026245,
				0.5095540285110474
			],
			"min":[
				-2.1067893505096436,
				-0.0020536466035991907,
				-0.5095540285110474
			],
			"type":"VEC3"
		},
		{
			"bufferView":70,
			"componentType":5126,
			"count":1968,
			"type":"VEC3"
		},
		{
			"bufferView":71,
			"componentType":5126,
			"count":1968,
			"type":"VEC2"
		},
		{
			"bufferView":72,
			"componentType":5126,
			"count":1968,
			"type":"VEC2"
		},
		{
			"bufferView":73,
			"componentType":5123,
			"count":3882,
			"type":"SCALAR"
		},
		{
			"bufferView":74,
			"componentType":5123,
			"count":353,
			"normalized":true,
			"type":"VEC4"
		},
		{
			"bufferView":75,
			"componentType":5126,
			"count":353,
			"max":[
				0.9083468317985535,
				2.627926826477051,
				0.47836676239967346
			],
			"min":[
				-0.908346951007843,
				1.796966314315796,
				-0.46071121096611023
			],
			"type":"VEC3"
		},
		{
			"bufferView":76,
			"componentType":5126,
			"count":353,
			"type":"VEC3"
		},
		{
			"bufferView":77,
			"componentType":5126,
			"count":353,
			"type":"VEC2"
		},
		{
			"bufferView":78,
			"componentType":5126,
			"count":353,
			"type":"VEC2"
		},
		{
			"bufferView":79,
			"componentType":5123,
			"count":1272,
			"type":"SCALAR"
		}
	],
	"bufferViews":[
		{
			"buffer":0,
			"byteLength":288,
			"byteOffset":0,
			"target":34962
		},
		{
			"buffer":0,
			"byteLength":288,
			"byteOffset":288,
			"target":34962
		},
		{
			"buffer":0,
			"byteLength":192,
			"byteOffset":576,
			"target":34962
		},
		{
			"buffer":0,
			"byteLength":72,
			"byteOffset":768,
			"target":34963
		},
		{
			"buffer":0,
			"byteLength":288,
			"byteOffset":840,
			"target":34962
		},
		{
			"buffer":0,
			"byteLength":288,
			"byteOffset":1128,
			"target":34962
		},
		{
			"buffer":0,
			"byteLength":192,
			"byteOffset":1416,
			"target":34962
		},
		{
			"buffer":0,
			"byteLength":72,
			"byteOffset":1608,
			"target":34963
		},
		{
			"buffer":0,
			"byteLength":288,
			"byteOffset":1680,
			"target":34962
		},
		{
			"buffer":0,
			"byteLength":288,
			"byteOffset":1968,
			"target":34962
		},
		{
			"buffer":0,
			"byteLength":192,
			"byteOffset":2256,
			"target":34962
		},
		{
			"buffer":0,
			"byteLength":72,
			"byteOffset":2448,
			"target":34963
		},
		{
			"buffer":0,
			"byteLength":288,
			"byteOffset":2520,
			"target":34962
		},
		{
			"buffer":0,
			"byteLength":288,
			"byteOffset":2808,
			"target":34962
		},
		{
			"buffer":0,
			"byteLength":192,
			"byteOffset":3096,
			"target":34962
		},
		{
			"buffer":0,
			"byteLength":72,
			"byteOffset":3288,
			"target":34963
		},
		{
			"buffer":0,
			"byteLength":288,
			"byteOffset":3360,
			"target":34962
		},
		{
			"buffer":0,
			"byteLength":288,
			"byteOffset":3648,
			"target":34962
		},
		{
			"buffer":0,
			"byteLength":192,
			"byteOffset":3936,
			"target":34962
		},
		{
			"buffer":0,
			"byteLength":288,
			"byteOffset":4128,
			"target":34962
		},
		{
			"buffer":0,
			"byteLength":288,
			"byteOffset":4416,
			"target":34962
		},
		{
			"buffer":0,
			"byteLength":192,
			"byteOffset":4704,
			"target":34962
		},
		{
			"buffer":0,
			"byteLength":72,
			"byteOffset":4896,
			"target":34963
		},
		{
			"buffer":0,
			"byteLength":288,
			"byteOffset":4968,
			"target":34962
		},
		{
			"buffer":0,
			"byteLength":288,
			"byteOffset":5256,
			"target":34962
		},
		{
			"buffer":0,
			"byteLength":192,
			"byteOffset":5544,
			"target":34962
		},
		{
			"buffer":0,
			"byteLength":72,
			"byteOffset":5736,
			"target":34963
		},
		{
			"buffer":0,
			"byteLength":288,
			"byteOffset":5808,
			"target":34962
		},
		{
			"buffer":0,
			"byteLength":288,
			"byteOffset":6096,
			"target":34962
		},
		{
			"buffer":0,
			"byteLength":192,
			"byteOffset":6384,
			"target":34962
		},
		{
			"buffer":0,
			"byteLength":72,
			"byteOffset":6576,
			"target":34963
		},
		{
			"buffer":0,
			"byteLength":288,
			"byteOffset":6648,
			"target":34962
		},
		{
			"buffer":0,
			"byteLength":288,
			"byteOffset":6936,
			"target":34962
		},
		{
			"buffer":0,
			"byteLength":192,
			"byteOffset":7224,
			"target":34962
		},
		{
			"buffer":0,
			"byteLength":72,
			"byteOffset":7416,
			"target":34963
		},
		{
			"buffer":0,
			"byteLength":288,
			"byteOffset":7488,
			"target":34962
		},
		{
			"buffer":0,
			"byteLength":288,
			"byteOffset":7776,
			"target":34962
		},
		{
			"buffer":0,
			"byteLength":192,
			"byteOffset":8064,
			"target":34962
		},
		{
			"buffer":0,
			"byteLength":72,
			"byteOffset":8256,
			"target":34963
		},
		{
			"buffer":0,
			"byteLength":288,
			"byteOffset":8328,
			"target":34962
		},
		{
			"buffer":0,
			"byteLength":288,
			"byteOffset":8616,
			"target":34962
		},
		{
			"buffer":0,
			"byteLength":192,
			"byteOffset":8904,
			"target":34962
		},
		{
			"buffer":0,
			"byteLength":72,
			"byteOffset":9096,
			"target":34963
		},
		{
			"buffer":0,
			"byteLength":288,
			"byteOffset":9168,
			"target":34962
		},
		{
			"buffer":0,
			"byteLength":288,
			"byteOffset":9456,
			"target":34962
		},
		{
			"buffer":0,
			"byteLength":192,
			"byteOffset":9744,
			"target":34962
		},
		{
			"buffer":0,
			"byteLength":72,
			"byteOffset":9936,
			"target":34963
		},
		{
			"buffer":0,
			"byteLength":288,
			"byteOffset":10008,
			"target":34962
		},
		{
			"buffer":0,
			"byteLength":288,
			"byteOffset":10296,
			"target":34962
		},
		{
			"buffer":0,
			"byteLength":192,
			"byteOffset":10584,
			"target":34962
		},
		{
			"buffer":0,
			"byteLength":576,
			"byteOffset":10776,
			"target":34962
		},
		{
			"buffer":0,
			"byteLength":576,
			"byteOffset":11352,
			"target":34962
		},
		{
			"buffer":0,
			"byteLength":384,
			"byteOffset":11928,
			"target":34962
		},
		{
			"buffer":0,
			"byteLength":168,
			"byteOffset":12312,
			"target":34963
		},
		{
			"buffer":0,
			"byteLength":288,
			"byteOffset":12480,
			"target":34962
		},
		{
			"buffer":0,
			"byteLength":288,
			"byteOffset":12768,
			"target":34962
		},
		{
			"buffer":0,
			"byteLength":192,
			"byteOffset":13056,
			"target":34962
		},
		{
			"buffer":0,
			"byteLength":72,
			"byteOffset":13248,
			"target":34963
		},
		{
			"buffer":0,
			"byteLength":288,
			"byteOffset":13320,
			"target":34962
		},
		{
			"buffer":0,
			"byteLength":288,
			"byteOffset":13608,
			"target":34962
		},
		{
			"buffer":0,
			"byteLength":192,
			"byteOffset":13896,
			"target":34962
		},
		{
			"buffer":0,
			"byteLength":72,
			"byteOffset":14088,
			"target":34963
		},
		{
			"buffer":0,
			"byteLength":17040,
			"byteOffset":14160,
			"target":34962
		},
		{
			"buffer":0,
			"byteLength":25560,
			"byteOffset":31200,
			"target":34962
		},
		{
			"buffer":0,
			"byteLength":25560,
			"byteOffset":56760,
			"target":34962
		},
		{
			"buffer":0,
			"byteLength":17040,
			"byteOffset":82320,
			"target":34962
		},
		{
			"buffer":0,
			"byteLength":17040,
			"byteOffset":99360,
			"target":34962
		},
		{
			"buffer":0,
			"byteLength":13308,
			"byteOffset":116400,
			"target":34963
		},
		{
			"buffer":0,
			"byteLength":15744,
			"byteOffset":129708,
			"target":34962
		},
		{
			"buffer":0,
			"byteLength":23616,
			"byteOffset":145452,
			"target":34962
		},
		{
			"buffer":0,
			"byteLength":23616,
			"byteOffset":169068,
			"target":34962
		},
		{
			"buffer":0,
			"byteLength":15744,
			"byteOffset":192684,
			"target":34962
		},
		{
			"buffer":0,
			"byteLength":15744,
			"byteOffset":208428,
			"target":34962
		},
		{
			"buffer":0,
			"byteLength":7764,
			"byteOffset":224172,
			"target":34963
		},
		{
			"buffer":0,
			"byteLength":2824,
			"byteOffset":231936,
			"target":34962
		},
		{
			"buffer":0,
			"byteLength":4236,
			"byteOffset":234760,
			"target":34962
		},
		{
			"buffer":0,
			"byteLength":4236,
			"byteOffset":238996,
			"target":34962
		},
		{
			"buffer":0,
			"byteLength":2824,
			"byteOffset":243232,
			"target":34962
		},
		{
			"buffer":0,
			"byteLength":2824,
			"byteOffset":246056,
			"target":34962
		},
		{
			"buffer":0,
			"byteLength":2544,
			"byteOffset":248880,
			"target":34963
		}
	],
	"samplers":[
		{
			"magFilter":9729,
			"minFilter":9987
		}
	],
	"buffers":[
		{
			"byteLength":251424,
			"uri":"Stall_Cart_Empty.bin"
		}
	]
}
