{
	"asset":{
		"generator":"Khronos glTF Blender I/O v4.0.44",
		"version":"2.0"
	},
	"scene":0,
	"scenes":[
		{
			"name":"Scene",
			"nodes":[
				0
			]
		}
	],
	"nodes":[
		{
			"mesh":0,
			"name":"Vase_Rubble_Large"
		}
	],
	"materials":[
		{
			"doubleSided":true,
			"name":"MI_Trim_Props_Vertex",
			"normalTexture":{
				"index":0
			},
			"pbrMetallicRoughness":{
				"baseColorTexture":{
					"index":1
				},
				"metallicRoughnessTexture":{
					"index":2
				}
			}
		}
	],
	"meshes":[
		{
			"name":"Vase_1.001_cell.023",
			"primitives":[
				{
					"attributes":{
						"COLOR_0":0,
						"POSITION":1,
						"NORMAL":2,
						"TEXCOORD_0":3
					},
					"indices":4,
					"material":0
				}
			]
		}
	],
	"textures":[
		{
			"sampler":0,
			"source":0
		},
		{
			"sampler":0,
			"source":1
		},
		{
			"sampler":0,
			"source":2
		}
	],
	"images":[
		{
			"mimeType":"image/png",
			"name":"T_Trim_Props_Normal",
			"uri":"T_Trim_Props_Normal.png"
		},
		{
			"mimeType":"image/png",
			"name":"T_Trim_Props_BaseColor",
			"uri":"T_Trim_Props_BaseColor.png"
		},
		{
			"mimeType":"image/png",
			"name":"T_Trim_Props_ORM",
			"uri":"T_Trim_Props_ORM.png"
		}
	],
	"accessors":[
		{
			"bufferView":0,
			"componentType":5123,
			"count":4428,
			"normalized":true,
			"type":"VEC4"
		},
		{
			"bufferView":1,
			"componentType":5126,
			"count":4428,
			"max":[
				0.4478314518928528,
				0.17781302332878113,
				0.5147497057914734
			],
			"min":[
				-0.4430670738220215,
				-0.0026317834854125977,
				-0.49613839387893677
			],
			"type":"VEC3"
		},
		{
			"bufferView":2,
			"componentType":5126,
			"count":4428,
			"type":"VEC3"
		},
		{
			"bufferView":3,
			"componentType":5126,
			"count":4428,
			"type":"VEC2"
		},
		{
			"bufferView":4,
			"componentType":5123,
			"count":7542,
			"type":"SCALAR"
		}
	],
	"bufferViews":[
		{
			"buffer":0,
			"byteLength":35424,
			"byteOffset":0,
			"target":34962
		},
		{
			"buffer":0,
			"byteLength":53136,
			"byteOffset":35424,
			"target":34962
		},
		{
			"buffer":0,
			"byteLength":53136,
			"byteOffset":88560,
			"target":34962
		},
		{
			"buffer":0,
			"byteLength":35424,
			"byteOffset":141696,
			"target":34962
		},
		{
			"buffer":0,
			"byteLength":15084,
			"byteOffset":177120,
			"target":34963
		}
	],
	"samplers":[
		{
			"magFilter":9729,
			"minFilter":9987
		}
	],
	"buffers":[
		{
			"byteLength":192204,
			"uri":"Vase_Rubble_Large.bin"
		}
	]
}
