{
	"asset":{
		"generator":"Khronos glTF Blender I/O v4.0.44",
		"version":"2.0"
	},
	"scene":0,
	"scenes":[
		{
			"name":"Scene",
			"nodes":[
				16
			]
		}
	],
	"nodes":[
		{
			"mesh":0,
			"name":"Wagon_01-convcolonly"
		},
		{
			"mesh":1,
			"name":"Wagon_02-convcolonly"
		},
		{
			"mesh":2,
			"name":"Wagon_03-convcolonly"
		},
		{
			"mesh":3,
			"name":"Wagon_04-convcolonly"
		},
		{
			"mesh":4,
			"name":"Wagon_05-convcolonly"
		},
		{
			"mesh":5,
			"name":"Wagon_06-convcolonly"
		},
		{
			"mesh":6,
			"name":"Wagon_07-convcolonly"
		},
		{
			"mesh":7,
			"name":"Wagon_08-convcolonly"
		},
		{
			"mesh":8,
			"name":"Wagon_09-convcolonly"
		},
		{
			"mesh":9,
			"name":"Wagon_10-convcolonly"
		},
		{
			"mesh":10,
			"name":"Wagon_11-convcolonly"
		},
		{
			"mesh":11,
			"name":"Wagon_12-convcolonly"
		},
		{
			"mesh":12,
			"name":"Wagon_13-convcolonly"
		},
		{
			"mesh":13,
			"name":"Wagon_14-convcolonly"
		},
		{
			"mesh":14,
			"name":"Wagon_15-convcolonly"
		},
		{
			"mesh":15,
			"name":"Wagon_16-convcolonly"
		},
		{
			"children":[
				0,
				1,
				2,
				3,
				4,
				5,
				6,
				7,
				8,
				9,
				10,
				11,
				12,
				13,
				14,
				15
			],
			"mesh":16,
			"name":"Wagon"
		}
	],
	"materials":[
		{
			"doubleSided":true,
			"name":"Collision",
			"pbrMetallicRoughness":{
				"baseColorFactor":[
					0.047601714730262756,
					0.17601831257343292,
					0.8000785112380981,
					1
				],
				"metallicFactor":0,
				"roughnessFactor":0.5
			}
		},
		{
			"doubleSided":true,
			"name":"MI_Trim_Metal",
			"normalTexture":{
				"index":0
			},
			"pbrMetallicRoughness":{
				"baseColorTexture":{
					"index":1
				},
				"metallicRoughnessTexture":{
					"index":2
				}
			}
		},
		{
			"doubleSided":true,
			"name":"MI_Trim_Furniture",
			"normalTexture":{
				"index":3
			},
			"pbrMetallicRoughness":{
				"baseColorTexture":{
					"index":4
				},
				"metallicRoughnessTexture":{
					"index":5
				}
			}
		}
	],
	"meshes":[
		{
			"name":"Cube.637",
			"primitives":[
				{
					"attributes":{
						"POSITION":0,
						"NORMAL":1,
						"TEXCOORD_0":2
					},
					"indices":3,
					"material":0
				}
			]
		},
		{
			"name":"Cube.638",
			"primitives":[
				{
					"attributes":{
						"POSITION":4,
						"NORMAL":5,
						"TEXCOORD_0":6
					},
					"indices":7,
					"material":0
				}
			]
		},
		{
			"name":"Cube.639",
			"primitives":[
				{
					"attributes":{
						"POSITION":8,
						"NORMAL":9,
						"TEXCOORD_0":10
					},
					"indices":11,
					"material":0
				}
			]
		},
		{
			"name":"Cube.640",
			"primitives":[
				{
					"attributes":{
						"POSITION":12,
						"NORMAL":13,
						"TEXCOORD_0":14
					},
					"indices":15,
					"material":0
				}
			]
		},
		{
			"name":"Cube.641",
			"primitives":[
				{
					"attributes":{
						"POSITION":16,
						"NORMAL":17,
						"TEXCOORD_0":18
					},
					"indices":19,
					"material":0
				}
			]
		},
		{
			"name":"Cube.642",
			"primitives":[
				{
					"attributes":{
						"POSITION":20,
						"NORMAL":21,
						"TEXCOORD_0":22
					},
					"indices":23,
					"material":0
				}
			]
		},
		{
			"name":"Cube.643",
			"primitives":[
				{
					"attributes":{
						"POSITION":24,
						"NORMAL":25,
						"TEXCOORD_0":26
					},
					"indices":27,
					"material":0
				}
			]
		},
		{
			"name":"Cube.644",
			"primitives":[
				{
					"attributes":{
						"POSITION":28,
						"NORMAL":29,
						"TEXCOORD_0":30
					},
					"indices":31,
					"material":0
				}
			]
		},
		{
			"name":"Cube.645",
			"primitives":[
				{
					"attributes":{
						"POSITION":32,
						"NORMAL":33,
						"TEXCOORD_0":34
					},
					"indices":35,
					"material":0
				}
			]
		},
		{
			"name":"Cube.646",
			"primitives":[
				{
					"attributes":{
						"POSITION":36,
						"NORMAL":37,
						"TEXCOORD_0":38
					},
					"indices":39,
					"material":0
				}
			]
		},
		{
			"name":"Cube.647",
			"primitives":[
				{
					"attributes":{
						"POSITION":40,
						"NORMAL":41,
						"TEXCOORD_0":42
					},
					"indices":43,
					"material":0
				}
			]
		},
		{
			"name":"Cube.648",
			"primitives":[
				{
					"attributes":{
						"POSITION":44,
						"NORMAL":45,
						"TEXCOORD_0":46
					},
					"indices":47,
					"material":0
				}
			]
		},
		{
			"name":"Cube.649",
			"primitives":[
				{
					"attributes":{
						"POSITION":48,
						"NORMAL":49,
						"TEXCOORD_0":50
					},
					"indices":51,
					"material":0
				}
			]
		},
		{
			"name":"Cube.650",
			"primitives":[
				{
					"attributes":{
						"POSITION":52,
						"NORMAL":53,
						"TEXCOORD_0":54
					},
					"indices":55,
					"material":0
				}
			]
		},
		{
			"name":"Cube.651",
			"primitives":[
				{
					"attributes":{
						"POSITION":56,
						"NORMAL":57,
						"TEXCOORD_0":58
					},
					"indices":59,
					"material":0
				}
			]
		},
		{
			"name":"Cube.652",
			"primitives":[
				{
					"attributes":{
						"POSITION":60,
						"NORMAL":61,
						"TEXCOORD_0":62
					},
					"indices":63,
					"material":0
				}
			]
		},
		{
			"name":"Cylinder.082",
			"primitives":[
				{
					"attributes":{
						"COLOR_0":64,
						"POSITION":65,
						"NORMAL":66,
						"TEXCOORD_0":67,
						"TEXCOORD_1":68
					},
					"indices":69,
					"material":1
				},
				{
					"attributes":{
						"COLOR_0":70,
						"POSITION":71,
						"NORMAL":72,
						"TEXCOORD_0":73,
						"TEXCOORD_1":74
					},
					"indices":75,
					"material":2
				}
			]
		}
	],
	"textures":[
		{
			"sampler":0,
			"source":0
		},
		{
			"sampler":0,
			"source":1
		},
		{
			"sampler":0,
			"source":2
		},
		{
			"sampler":0,
			"source":3
		},
		{
			"sampler":0,
			"source":4
		},
		{
			"sampler":0,
			"source":5
		}
	],
	"images":[
		{
			"mimeType":"image/png",
			"name":"T_Trim_Metal_Normal",
			"uri":"T_Trim_Metal_Normal.png"
		},
		{
			"mimeType":"image/png",
			"name":"T_Trim_Metal_BaseColor",
			"uri":"T_Trim_Metal_BaseColor.png"
		},
		{
			"mimeType":"image/png",
			"name":"T_Trim_Metal_ORM",
			"uri":"T_Trim_Metal_ORM.png"
		},
		{
			"mimeType":"image/png",
			"name":"T_Trim_Furniture_Normal",
			"uri":"T_Trim_Furniture_Normal.png"
		},
		{
			"mimeType":"image/png",
			"name":"T_Trim_Furniture_BaseColor",
			"uri":"T_Trim_Furniture_BaseColor.png"
		},
		{
			"mimeType":"image/png",
			"name":"T_Trim_Furniture_ORM",
			"uri":"T_Trim_Furniture_ORM.png"
		}
	],
	"accessors":[
		{
			"bufferView":0,
			"componentType":5126,
			"count":48,
			"max":[
				1.0512396097183228,
				1.2703757286071777,
				1.5729930400848389
			],
			"min":[
				0.8895988464355469,
				0.07033062726259232,
				0.37294843792915344
			],
			"type":"VEC3"
		},
		{
			"bufferView":1,
			"componentType":5126,
			"count":48,
			"type":"VEC3"
		},
		{
			"bufferView":2,
			"componentType":5126,
			"count":48,
			"type":"VEC2"
		},
		{
			"bufferView":3,
			"componentType":5123,
			"count":84,
			"type":"SCALAR"
		},
		{
			"bufferView":4,
			"componentType":5126,
			"count":48,
			"max":[
				1.0512397289276123,
				1.2703757286071777,
				-0.37294837832450867
			],
			"min":[
				0.8895989060401917,
				0.07033062726259232,
				-1.5729930400848389
			],
			"type":"VEC3"
		},
		{
			"bufferView":5,
			"componentType":5126,
			"count":48,
			"type":"VEC3"
		},
		{
			"bufferView":6,
			"componentType":5126,
			"count":48,
			"type":"VEC2"
		},
		{
			"bufferView":7,
			"componentType":5123,
			"count":84,
			"type":"SCALAR"
		},
		{
			"bufferView":8,
			"componentType":5126,
			"count":48,
			"max":[
				-0.8895989060401917,
				1.2703757286071777,
				1.5729930400848389
			],
			"min":[
				-1.0512397289276123,
				0.07033062726259232,
				0.37294837832450867
			],
			"type":"VEC3"
		},
		{
			"bufferView":9,
			"componentType":5126,
			"count":48,
			"type":"VEC3"
		},
		{
			"bufferView":10,
			"componentType":5126,
			"count":48,
			"type":"VEC2"
		},
		{
			"bufferView":11,
			"componentType":5123,
			"count":84,
			"type":"SCALAR"
		},
		{
			"bufferView":12,
			"componentType":5126,
			"count":48,
			"max":[
				-0.8895988464355469,
				1.2703757286071777,
				-0.37294843792915344
			],
			"min":[
				-1.0512396097183228,
				0.07033062726259232,
				-1.5729930400848389
			],
			"type":"VEC3"
		},
		{
			"bufferView":13,
			"componentType":5126,
			"count":48,
			"type":"VEC3"
		},
		{
			"bufferView":14,
			"componentType":5126,
			"count":48,
			"type":"VEC2"
		},
		{
			"bufferView":15,
			"componentType":5123,
			"count":84,
			"type":"SCALAR"
		},
		{
			"bufferView":16,
			"componentType":5126,
			"count":56,
			"max":[
				0.898695170879364,
				0.8566931486129761,
				1.345200538635254
			],
			"min":[
				-0.898695170879364,
				0.637714684009552,
				-1.1745052337646484
			],
			"type":"VEC3"
		},
		{
			"bufferView":17,
			"componentType":5126,
			"count":56,
			"type":"VEC3"
		},
		{
			"bufferView":18,
			"componentType":5126,
			"count":56,
			"type":"VEC2"
		},
		{
			"bufferView":19,
			"componentType":5123,
			"count":132,
			"type":"SCALAR"
		},
		{
			"bufferView":20,
			"componentType":5126,
			"count":24,
			"max":[
				0.8725212812423706,
				3.025641918182373,
				1.345200538635254
			],
			"min":[
				-0.8725212812423706,
				0.780677318572998,
				1.240128755569458
			],
			"type":"VEC3"
		},
		{
			"bufferView":21,
			"componentType":5126,
			"count":24,
			"type":"VEC3"
		},
		{
			"bufferView":22,
			"componentType":5126,
			"count":24,
			"type":"VEC2"
		},
		{
			"bufferView":23,
			"componentType":5123,
			"count":36,
			"type":"SCALAR"
		},
		{
			"bufferView":24,
			"componentType":5126,
			"count":24,
			"max":[
				0.8725212812423706,
				3.025641918182373,
				-1.0694332122802734
			],
			"min":[
				-0.8725212812423706,
				0.780677318572998,
				-1.1745052337646484
			],
			"type":"VEC3"
		},
		{
			"bufferView":25,
			"componentType":5126,
			"count":24,
			"type":"VEC3"
		},
		{
			"bufferView":26,
			"componentType":5126,
			"count":24,
			"type":"VEC2"
		},
		{
			"bufferView":27,
			"componentType":5123,
			"count":36,
			"type":"SCALAR"
		},
		{
			"bufferView":28,
			"componentType":5126,
			"count":40,
			"max":[
				0.8725212812423706,
				3.025641918182373,
				1.345200538635254
			],
			"min":[
				-0.8725212812423706,
				2.9010627269744873,
				-1.1745052337646484
			],
			"type":"VEC3"
		},
		{
			"bufferView":29,
			"componentType":5126,
			"count":40,
			"type":"VEC3"
		},
		{
			"bufferView":30,
			"componentType":5126,
			"count":40,
			"type":"VEC2"
		},
		{
			"bufferView":31,
			"componentType":5123,
			"count":60,
			"type":"SCALAR"
		},
		{
			"bufferView":32,
			"componentType":5126,
			"count":40,
			"max":[
				0.915938138961792,
				3.015126943588257,
				1.345200538635254
			],
			"min":[
				0.821116030216217,
				0.7596625089645386,
				-1.1745052337646484
			],
			"type":"VEC3"
		},
		{
			"bufferView":33,
			"componentType":5126,
			"count":40,
			"type":"VEC3"
		},
		{
			"bufferView":34,
			"componentType":5126,
			"count":40,
			"type":"VEC2"
		},
		{
			"bufferView":35,
			"componentType":5123,
			"count":60,
			"type":"SCALAR"
		},
		{
			"bufferView":36,
			"componentType":5126,
			"count":40,
			"max":[
				-0.821116030216217,
				3.015126943588257,
				1.345200538635254
			],
			"min":[
				-0.915938138961792,
				0.7596625089645386,
				-1.1745052337646484
			],
			"type":"VEC3"
		},
		{
			"bufferView":37,
			"componentType":5126,
			"count":40,
			"type":"VEC3"
		},
		{
			"bufferView":38,
			"componentType":5126,
			"count":40,
			"type":"VEC2"
		},
		{
			"bufferView":39,
			"componentType":5123,
			"count":60,
			"type":"SCALAR"
		},
		{
			"bufferView":40,
			"componentType":5126,
			"count":24,
			"max":[
				0.4359632432460785,
				1.009076476097107,
				1.8903846740722656
			],
			"min":[
				0.354176789522171,
				0.637714684009552,
				1.345200538635254
			],
			"type":"VEC3"
		},
		{
			"bufferView":41,
			"componentType":5126,
			"count":24,
			"type":"VEC3"
		},
		{
			"bufferView":42,
			"componentType":5126,
			"count":24,
			"type":"VEC2"
		},
		{
			"bufferView":43,
			"componentType":5123,
			"count":36,
			"type":"SCALAR"
		},
		{
			"bufferView":44,
			"componentType":5126,
			"count":24,
			"max":[
				-0.354176789522171,
				1.009076476097107,
				1.8903846740722656
			],
			"min":[
				-0.4359632432460785,
				0.637714684009552,
				1.345200538635254
			],
			"type":"VEC3"
		},
		{
			"bufferView":45,
			"componentType":5126,
			"count":24,
			"type":"VEC3"
		},
		{
			"bufferView":46,
			"componentType":5126,
			"count":24,
			"type":"VEC2"
		},
		{
			"bufferView":47,
			"componentType":5123,
			"count":36,
			"type":"SCALAR"
		},
		{
			"bufferView":48,
			"componentType":5126,
			"count":24,
			"max":[
				0.4359632432460785,
				1.0757948160171509,
				2.98075270652771
			],
			"min":[
				0.354176789522171,
				0.907413899898529,
				2.4355685710906982
			],
			"type":"VEC3"
		},
		{
			"bufferView":49,
			"componentType":5126,
			"count":24,
			"type":"VEC3"
		},
		{
			"bufferView":50,
			"componentType":5126,
			"count":24,
			"type":"VEC2"
		},
		{
			"bufferView":51,
			"componentType":5123,
			"count":36,
			"type":"SCALAR"
		},
		{
			"bufferView":52,
			"componentType":5126,
			"count":24,
			"max":[
				-0.354176789522171,
				1.0757948160171509,
				2.98075270652771
			],
			"min":[
				-0.4359632432460785,
				0.907413899898529,
				2.4355685710906982
			],
			"type":"VEC3"
		},
		{
			"bufferView":53,
			"componentType":5126,
			"count":24,
			"type":"VEC3"
		},
		{
			"bufferView":54,
			"componentType":5126,
			"count":24,
			"type":"VEC2"
		},
		{
			"bufferView":55,
			"componentType":5123,
			"count":36,
			"type":"SCALAR"
		},
		{
			"bufferView":56,
			"componentType":5126,
			"count":24,
			"max":[
				-0.354176789522171,
				1.0460424423217773,
				2.4355688095092773
			],
			"min":[
				-0.4359632432460785,
				0.8302729725837708,
				1.8903844356536865
			],
			"type":"VEC3"
		},
		{
			"bufferView":57,
			"componentType":5126,
			"count":24,
			"type":"VEC3"
		},
		{
			"bufferView":58,
			"componentType":5126,
			"count":24,
			"type":"VEC2"
		},
		{
			"bufferView":59,
			"componentType":5123,
			"count":36,
			"type":"SCALAR"
		},
		{
			"bufferView":60,
			"componentType":5126,
			"count":24,
			"max":[
				0.4359632432460785,
				1.0460424423217773,
				2.4355688095092773
			],
			"min":[
				0.354176789522171,
				0.8302729725837708,
				1.8903844356536865
			],
			"type":"VEC3"
		},
		{
			"bufferView":61,
			"componentType":5126,
			"count":24,
			"type":"VEC3"
		},
		{
			"bufferView":62,
			"componentType":5126,
			"count":24,
			"type":"VEC2"
		},
		{
			"bufferView":63,
			"componentType":5123,
			"count":36,
			"type":"SCALAR"
		},
		{
			"bufferView":64,
			"componentType":5123,
			"count":10126,
			"normalized":true,
			"type":"VEC4"
		},
		{
			"bufferView":65,
			"componentType":5126,
			"count":10126,
			"max":[
				1.0413881540298462,
				3.0324549674987793,
				1.5751969814300537
			],
			"min":[
				-1.045486569404602,
				0.08233654499053955,
				-1.5096890926361084
			],
			"type":"VEC3"
		},
		{
			"bufferView":66,
			"componentType":5126,
			"count":10126,
			"type":"VEC3"
		},
		{
			"bufferView":67,
			"componentType":5126,
			"count":10126,
			"type":"VEC2"
		},
		{
			"bufferView":68,
			"componentType":5126,
			"count":10126,
			"type":"VEC2"
		},
		{
			"bufferView":69,
			"componentType":5123,
			"count":26826,
			"type":"SCALAR"
		},
		{
			"bufferView":70,
			"componentType":5123,
			"count":2954,
			"normalized":true,
			"type":"VEC4"
		},
		{
			"bufferView":71,
			"componentType":5126,
			"count":2954,
			"max":[
				1.017261266708374,
				3.0013980865478516,
				2.983264207839966
			],
			"min":[
				-1.019938588142395,
				0.1196393370628357,
				-1.472996473312378
			],
			"type":"VEC3"
		},
		{
			"bufferView":72,
			"componentType":5126,
			"count":2954,
			"type":"VEC3"
		},
		{
			"bufferView":73,
			"componentType":5126,
			"count":2954,
			"type":"VEC2"
		},
		{
			"bufferView":74,
			"componentType":5126,
			"count":2954,
			"type":"VEC2"
		},
		{
			"bufferView":75,
			"componentType":5123,
			"count":6240,
			"type":"SCALAR"
		}
	],
	"bufferViews":[
		{
			"buffer":0,
			"byteLength":576,
			"byteOffset":0,
			"target":34962
		},
		{
			"buffer":0,
			"byteLength":576,
			"byteOffset":576,
			"target":34962
		},
		{
			"buffer":0,
			"byteLength":384,
			"byteOffset":1152,
			"target":34962
		},
		{
			"buffer":0,
			"byteLength":168,
			"byteOffset":1536,
			"target":34963
		},
		{
			"buffer":0,
			"byteLength":576,
			"byteOffset":1704,
			"target":34962
		},
		{
			"buffer":0,
			"byteLength":576,
			"byteOffset":2280,
			"target":34962
		},
		{
			"buffer":0,
			"byteLength":384,
			"byteOffset":2856,
			"target":34962
		},
		{
			"buffer":0,
			"byteLength":168,
			"byteOffset":3240,
			"target":34963
		},
		{
			"buffer":0,
			"byteLength":576,
			"byteOffset":3408,
			"target":34962
		},
		{
			"buffer":0,
			"byteLength":576,
			"byteOffset":3984,
			"target":34962
		},
		{
			"buffer":0,
			"byteLength":384,
			"byteOffset":4560,
			"target":34962
		},
		{
			"buffer":0,
			"byteLength":168,
			"byteOffset":4944,
			"target":34963
		},
		{
			"buffer":0,
			"byteLength":576,
			"byteOffset":5112,
			"target":34962
		},
		{
			"buffer":0,
			"byteLength":576,
			"byteOffset":5688,
			"target":34962
		},
		{
			"buffer":0,
			"byteLength":384,
			"byteOffset":6264,
			"target":34962
		},
		{
			"buffer":0,
			"byteLength":168,
			"byteOffset":6648,
			"target":34963
		},
		{
			"buffer":0,
			"byteLength":672,
			"byteOffset":6816,
			"target":34962
		},
		{
			"buffer":0,
			"byteLength":672,
			"byteOffset":7488,
			"target":34962
		},
		{
			"buffer":0,
			"byteLength":448,
			"byteOffset":8160,
			"target":34962
		},
		{
			"buffer":0,
			"byteLength":264,
			"byteOffset":8608,
			"target":34963
		},
		{
			"buffer":0,
			"byteLength":288,
			"byteOffset":8872,
			"target":34962
		},
		{
			"buffer":0,
			"byteLength":288,
			"byteOffset":9160,
			"target":34962
		},
		{
			"buffer":0,
			"byteLength":192,
			"byteOffset":9448,
			"target":34962
		},
		{
			"buffer":0,
			"byteLength":72,
			"byteOffset":9640,
			"target":34963
		},
		{
			"buffer":0,
			"byteLength":288,
			"byteOffset":9712,
			"target":34962
		},
		{
			"buffer":0,
			"byteLength":288,
			"byteOffset":10000,
			"target":34962
		},
		{
			"buffer":0,
			"byteLength":192,
			"byteOffset":10288,
			"target":34962
		},
		{
			"buffer":0,
			"byteLength":72,
			"byteOffset":10480,
			"target":34963
		},
		{
			"buffer":0,
			"byteLength":480,
			"byteOffset":10552,
			"target":34962
		},
		{
			"buffer":0,
			"byteLength":480,
			"byteOffset":11032,
			"target":34962
		},
		{
			"buffer":0,
			"byteLength":320,
			"byteOffset":11512,
			"target":34962
		},
		{
			"buffer":0,
			"byteLength":120,
			"byteOffset":11832,
			"target":34963
		},
		{
			"buffer":0,
			"byteLength":480,
			"byteOffset":11952,
			"target":34962
		},
		{
			"buffer":0,
			"byteLength":480,
			"byteOffset":12432,
			"target":34962
		},
		{
			"buffer":0,
			"byteLength":320,
			"byteOffset":12912,
			"target":34962
		},
		{
			"buffer":0,
			"byteLength":120,
			"byteOffset":13232,
			"target":34963
		},
		{
			"buffer":0,
			"byteLength":480,
			"byteOffset":13352,
			"target":34962
		},
		{
			"buffer":0,
			"byteLength":480,
			"byteOffset":13832,
			"target":34962
		},
		{
			"buffer":0,
			"byteLength":320,
			"byteOffset":14312,
			"target":34962
		},
		{
			"buffer":0,
			"byteLength":120,
			"byteOffset":14632,
			"target":34963
		},
		{
			"buffer":0,
			"byteLength":288,
			"byteOffset":14752,
			"target":34962
		},
		{
			"buffer":0,
			"byteLength":288,
			"byteOffset":15040,
			"target":34962
		},
		{
			"buffer":0,
			"byteLength":192,
			"byteOffset":15328,
			"target":34962
		},
		{
			"buffer":0,
			"byteLength":72,
			"byteOffset":15520,
			"target":34963
		},
		{
			"buffer":0,
			"byteLength":288,
			"byteOffset":15592,
			"target":34962
		},
		{
			"buffer":0,
			"byteLength":288,
			"byteOffset":15880,
			"target":34962
		},
		{
			"buffer":0,
			"byteLength":192,
			"byteOffset":16168,
			"target":34962
		},
		{
			"buffer":0,
			"byteLength":72,
			"byteOffset":16360,
			"target":34963
		},
		{
			"buffer":0,
			"byteLength":288,
			"byteOffset":16432,
			"target":34962
		},
		{
			"buffer":0,
			"byteLength":288,
			"byteOffset":16720,
			"target":34962
		},
		{
			"buffer":0,
			"byteLength":192,
			"byteOffset":17008,
			"target":34962
		},
		{
			"buffer":0,
			"byteLength":72,
			"byteOffset":17200,
			"target":34963
		},
		{
			"buffer":0,
			"byteLength":288,
			"byteOffset":17272,
			"target":34962
		},
		{
			"buffer":0,
			"byteLength":288,
			"byteOffset":17560,
			"target":34962
		},
		{
			"buffer":0,
			"byteLength":192,
			"byteOffset":17848,
			"target":34962
		},
		{
			"buffer":0,
			"byteLength":72,
			"byteOffset":18040,
			"target":34963
		},
		{
			"buffer":0,
			"byteLength":288,
			"byteOffset":18112,
			"target":34962
		},
		{
			"buffer":0,
			"byteLength":288,
			"byteOffset":18400,
			"target":34962
		},
		{
			"buffer":0,
			"byteLength":192,
			"byteOffset":18688,
			"target":34962
		},
		{
			"buffer":0,
			"byteLength":72,
			"byteOffset":18880,
			"target":34963
		},
		{
			"buffer":0,
			"byteLength":288,
			"byteOffset":18952,
			"target":34962
		},
		{
			"buffer":0,
			"byteLength":288,
			"byteOffset":19240,
			"target":34962
		},
		{
			"buffer":0,
			"byteLength":192,
			"byteOffset":19528,
			"target":34962
		},
		{
			"buffer":0,
			"byteLength":72,
			"byteOffset":19720,
			"target":34963
		},
		{
			"buffer":0,
			"byteLength":81008,
			"byteOffset":19792,
			"target":34962
		},
		{
			"buffer":0,
			"byteLength":121512,
			"byteOffset":100800,
			"target":34962
		},
		{
			"buffer":0,
			"byteLength":121512,
			"byteOffset":222312,
			"target":34962
		},
		{
			"buffer":0,
			"byteLength":81008,
			"byteOffset":343824,
			"target":34962
		},
		{
			"buffer":0,
			"byteLength":81008,
			"byteOffset":424832,
			"target":34962
		},
		{
			"buffer":0,
			"byteLength":53652,
			"byteOffset":505840,
			"target":34963
		},
		{
			"buffer":0,
			"byteLength":23632,
			"byteOffset":559492,
			"target":34962
		},
		{
			"buffer":0,
			"byteLength":35448,
			"byteOffset":583124,
			"target":34962
		},
		{
			"buffer":0,
			"byteLength":35448,
			"byteOffset":618572,
			"target":34962
		},
		{
			"buffer":0,
			"byteLength":23632,
			"byteOffset":654020,
			"target":34962
		},
		{
			"buffer":0,
			"byteLength":23632,
			"byteOffset":677652,
			"target":34962
		},
		{
			"buffer":0,
			"byteLength":12480,
			"byteOffset":701284,
			"target":34963
		}
	],
	"samplers":[
		{
			"magFilter":9729,
			"minFilter":9987
		}
	],
	"buffers":[
		{
			"byteLength":713764,
			"uri":"Wagon.bin"
		}
	]
}
