{
	"asset":{
		"generator":"Khronos glTF Blender I/O v4.0.44",
		"version":"2.0"
	},
	"scene":0,
	"scenes":[
		{
			"name":"Scene",
			"nodes":[
				6
			]
		}
	],
	"nodes":[
		{
			"mesh":0,
			"name":"Whetstone_01-convcolonly"
		},
		{
			"mesh":1,
			"name":"Whetstone_02-convcolonly"
		},
		{
			"mesh":2,
			"name":"Whetstone_03-convcolonly"
		},
		{
			"mesh":3,
			"name":"Whetstone_04-convcolonly"
		},
		{
			"mesh":4,
			"name":"Whetstone_05-convcolonly"
		},
		{
			"mesh":5,
			"name":"Whetstone_06-convcolonly"
		},
		{
			"children":[
				0,
				1,
				2,
				3,
				4,
				5
			],
			"mesh":6,
			"name":"Whetstone"
		}
	],
	"materials":[
		{
			"doubleSided":true,
			"name":"Collision",
			"pbrMetallicRoughness":{
				"baseColorFactor":[
					0.047601714730262756,
					0.17601831257343292,
					0.8000785112380981,
					1
				],
				"metallicFactor":0,
				"roughnessFactor":0.5
			}
		},
		{
			"doubleSided":true,
			"name":"MI_Trim_Furniture",
			"normalTexture":{
				"index":0
			},
			"pbrMetallicRoughness":{
				"baseColorTexture":{
					"index":1
				},
				"metallicRoughnessTexture":{
					"index":2
				}
			}
		},
		{
			"doubleSided":true,
			"name":"MI_Trim_Metal",
			"normalTexture":{
				"index":3
			},
			"pbrMetallicRoughness":{
				"baseColorTexture":{
					"index":4
				},
				"metallicRoughnessTexture":{
					"index":5
				}
			}
		},
		{
			"doubleSided":true,
			"name":"MI_Trim_Props_Vertex",
			"normalTexture":{
				"index":6
			},
			"pbrMetallicRoughness":{
				"baseColorTexture":{
					"index":7
				},
				"metallicRoughnessTexture":{
					"index":8
				}
			}
		}
	],
	"meshes":[
		{
			"name":"Cube.106",
			"primitives":[
				{
					"attributes":{
						"POSITION":0,
						"NORMAL":1,
						"TEXCOORD_0":2
					},
					"indices":3,
					"material":0
				}
			]
		},
		{
			"name":"Cube.107",
			"primitives":[
				{
					"attributes":{
						"POSITION":4,
						"NORMAL":5,
						"TEXCOORD_0":6
					},
					"indices":7,
					"material":0
				}
			]
		},
		{
			"name":"Cube.108",
			"primitives":[
				{
					"attributes":{
						"POSITION":8,
						"NORMAL":9,
						"TEXCOORD_0":10
					},
					"indices":7,
					"material":0
				}
			]
		},
		{
			"name":"Cube.109",
			"primitives":[
				{
					"attributes":{
						"POSITION":11,
						"NORMAL":12,
						"TEXCOORD_0":13
					},
					"indices":14,
					"material":0
				}
			]
		},
		{
			"name":"Cube.110",
			"primitives":[
				{
					"attributes":{
						"POSITION":15,
						"NORMAL":16,
						"TEXCOORD_0":17
					},
					"indices":18,
					"material":0
				}
			]
		},
		{
			"name":"Cube.111",
			"primitives":[
				{
					"attributes":{
						"POSITION":19,
						"NORMAL":20,
						"TEXCOORD_0":21
					},
					"indices":22,
					"material":0
				}
			]
		},
		{
			"name":"Cube.125",
			"primitives":[
				{
					"attributes":{
						"COLOR_0":23,
						"POSITION":24,
						"NORMAL":25,
						"TEXCOORD_0":26
					},
					"indices":27,
					"material":1
				},
				{
					"attributes":{
						"COLOR_0":28,
						"POSITION":29,
						"NORMAL":30,
						"TEXCOORD_0":31
					},
					"indices":32,
					"material":2
				},
				{
					"attributes":{
						"COLOR_0":33,
						"POSITION":34,
						"NORMAL":35,
						"TEXCOORD_0":36
					},
					"indices":37,
					"material":3
				}
			]
		}
	],
	"textures":[
		{
			"sampler":0,
			"source":0
		},
		{
			"sampler":0,
			"source":1
		},
		{
			"sampler":0,
			"source":2
		},
		{
			"sampler":0,
			"source":3
		},
		{
			"sampler":0,
			"source":4
		},
		{
			"sampler":0,
			"source":5
		},
		{
			"sampler":0,
			"source":6
		},
		{
			"sampler":0,
			"source":7
		},
		{
			"sampler":0,
			"source":8
		}
	],
	"images":[
		{
			"mimeType":"image/png",
			"name":"T_Trim_Furniture_Normal",
			"uri":"T_Trim_Furniture_Normal.png"
		},
		{
			"mimeType":"image/png",
			"name":"T_Trim_Furniture_BaseColor",
			"uri":"T_Trim_Furniture_BaseColor.png"
		},
		{
			"mimeType":"image/png",
			"name":"T_Trim_Furniture_ORM",
			"uri":"T_Trim_Furniture_ORM.png"
		},
		{
			"mimeType":"image/png",
			"name":"T_Trim_Metal_Normal",
			"uri":"T_Trim_Metal_Normal.png"
		},
		{
			"mimeType":"image/png",
			"name":"T_Trim_Metal_BaseColor",
			"uri":"T_Trim_Metal_BaseColor.png"
		},
		{
			"mimeType":"image/png",
			"name":"T_Trim_Metal_ORM",
			"uri":"T_Trim_Metal_ORM.png"
		},
		{
			"mimeType":"image/png",
			"name":"T_Trim_Props_Normal",
			"uri":"T_Trim_Props_Normal.png"
		},
		{
			"mimeType":"image/png",
			"name":"T_Trim_Props_BaseColor",
			"uri":"T_Trim_Props_BaseColor.png"
		},
		{
			"mimeType":"image/png",
			"name":"T_Trim_Props_ORM",
			"uri":"T_Trim_Props_ORM.png"
		}
	],
	"accessors":[
		{
			"bufferView":0,
			"componentType":5126,
			"count":24,
			"max":[
				0.4469800889492035,
				0.7558972239494324,
				0.35047152638435364
			],
			"min":[
				-0.4469775855541229,
				0.004830271005630493,
				-0.3504723608493805
			],
			"type":"VEC3"
		},
		{
			"bufferView":1,
			"componentType":5126,
			"count":24,
			"type":"VEC3"
		},
		{
			"bufferView":2,
			"componentType":5126,
			"count":24,
			"type":"VEC2"
		},
		{
			"bufferView":3,
			"componentType":5123,
			"count":36,
			"type":"SCALAR"
		},
		{
			"bufferView":4,
			"componentType":5126,
			"count":24,
			"max":[
				0.5440284609794617,
				0.038113225251436234,
				0.3773445785045624
			],
			"min":[
				-0.5440255403518677,
				0.004830271005630493,
				0.21407221257686615
			],
			"type":"VEC3"
		},
		{
			"bufferView":5,
			"componentType":5126,
			"count":24,
			"type":"VEC3"
		},
		{
			"bufferView":6,
			"componentType":5126,
			"count":24,
			"type":"VEC2"
		},
		{
			"bufferView":7,
			"componentType":5123,
			"count":36,
			"type":"SCALAR"
		},
		{
			"bufferView":8,
			"componentType":5126,
			"count":24,
			"max":[
				0.5440284609794617,
				0.038113225251436234,
				-0.21163667738437653
			],
			"min":[
				-0.5440255403518677,
				0.004830271005630493,
				-0.37490904331207275
			],
			"type":"VEC3"
		},
		{
			"bufferView":9,
			"componentType":5126,
			"count":24,
			"type":"VEC3"
		},
		{
			"bufferView":10,
			"componentType":5126,
			"count":24,
			"type":"VEC2"
		},
		{
			"bufferView":11,
			"componentType":5126,
			"count":24,
			"max":[
				0.5691554546356201,
				0.8051662445068359,
				0.2510547637939453
			],
			"min":[
				-0.5691539645195007,
				0.6704964637756348,
				-0.2510555684566498
			],
			"type":"VEC3"
		},
		{
			"bufferView":12,
			"componentType":5126,
			"count":24,
			"type":"VEC3"
		},
		{
			"bufferView":13,
			"componentType":5126,
			"count":24,
			"type":"VEC2"
		},
		{
			"bufferView":14,
			"componentType":5123,
			"count":36,
			"type":"SCALAR"
		},
		{
			"bufferView":15,
			"componentType":5126,
			"count":48,
			"max":[
				0.36484262347221375,
				1.1948049068450928,
				0.08740405738353729
			],
			"min":[
				-0.3648430407047272,
				0.6926945447921753,
				-0.0874050110578537
			],
			"type":"VEC3"
		},
		{
			"bufferView":16,
			"componentType":5126,
			"count":48,
			"type":"VEC3"
		},
		{
			"bufferView":17,
			"componentType":5126,
			"count":48,
			"type":"VEC2"
		},
		{
			"bufferView":18,
			"componentType":5123,
			"count":84,
			"type":"SCALAR"
		},
		{
			"bufferView":19,
			"componentType":5126,
			"count":24,
			"max":[
				0.033644914627075195,
				0.8904079794883728,
				0.5379787087440491
			],
			"min":[
				-0.03364485502243042,
				0.6029905676841736,
				0.055981799960136414
			],
			"type":"VEC3"
		},
		{
			"bufferView":20,
			"componentType":5126,
			"count":24,
			"type":"VEC3"
		},
		{
			"bufferView":21,
			"componentType":5126,
			"count":24,
			"type":"VEC2"
		},
		{
			"bufferView":22,
			"componentType":5123,
			"count":36,
			"type":"SCALAR"
		},
		{
			"bufferView":23,
			"componentType":5123,
			"count":272,
			"normalized":true,
			"type":"VEC4"
		},
		{
			"bufferView":24,
			"componentType":5126,
			"count":272,
			"max":[
				0.5781391263008118,
				0.7973624467849731,
				0.37483900785446167
			],
			"min":[
				-0.5627491474151611,
				0.002910962328314781,
				-0.37483900785446167
			],
			"type":"VEC3"
		},
		{
			"bufferView":25,
			"componentType":5126,
			"count":272,
			"type":"VEC3"
		},
		{
			"bufferView":26,
			"componentType":5126,
			"count":272,
			"type":"VEC2"
		},
		{
			"bufferView":27,
			"componentType":5123,
			"count":432,
			"type":"SCALAR"
		},
		{
			"bufferView":28,
			"componentType":5123,
			"count":955,
			"normalized":true,
			"type":"VEC4"
		},
		{
			"bufferView":29,
			"componentType":5126,
			"count":955,
			"max":[
				0.4461928606033325,
				0.912340521812439,
				0.5269156694412231
			],
			"min":[
				-0.4461929202079773,
				0.17261816561222076,
				-0.3416018486022949
			],
			"type":"VEC3"
		},
		{
			"bufferView":30,
			"componentType":5126,
			"count":955,
			"type":"VEC3"
		},
		{
			"bufferView":31,
			"componentType":5126,
			"count":955,
			"type":"VEC2"
		},
		{
			"bufferView":32,
			"componentType":5123,
			"count":2616,
			"type":"SCALAR"
		},
		{
			"bufferView":33,
			"componentType":5123,
			"count":90,
			"normalized":true,
			"type":"VEC4"
		},
		{
			"bufferView":34,
			"componentType":5126,
			"count":90,
			"max":[
				0.3447129726409912,
				1.172794222831726,
				0.08529841899871826
			],
			"min":[
				-0.3447129726409912,
				0.4761374294757843,
				-0.08529841899871826
			],
			"type":"VEC3"
		},
		{
			"bufferView":35,
			"componentType":5126,
			"count":90,
			"type":"VEC3"
		},
		{
			"bufferView":36,
			"componentType":5126,
			"count":90,
			"type":"VEC2"
		},
		{
			"bufferView":37,
			"componentType":5123,
			"count":252,
			"type":"SCALAR"
		}
	],
	"bufferViews":[
		{
			"buffer":0,
			"byteLength":288,
			"byteOffset":0,
			"target":34962
		},
		{
			"buffer":0,
			"byteLength":288,
			"byteOffset":288,
			"target":34962
		},
		{
			"buffer":0,
			"byteLength":192,
			"byteOffset":576,
			"target":34962
		},
		{
			"buffer":0,
			"byteLength":72,
			"byteOffset":768,
			"target":34963
		},
		{
			"buffer":0,
			"byteLength":288,
			"byteOffset":840,
			"target":34962
		},
		{
			"buffer":0,
			"byteLength":288,
			"byteOffset":1128,
			"target":34962
		},
		{
			"buffer":0,
			"byteLength":192,
			"byteOffset":1416,
			"target":34962
		},
		{
			"buffer":0,
			"byteLength":72,
			"byteOffset":1608,
			"target":34963
		},
		{
			"buffer":0,
			"byteLength":288,
			"byteOffset":1680,
			"target":34962
		},
		{
			"buffer":0,
			"byteLength":288,
			"byteOffset":1968,
			"target":34962
		},
		{
			"buffer":0,
			"byteLength":192,
			"byteOffset":2256,
			"target":34962
		},
		{
			"buffer":0,
			"byteLength":288,
			"byteOffset":2448,
			"target":34962
		},
		{
			"buffer":0,
			"byteLength":288,
			"byteOffset":2736,
			"target":34962
		},
		{
			"buffer":0,
			"byteLength":192,
			"byteOffset":3024,
			"target":34962
		},
		{
			"buffer":0,
			"byteLength":72,
			"byteOffset":3216,
			"target":34963
		},
		{
			"buffer":0,
			"byteLength":576,
			"byteOffset":3288,
			"target":34962
		},
		{
			"buffer":0,
			"byteLength":576,
			"byteOffset":3864,
			"target":34962
		},
		{
			"buffer":0,
			"byteLength":384,
			"byteOffset":4440,
			"target":34962
		},
		{
			"buffer":0,
			"byteLength":168,
			"byteOffset":4824,
			"target":34963
		},
		{
			"buffer":0,
			"byteLength":288,
			"byteOffset":4992,
			"target":34962
		},
		{
			"buffer":0,
			"byteLength":288,
			"byteOffset":5280,
			"target":34962
		},
		{
			"buffer":0,
			"byteLength":192,
			"byteOffset":5568,
			"target":34962
		},
		{
			"buffer":0,
			"byteLength":72,
			"byteOffset":5760,
			"target":34963
		},
		{
			"buffer":0,
			"byteLength":2176,
			"byteOffset":5832,
			"target":34962
		},
		{
			"buffer":0,
			"byteLength":3264,
			"byteOffset":8008,
			"target":34962
		},
		{
			"buffer":0,
			"byteLength":3264,
			"byteOffset":11272,
			"target":34962
		},
		{
			"buffer":0,
			"byteLength":2176,
			"byteOffset":14536,
			"target":34962
		},
		{
			"buffer":0,
			"byteLength":864,
			"byteOffset":16712,
			"target":34963
		},
		{
			"buffer":0,
			"byteLength":7640,
			"byteOffset":17576,
			"target":34962
		},
		{
			"buffer":0,
			"byteLength":11460,
			"byteOffset":25216,
			"target":34962
		},
		{
			"buffer":0,
			"byteLength":11460,
			"byteOffset":36676,
			"target":34962
		},
		{
			"buffer":0,
			"byteLength":7640,
			"byteOffset":48136,
			"target":34962
		},
		{
			"buffer":0,
			"byteLength":5232,
			"byteOffset":55776,
			"target":34963
		},
		{
			"buffer":0,
			"byteLength":720,
			"byteOffset":61008,
			"target":34962
		},
		{
			"buffer":0,
			"byteLength":1080,
			"byteOffset":61728,
			"target":34962
		},
		{
			"buffer":0,
			"byteLength":1080,
			"byteOffset":62808,
			"target":34962
		},
		{
			"buffer":0,
			"byteLength":720,
			"byteOffset":63888,
			"target":34962
		},
		{
			"buffer":0,
			"byteLength":504,
			"byteOffset":64608,
			"target":34963
		}
	],
	"samplers":[
		{
			"magFilter":9729,
			"minFilter":9987
		}
	],
	"buffers":[
		{
			"byteLength":65112,
			"uri":"Whetstone.bin"
		}
	]
}
