# Blender 4.5.3 LTS
# www.blender.org
o Hacksilver4
v 0.100000 -0.144041 0.003688
v 0.100000 -0.277325 -0.087532
v -0.100000 -0.144041 0.003688
v -0.100000 -0.277325 -0.087532
v 0.080000 0.460464 -0.155345
v 0.100000 0.440472 -0.154817
v 0.080000 0.436474 -0.175214
v 0.094146 0.454457 -0.155905
v 0.091547 0.449858 -0.166786
v 0.094136 0.438514 -0.169232
v 0.080000 0.451784 -0.169282
v 0.080000 0.502808 0.052526
v 0.100000 0.482407 0.050985
v 0.094142 0.496832 0.052075
v 0.080000 0.451969 0.306718
v 0.080000 0.428547 0.321885
v 0.100000 0.432035 0.302903
v 0.080000 0.443484 0.319284
v 0.091547 0.441353 0.316268
v 0.094151 0.429400 0.316274
v 0.094137 0.446127 0.305635
v 0.080000 -0.105335 0.200191
v 0.080000 -0.138289 0.180948
v 0.100000 -0.126856 0.175538
v 0.080000 -0.123064 0.192714
v 0.091547 -0.124633 0.189621
v 0.094254 -0.134097 0.180140
v 0.094148 -0.117192 0.191696
v 0.080000 -0.195629 0.117873
v 0.080000 -0.228239 0.097327
v 0.100000 -0.219346 0.074408
v 0.080000 -0.210753 0.105725
v 0.091547 -0.214273 0.098288
v 0.094070 -0.225350 0.090761
v 0.094174 -0.212607 0.094067
v 0.080000 -0.569039 -0.004913
v 0.080000 -0.597140 -0.028548
v 0.100000 -0.576208 -0.032470
v 0.080000 -0.585205 -0.014216
v 0.091547 -0.583962 -0.017346
v 0.094134 -0.590486 -0.028637
v 0.094080 -0.573483 -0.013635
v 0.080000 -0.646650 -0.127567
v 0.080000 -0.640774 -0.158886
v 0.100000 -0.630780 -0.141656
v 0.080000 -0.648634 -0.144150
v 0.091547 -0.645613 -0.143765
v 0.094148 -0.638498 -0.153237
v 0.094134 -0.642503 -0.132684
v 0.080000 -0.535618 -0.254184
v 0.080000 -0.501036 -0.264540
v 0.100000 -0.515814 -0.245816
v 0.080000 -0.519350 -0.262780
v 0.091547 -0.518886 -0.260091
v 0.094130 -0.507666 -0.259423
v 0.094148 -0.528385 -0.253020
v 0.080000 -0.331241 -0.238128
v 0.100000 -0.323259 -0.215832
v 0.094142 -0.328903 -0.231597
v 0.080000 -0.162747 -0.183367
v 0.100000 -0.160708 -0.162982
v 0.094142 -0.162150 -0.177396
v -0.080000 0.460464 -0.155345
v -0.080000 0.436474 -0.175214
v -0.100000 0.440472 -0.154817
v -0.080000 0.451784 -0.169282
v -0.091547 0.449858 -0.166786
v -0.094136 0.438514 -0.169232
v -0.094146 0.454457 -0.155905
v -0.100000 0.482407 0.050985
v -0.080000 0.502808 0.052526
v -0.094142 0.496832 0.052075
v -0.080000 0.451969 0.306718
v -0.100000 0.432035 0.302903
v -0.080000 0.428547 0.321885
v -0.094137 0.446127 0.305635
v -0.091547 0.441353 0.316268
v -0.094151 0.429400 0.316274
v -0.080000 0.443484 0.319284
v -0.080000 -0.105335 0.200191
v -0.100000 -0.126856 0.175538
v -0.080000 -0.138289 0.180948
v -0.094148 -0.117192 0.191696
v -0.091547 -0.124633 0.189621
v -0.094254 -0.134097 0.180140
v -0.080000 -0.123064 0.192714
v -0.080000 -0.195629 0.117873
v -0.100000 -0.219346 0.074408
v -0.080000 -0.228239 0.097327
v -0.094174 -0.212607 0.094067
v -0.091547 -0.214273 0.098288
v -0.094070 -0.225350 0.090761
v -0.080000 -0.210753 0.105725
v -0.080000 -0.569039 -0.004913
v -0.100000 -0.576208 -0.032470
v -0.080000 -0.597140 -0.028548
v -0.094080 -0.573483 -0.013635
v -0.091547 -0.583962 -0.017346
v -0.094134 -0.590486 -0.028637
v -0.080000 -0.585205 -0.014216
v -0.080000 -0.646650 -0.127567
v -0.100000 -0.630780 -0.141656
v -0.080000 -0.640774 -0.158886
v -0.094134 -0.642503 -0.132684
v -0.091547 -0.645613 -0.143765
v -0.094148 -0.638498 -0.153237
v -0.080000 -0.648634 -0.144150
v -0.080000 -0.535618 -0.254184
v -0.100000 -0.515814 -0.245816
v -0.080000 -0.501036 -0.264540
v -0.094148 -0.528385 -0.253020
v -0.091547 -0.518886 -0.260091
v -0.094130 -0.507666 -0.259423
v -0.080000 -0.519350 -0.262780
v -0.100000 -0.323259 -0.215832
v -0.080000 -0.331241 -0.238128
v -0.094142 -0.328903 -0.231597
v -0.100000 -0.160708 -0.162982
v -0.080000 -0.162747 -0.183367
v -0.094142 -0.162150 -0.177396
vn 1.0000 -0.0000 -0.0000
vn -1.0000 -0.0000 -0.0000
vn 0.1715 0.9212 -0.3492
vn 0.9643 0.1713 -0.2020
vn 0.1760 0.1706 -0.9695
vn 0.6814 0.6680 -0.2992
vn 0.5549 0.5323 -0.6393
vn 0.6867 0.1703 -0.7067
vn 0.1533 0.6298 -0.7614
vn 0.1939 0.9810 -0.0001
vn 0.9766 0.2150 -0.0027
vn 0.6887 0.7251 -0.0020
vn 0.1816 0.9123 0.3670
vn 0.1751 -0.0372 0.9838
vn 0.9670 0.1339 0.2169
vn 0.1731 0.5361 0.8262
vn 0.5767 0.4410 0.6877
vn 0.6911 0.0139 0.7227
vn 0.6994 0.6450 0.3079
vn 0.1675 -0.2820 0.9447
vn 0.1074 -0.6835 0.7220
vn 0.9425 -0.1966 0.2703
vn 0.1012 -0.4964 0.8622
vn 0.4523 -0.4787 0.7525
vn 0.5551 -0.5621 0.6131
vn 0.6497 -0.2610 0.7140
vn 0.1500 -0.6894 0.7087
vn 0.2292 -0.3566 0.9057
vn 0.9875 -0.0662 0.1428
vn 0.2648 -0.4940 0.8281
vn 0.6085 -0.3654 0.7044
vn 0.7709 -0.2158 0.5993
vn 0.8226 -0.3363 0.4586
vn 0.2070 -0.3680 0.9065
vn 0.1787 -0.8323 0.5248
vn 0.9716 -0.1609 0.1737
vn 0.1623 -0.6320 0.7578
vn 0.5847 -0.5307 0.6135
vn 0.6938 -0.5970 0.4028
vn 0.7230 -0.2903 0.6269
vn 0.1759 -0.9375 0.3002
vn 0.1691 -0.7667 -0.6193
vn 0.9637 -0.2617 -0.0537
vn 0.1492 -0.9720 -0.1814
vn 0.5501 -0.8201 -0.1573
vn 0.6770 -0.5981 -0.4288
vn 0.6852 -0.7062 0.1781
vn 0.1681 -0.5809 -0.7965
vn 0.1777 0.0490 -0.9829
vn 0.9646 -0.0800 -0.2512
vn 0.1390 -0.2829 -0.9490
vn 0.5445 -0.2446 -0.8023
vn 0.6833 -0.0006 -0.7301
vn 0.6723 -0.4093 -0.6168
vn 0.1931 0.2223 -0.9557
vn 0.9777 0.0547 -0.2025
vn 0.6963 0.1680 -0.6978
vn 0.1962 0.1649 -0.9666
vn 0.9840 0.0254 -0.1762
vn 0.7222 0.1145 -0.6821
vn -0.1715 0.9212 -0.3492
vn -0.1760 0.1706 -0.9695
vn -0.9643 0.1713 -0.2020
vn -0.1533 0.6298 -0.7614
vn -0.5549 0.5323 -0.6393
vn -0.6867 0.1703 -0.7067
vn -0.6814 0.6680 -0.2992
vn -0.9766 0.2150 -0.0027
vn -0.1939 0.9810 -0.0001
vn -0.6887 0.7251 -0.0020
vn -0.1816 0.9123 0.3670
vn -0.9670 0.1339 0.2169
vn -0.1751 -0.0372 0.9838
vn -0.6994 0.6450 0.3079
vn -0.5767 0.4410 0.6877
vn -0.6911 0.0139 0.7227
vn -0.1731 0.5361 0.8262
vn -0.1675 -0.2820 0.9447
vn -0.9425 -0.1966 0.2703
vn -0.1074 -0.6835 0.7220
vn -0.6497 -0.2610 0.7140
vn -0.4523 -0.4787 0.7525
vn -0.5551 -0.5621 0.6131
vn -0.1012 -0.4964 0.8622
vn -0.1500 -0.6894 0.7087
vn -0.9875 -0.0662 0.1428
vn -0.2292 -0.3566 0.9057
vn -0.8226 -0.3363 0.4586
vn -0.6085 -0.3654 0.7044
vn -0.7709 -0.2158 0.5993
vn -0.2648 -0.4940 0.8281
vn -0.2070 -0.3680 0.9065
vn -0.9716 -0.1609 0.1737
vn -0.1787 -0.8323 0.5248
vn -0.7230 -0.2903 0.6269
vn -0.5847 -0.5307 0.6135
vn -0.6938 -0.5970 0.4028
vn -0.1623 -0.6320 0.7578
vn -0.1759 -0.9375 0.3002
vn -0.9637 -0.2617 -0.0537
vn -0.1691 -0.7667 -0.6193
vn -0.6852 -0.7062 0.1781
vn -0.5501 -0.8201 -0.1573
vn -0.6770 -0.5981 -0.4288
vn -0.1492 -0.9720 -0.1814
vn -0.1681 -0.5809 -0.7965
vn -0.9646 -0.0800 -0.2512
vn -0.1777 0.0490 -0.9829
vn -0.6723 -0.4093 -0.6168
vn -0.5445 -0.2446 -0.8023
vn -0.6833 -0.0006 -0.7301
vn -0.1390 -0.2829 -0.9490
vn -0.9777 0.0547 -0.2025
vn -0.1931 0.2223 -0.9557
vn -0.6963 0.1680 -0.6978
vn -0.9840 0.0254 -0.1762
vn -0.1962 0.1649 -0.9666
vn -0.7222 0.1145 -0.6821
s 1
f 5//3 8//6 9//7 11//9
f 6//4 10//8 9//7 8//6
f 7//5 11//9 9//7 10//8
f 15//13 18//16 19//17 21//19
f 16//14 20//18 19//17 18//16
f 17//15 21//19 19//17 20//18
f 22//20 25//23 26//24 28//26
f 23//21 27//25 26//24 25//23
f 24//22 28//26 26//24 27//25
f 29//27 32//30 33//31 35//33
f 30//28 34//32 33//31 32//30
f 31//29 35//33 33//31 34//32
f 36//34 39//37 40//38 42//40
f 37//35 41//39 40//38 39//37
f 38//36 42//40 40//38 41//39
f 43//41 46//44 47//45 49//47
f 44//42 48//46 47//45 46//44
f 45//43 49//47 47//45 48//46
f 50//48 53//51 54//52 56//54
f 51//49 55//53 54//52 53//51
f 52//50 56//54 54//52 55//53
f 63//61 66//64 67//65 69//67
f 64//62 68//66 67//65 66//64
f 65//63 69//67 67//65 68//66
f 73//71 76//74 77//75 79//77
f 74//72 78//76 77//75 76//74
f 75//73 79//77 77//75 78//76
f 80//78 83//81 84//82 86//84
f 81//79 85//83 84//82 83//81
f 82//80 86//84 84//82 85//83
f 87//85 90//88 91//89 93//91
f 88//86 92//90 91//89 90//88
f 89//87 93//91 91//89 92//90
f 94//92 97//95 98//96 100//98
f 95//93 99//97 98//96 97//95
f 96//94 100//98 98//96 99//97
f 101//99 104//102 105//103 107//105
f 102//100 106//104 105//103 104//102
f 103//101 107//105 105//103 106//104
f 108//106 111//109 112//110 114//112
f 109//107 113//111 112//110 111//109
f 110//108 114//112 112//110 113//111
f 5//3 12//10 14//12 8//6
f 8//6 14//12 13//11 6//4
f 12//10 15//13 21//19 14//12
f 14//12 21//19 17//15 13//11
f 16//14 22//20 28//26 20//18
f 20//18 28//26 24//22 17//15
f 23//21 29//27 35//33 27//25
f 27//25 35//33 31//29 24//22
f 30//28 36//34 42//40 34//32
f 34//32 42//40 38//36 31//29
f 37//35 43//41 49//47 41//39
f 41//39 49//47 45//43 38//36
f 44//42 50//48 56//54 48//46
f 48//46 56//54 52//50 45//43
f 51//49 57//55 59//57 55//53
f 55//53 59//57 58//56 52//50
f 57//55 60//58 62//60 59//57
f 59//57 62//60 61//59 58//56
f 6//4 61//59 62//60 10//8
f 10//8 62//60 60//58 7//5
f 65//63 70//68 72//70 69//67
f 69//67 72//70 71//69 63//61
f 70//68 74//72 76//74 72//70
f 72//70 76//74 73//71 71//69
f 74//72 81//79 83//81 78//76
f 78//76 83//81 80//78 75//73
f 81//79 88//86 90//88 85//83
f 85//83 90//88 87//85 82//80
f 88//86 95//93 97//95 92//90
f 92//90 97//95 94//92 89//87
f 95//93 102//100 104//102 99//97
f 99//97 104//102 101//99 96//94
f 102//100 109//107 111//109 106//104
f 106//104 111//109 108//106 103//101
f 109//107 115//113 117//115 113//111
f 113//111 117//115 116//114 110//108
f 115//113 118//116 120//118 117//115
f 117//115 120//118 119//117 116//114
f 64//62 119//117 120//118 68//66
f 68//66 120//118 118//116 65//63
f 7//5 64//62 66//64 11//9
f 11//9 66//64 63//61 5//3
f 50//48 108//106 114//112 53//51
f 53//51 114//112 110//108 51//49
f 103//101 44//42 46//44 107//105
f 107//105 46//44 43//41 101//99
f 29//27 87//85 93//91 32//30
f 32//30 93//91 89//87 30//28
f 82//80 23//21 25//23 86//84
f 86//84 25//23 22//20 80//78
f 36//34 94//92 100//98 39//37
f 39//37 100//98 96//94 37//35
f 15//13 73//71 79//77 18//16
f 18//16 79//77 75//73 16//14
f 5//3 63//61 71//69 12//10
f 1//1 61//59 6//4 13//11
f 60//58 119//117 64//62 7//5
f 13//11 17//15 24//22 1//1
f 12//10 71//69 73//71 15//13
f 16//14 75//73 80//78 22//20
f 2//1 1//1 24//22 31//29
f 23//21 82//80 87//85 29//27
f 45//43 2//1 31//29 38//36
f 30//28 89//87 94//92 36//34
f 37//35 96//94 101//99 43//41
f 58//56 2//1 45//43 52//50
f 44//42 103//101 108//106 50//48
f 51//49 110//108 116//114 57//55
f 61//59 1//1 2//1 58//56
f 57//55 116//114 119//117 60//58
f 3//2 70//68 65//63 118//116
f 70//68 3//2 81//79 74//72
f 4//2 88//86 81//79 3//2
f 102//100 95//93 88//86 4//2
f 115//113 109//107 102//100 4//2
f 118//116 115//113 4//2 3//2
