# Blender 4.5.3 LTS
# www.blender.org
o Hacksilver2
v 0.080000 -0.373669 -0.415582
v 0.100000 -0.369943 -0.392518
v 0.080000 -0.390400 -0.405420
v 0.094142 -0.371949 -0.408189
v 0.091547 -0.382793 -0.412157
v 0.094142 -0.383779 -0.401004
v 0.080000 -0.386414 -0.417313
v 0.080000 -0.062524 -0.240064
v 0.100000 -0.080329 -0.229226
v 0.094142 -0.067739 -0.236890
v 0.080000 0.217690 -0.141397
v 0.080000 0.238872 -0.114889
v 0.100000 0.217393 -0.124728
v 0.080000 0.231708 -0.130882
v 0.091547 0.229323 -0.130131
v 0.094139 0.232292 -0.120268
v 0.094197 0.218860 -0.136004
v 0.080000 0.263723 0.098122
v 0.080000 0.256269 0.135438
v 0.100000 0.246617 0.122574
v 0.080000 0.262500 0.117280
v 0.091547 0.259987 0.118790
v 0.094212 0.254243 0.130083
v 0.094144 0.259251 0.109915
v 0.080000 0.207068 0.223297
v 0.100000 0.183346 0.237030
v 0.094142 0.200120 0.227319
v 0.080000 0.200454 0.296051
v 0.080000 0.210353 0.332182
v 0.100000 0.175709 0.326617
v 0.080000 0.202603 0.314884
v 0.091547 0.197615 0.317413
v 0.094086 0.197910 0.327293
v 0.094124 0.192664 0.311118
v 0.080000 0.241694 0.375578
v 0.080000 0.241779 0.408066
v 0.100000 0.225933 0.395841
v 0.080000 0.246569 0.391809
v 0.091547 0.243008 0.392662
v 0.094142 0.237227 0.404361
v 0.094070 0.237807 0.382421
v 0.080000 0.180781 0.493463
v 0.080000 0.158419 0.492865
v 0.100000 0.170113 0.473989
v 0.080000 0.169402 0.500568
v 0.091547 0.169546 0.495178
v 0.094142 0.161858 0.486797
v 0.094142 0.177671 0.487221
v 0.080000 0.080697 0.370730
v 0.100000 0.098996 0.362234
v 0.094142 0.086056 0.368241
v 0.080000 0.046998 0.315969
v 0.100000 0.064346 0.305925
v 0.094142 0.052079 0.313027
v 0.080000 -0.037250 0.189598
v 0.100000 -0.016472 0.184692
v 0.094142 -0.031164 0.188161
v 0.080000 -0.125709 0.054802
v 0.100000 -0.107841 0.045452
v 0.094142 -0.120476 0.052063
v 0.080000 -0.256293 -0.122118
v 0.100000 -0.239196 -0.132524
v 0.094142 -0.251285 -0.125166
v 0.080000 -0.375180 -0.287026
v 0.080000 -0.387566 -0.323238
v 0.100000 -0.367095 -0.309935
v 0.080000 -0.383653 -0.304352
v 0.091547 -0.381076 -0.305215
v 0.094142 -0.381470 -0.316444
v 0.094143 -0.374494 -0.296069
v -0.080000 -0.373669 -0.415582
v -0.080000 -0.390400 -0.405420
v -0.100000 -0.369943 -0.392518
v -0.080000 -0.385785 -0.416676
v -0.091547 -0.382308 -0.411369
v -0.094142 -0.384311 -0.398826
v -0.094161 -0.369707 -0.407178
v -0.100000 -0.080329 -0.229226
v -0.080000 -0.062524 -0.240064
v -0.094142 -0.067739 -0.236890
v -0.080000 0.217690 -0.141397
v -0.100000 0.217393 -0.124728
v -0.080000 0.238872 -0.114889
v -0.094197 0.218860 -0.136004
v -0.091547 0.229323 -0.130131
v -0.094139 0.232292 -0.120268
v -0.080000 0.231708 -0.130882
v -0.080000 0.263723 0.098122
v -0.100000 0.246617 0.122574
v -0.080000 0.256269 0.135438
v -0.094144 0.259251 0.109915
v -0.091547 0.259987 0.118790
v -0.094212 0.254243 0.130083
v -0.080000 0.262500 0.117280
v -0.100000 0.183346 0.237030
v -0.080000 0.207068 0.223297
v -0.094142 0.200120 0.227319
v -0.080000 0.200454 0.296051
v -0.100000 0.175709 0.326617
v -0.080000 0.210353 0.332182
v -0.094124 0.192664 0.311118
v -0.091547 0.197615 0.317413
v -0.094086 0.197910 0.327293
v -0.080000 0.202603 0.314884
v -0.080000 0.241694 0.375578
v -0.100000 0.225933 0.395841
v -0.080000 0.241779 0.408066
v -0.094142 0.236221 0.382339
v -0.091547 0.242667 0.392660
v -0.094142 0.236281 0.405312
v -0.080000 0.247426 0.390983
v -0.080000 0.180781 0.493463
v -0.100000 0.170113 0.473989
v -0.080000 0.158419 0.492865
v -0.094142 0.177671 0.487221
v -0.091547 0.169546 0.495178
v -0.094142 0.161858 0.486797
v -0.080000 0.169402 0.500568
v -0.100000 0.098996 0.362234
v -0.080000 0.080697 0.370730
v -0.094142 0.086056 0.368241
v -0.100000 0.064346 0.305925
v -0.080000 0.046998 0.315969
v -0.094142 0.052079 0.313027
v -0.100000 -0.016472 0.184692
v -0.080000 -0.037250 0.189598
v -0.094142 -0.031164 0.188161
v -0.100000 -0.107841 0.045452
v -0.080000 -0.125709 0.054802
v -0.094142 -0.120476 0.052063
v -0.100000 -0.239196 -0.132524
v -0.080000 -0.256293 -0.122118
v -0.094142 -0.251285 -0.125166
v -0.080000 -0.375180 -0.287026
v -0.100000 -0.367095 -0.309935
v -0.080000 -0.387566 -0.323238
v -0.094143 -0.374494 -0.296069
v -0.091547 -0.381076 -0.305215
v -0.094142 -0.381470 -0.316444
v -0.080000 -0.383653 -0.304352
vn 0.1941 0.3080 -0.9314
vn 0.9810 -0.0902 -0.1719
vn 0.2118 -0.9664 -0.1458
vn 0.7411 0.1659 -0.6506
vn 0.6718 -0.3840 -0.6335
vn 0.7597 -0.6333 -0.1476
vn 0.2455 -0.5128 -0.8227
vn 0.1721 0.4013 -0.8996
vn 0.9781 0.0914 -0.1872
vn 0.6772 0.3018 -0.6711
vn 0.1379 0.4518 -0.8814
vn 0.1683 0.9562 -0.2395
vn 0.9531 0.2231 -0.2046
vn 0.1189 0.7782 -0.6167
vn 0.4983 0.6673 -0.5535
vn 0.6626 0.7111 -0.2352
vn 0.6229 0.3908 -0.6777
vn 0.1733 0.9838 -0.0465
vn 0.1287 0.8993 0.4179
vn 0.9542 0.2887 0.0789
vn 0.1160 0.9749 0.1899
vn 0.4943 0.8479 0.1916
vn 0.6046 0.7299 0.3189
vn 0.6663 0.7457 0.0034
vn 0.1792 0.9320 0.3151
vn 0.9859 0.1639 0.0343
vn 0.7016 0.6778 0.2200
vn 0.2360 0.9718 -0.0001
vn 0.2513 0.8353 -0.4890
vn 0.9920 0.1210 -0.0367
vn 0.2818 0.9245 -0.2567
vn 0.7183 0.6678 -0.1951
vn 0.8152 0.5182 -0.2588
vn 0.8198 0.5700 -0.0541
vn 0.2090 0.8641 -0.4578
vn 0.1801 0.8761 0.4472
vn 0.9704 0.2411 0.0173
vn 0.1747 0.9846 -0.0105
vn 0.5904 0.8070 0.0116
vn 0.6952 0.6541 0.2981
vn 0.7279 0.6274 -0.2768
vn 0.2000 0.6749 0.7102
vn 0.2000 -0.7120 0.6731
vn 0.9781 -0.0056 0.2083
vn 0.2271 -0.0261 0.9735
vn 0.6444 -0.0205 0.7644
vn 0.7385 -0.4549 0.4977
vn 0.7386 0.4274 0.5214
vn 0.1973 -0.8310 0.5202
vn 0.9804 -0.1667 0.1046
vn 0.7074 -0.5990 0.3753
vn 0.1958 -0.8257 0.5291
vn 0.9813 -0.1623 0.1039
vn 0.7097 -0.5932 0.3801
vn 0.1953 -0.8181 0.5409
vn 0.9808 -0.1628 0.1078
vn 0.7072 -0.5897 0.3901
vn 0.1958 -0.8045 0.5607
vn 0.9815 -0.1575 0.1092
vn 0.7105 -0.5774 0.4021
vn 0.1945 -0.7925 0.5780
vn 0.9806 -0.1585 0.1157
vn 0.7057 -0.5724 0.4175
vn 0.1751 -0.8355 0.5209
vn 0.1816 -0.9784 0.0988
vn 0.9674 -0.2398 0.0815
vn 0.1428 -0.9365 0.3203
vn 0.5537 -0.7878 0.2696
vn 0.6838 -0.7234 0.0955
vn 0.6828 -0.6318 0.3670
vn -0.2038 0.2941 -0.9338
vn -0.2137 -0.9628 -0.1655
vn -0.9798 -0.0922 -0.1773
vn -0.2589 -0.5047 -0.8236
vn -0.6810 -0.3727 -0.6303
vn -0.7488 -0.6464 -0.1465
vn -0.7340 0.1793 -0.6551
vn -0.9783 0.0909 -0.1861
vn -0.1706 0.4015 -0.8998
vn -0.6763 0.3022 -0.6718
vn -0.1379 0.4518 -0.8814
vn -0.9531 0.2231 -0.2046
vn -0.1683 0.9562 -0.2395
vn -0.6229 0.3908 -0.6777
vn -0.4983 0.6673 -0.5535
vn -0.6626 0.7111 -0.2352
vn -0.1189 0.7782 -0.6167
vn -0.1733 0.9838 -0.0465
vn -0.9542 0.2887 0.0789
vn -0.1287 0.8993 0.4179
vn -0.6663 0.7457 0.0034
vn -0.4943 0.8479 0.1916
vn -0.6046 0.7299 0.3189
vn -0.1160 0.9749 0.1899
vn -0.9859 0.1639 0.0343
vn -0.1792 0.9320 0.3151
vn -0.7016 0.6778 0.2200
vn -0.2360 0.9718 -0.0001
vn -0.9918 0.1223 -0.0371
vn -0.2632 0.8344 -0.4842
vn -0.8198 0.5700 -0.0541
vn -0.7183 0.6678 -0.1951
vn -0.8153 0.5189 -0.2568
vn -0.2818 0.9245 -0.2567
vn -0.2369 0.8547 -0.4619
vn -0.9685 0.2485 0.0135
vn -0.1914 0.8737 0.4472
vn -0.7540 0.5930 -0.2826
vn -0.6248 0.7808 0.0023
vn -0.7038 0.6424 0.3033
vn -0.2095 0.9774 -0.0267
vn -0.2014 0.6748 0.7100
vn -0.9780 -0.0048 0.2087
vn -0.2000 -0.7120 0.6731
vn -0.7394 0.4271 0.5205
vn -0.6444 -0.0205 0.7644
vn -0.7385 -0.4549 0.4977
vn -0.2271 -0.0261 0.9735
vn -0.9804 -0.1667 0.1046
vn -0.1973 -0.8310 0.5202
vn -0.7074 -0.5990 0.3753
vn -0.9813 -0.1623 0.1039
vn -0.1958 -0.8257 0.5291
vn -0.7097 -0.5932 0.3801
vn -0.9808 -0.1628 0.1078
vn -0.1953 -0.8181 0.5409
vn -0.7072 -0.5897 0.3901
vn -0.9815 -0.1575 0.1092
vn -0.1958 -0.8045 0.5607
vn -0.7105 -0.5774 0.4021
vn -0.9806 -0.1585 0.1157
vn -0.1945 -0.7925 0.5780
vn -0.7057 -0.5724 0.4175
vn -0.1751 -0.8355 0.5209
vn -0.9677 -0.2385 0.0817
vn -0.1755 -0.9794 0.0998
vn -0.6828 -0.6318 0.3670
vn -0.5537 -0.7878 0.2696
vn -0.6832 -0.7238 0.0968
vn -0.1428 -0.9365 0.3203
s 1
f 1//1 4//4 5//5 7//7
f 2//2 6//6 5//5 4//4
f 3//3 7//7 5//5 6//6
f 11//11 14//14 15//15 17//17
f 12//12 16//16 15//15 14//14
f 13//13 17//17 15//15 16//16
f 18//18 21//21 22//22 24//24
f 19//19 23//23 22//22 21//21
f 20//20 24//24 22//22 23//23
f 28//28 31//31 32//32 34//34
f 29//29 33//33 32//32 31//31
f 30//30 34//34 32//32 33//33
f 35//35 38//38 39//39 41//41
f 36//36 40//40 39//39 38//38
f 37//37 41//41 39//39 40//40
f 42//42 45//45 46//46 48//48
f 43//43 47//47 46//46 45//45
f 44//44 48//48 46//46 47//47
f 64//64 67//67 68//68 70//70
f 65//65 69//69 68//68 67//67
f 66//66 70//70 68//68 69//69
f 71//71 74//74 75//75 77//77
f 72//72 76//76 75//75 74//74
f 73//73 77//77 75//75 76//76
f 81//81 84//84 85//85 87//87
f 82//82 86//86 85//85 84//84
f 83//83 87//87 85//85 86//86
f 88//88 91//91 92//92 94//94
f 89//89 93//93 92//92 91//91
f 90//90 94//94 92//92 93//93
f 98//98 101//101 102//102 104//104
f 99//99 103//103 102//102 101//101
f 100//100 104//104 102//102 103//103
f 105//105 108//108 109//109 111//111
f 106//106 110//110 109//109 108//108
f 107//107 111//111 109//109 110//110
f 112//112 115//115 116//116 118//118
f 113//113 117//117 116//116 115//115
f 114//114 118//118 116//116 117//117
f 134//134 137//137 138//138 140//140
f 135//135 139//139 138//138 137//137
f 136//136 140//140 138//138 139//139
f 1//1 8//8 10//10 4//4
f 4//4 10//10 9//9 2//2
f 8//8 11//11 17//17 10//10
f 10//10 17//17 13//13 9//9
f 12//12 18//18 24//24 16//16
f 16//16 24//24 20//20 13//13
f 19//19 25//25 27//27 23//23
f 23//23 27//27 26//26 20//20
f 25//25 28//28 34//34 27//27
f 27//27 34//34 30//30 26//26
f 29//29 35//35 41//41 33//33
f 33//33 41//41 37//37 30//30
f 36//36 42//42 48//48 40//40
f 40//40 48//48 44//44 37//37
f 43//43 49//49 51//51 47//47
f 47//47 51//51 50//50 44//44
f 49//49 52//52 54//54 51//51
f 51//51 54//54 53//53 50//50
f 52//52 55//55 57//57 54//54
f 54//54 57//57 56//56 53//53
f 55//55 58//58 60//60 57//57
f 57//57 60//60 59//59 56//56
f 58//58 61//61 63//63 60//60
f 60//60 63//63 62//62 59//59
f 61//61 64//64 70//70 63//63
f 63//63 70//70 66//66 62//62
f 2//2 66//66 69//69 6//6
f 6//6 69//69 65//65 3//3
f 73//73 78//78 80//80 77//77
f 77//77 80//80 79//79 71//71
f 78//78 82//82 84//84 80//80
f 80//80 84//84 81//81 79//79
f 82//82 89//89 91//91 86//86
f 86//86 91//91 88//88 83//83
f 89//89 95//95 97//97 93//93
f 93//93 97//97 96//96 90//90
f 95//95 99//99 101//101 97//97
f 97//97 101//101 98//98 96//96
f 99//99 106//106 108//108 103//103
f 103//103 108//108 105//105 100//100
f 106//106 113//113 115//115 110//110
f 110//110 115//115 112//112 107//107
f 113//113 119//119 121//121 117//117
f 117//117 121//121 120//120 114//114
f 119//119 122//122 124//124 121//121
f 121//121 124//124 123//123 120//120
f 122//122 125//125 127//127 124//124
f 124//124 127//127 126//126 123//123
f 125//125 128//128 130//130 127//127
f 127//127 130//130 129//129 126//126
f 128//128 131//131 133//133 130//130
f 130//130 133//133 132//132 129//129
f 131//131 135//135 137//137 133//133
f 133//133 137//137 134//134 132//132
f 72//72 136//136 139//139 76//76
f 76//76 139//139 135//135 73//73
f 11//11 81//81 87//87 14//14
f 14//14 87//87 83//83 12//12
f 90//90 19//19 21//21 94//94
f 94//94 21//21 18//18 88//88
f 100//100 29//29 31//31 104//104
f 104//104 31//31 28//28 98//98
f 136//136 65//65 67//67 140//140
f 140//140 67//67 64//64 134//134
f 107//107 36//36 38//38 111//111
f 111//111 38//38 35//35 105//105
f 71//71 1//1 7//7 74//74
f 74//74 7//7 3//3 72//72
f 114//114 43//43 45//45 118//118
f 118//118 45//45 42//42 112//112
f 8//8 1//1 71//71 79//79
f 2//2 9//9 62//62 66//66
f 3//3 65//65 136//136 72//72
f 9//9 13//13 59//59 62//62
f 11//11 8//8 79//79 81//81
f 13//13 20//20 56//56 59//59
f 18//18 12//12 83//83 88//88
f 20//20 26//26 53//53 56//56
f 25//25 19//19 90//90 96//96
f 26//26 30//30 50//50 53//53
f 28//28 25//25 96//96 98//98
f 37//37 44//44 50//50 30//30
f 35//35 29//29 100//100 105//105
f 42//42 36//36 107//107 112//112
f 49//49 43//43 114//114 120//120
f 52//52 49//49 120//120 123//123
f 55//55 52//52 123//123 126//126
f 58//58 55//55 126//126 129//129
f 61//61 58//58 129//129 132//132
f 64//64 61//61 132//132 134//134
f 73//73 135//135 131//131 78//78
f 78//78 131//131 128//128 82//82
f 82//82 128//128 125//125 89//89
f 89//89 125//125 122//122 95//95
f 95//95 122//122 119//119 99//99
f 106//106 99//99 119//119 113//113
