# Blender 4.5.3 LTS
# www.blender.org
o Hacksilver5
v 0.080000 0.425088 -0.074057
v 0.100000 0.407188 -0.083124
v 0.080000 0.414951 -0.101876
v 0.094142 0.419972 -0.077024
v 0.091547 0.422038 -0.088667
v 0.094138 0.413015 -0.096210
v 0.080000 0.425253 -0.089874
v 0.080000 0.242240 0.373338
v 0.080000 0.217523 0.381562
v 0.100000 0.225139 0.362314
v 0.080000 0.231856 0.383567
v 0.091547 0.230633 0.379523
v 0.094142 0.219764 0.375772
v 0.094142 0.237241 0.369957
v 0.080000 0.002993 0.252843
v 0.100000 0.007157 0.231505
v 0.094142 0.004212 0.246594
v 0.080000 -0.304510 0.105410
v 0.100000 -0.300284 0.084018
v 0.094142 -0.303272 0.099145
v 0.080000 -0.509275 -0.095416
v 0.080000 -0.509071 -0.123213
v 0.100000 -0.496007 -0.108036
v 0.080000 -0.515129 -0.109359
v 0.091547 -0.511612 -0.109083
v 0.094142 -0.505396 -0.118624
v 0.094163 -0.505266 -0.099032
v 0.080000 -0.449576 -0.179875
v 0.080000 -0.415531 -0.197830
v 0.100000 -0.424659 -0.175987
v 0.080000 -0.433606 -0.190847
v 0.091547 -0.432149 -0.188574
v 0.094148 -0.421011 -0.190827
v 0.094142 -0.439974 -0.180930
v 0.080000 -0.237112 -0.235791
v 0.100000 -0.241211 -0.215040
v 0.094142 -0.238313 -0.229713
v 0.080000 0.084164 -0.263556
v 0.080000 0.121793 -0.255972
v 0.100000 0.100047 -0.244560
v 0.080000 0.103439 -0.262048
v 0.091547 0.102918 -0.259314
v 0.094139 0.112899 -0.253960
v 0.094138 0.091698 -0.258244
v -0.080000 0.425088 -0.074057
v -0.080000 0.414951 -0.101876
v -0.100000 0.407188 -0.083124
v -0.080000 0.425294 -0.089923
v -0.091547 0.421933 -0.088629
v -0.094142 0.412637 -0.096335
v -0.094142 0.419805 -0.076664
v -0.080000 0.242240 0.373338
v -0.100000 0.225139 0.362314
v -0.080000 0.217523 0.381562
v -0.094142 0.237524 0.369393
v -0.091547 0.230570 0.379333
v -0.094135 0.219166 0.375577
v -0.080000 0.231866 0.383415
v -0.100000 0.007157 0.231505
v -0.080000 0.002993 0.252843
v -0.094142 0.004212 0.246594
v -0.100000 -0.300284 0.084018
v -0.080000 -0.304510 0.105410
v -0.094142 -0.303272 0.099145
v -0.080000 -0.509275 -0.095416
v -0.100000 -0.496007 -0.108036
v -0.080000 -0.509071 -0.123213
v -0.094142 -0.505640 -0.098869
v -0.091547 -0.511654 -0.109083
v -0.094142 -0.505496 -0.118525
v -0.080000 -0.514877 -0.109602
v -0.080000 -0.449576 -0.179875
v -0.100000 -0.424659 -0.175987
v -0.080000 -0.415531 -0.197830
v -0.094142 -0.439974 -0.180930
v -0.091547 -0.432149 -0.188574
v -0.094148 -0.421011 -0.190827
v -0.080000 -0.433606 -0.190847
v -0.100000 -0.241211 -0.215040
v -0.080000 -0.237112 -0.235791
v -0.094142 -0.238313 -0.229713
v -0.080000 0.084164 -0.263556
v -0.100000 0.100047 -0.244560
v -0.080000 0.121793 -0.255972
v -0.094138 0.091698 -0.258244
v -0.091547 0.102918 -0.259314
v -0.094139 0.112899 -0.253960
v -0.080000 0.103439 -0.262048
vn 0.1770 0.9617 0.2094
vn 0.9660 0.2431 -0.0874
vn 0.1780 0.6011 -0.7791
vn 0.6910 0.7143 0.1112
vn 0.5678 0.7737 -0.2812
vn 0.6925 0.4748 -0.5431
vn 0.1642 0.9267 -0.3381
vn 0.1853 0.8213 0.5395
vn 0.1897 -0.3360 0.9225
vn 0.9720 0.0761 0.2223
vn 0.1915 0.3075 0.9321
vn 0.6016 0.2524 0.7579
vn 0.7156 -0.1963 0.6704
vn 0.7108 0.5626 0.4221
vn 0.2038 -0.4654 0.8613
vn 0.9831 -0.0855 0.1619
vn 0.7223 -0.3277 0.6089
vn 0.1921 -0.5571 0.8079
vn 0.9757 -0.1340 0.1734
vn 0.6878 -0.4191 0.5926
vn 0.1666 -0.8108 0.5611
vn 0.1779 -0.7987 -0.5748
vn 0.9644 -0.2643 0.0078
vn 0.1652 -0.9862 -0.0103
vn 0.5640 -0.8258 0.0003
vn 0.6930 -0.6120 -0.3811
vn 0.6782 -0.6264 0.3844
vn 0.1761 -0.6335 -0.7534
vn 0.1717 -0.2648 -0.9489
vn 0.9675 -0.1165 -0.2245
vn 0.1419 -0.4623 -0.8753
vn 0.5519 -0.3872 -0.7386
vn 0.6784 -0.2170 -0.7019
vn 0.6837 -0.4525 -0.5726
vn 0.1933 -0.1422 -0.9708
vn 0.9790 -0.0327 -0.2014
vn 0.6989 -0.1058 -0.7073
vn 0.1784 -0.0213 -0.9837
vn 0.1777 0.4007 -0.8988
vn 0.9688 0.0492 -0.2428
vn 0.1461 0.1954 -0.9698
vn 0.5598 0.1640 -0.8122
vn 0.6872 0.2761 -0.6719
vn 0.6880 0.0059 -0.7257
vn -0.1787 0.9616 0.2085
vn -0.1809 0.6010 -0.7785
vn -0.9654 0.2451 -0.0885
vn -0.1696 0.9256 -0.3385
vn -0.5738 0.7696 -0.2803
vn -0.6947 0.4707 -0.5439
vn -0.6923 0.7126 0.1140
vn -0.1872 0.8193 0.5419
vn -0.9713 0.0773 0.2248
vn -0.1897 -0.3321 0.9240
vn -0.7106 0.5651 0.4192
vn -0.6056 0.2527 0.7546
vn -0.7139 -0.1990 0.6714
vn -0.1950 0.3089 0.9309
vn -0.9832 -0.0853 0.1616
vn -0.2027 -0.4656 0.8614
vn -0.7220 -0.3280 0.6092
vn -0.9760 -0.1329 0.1723
vn -0.1896 -0.5574 0.8083
vn -0.6860 -0.4200 0.5941
vn -0.1580 -0.8146 0.5580
vn -0.9649 -0.2626 0.0057
vn -0.1765 -0.7992 -0.5746
vn -0.6710 -0.6355 0.3819
vn -0.5553 -0.8317 -0.0052
vn -0.6916 -0.6136 -0.3811
vn -0.1574 -0.9874 -0.0168
vn -0.1761 -0.6335 -0.7534
vn -0.9675 -0.1165 -0.2245
vn -0.1717 -0.2648 -0.9489
vn -0.6837 -0.4525 -0.5726
vn -0.5519 -0.3872 -0.7386
vn -0.6784 -0.2170 -0.7019
vn -0.1419 -0.4623 -0.8753
vn -0.9790 -0.0327 -0.2014
vn -0.1933 -0.1422 -0.9708
vn -0.6989 -0.1058 -0.7073
vn -0.1784 -0.0213 -0.9837
vn -0.9688 0.0492 -0.2429
vn -0.1783 0.4006 -0.8987
vn -0.6880 0.0059 -0.7257
vn -0.5598 0.1640 -0.8122
vn -0.6873 0.2761 -0.6718
vn -0.1461 0.1954 -0.9698
s 1
f 1//1 4//4 5//5 7//7
f 2//2 6//6 5//5 4//4
f 3//3 7//7 5//5 6//6
f 8//8 11//11 12//12 14//14
f 9//9 13//13 12//12 11//11
f 10//10 14//14 12//12 13//13
f 21//21 24//24 25//25 27//27
f 22//22 26//26 25//25 24//24
f 23//23 27//27 25//25 26//26
f 28//28 31//31 32//32 34//34
f 29//29 33//33 32//32 31//31
f 30//30 34//34 32//32 33//33
f 38//38 41//41 42//42 44//44
f 39//39 43//43 42//42 41//41
f 40//40 44//44 42//42 43//43
f 45//45 48//48 49//49 51//51
f 46//46 50//50 49//49 48//48
f 47//47 51//51 49//49 50//50
f 52//52 55//55 56//56 58//58
f 53//53 57//57 56//56 55//55
f 54//54 58//58 56//56 57//57
f 65//65 68//68 69//69 71//71
f 66//66 70//70 69//69 68//68
f 67//67 71//71 69//69 70//70
f 72//72 75//75 76//76 78//78
f 73//73 77//77 76//76 75//75
f 74//74 78//78 76//76 77//77
f 82//82 85//85 86//86 88//88
f 83//83 87//87 86//86 85//85
f 84//84 88//88 86//86 87//87
f 1//1 8//8 14//14 4//4
f 4//4 14//14 10//10 2//2
f 9//9 15//15 17//17 13//13
f 13//13 17//17 16//16 10//10
f 15//15 18//18 20//20 17//17
f 17//17 20//20 19//19 16//16
f 18//18 21//21 27//27 20//20
f 20//20 27//27 23//23 19//19
f 22//22 28//28 34//34 26//26
f 26//26 34//34 30//30 23//23
f 29//29 35//35 37//37 33//33
f 33//33 37//37 36//36 30//30
f 35//35 38//38 44//44 37//37
f 37//37 44//44 40//40 36//36
f 2//2 40//40 43//43 6//6
f 6//6 43//43 39//39 3//3
f 47//47 53//53 55//55 51//51
f 51//51 55//55 52//52 45//45
f 53//53 59//59 61//61 57//57
f 57//57 61//61 60//60 54//54
f 59//59 62//62 64//64 61//61
f 61//61 64//64 63//63 60//60
f 62//62 66//66 68//68 64//64
f 64//64 68//68 65//65 63//63
f 66//66 73//73 75//75 70//70
f 70//70 75//75 72//72 67//67
f 73//73 79//79 81//81 77//77
f 77//77 81//81 80//80 74//74
f 79//79 83//83 85//85 81//81
f 81//81 85//85 82//82 80//80
f 46//46 84//84 87//87 50//50
f 50//50 87//87 83//83 47//47
f 38//38 82//82 88//88 41//41
f 41//41 88//88 84//84 39//39
f 28//28 72//72 78//78 31//31
f 31//31 78//78 74//74 29//29
f 67//67 22//22 24//24 71//71
f 71//71 24//24 21//21 65//65
f 8//8 52//52 58//58 11//11
f 11//11 58//58 54//54 9//9
f 45//45 1//1 7//7 48//48
f 48//48 7//7 3//3 46//46
f 1//1 45//45 52//52 8//8
f 10//10 16//16 40//40 2//2
f 39//39 84//84 46//46 3//3
f 9//9 54//54 60//60 15//15
f 40//40 16//16 19//19 36//36
f 15//15 60//60 63//63 18//18
f 36//36 19//19 23//23 30//30
f 18//18 63//63 65//65 21//21
f 22//22 67//67 72//72 28//28
f 29//29 74//74 80//80 35//35
f 35//35 80//80 82//82 38//38
f 53//53 47//47 83//83 59//59
f 83//83 79//79 62//62 59//59
f 79//79 73//73 66//66 62//62
